<svg width="11" height="12" viewBox="0 0 11 12" fill="none" xmlns="http://www.w3.org/2000/svg">
<g id="basil:location-outline">
<g id="Group">
<path id="Vector" fill-rule="evenodd" clip-rule="evenodd" d="M3.22266 5.11099C3.22266 4.55109 3.44508 4.01412 3.84099 3.61821C4.2369 3.2223 4.77387 2.99988 5.33377 2.99988C5.89367 2.99988 6.43064 3.2223 6.82655 3.61821C7.22246 4.01412 7.44488 4.55109 7.44488 5.11099C7.44488 5.67089 7.22246 6.20786 6.82655 6.60377C6.43064 6.99968 5.89367 7.2221 5.33377 7.2221C4.77387 7.2221 4.2369 6.99968 3.84099 6.60377C3.44508 6.20786 3.22266 5.67089 3.22266 5.11099ZM5.33377 3.66654C4.95068 3.66654 4.58328 3.81873 4.31239 4.08961C4.04151 4.3605 3.88932 4.7279 3.88932 5.11099C3.88932 5.49408 4.04151 5.86148 4.31239 6.13237C4.58328 6.40325 4.95068 6.55543 5.33377 6.55543C5.71686 6.55543 6.08426 6.40325 6.35514 6.13237C6.62603 5.86148 6.77821 5.49408 6.77821 5.11099C6.77821 4.7279 6.62603 4.3605 6.35514 4.08961C6.08426 3.81873 5.71686 3.66654 5.33377 3.66654Z" fill="#D5D5D5"/>
<path id="Vector_2" fill-rule="evenodd" clip-rule="evenodd" d="M1.56617 4.60294C1.64214 3.68151 2.06183 2.82235 2.74191 2.19603C3.42199 1.56972 4.31274 1.22204 5.23728 1.22205H5.42928C6.35383 1.22204 7.24457 1.56972 7.92466 2.19603C8.60474 2.82235 9.02443 3.68151 9.10039 4.60294C9.18493 5.62928 8.86786 6.64839 8.21595 7.4456L6.08573 10.0505C5.99456 10.162 5.87977 10.2518 5.74964 10.3135C5.61951 10.3752 5.47729 10.4072 5.33328 10.4072C5.18927 10.4072 5.04706 10.3752 4.91693 10.3135C4.7868 10.2518 4.672 10.162 4.58084 10.0505L2.45062 7.4456C1.79867 6.64841 1.48159 5.62929 1.56617 4.60294ZM5.23728 1.88871C4.48017 1.88883 3.75077 2.17361 3.19387 2.68654C2.63698 3.19947 2.2933 3.90304 2.23106 4.6576C2.16066 5.51176 2.42452 6.35991 2.96706 7.02338L5.09728 9.62871C5.12592 9.66376 5.16199 9.692 5.20288 9.7114C5.24378 9.73079 5.28847 9.74086 5.33373 9.74086C5.37899 9.74086 5.42368 9.73079 5.46457 9.7114C5.50547 9.692 5.54154 9.66376 5.57017 9.62871L7.7004 7.02338C8.24262 6.35977 8.50615 5.51164 8.43551 4.6576C8.37326 3.90297 8.02952 3.19933 7.47253 2.68639C6.91554 2.17345 6.18604 1.88872 5.42884 1.88871H5.23684H5.23728Z" fill="#D5D5D5"/>
</g>
</g>
</svg>
