<svg width="67" height="67" viewBox="0 0 67 67" fill="none" xmlns="http://www.w3.org/2000/svg">
<circle cx="33.5" cy="33.5" r="33.5" fill="#F6F6F6"/>
<path d="M38.125 25.7915V45.7869L31.6346 42.9965L30.4167 42.4723L29.1987 42.9965L22.7083 45.7869V25.7915H38.125ZM44.2917 16.5415H28.8596C27.1637 16.5415 25.7917 17.929 25.7917 19.6248H41.2083C42.9042 19.6248 44.2917 21.0123 44.2917 22.7082V42.7498L47.375 44.2915V19.6248C47.375 17.929 45.9875 16.5415 44.2917 16.5415ZM38.125 22.7082H22.7083C21.0125 22.7082 19.625 24.0957 19.625 25.7915V50.4582L30.4167 45.8332L41.2083 50.4582V25.7915C41.2083 24.0957 39.8208 22.7082 38.125 22.7082Z" fill="#868686"/>
</svg>
