<svg width="67" height="67" viewBox="0 0 67 67" fill="none" xmlns="http://www.w3.org/2000/svg">
<circle cx="33.5" cy="33.5" r="33.5" fill="#F6F6F6"/>
<path d="M18.0833 24.2498C18.0833 24.2498 20.3958 21.1665 25.7917 21.1665C31.1875 21.1665 33.5 24.2498 33.5 24.2498V45.8332C33.5 45.8332 31.1875 44.2915 25.7917 44.2915C20.3958 44.2915 18.0833 45.8332 18.0833 45.8332V24.2498ZM33.5 24.2498C33.5 24.2498 35.8125 21.1665 41.2083 21.1665C46.6042 21.1665 48.9167 24.2498 48.9167 24.2498V45.8332C48.9167 45.8332 46.6042 44.2915 41.2083 44.2915C35.8125 44.2915 33.5 45.8332 33.5 45.8332V24.2498Z" stroke="#868686" stroke-width="3" stroke-linecap="round" stroke-linejoin="round"/>
</svg>
