<svg width="65" height="66" viewBox="0 0 65 66" fill="none" xmlns="http://www.w3.org/2000/svg">
<g filter="url(#filter0_d_6204_24120)">
<path d="M19.9225 9.81951C22.1389 8.14093 24.8447 7.23559 27.625 7.24226C28.405 7.24226 29.0257 7.64851 29.3865 7.92801C29.7895 8.24651 30.1665 8.65276 30.5045 9.05901C30.7442 9.3501 30.8751 9.71546 30.875 10.0925V21.8673H27.3487C26.9654 20.783 26.2111 19.8692 25.2192 19.2874C24.2273 18.7055 23.0616 18.493 21.9282 18.6875C20.7948 18.8819 19.7666 19.4708 19.0253 20.3501C18.2841 21.2293 17.8776 22.3423 17.8776 23.4923C17.8776 24.6423 18.2841 25.7552 19.0253 26.6345C19.7666 27.5137 20.7948 28.1026 21.9282 28.2971C23.0616 28.4915 24.2273 28.279 25.2192 27.6972C26.2111 27.1153 26.9654 26.2015 27.3487 25.1173H30.875V55.716C30.8752 55.9566 30.8219 56.1943 30.719 56.4118C30.6162 56.6293 30.4663 56.8212 30.2803 56.9738C28.7788 58.2023 26.7703 59.2423 24.375 59.2423C20.5205 59.2423 17.6508 57.2988 15.795 54.975C14.4617 53.3193 13.5485 51.3658 13.1332 49.281C11.8706 48.9443 10.6998 48.3279 9.70775 47.4773C7.91375 45.94 6.5 43.4473 6.5 39.7423C6.5 37.932 6.62025 36.2973 6.89 34.8673H17.0625C19.1295 34.8673 20.8325 36.411 21.0925 38.4065C20.0117 38.7976 19.1039 39.5581 18.5293 40.5536C17.9547 41.549 17.7503 42.7155 17.9523 43.847C18.1542 44.9786 18.7495 46.0023 19.6329 46.7376C20.5164 47.4729 21.6312 47.8723 22.7806 47.8655C23.93 47.8586 25.0399 47.4458 25.9146 46.7001C26.7892 45.9543 27.3721 44.9235 27.5605 43.7896C27.7489 42.6558 27.5306 41.4918 26.9442 40.5033C26.3578 39.5147 25.4409 38.7652 24.3555 38.387C24.2185 36.5465 23.3907 34.8259 22.0381 33.5704C20.6854 32.3148 18.9081 31.6171 17.0625 31.6173H7.93325C8.4305 30.6488 9.09675 29.8298 9.9645 29.248C10.184 29.1027 10.4143 28.9745 10.6535 28.8645C9.7305 26.1605 9.971 22.995 10.8615 20.5088C11.4303 18.9098 12.3338 17.3985 13.5753 16.391C14.3943 15.7248 15.3693 15.286 16.4353 15.2015C16.9033 12.9818 18.2195 11.1455 19.9257 9.81951H19.9225ZM34.125 47.8673H36.5625C38.5019 47.8673 40.3619 47.0968 41.7332 45.7255C43.1046 44.3541 43.875 42.4942 43.875 40.5548V34.591C44.9592 34.2077 45.873 33.4534 46.4549 32.4615C47.0368 31.4696 47.2493 30.3039 47.0548 29.1704C46.8603 28.037 46.2714 27.0088 45.3922 26.2676C44.513 25.5264 43.4 25.1198 42.25 25.1198C41.1 25.1198 39.987 25.5264 39.1078 26.2676C38.2286 27.0088 37.6397 28.037 37.4452 29.1704C37.2507 30.3039 37.4632 31.4696 38.0451 32.4615C38.627 33.4534 39.5408 34.2077 40.625 34.591V40.5548C40.625 42.7973 38.805 44.6173 36.5625 44.6173H34.125V10.0925C34.1249 9.71546 34.2558 9.3501 34.4955 9.05901C34.8303 8.65276 35.2105 8.24651 35.6135 7.92801C35.971 7.64851 36.5917 7.24226 37.375 7.24226C40.1553 7.23559 42.8611 8.14093 45.0775 9.81951C46.7837 11.1455 48.1 12.9818 48.5648 15.2015C49.6307 15.2828 50.6058 15.7248 51.4248 16.391C52.6662 17.3985 53.5698 18.9098 54.1385 20.5088C55.029 22.995 55.2695 26.1638 54.3465 28.8613C54.5805 28.9718 54.8112 29.1018 55.0355 29.2513C55.9292 29.846 56.6085 30.6975 57.109 31.7018C58.0938 33.668 58.5 36.411 58.5 39.7423C58.5 43.4505 57.0863 45.94 55.2923 47.4773C54.3002 48.3279 53.1294 48.9443 51.8667 49.281C51.5417 51.0945 50.6318 53.194 49.205 54.975C47.3525 57.2988 44.4795 59.2423 40.625 59.2423C38.233 59.2423 36.2213 58.2023 34.723 56.9738C34.5363 56.8215 34.3859 56.6297 34.2824 56.4122C34.179 56.1947 34.1252 55.9569 34.125 55.716V47.8673ZM22.75 21.8673C22.319 21.8673 21.9057 22.0385 21.601 22.3432C21.2962 22.648 21.125 23.0613 21.125 23.4923C21.125 23.9232 21.2962 24.3366 21.601 24.6413C21.9057 24.9461 22.319 25.1173 22.75 25.1173C23.181 25.1173 23.5943 24.9461 23.899 24.6413C24.2038 24.3366 24.375 23.9232 24.375 23.4923C24.375 23.0613 24.2038 22.648 23.899 22.3432C23.5943 22.0385 23.181 21.8673 22.75 21.8673ZM22.75 41.3673C22.319 41.3673 21.9057 41.5385 21.601 41.8432C21.2962 42.148 21.125 42.5613 21.125 42.9923C21.125 43.4232 21.2962 43.8366 21.601 44.1413C21.9057 44.4461 22.319 44.6173 22.75 44.6173C23.181 44.6173 23.5943 44.4461 23.899 44.1413C24.2038 43.8366 24.375 43.4232 24.375 42.9923C24.375 42.5613 24.2038 42.148 23.899 41.8432C23.5943 41.5385 23.181 41.3673 22.75 41.3673ZM42.25 31.6173C42.681 31.6173 43.0943 31.4461 43.399 31.1413C43.7038 30.8366 43.875 30.4232 43.875 29.9923C43.875 29.5613 43.7038 29.148 43.399 28.8432C43.0943 28.5385 42.681 28.3673 42.25 28.3673C41.819 28.3673 41.4057 28.5385 41.101 28.8432C40.7962 29.148 40.625 29.5613 40.625 29.9923C40.625 30.4232 40.7962 30.8366 41.101 31.1413C41.4057 31.4461 41.819 31.6173 42.25 31.6173Z" fill="#2A72DE" fill-opacity="0.36" shape-rendering="crispEdges"/>
</g>
<defs>
<filter id="filter0_d_6204_24120" x="3.5" y="6.24223" width="58" height="58" filterUnits="userSpaceOnUse" color-interpolation-filters="sRGB">
<feFlood flood-opacity="0" result="BackgroundImageFix"/>
<feColorMatrix in="SourceAlpha" type="matrix" values="0 0 0 0 0 0 0 0 0 0 0 0 0 0 0 0 0 0 127 0" result="hardAlpha"/>
<feOffset dy="2"/>
<feGaussianBlur stdDeviation="1.5"/>
<feComposite in2="hardAlpha" operator="out"/>
<feColorMatrix type="matrix" values="0 0 0 0 0 0 0 0 0 0 0 0 0 0 0 0 0 0 0.25 0"/>
<feBlend mode="normal" in2="BackgroundImageFix" result="effect1_dropShadow_6204_24120"/>
<feBlend mode="normal" in="SourceGraphic" in2="effect1_dropShadow_6204_24120" result="shape"/>
</filter>
</defs>
</svg>
