<svg width="50" height="50" viewBox="0 0 50 50" fill="none" xmlns="http://www.w3.org/2000/svg">
<path opacity="0.5" d="M45.8334 20.8333H4.16675V39.5833C4.16675 41.2409 4.82523 42.8306 5.99733 44.0027C7.16943 45.1748 8.75914 45.8333 10.4167 45.8333H39.5834C41.241 45.8333 42.8307 45.1748 44.0028 44.0027C45.1749 42.8306 45.8334 41.2409 45.8334 39.5833V20.8333ZM14.5834 16.6667C14.0309 16.6667 13.501 16.4472 13.1103 16.0565C12.7196 15.6658 12.5001 15.1359 12.5001 14.5833V6.24999C12.5001 5.69746 12.7196 5.16755 13.1103 4.77685C13.501 4.38615 14.0309 4.16666 14.5834 4.16666C15.1359 4.16666 15.6659 4.38615 16.0566 4.77685C16.4473 5.16755 16.6667 5.69746 16.6667 6.24999V14.5833C16.6667 15.1359 16.4473 15.6658 16.0566 16.0565C15.6659 16.4472 15.1359 16.6667 14.5834 16.6667ZM35.4167 16.6667C34.8642 16.6667 34.3343 16.4472 33.9436 16.0565C33.5529 15.6658 33.3334 15.1359 33.3334 14.5833V6.24999C33.3334 5.69746 33.5529 5.16755 33.9436 4.77685C34.3343 4.38615 34.8642 4.16666 35.4167 4.16666C35.9693 4.16666 36.4992 4.38615 36.8899 4.77685C37.2806 5.16755 37.5001 5.69746 37.5001 6.24999V14.5833C37.5001 15.1359 37.2806 15.6658 36.8899 16.0565C36.4992 16.4472 35.9693 16.6667 35.4167 16.6667Z" fill="#2A72DE"/>
<path d="M39.5834 8.33334H37.5001V14.5833C37.5001 15.1359 37.2806 15.6658 36.8899 16.0565C36.4992 16.4472 35.9693 16.6667 35.4167 16.6667C34.8642 16.6667 34.3343 16.4472 33.9436 16.0565C33.5529 15.6658 33.3334 15.1359 33.3334 14.5833V8.33334H16.6667V14.5833C16.6667 15.1359 16.4473 15.6658 16.0566 16.0565C15.6659 16.4472 15.1359 16.6667 14.5834 16.6667C14.0309 16.6667 13.501 16.4472 13.1103 16.0565C12.7196 15.6658 12.5001 15.1359 12.5001 14.5833V8.33334H10.4167C8.75914 8.33334 7.16943 8.99182 5.99733 10.1639C4.82523 11.336 4.16675 12.9257 4.16675 14.5833V20.8333H45.8334V14.5833C45.8334 12.9257 45.1749 11.336 44.0028 10.1639C42.8307 8.99182 41.241 8.33334 39.5834 8.33334Z" fill="#AFC8EE"/>
</svg>
