<svg width="50" height="50" viewBox="0 0 50 50" fill="none" xmlns="http://www.w3.org/2000/svg">
<path d="M32.4219 25C32.4219 25.6216 32.6688 26.2177 33.1083 26.6573C33.5479 27.0968 34.144 27.3438 34.7656 27.3438C35.3872 27.3438 35.9834 27.0968 36.4229 26.6573C36.8624 26.2177 37.1094 25.6216 37.1094 25C37.1094 24.3784 36.8624 23.7823 36.4229 23.3427C35.9834 22.9032 35.3872 22.6563 34.7656 22.6562C34.144 22.6563 33.5479 22.9032 33.1083 23.3427C32.6688 23.7823 32.4219 24.3784 32.4219 25ZM12.8906 25C12.8906 25.6216 13.1376 26.2177 13.5771 26.6573C14.0166 27.0968 14.6128 27.3438 15.2344 27.3438C15.856 27.3438 16.4521 27.0968 16.8917 26.6573C17.3312 26.2177 17.5781 25.6216 17.5781 25C17.5781 24.3784 17.3312 23.7823 16.8917 23.3427C16.4521 22.9032 15.856 22.6563 15.2344 22.6562C14.6128 22.6563 14.0166 22.9032 13.5771 23.3427C13.1376 23.7823 12.8906 24.3784 12.8906 25Z" fill="#90B4EA"/>
<path d="M45.1758 16.5234C44.0723 13.9014 42.4903 11.5479 40.4737 9.52637C38.4712 7.51658 36.0939 5.91905 33.4766 4.82422C30.791 3.69629 27.9395 3.125 25 3.125H24.9024C21.9434 3.13965 19.0772 3.72559 16.3819 4.87793C13.7869 5.98399 11.432 7.58436 9.44828 9.58984C7.4512 11.6064 5.88382 13.9502 4.79984 16.5625C3.67679 19.2676 3.11038 22.1436 3.12503 25.1025C3.1416 28.4935 3.94384 31.8345 5.46878 34.8633V42.2852C5.46878 42.8809 5.70542 43.4522 6.12665 43.8734C6.54787 44.2946 7.11918 44.5312 7.71488 44.5312H15.1416C18.1704 46.0562 21.5114 46.8584 24.9024 46.875H25.0049C27.9297 46.875 30.7666 46.3086 33.4375 45.2002C36.0417 44.1184 38.41 42.5395 40.4102 40.5518C42.4268 38.5547 44.0137 36.2207 45.1221 33.6182C46.2744 30.9229 46.8604 28.0566 46.875 25.0977C46.8897 22.124 46.3135 19.2383 45.1758 16.5234ZM37.7979 37.9102C34.375 41.2988 29.834 43.1641 25 43.1641H24.917C21.9727 43.1494 19.0479 42.417 16.4649 41.04L16.0547 40.8203H9.17972V33.9453L8.95999 33.5352C7.58304 30.9521 6.85062 28.0273 6.83597 25.083C6.81644 20.2148 8.67679 15.6445 12.0899 12.2021C15.4981 8.75977 20.0537 6.85547 24.9219 6.83594H25.0049C27.4463 6.83594 29.8145 7.30957 32.0459 8.24707C34.2237 9.16016 36.1768 10.4736 37.8565 12.1533C39.5313 13.8281 40.8496 15.7861 41.7627 17.9639C42.71 20.2197 43.1836 22.6123 43.1739 25.083C43.1446 29.9463 41.2354 34.502 37.7979 37.9102Z" fill="#AFC8EE"/>
<path d="M22.6562 25C22.6563 25.6216 22.9032 26.2177 23.3427 26.6573C23.7823 27.0968 24.3784 27.3438 25 27.3438C25.6216 27.3438 26.2177 27.0968 26.6573 26.6573C27.0968 26.2177 27.3438 25.6216 27.3438 25C27.3438 24.3784 27.0968 23.7823 26.6573 23.3427C26.2177 22.9032 25.6216 22.6563 25 22.6562C24.3784 22.6563 23.7823 22.9032 23.3427 23.3427C22.9032 23.7823 22.6563 24.3784 22.6562 25Z" fill="#90B4EA"/>
</svg>
