<svg width="65" height="52" viewBox="0 0 65 52" fill="none" xmlns="http://www.w3.org/2000/svg">
<g clip-path="url(#clip0_6204_23856)">
<g filter="url(#filter0_di_6204_23856)">
<path d="M52.7313 12.9898L47.8969 8.15547C46.8269 7.09498 45.3815 6.49999 43.875 6.5H20.8406C19.3375 6.5 17.8852 7.09922 16.8188 8.15547L11.9844 12.9898H0V38.9594H6.5C8.2875 38.9594 9.72969 37.5172 9.73984 35.7398H10.6641L19.2563 43.4992C22.3945 46.0484 26.7516 46.1094 29.9813 43.8852C31.2508 44.982 32.6219 45.5 34.1555 45.5C36.0039 45.5 37.7406 44.7484 39.1117 43.0625C41.3563 43.9461 44.007 43.3266 45.6117 41.3563L48.2727 38.0758C48.8414 37.375 49.1969 36.5727 49.3797 35.7398H55.2602C55.2703 37.5172 56.7227 38.9594 58.5 38.9594H65V12.9898H52.7313ZM4.875 35.7094C3.98125 35.7094 3.25 34.9781 3.25 34.0844C3.25 33.1906 3.98125 32.4594 4.875 32.4594C5.76875 32.4594 6.5 33.1906 6.5 34.0844C6.5 34.9883 5.76875 35.7094 4.875 35.7094ZM44.4844 35.0086L41.8336 38.2789C41.5492 38.6242 41.0414 38.6852 40.6859 38.4008L38.2586 36.4305L35.2117 40.1375C34.6023 40.8789 33.6883 40.625 33.3836 40.3813L29.6461 37.182L28.0617 39.132C26.65 40.8687 24.0805 41.1328 22.4453 39.8023L12.5633 30.8648H9.75V17.8547H14.0055L20.2719 11.5984C20.475 11.5172 20.6477 11.4461 20.8508 11.3648H26.6094L22.6789 14.9703C19.693 17.7023 19.5203 22.3133 22.232 25.2586C23.7352 26.9039 28.4477 29.443 32.5406 25.7055L33.3734 24.9438L44.3625 33.8609C44.7078 34.1453 44.7586 34.6633 44.4844 35.0086ZM55.25 30.8648H48.2219C47.9883 30.5805 47.7242 30.3164 47.4398 30.0828L37.0094 21.6125L38.2789 20.4547C38.9391 19.8453 38.9898 18.8195 38.3805 18.1594L37.2734 16.9711C36.6641 16.3109 35.6383 16.2703 34.9781 16.8695L29.3719 22.0086C28.407 22.8922 26.7617 22.9633 25.8578 22.0086C24.9133 21.0031 24.9945 19.4594 25.9797 18.5656L32.6422 12.4617C33.3937 11.7711 34.3687 11.3953 35.3844 11.3953L43.8852 11.375C44.0984 11.375 44.3016 11.4563 44.4438 11.6086L50.7102 17.8648H55.25V30.8648ZM60.125 35.7094C59.2313 35.7094 58.5 34.9781 58.5 34.0844C58.5 33.1906 59.2313 32.4594 60.125 32.4594C61.0187 32.4594 61.75 33.1906 61.75 34.0844C61.75 34.9883 61.0187 35.7094 60.125 35.7094Z" fill="#2A72DE"/>
</g>
</g>
<defs>
<filter id="filter0_di_6204_23856" x="-3" y="4.5" width="71" height="46" filterUnits="userSpaceOnUse" color-interpolation-filters="sRGB">
<feFlood flood-opacity="0" result="BackgroundImageFix"/>
<feColorMatrix in="SourceAlpha" type="matrix" values="0 0 0 0 0 0 0 0 0 0 0 0 0 0 0 0 0 0 127 0" result="hardAlpha"/>
<feOffset dy="2"/>
<feGaussianBlur stdDeviation="1.5"/>
<feComposite in2="hardAlpha" operator="out"/>
<feColorMatrix type="matrix" values="0 0 0 0 0 0 0 0 0 0 0 0 0 0 0 0 0 0 0.25 0"/>
<feBlend mode="normal" in2="BackgroundImageFix" result="effect1_dropShadow_6204_23856"/>
<feBlend mode="normal" in="SourceGraphic" in2="effect1_dropShadow_6204_23856" result="shape"/>
<feColorMatrix in="SourceAlpha" type="matrix" values="0 0 0 0 0 0 0 0 0 0 0 0 0 0 0 0 0 0 127 0" result="hardAlpha"/>
<feOffset dx="1" dy="-2"/>
<feGaussianBlur stdDeviation="1"/>
<feComposite in2="hardAlpha" operator="arithmetic" k2="-1" k3="1"/>
<feColorMatrix type="matrix" values="0 0 0 0 0 0 0 0 0 0 0 0 0 0 0 0 0 0 0.25 0"/>
<feBlend mode="normal" in2="shape" result="effect2_innerShadow_6204_23856"/>
</filter>
<clipPath id="clip0_6204_23856">
<rect width="65" height="52" fill="white"/>
</clipPath>
</defs>
</svg>
