<svg width="73" height="73" viewBox="0 0 73 73" fill="none" xmlns="http://www.w3.org/2000/svg">
<path d="M30.7965 53.2479H58.2476V33.6292H30.7965V53.2479ZM10.6455 61.9167C9.42884 61.9167 8.36426 61.4604 7.45176 60.5479C6.53926 59.6354 6.08301 58.5708 6.08301 57.3542V17.8125C6.08301 16.5958 6.53926 15.5312 7.45176 14.6187C8.36426 13.7062 9.42884 13.25 10.6455 13.25H62.3538C63.5705 13.25 64.6351 13.7062 65.5476 14.6187C66.4601 15.5312 66.9163 16.5958 66.9163 17.8125V57.3542C66.9163 58.5708 66.4601 59.6354 65.5476 60.5479C64.6351 61.4604 63.5705 61.9167 62.3538 61.9167H10.6455ZM10.6455 57.3542H62.3538V17.8125H10.6455V57.3542ZM10.6455 57.3542V17.8125V57.3542Z" fill="#202020"/>
</svg>
