<svg width="20" height="20" viewBox="0 0 20 20" fill="none" xmlns="http://www.w3.org/2000/svg">
<g id="fluent:call-24-regular">
<rect width="20" height="20" rx="5" fill="white"/>
<path id="Vector" d="M6.1125 4.08198L6.85275 3.75665C7.25822 3.57811 7.7148 3.5532 8.13729 3.68655C8.55978 3.81991 8.91932 4.10243 9.14882 4.48139L9.90472 5.72973C10.1021 6.0557 10.1924 6.43526 10.163 6.81518C10.1337 7.1951 9.98616 7.55629 9.74111 7.84809L8.86892 8.88612C8.84345 8.91645 8.82966 8.95489 8.83006 8.9945C8.83312 9.2595 9.07265 9.74688 9.56836 10.4048C9.92774 10.8828 10.2414 11.2114 10.4947 11.3855C10.6721 11.5075 10.7634 11.5271 10.7996 11.512L12.0738 10.9448C12.4217 10.7899 12.8094 10.7478 13.1825 10.8244C13.5556 10.9009 13.8954 11.0923 14.1542 11.3717L15.1405 12.4381C15.4407 12.7622 15.6131 13.1843 15.6256 13.626C15.6382 14.0676 15.4901 14.4988 15.2088 14.8395L14.6924 15.4643C14.4186 15.7955 14.0637 16.0502 13.6623 16.2035C13.2609 16.3568 12.8266 16.4036 12.4018 16.3392C10.526 16.055 8.71243 14.7236 6.94654 12.3791C5.17892 10.0314 4.39996 7.91823 4.64907 6.03405C4.7049 5.61031 4.86894 5.20809 5.12538 4.86617C5.38181 4.52424 5.72135 4.25422 6.1125 4.08198ZM6.51361 4.99342C6.27885 5.09659 6.07461 5.25849 5.92059 5.46352C5.76658 5.66856 5.66797 5.9098 5.63428 6.16402C5.42597 7.7484 6.11606 9.6218 7.74152 11.7803C9.36525 13.9357 10.9731 15.1158 12.5513 15.3556C12.8062 15.3942 13.0668 15.366 13.3076 15.274C13.5484 15.1819 13.7613 15.0291 13.9255 14.8303L14.4412 14.2056C14.5692 14.0507 14.6366 13.8547 14.6309 13.6539C14.6253 13.4531 14.5469 13.2612 14.4104 13.1138L13.4242 12.0481C13.3065 11.9209 13.152 11.8338 12.9823 11.7989C12.8125 11.7641 12.6362 11.7833 12.4779 11.8538L11.2007 12.4227C10.4582 12.7463 9.68352 12.2122 8.77338 11.0035C8.15962 10.1896 7.84074 9.54018 7.83538 9.0054C7.83211 8.72771 7.92889 8.45917 8.10668 8.2462L8.97887 7.20817C9.09019 7.07547 9.15717 6.91126 9.17042 6.73856C9.18367 6.56585 9.14252 6.39334 9.05274 6.24522L8.2975 4.9968C8.19317 4.82454 8.02973 4.69613 7.83768 4.63553C7.64562 4.57492 7.43808 4.58626 7.25378 4.66744L6.51361 4.99342Z" fill="#0C1631"/>
</g>
</svg>
