<svg width="61" height="56" viewBox="0 0 61 56" fill="none" xmlns="http://www.w3.org/2000/svg">
<g filter="url(#filter0_di_6204_24399)">
<path d="M52.1665 12.7006V7.28392C52.1665 4.29662 49.7371 1.86725 46.7498 1.86725H11.5415C7.06192 1.86725 3.4165 5.51267 3.4165 9.99225V42.4922C3.4165 48.4533 8.27525 50.6172 11.5415 50.6172H52.1665C55.1538 50.6172 57.5832 48.1879 57.5832 45.2006V18.1172C57.5832 15.13 55.1538 12.7006 52.1665 12.7006ZM46.7498 37.0756H41.3332V26.2422H46.7498V37.0756ZM11.5415 12.7006C10.8442 12.6694 10.1857 12.3704 9.70329 11.8659C9.22086 11.3614 8.95161 10.6903 8.95161 9.99225C8.95161 9.29421 9.22086 8.62307 9.70329 8.11858C10.1857 7.61408 10.8442 7.31511 11.5415 7.28392H46.7498V12.7006H11.5415Z" fill="#2A72DE"/>
</g>
<defs>
<filter id="filter0_di_6204_24399" x="0.416504" y="-0.132751" width="60.1665" height="55.75" filterUnits="userSpaceOnUse" color-interpolation-filters="sRGB">
<feFlood flood-opacity="0" result="BackgroundImageFix"/>
<feColorMatrix in="SourceAlpha" type="matrix" values="0 0 0 0 0 0 0 0 0 0 0 0 0 0 0 0 0 0 127 0" result="hardAlpha"/>
<feOffset dy="2"/>
<feGaussianBlur stdDeviation="1.5"/>
<feComposite in2="hardAlpha" operator="out"/>
<feColorMatrix type="matrix" values="0 0 0 0 0 0 0 0 0 0 0 0 0 0 0 0 0 0 0.25 0"/>
<feBlend mode="normal" in2="BackgroundImageFix" result="effect1_dropShadow_6204_24399"/>
<feBlend mode="normal" in="SourceGraphic" in2="effect1_dropShadow_6204_24399" result="shape"/>
<feColorMatrix in="SourceAlpha" type="matrix" values="0 0 0 0 0 0 0 0 0 0 0 0 0 0 0 0 0 0 127 0" result="hardAlpha"/>
<feOffset dx="1" dy="-2"/>
<feGaussianBlur stdDeviation="1"/>
<feComposite in2="hardAlpha" operator="arithmetic" k2="-1" k3="1"/>
<feColorMatrix type="matrix" values="0 0 0 0 0 0 0 0 0 0 0 0 0 0 0 0 0 0 0.25 0"/>
<feBlend mode="normal" in2="shape" result="effect2_innerShadow_6204_24399"/>
</filter>
</defs>
</svg>
