<svg width="554" height="426" viewBox="0 0 554 426" fill="none" xmlns="http://www.w3.org/2000/svg">
<path d="M453.731 44.2402H281.584V174.2H453.731V44.2402Z" fill="white"/>
<path d="M333.28 150.371V150.748H331.279V152.444H332.968V152.82H331.279V154.912H330.824V150.371H333.28ZM335.841 154.964C335.507 154.964 335.206 154.89 334.938 154.743C334.673 154.592 334.463 154.379 334.307 154.107C334.156 153.829 334.08 153.507 334.08 153.139C334.08 152.771 334.158 152.45 334.314 152.177C334.47 151.9 334.682 151.688 334.951 151.541C335.219 151.389 335.52 151.313 335.853 151.313C336.187 151.313 336.488 151.389 336.756 151.541C337.029 151.688 337.242 151.9 337.393 152.177C337.549 152.45 337.627 152.771 337.627 153.139C337.627 153.502 337.549 153.823 337.393 154.1C337.237 154.377 337.023 154.592 336.75 154.743C336.477 154.89 336.174 154.964 335.841 154.964ZM335.841 154.568C336.074 154.568 336.291 154.516 336.49 154.412C336.689 154.304 336.85 154.143 336.971 153.931C337.096 153.715 337.159 153.45 337.159 153.139C337.159 152.827 337.099 152.565 336.977 152.353C336.856 152.136 336.696 151.976 336.497 151.872C336.297 151.764 336.081 151.709 335.847 151.709C335.613 151.709 335.397 151.764 335.197 151.872C334.998 151.976 334.838 152.136 334.717 152.353C334.6 152.565 334.541 152.827 334.541 153.139C334.541 153.45 334.6 153.715 334.717 153.931C334.838 154.143 334.996 154.304 335.191 154.412C335.39 154.516 335.607 154.568 335.841 154.568ZM339.17 151.995C339.27 151.774 339.422 151.603 339.625 151.482C339.833 151.361 340.086 151.3 340.385 151.3V151.774H340.262C339.933 151.774 339.668 151.863 339.469 152.041C339.27 152.218 339.17 152.515 339.17 152.931V154.912H338.716V151.365H339.17V151.995ZM344.768 151.748H343.943V154.912H343.489V151.748H342.995V151.365H343.489V151.118C343.489 150.733 343.586 150.449 343.781 150.267C343.98 150.085 344.301 149.994 344.742 149.994V150.384C344.448 150.384 344.24 150.441 344.119 150.553C344.002 150.666 343.943 150.854 343.943 151.118V151.365H344.768V151.748ZM345.971 150.696C345.88 150.696 345.802 150.664 345.738 150.599C345.673 150.534 345.64 150.454 345.64 150.358C345.64 150.263 345.673 150.185 345.738 150.124C345.802 150.059 345.88 150.027 345.971 150.027C346.062 150.027 346.14 150.059 346.205 150.124C346.27 150.185 346.303 150.263 346.303 150.358C346.303 150.454 346.27 150.534 346.205 150.599C346.14 150.664 346.062 150.696 345.971 150.696ZM346.199 151.365V154.912H345.744V151.365H346.199ZM347.943 150.105V154.912H347.488V150.105H347.943ZM349.687 150.105V154.912H349.233V150.105H349.687ZM351.204 150.696C351.113 150.696 351.035 150.664 350.971 150.599C350.906 150.534 350.873 150.454 350.873 150.358C350.873 150.263 350.906 150.185 350.971 150.124C351.035 150.059 351.113 150.027 351.204 150.027C351.295 150.027 351.373 150.059 351.438 150.124C351.503 150.185 351.536 150.263 351.536 150.358C351.536 150.454 351.503 150.534 351.438 150.599C351.373 150.664 351.295 150.696 351.204 150.696ZM351.432 151.365V154.912H350.977V151.365H351.432ZM354.384 151.3C354.809 151.3 355.155 151.432 355.424 151.696C355.692 151.956 355.827 152.335 355.827 152.833V154.912H355.378V152.885C355.378 152.5 355.281 152.205 355.086 152.002C354.895 151.798 354.633 151.696 354.3 151.696C353.958 151.696 353.685 151.805 353.481 152.021C353.278 152.238 353.176 152.556 353.176 152.976V154.912H352.721V151.365H353.176V151.969C353.289 151.753 353.451 151.588 353.663 151.476C353.875 151.359 354.116 151.3 354.384 151.3ZM358.58 151.313C358.913 151.313 359.203 151.391 359.45 151.547C359.697 151.703 359.875 151.9 359.983 152.138V151.365H360.438V155.003C360.438 155.328 360.366 155.616 360.223 155.867C360.085 156.118 359.89 156.311 359.639 156.445C359.387 156.584 359.102 156.653 358.781 156.653C358.326 156.653 357.947 156.545 357.644 156.328C357.345 156.112 357.159 155.817 357.086 155.445H357.534C357.612 155.692 357.759 155.889 357.976 156.036C358.196 156.183 358.465 156.257 358.781 156.257C359.011 156.257 359.216 156.207 359.398 156.107C359.58 156.012 359.723 155.869 359.827 155.679C359.931 155.488 359.983 155.263 359.983 155.003V154.126C359.87 154.369 359.691 154.57 359.444 154.73C359.201 154.886 358.913 154.964 358.58 154.964C358.255 154.964 357.963 154.888 357.703 154.737C357.447 154.585 357.246 154.371 357.099 154.094C356.956 153.816 356.884 153.496 356.884 153.132C356.884 152.768 356.956 152.45 357.099 152.177C357.246 151.9 357.447 151.688 357.703 151.541C357.963 151.389 358.255 151.313 358.58 151.313ZM359.983 153.139C359.983 152.853 359.924 152.602 359.807 152.385C359.691 152.169 359.53 152.002 359.327 151.885C359.128 151.768 358.907 151.709 358.664 151.709C358.413 151.709 358.188 151.766 357.989 151.878C357.789 151.991 357.631 152.156 357.514 152.372C357.402 152.584 357.345 152.838 357.345 153.132C357.345 153.422 357.402 153.678 357.514 153.899C357.631 154.115 357.789 154.282 357.989 154.399C358.188 154.512 358.413 154.568 358.664 154.568C358.907 154.568 359.128 154.509 359.327 154.392C359.53 154.275 359.691 154.109 359.807 153.892C359.924 153.676 359.983 153.424 359.983 153.139ZM364.005 150.696C363.914 150.696 363.837 150.664 363.772 150.599C363.707 150.534 363.674 150.454 363.674 150.358C363.674 150.263 363.707 150.185 363.772 150.124C363.837 150.059 363.914 150.027 364.005 150.027C364.096 150.027 364.174 150.059 364.239 150.124C364.304 150.185 364.337 150.263 364.337 150.358C364.337 150.454 364.304 150.534 364.239 150.599C364.174 150.664 364.096 150.696 364.005 150.696ZM364.233 151.365V154.912H363.778V151.365H364.233ZM367.185 151.3C367.61 151.3 367.956 151.432 368.225 151.696C368.493 151.956 368.628 152.335 368.628 152.833V154.912H368.179V152.885C368.179 152.5 368.082 152.205 367.887 152.002C367.696 151.798 367.434 151.696 367.101 151.696C366.759 151.696 366.486 151.805 366.282 152.021C366.079 152.238 365.977 152.556 365.977 152.976V154.912H365.522V151.365H365.977V151.969C366.09 151.753 366.252 151.588 366.464 151.476C366.677 151.359 366.917 151.3 367.185 151.3ZM371.29 151.748H370.465V154.912H370.01V151.748H369.516V151.365H370.01V151.118C370.01 150.733 370.107 150.449 370.302 150.267C370.502 150.085 370.822 149.994 371.264 149.994V150.384C370.969 150.384 370.761 150.441 370.64 150.553C370.523 150.666 370.465 150.854 370.465 151.118V151.365H371.29V151.748ZM373.818 154.964C373.485 154.964 373.184 154.89 372.915 154.743C372.651 154.592 372.441 154.379 372.285 154.107C372.133 153.829 372.058 153.507 372.058 153.139C372.058 152.771 372.136 152.45 372.291 152.177C372.447 151.9 372.66 151.688 372.928 151.541C373.197 151.389 373.498 151.313 373.831 151.313C374.165 151.313 374.466 151.389 374.734 151.541C375.007 151.688 375.219 151.9 375.371 152.177C375.527 152.45 375.604 152.771 375.604 153.139C375.604 153.502 375.527 153.823 375.371 154.1C375.215 154.377 375 154.592 374.728 154.743C374.455 154.89 374.152 154.964 373.818 154.964ZM373.818 154.568C374.052 154.568 374.268 154.516 374.468 154.412C374.667 154.304 374.827 154.143 374.948 153.931C375.074 153.715 375.137 153.45 375.137 153.139C375.137 152.827 375.076 152.565 374.955 152.353C374.834 152.136 374.673 151.976 374.474 151.872C374.275 151.764 374.058 151.709 373.825 151.709C373.591 151.709 373.374 151.764 373.175 151.872C372.976 151.976 372.815 152.136 372.694 152.353C372.577 152.565 372.519 152.827 372.519 153.139C372.519 153.45 372.577 153.715 372.694 153.931C372.815 154.143 372.974 154.304 373.168 154.412C373.368 154.516 373.584 154.568 373.818 154.568ZM377.148 151.995C377.248 151.774 377.399 151.603 377.603 151.482C377.811 151.361 378.064 151.3 378.363 151.3V151.774H378.239C377.91 151.774 377.646 151.863 377.447 152.041C377.248 152.218 377.148 152.515 377.148 152.931V154.912H376.693V151.365H377.148V151.995ZM383.529 151.3C383.945 151.3 384.283 151.432 384.543 151.696C384.807 151.956 384.939 152.335 384.939 152.833V154.912H384.491V152.885C384.491 152.5 384.398 152.205 384.211 152.002C384.025 151.798 383.772 151.696 383.451 151.696C383.118 151.696 382.851 151.807 382.652 152.028C382.453 152.249 382.353 152.569 382.353 152.989V154.912H381.905V152.885C381.905 152.5 381.812 152.205 381.626 152.002C381.44 151.798 381.184 151.696 380.859 151.696C380.526 151.696 380.259 151.807 380.06 152.028C379.861 152.249 379.761 152.569 379.761 152.989V154.912H379.307V151.365H379.761V151.976C379.874 151.755 380.034 151.588 380.242 151.476C380.45 151.359 380.682 151.3 380.937 151.3C381.245 151.3 381.513 151.374 381.743 151.521C381.977 151.668 382.146 151.885 382.249 152.171C382.345 151.889 382.507 151.675 382.737 151.528C382.971 151.376 383.235 151.3 383.529 151.3ZM386.001 153.132C386.001 152.768 386.072 152.45 386.215 152.177C386.362 151.9 386.564 151.688 386.819 151.541C387.079 151.389 387.371 151.313 387.696 151.313C388.034 151.313 388.324 151.391 388.567 151.547C388.814 151.703 388.991 151.902 389.099 152.145V151.365H389.554V154.912H389.099V154.126C388.987 154.369 388.807 154.57 388.56 154.73C388.318 154.886 388.028 154.964 387.69 154.964C387.369 154.964 387.079 154.888 386.819 154.737C386.564 154.585 386.362 154.371 386.215 154.094C386.072 153.816 386.001 153.496 386.001 153.132ZM389.099 153.139C389.099 152.853 389.041 152.602 388.924 152.385C388.807 152.169 388.647 152.002 388.443 151.885C388.244 151.768 388.023 151.709 387.781 151.709C387.53 151.709 387.304 151.766 387.105 151.878C386.906 151.991 386.748 152.156 386.631 152.372C386.518 152.584 386.462 152.838 386.462 153.132C386.462 153.422 386.518 153.678 386.631 153.899C386.748 154.115 386.906 154.282 387.105 154.399C387.304 154.512 387.53 154.568 387.781 154.568C388.023 154.568 388.244 154.509 388.443 154.392C388.647 154.275 388.807 154.109 388.924 153.892C389.041 153.676 389.099 153.424 389.099 153.139ZM391.443 151.748V153.951C391.443 154.167 391.484 154.317 391.567 154.399C391.649 154.481 391.794 154.522 392.002 154.522H392.418V154.912H391.931C391.61 154.912 391.372 154.838 391.216 154.691C391.06 154.54 390.982 154.293 390.982 153.951V151.748H390.488V151.365H390.982V150.475H391.443V151.365H392.418V151.748H391.443ZM393.655 150.696C393.564 150.696 393.486 150.664 393.421 150.599C393.356 150.534 393.324 150.454 393.324 150.358C393.324 150.263 393.356 150.185 393.421 150.124C393.486 150.059 393.564 150.027 393.655 150.027C393.746 150.027 393.824 150.059 393.889 150.124C393.954 150.185 393.986 150.263 393.986 150.358C393.986 150.454 393.954 150.534 393.889 150.599C393.824 150.664 393.746 150.696 393.655 150.696ZM393.882 151.365V154.912H393.428V151.365H393.882ZM396.724 154.964C396.391 154.964 396.09 154.89 395.821 154.743C395.557 154.592 395.347 154.379 395.191 154.107C395.04 153.829 394.964 153.507 394.964 153.139C394.964 152.771 395.042 152.45 395.198 152.177C395.354 151.9 395.566 151.688 395.834 151.541C396.103 151.389 396.404 151.313 396.737 151.313C397.071 151.313 397.372 151.389 397.64 151.541C397.913 151.688 398.125 151.9 398.277 152.177C398.433 152.45 398.511 152.771 398.511 153.139C398.511 153.502 398.433 153.823 398.277 154.1C398.121 154.377 397.907 154.592 397.634 154.743C397.361 154.89 397.058 154.964 396.724 154.964ZM396.724 154.568C396.958 154.568 397.175 154.516 397.374 154.412C397.573 154.304 397.734 154.143 397.855 153.931C397.98 153.715 398.043 153.45 398.043 153.139C398.043 152.827 397.983 152.565 397.861 152.353C397.74 152.136 397.58 151.976 397.381 151.872C397.181 151.764 396.965 151.709 396.731 151.709C396.497 151.709 396.281 151.764 396.081 151.872C395.882 151.976 395.722 152.136 395.601 152.353C395.484 152.565 395.425 152.827 395.425 153.139C395.425 153.45 395.484 153.715 395.601 153.931C395.722 154.143 395.88 154.304 396.075 154.412C396.274 154.516 396.491 154.568 396.724 154.568ZM401.263 151.3C401.687 151.3 402.034 151.432 402.302 151.696C402.571 151.956 402.705 152.335 402.705 152.833V154.912H402.257V152.885C402.257 152.5 402.159 152.205 401.964 152.002C401.774 151.798 401.512 151.696 401.178 151.696C400.836 151.696 400.563 151.805 400.36 152.021C400.156 152.238 400.054 152.556 400.054 152.976V154.912H399.6V151.365H400.054V151.969C400.167 151.753 400.329 151.588 400.542 151.476C400.754 151.359 400.994 151.3 401.263 151.3Z" fill="#1A2E35"/>
<path d="M260.521 187.871C247.133 140.418 207.393 142.112 207.393 142.112C207.393 142.112 217.327 125.164 213.873 111.562C210.418 97.9567 173.704 104.554 173.704 104.554C173.704 104.554 136.989 97.9567 133.535 111.562C130.08 125.168 140.014 142.112 140.014 142.112C140.014 142.112 100.278 140.418 86.8863 187.871C73.4979 235.323 114.096 312.333 114.096 312.333H173.704H233.311C233.311 312.329 273.909 235.323 260.521 187.871Z" fill="#1E1814"/>
<path d="M421.968 312.33H99.957V322.562H421.968V312.33Z" fill="#1E1814"/>
<path d="M293.08 225.533L292.478 221.07C284.265 227.841 275.156 230.654 268.646 231.82C263.362 232.763 259.793 232.621 259.793 232.621L261.196 237.095L273.085 274.975L295.806 245.736L293.08 225.533Z" fill="#F2B3C1"/>
<path d="M362.183 277.812V267.534L295.804 245.736L273.084 274.975L359.821 295.286C361.619 295.708 363.475 295.777 365.296 295.466C373.47 294.094 394.902 287.749 395.04 258.951L362.183 277.812Z" fill="#F2B3C1"/>
<path d="M285.389 275.984C294.706 275.984 302.259 268.432 302.259 259.116C302.259 249.8 294.706 242.248 285.389 242.248C276.072 242.248 268.52 249.8 268.52 259.116C268.52 268.432 276.072 275.984 285.389 275.984Z" fill="#F2B3C1"/>
<path d="M293.08 225.533L261.196 237.095L259.793 232.621C259.793 232.621 263.362 232.763 268.646 231.82C275.16 230.654 284.265 227.841 292.478 221.07L293.08 225.533Z" fill="#F2B3C1"/>
<path d="M279.914 276.573L317.054 252.287L294.514 279.993L279.914 276.573Z" fill="#F2B3C1"/>
<path d="M202.412 207.642C201.779 207.266 157.777 181.742 139.772 171.299C135.647 173.645 131.87 176.7 128.956 180.684C117.527 196.309 118.57 223.8 133.415 253.764L149.844 270.555C182.28 270.555 202.412 207.642 202.412 207.642Z" fill="#FFAE01"/>
<path d="M268.646 231.826C276.053 230.503 286.819 227.045 295.802 218.063C295.802 218.063 264.129 169.422 254.019 163.625C243.909 157.825 224.673 161.034 224.673 161.034L174.31 163.648C174.31 163.648 154.726 162.805 139.773 171.304C125.511 183.211 122.443 192.412 122.443 207.747C122.443 223.081 133.416 253.765 133.416 253.765C136.069 259.121 139.16 264.553 142.702 270.008C142.702 270.008 144.915 293.095 129.506 302.713L139.677 312.332H284.806L259.793 232.627C259.793 232.627 263.366 232.769 268.646 231.826Z" fill="#FFAE01"/>
<mask id="mask0_2162_34816" style="mask-type:luminance" maskUnits="userSpaceOnUse" x="121" y="160" width="175" height="153">
<path d="M174.311 163.645C174.311 163.645 142.427 162.269 128.958 180.681C115.489 199.094 119.339 234 142.703 270.005C142.703 270.005 144.915 293.091 129.51 302.71L139.682 312.328H284.815L259.794 232.627C259.794 232.627 280.409 233.455 295.803 218.063C295.803 218.063 264.134 169.422 254.024 163.622C243.913 157.825 224.674 161.03 224.674 161.03L174.311 163.645Z" fill="white"/>
</mask>
<g mask="url(#mask0_2162_34816)">
<path d="M58.4428 335.849L58.1016 335.669C65.8271 321.082 71.4899 314.588 76.9649 308.305C82.4245 302.037 88.072 295.558 95.7784 281.013C103.481 266.464 105.67 258.153 107.783 250.118C109.903 242.059 112.096 233.725 119.821 219.138C127.547 204.551 133.21 198.057 138.685 191.774C144.144 185.51 149.792 179.031 157.494 164.482C165.197 149.937 167.386 141.626 169.499 133.587C171.619 125.529 173.812 117.194 181.538 102.611C189.263 88.0242 194.926 81.53 200.401 75.2467C205.861 68.9825 211.508 62.5037 219.211 47.9551L219.552 48.1353C211.826 62.7222 206.167 69.2164 200.692 75.4997C195.233 81.7639 189.585 88.2427 181.883 102.791C174.18 117.336 171.991 125.647 169.878 133.687C167.758 141.745 165.565 150.079 157.84 164.666C150.114 179.253 144.455 185.747 138.98 192.031C133.52 198.295 127.873 204.774 120.167 219.322C112.46 233.871 110.275 242.182 108.162 250.217C106.042 258.276 103.849 266.61 96.1235 281.197C88.3979 295.784 82.7351 302.278 77.2601 308.561C71.7967 314.826 66.1492 321.304 58.4428 335.849Z" fill="#757D02"/>
<path d="M85.1889 350.011L84.8477 349.831C92.5732 335.244 98.236 328.75 103.711 322.467C109.171 316.202 114.818 309.72 122.524 295.175C130.227 280.626 132.416 272.315 134.529 264.28C136.649 256.221 138.842 247.887 146.568 233.3C154.293 218.713 159.952 212.219 165.431 205.936C170.891 199.672 176.538 193.189 184.241 178.644C191.943 164.099 194.132 155.788 196.245 147.749C198.365 139.691 200.558 131.356 208.284 116.769C216.009 102.182 221.668 95.6882 227.147 89.4049C232.607 83.1407 238.254 76.6619 245.957 62.1133L246.298 62.2935C238.572 76.8804 232.913 83.3746 227.438 89.6579C221.979 95.9221 216.331 102.401 208.629 116.95C200.926 131.494 198.737 139.806 196.624 147.845C194.504 155.903 192.311 164.237 184.586 178.824C176.86 193.411 171.201 199.905 165.722 206.189C160.263 212.453 154.615 218.936 146.913 233.48C139.206 248.029 137.021 256.34 134.908 264.376C132.788 272.434 130.595 280.768 122.87 295.355C115.144 309.942 109.481 316.436 104.006 322.72C98.5389 328.988 92.8952 335.466 85.1889 350.011Z" fill="#757D02"/>
<path d="M138.681 378.337L138.34 378.157C146.065 363.57 151.728 357.076 157.203 350.793C162.663 344.525 168.31 338.046 176.017 323.501C183.723 308.953 185.908 300.641 188.021 292.606C190.141 284.548 192.334 276.213 200.06 261.626C207.785 247.039 213.444 240.545 218.923 234.262C224.383 227.998 230.03 221.519 237.733 206.97C245.435 192.426 247.625 184.114 249.737 176.075C251.857 168.017 254.05 159.682 261.776 145.096C269.501 130.509 275.16 124.014 280.639 117.731C286.099 111.467 291.746 104.988 299.449 90.4395L299.79 90.6196C292.065 105.207 286.406 111.701 280.931 117.984C275.471 124.248 269.823 130.727 262.121 145.276C254.418 159.82 252.229 168.132 250.117 176.171C247.996 184.229 245.803 192.564 238.078 207.15C230.352 221.737 224.693 228.232 219.214 234.515C213.755 240.779 208.107 247.258 200.405 261.807C192.698 276.355 190.513 284.666 188.401 292.702C186.28 300.76 184.087 309.094 176.362 323.681C168.636 338.268 162.973 344.762 157.498 351.046C152.031 357.31 146.384 363.789 138.681 378.337Z" fill="#757D02"/>
<path d="M111.935 364.175L111.594 363.995C119.319 349.408 124.982 342.914 130.457 336.631C135.917 330.363 141.564 323.884 149.271 309.339C156.977 294.79 159.162 286.479 161.275 278.444C163.395 270.386 165.588 262.051 173.314 247.464C181.039 232.877 186.698 226.383 192.173 220.1C197.633 213.836 203.28 207.353 210.983 192.808C218.685 178.263 220.875 169.952 222.987 161.913C225.107 153.855 227.3 145.52 235.026 130.933C242.751 116.346 248.41 109.852 253.889 103.569C259.349 97.3048 264.996 90.826 272.699 76.2773L273.04 76.4575C265.315 91.0445 259.656 97.5387 254.181 103.822C248.721 110.086 243.074 116.565 235.371 131.114C227.668 145.658 225.479 153.97 223.367 162.009C221.246 170.067 219.053 178.401 211.328 192.988C203.602 207.575 197.943 214.07 192.465 220.353C187.005 226.617 181.357 233.1 173.655 247.644C165.949 262.193 163.763 270.504 161.651 278.54C159.53 286.598 157.337 294.932 149.612 309.519C141.886 324.106 136.223 330.6 130.748 336.884C125.285 343.148 119.637 349.627 111.935 364.175Z" fill="#757D02"/>
<path d="M165.423 392.498L165.082 392.317C172.808 377.73 178.47 371.236 183.945 364.953C189.405 358.689 195.052 352.206 202.759 337.661C210.461 323.113 212.651 314.801 214.763 306.766C216.883 298.708 219.076 290.374 226.802 275.787C234.527 261.2 240.186 254.705 245.665 248.422C251.125 242.158 256.772 235.679 264.475 221.131C272.177 206.586 274.367 198.274 276.479 190.235C278.599 182.177 280.792 173.843 288.518 159.26C296.244 144.673 301.903 138.178 307.378 131.895C312.837 125.631 318.485 119.148 326.187 104.604L326.528 104.784C318.803 119.371 313.144 125.865 307.669 132.148C302.209 138.412 296.562 144.891 288.859 159.44C281.157 173.985 278.967 182.296 276.855 190.335C274.735 198.393 272.542 206.728 264.816 221.315C257.091 235.902 251.432 242.396 245.953 248.679C240.493 254.943 234.846 261.422 227.143 275.971C219.441 290.519 217.251 298.831 215.139 306.866C213.019 314.924 210.826 323.258 203.1 337.845C195.375 352.432 189.712 358.927 184.237 365.21C178.777 371.47 173.13 377.949 165.423 392.498Z" fill="#757D02"/>
<path d="M192.169 406.66L191.828 406.479C199.554 391.893 205.216 385.398 210.691 379.115C216.151 372.847 221.799 366.368 229.505 351.823C237.211 337.275 239.397 328.963 241.509 320.928C243.629 312.87 245.823 304.536 253.548 289.949C261.274 275.362 266.933 268.867 272.411 262.584C277.871 256.32 283.519 249.841 291.225 235.293C298.927 220.748 301.117 212.436 303.229 204.397C305.349 196.339 307.542 188.005 315.268 173.418C322.994 158.831 328.653 152.337 334.127 146.053C339.587 139.789 345.235 133.31 352.937 118.762L353.278 118.942C345.553 133.529 339.894 140.023 334.419 146.306C328.959 152.57 323.312 159.049 315.609 173.598C307.907 188.143 305.717 196.454 303.605 204.493C301.485 212.551 299.292 220.886 291.566 235.469C283.841 250.056 278.182 256.55 272.707 262.833C267.247 269.098 261.599 275.576 253.897 290.125C246.191 304.674 244.005 312.985 241.893 321.02C239.772 329.078 237.579 337.413 229.854 352C222.128 366.587 216.466 373.081 210.991 379.364C205.519 385.632 199.876 392.111 192.169 406.66Z" fill="#757D02"/>
<path d="M382.793 250.477C368.205 242.752 361.71 237.094 355.426 231.62C349.161 226.161 342.682 220.514 328.132 212.812C313.586 205.11 305.273 202.921 297.234 200.809C289.174 198.689 280.839 196.496 266.255 188.771C251.666 181.046 245.172 175.388 238.888 169.91C232.623 164.451 226.139 158.804 211.593 151.102C197.043 143.396 188.731 141.211 180.695 139.099C172.636 136.979 164.301 134.786 149.712 127.061C135.124 119.336 128.629 113.674 122.345 108.2C116.08 102.741 109.597 97.0937 95.0508 89.3881L95.231 89.0469C109.819 96.7716 116.314 102.434 122.598 107.908C128.863 113.367 135.346 119.014 149.893 126.72C164.443 134.426 172.755 136.611 180.791 138.723C188.85 140.843 197.185 143.036 211.773 150.761C226.362 158.485 232.857 164.144 239.141 169.622C245.405 175.081 251.889 180.728 266.435 188.434C280.981 196.136 289.293 198.325 297.333 200.437C305.392 202.557 313.727 204.75 328.316 212.474C342.904 220.199 349.399 225.858 355.683 231.332C361.948 236.791 368.427 242.438 382.977 250.14L382.793 250.477Z" fill="#757D02"/>
<path d="M368.631 277.217C354.043 269.493 347.548 263.834 341.264 258.36C334.999 252.901 328.516 247.254 313.97 239.548C299.423 231.846 291.111 229.657 283.071 227.545C275.012 225.425 266.677 223.232 252.089 215.507C237.5 207.783 231.005 202.12 224.722 196.646C218.457 191.187 211.973 185.54 197.427 177.838C182.877 170.136 174.565 167.947 166.529 165.835C158.47 163.715 150.135 161.522 135.546 153.797C120.958 146.073 114.463 140.41 108.179 134.936C101.914 129.477 95.431 123.83 80.8848 116.124L81.065 115.783C95.6534 123.508 102.148 129.17 108.432 134.645C114.697 140.104 121.18 145.751 135.726 153.456C150.277 161.162 158.589 163.347 166.625 165.459C174.684 167.579 183.019 169.772 197.607 177.497C212.196 185.222 218.691 190.88 224.975 196.355C231.239 201.814 237.719 207.461 252.269 215.162C266.815 222.864 275.127 225.053 283.167 227.165C291.226 229.285 299.561 231.478 314.146 239.203C328.734 246.928 335.229 252.586 341.513 258.065C347.778 263.524 354.257 269.171 368.807 276.872L368.631 277.217Z" fill="#757D02"/>
<path d="M340.301 330.702C325.713 322.977 319.218 317.319 312.934 311.844C306.669 306.385 300.19 300.738 285.64 293.036C271.093 285.335 262.781 283.146 254.741 281.033C246.682 278.913 238.347 276.72 223.759 268.996C209.17 261.271 202.675 255.613 196.391 250.138C190.127 244.679 183.643 239.032 169.097 231.326C154.547 223.625 146.235 221.436 138.199 219.323C130.14 217.203 121.805 215.011 107.216 207.286C92.6278 199.561 86.133 193.899 79.849 188.424C73.5804 182.965 67.1009 177.318 52.5547 169.613L52.7349 169.271C67.3233 176.996 73.8181 182.659 80.1021 188.133C86.3668 193.592 92.8502 199.239 107.396 206.945C121.946 214.646 130.259 216.835 138.295 218.948C146.354 221.068 154.689 223.261 169.277 230.985C183.866 238.71 190.361 244.368 196.645 249.847C202.909 255.306 209.393 260.953 223.939 268.655C238.485 276.356 246.797 278.545 254.837 280.658C262.896 282.778 271.231 284.97 285.816 292.695C300.404 300.42 306.899 306.078 313.183 311.553C319.448 317.012 325.927 322.659 340.478 330.361L340.301 330.702Z" fill="#757D02"/>
<path d="M354.465 303.96C339.877 296.235 333.382 290.576 327.098 285.102C320.833 279.643 314.35 273.996 299.804 266.29C285.257 258.589 276.945 256.4 268.905 254.287C260.846 252.167 252.511 249.974 237.923 242.25C223.334 234.525 216.839 228.863 210.556 223.388C204.291 217.929 197.807 212.282 183.261 204.58C168.715 196.875 160.399 194.69 152.363 192.577C144.304 190.457 135.969 188.264 121.38 180.54C106.792 172.815 100.297 167.153 94.0131 161.678C87.7483 156.219 81.265 150.572 66.7188 142.867L66.8989 142.525C81.4874 150.25 87.9822 155.912 94.2661 161.387C100.531 166.846 107.014 172.493 121.56 180.198C136.111 187.904 144.423 190.089 152.459 192.202C160.518 194.322 168.853 196.514 183.441 204.239C198.03 211.964 204.525 217.622 210.809 223.101C217.073 228.56 223.553 234.207 238.103 241.908C252.653 249.61 260.965 251.799 269.001 253.912C277.06 256.032 285.395 258.224 299.98 265.949C314.568 273.674 321.063 279.332 327.347 284.811C333.612 290.27 340.091 295.917 354.641 303.618L354.465 303.96Z" fill="#757D02"/>
<path d="M326.137 357.446C311.549 349.721 305.054 344.063 298.77 338.588C292.505 333.129 286.022 327.482 271.476 319.781C256.929 312.079 248.617 309.89 240.577 307.777C232.518 305.657 224.183 303.465 209.598 295.74C195.01 288.015 188.515 282.357 182.231 276.878C175.967 271.419 169.487 265.772 154.937 258.071C140.387 250.369 132.075 248.18 124.039 246.068C115.98 243.948 107.644 241.755 93.056 234.03C78.4676 226.305 71.9728 220.643 65.6889 215.168C59.4203 209.709 52.9408 204.062 38.3945 196.357L38.5747 196.016C53.1631 203.74 59.658 209.403 65.9419 214.877C72.2105 220.336 78.69 225.983 93.2362 233.689C107.786 241.39 116.098 243.579 124.135 245.692C132.194 247.812 140.529 250.005 155.117 257.729C169.706 265.454 176.2 271.113 182.484 276.587C188.749 282.046 195.232 287.693 209.779 295.399C224.325 303.1 232.637 305.289 240.677 307.402C248.736 309.522 257.071 311.715 271.66 319.439C286.248 327.164 292.743 332.823 299.027 338.297C305.292 343.756 311.771 349.403 326.321 357.105L326.137 357.446Z" fill="#757D02"/>
<path d="M311.975 384.186C297.386 376.461 290.892 370.803 284.608 365.329C278.343 359.87 271.863 354.223 257.313 346.521C242.767 338.819 234.455 336.63 226.415 334.518C218.356 332.398 210.021 330.205 195.432 322.48C180.844 314.755 174.349 309.097 168.065 303.622C161.8 298.163 155.317 292.516 140.771 284.811C126.221 277.109 117.909 274.92 109.873 272.808C101.814 270.688 93.4784 268.495 78.89 260.77C64.3016 253.045 57.8029 247.383 51.5228 241.909C45.2581 236.45 38.7748 230.803 24.2285 223.097L24.4087 222.756C38.9971 230.481 45.4919 236.143 51.7759 241.617C58.0407 247.076 64.524 252.723 79.0702 260.429C93.6203 268.135 101.932 270.32 109.969 272.432C118.028 274.552 126.363 276.745 140.951 284.47C155.54 292.194 162.034 297.853 168.318 303.331C174.583 308.79 181.066 314.437 195.613 322.139C210.159 329.841 218.471 332.03 226.511 334.142C234.57 336.262 242.905 338.455 257.49 346.18C272.078 353.904 278.573 359.563 284.857 365.037C291.122 370.496 297.601 376.143 312.151 383.845L311.975 384.186Z" fill="#757D02"/>
</g>
<path d="M268.643 231.825C263.36 232.769 259.79 232.627 259.79 232.627L248.246 191.68L268.643 231.825Z" fill="#1E1814"/>
<path d="M202.415 207.641C202.415 207.641 182.282 270.554 149.847 270.554L133.414 253.759L150.395 279.349C150.399 279.349 185.166 285.72 202.415 207.641Z" fill="#1E1814"/>
<path d="M202.412 207.832C202.378 207.832 202.347 207.824 202.316 207.805L158.271 182.219C158.179 182.166 158.149 182.047 158.202 181.955C158.256 181.863 158.375 181.832 158.467 181.886L202.512 207.471C202.604 207.525 202.635 207.644 202.581 207.736C202.543 207.797 202.477 207.832 202.412 207.832Z" fill="#1E1814"/>
<path d="M229.281 180.681L187.225 188.655C185.715 181.505 174.309 163.644 174.309 163.644C180.547 162.548 183.955 157.123 185.818 151.656C187.935 145.442 188.05 139.182 188.05 139.182L203.029 147.976C202.757 151.756 203.968 154.462 205.947 156.391C211.878 162.191 224.672 161.03 224.672 161.03L229.281 180.681Z" fill="#F2B3C1"/>
<path d="M205.951 156.391C205.046 156.747 204.08 157.016 203.056 157.196C195.699 158.495 189.66 156.418 185.822 151.656C187.939 145.442 188.054 139.182 188.054 139.182L203.033 147.976C202.757 151.756 203.972 154.462 205.951 156.391Z" fill="#F2B3C1"/>
<path d="M221.505 136.005C220.773 138.34 219.876 140.59 218.772 142.638C215.9 147.97 211.644 151.93 205.368 152.467C187.16 154.02 178.618 136.159 191.627 110.14L224.611 108.859C224.607 108.856 225.385 123.642 221.505 136.005Z" fill="#F2B3C1"/>
<path d="M186.09 134.63C191.261 133.99 194.935 129.28 194.295 124.108C193.655 118.937 188.944 115.264 183.772 115.904C178.601 116.544 174.927 121.255 175.567 126.426C176.207 131.597 180.918 135.27 186.09 134.63Z" fill="#F2B3C1"/>
<path d="M214.715 139.37C214.676 139.37 214.642 139.359 214.607 139.34L209.661 136.043C209.573 135.985 209.55 135.863 209.608 135.774C209.665 135.686 209.784 135.663 209.876 135.721L214.481 138.792C214.247 136.48 213.277 125.504 215.815 122.966C218.664 120.118 221.689 122.936 221.719 122.962C221.796 123.035 221.8 123.158 221.727 123.235C221.654 123.311 221.532 123.315 221.455 123.242C221.344 123.135 218.671 120.658 216.087 123.238C213.434 125.891 214.891 139.025 214.906 139.16C214.914 139.232 214.879 139.305 214.814 139.347C214.784 139.363 214.749 139.37 214.715 139.37Z" fill="#1E1814"/>
<path d="M217.962 128.472C217.843 129.557 217.241 130.381 216.616 130.312C215.991 130.243 215.577 129.308 215.696 128.223C215.815 127.138 216.417 126.314 217.042 126.383C217.671 126.452 218.081 127.387 217.962 128.472Z" fill="#1E1814"/>
<path d="M217.807 127.441C217.305 127.441 216.914 127.277 216.891 127.269C216.795 127.227 216.749 127.116 216.791 127.016C216.833 126.916 216.944 126.874 217.044 126.916C217.052 126.92 217.849 127.25 218.559 126.886C219.068 126.621 219.421 126.061 219.605 125.218C219.628 125.114 219.732 125.045 219.835 125.072C219.939 125.095 220.004 125.199 219.981 125.302C219.77 126.264 219.352 126.912 218.731 127.231C218.413 127.388 218.091 127.441 217.807 127.441Z" fill="#1E1814"/>
<path d="M207.284 127.071C207.139 128.153 206.514 128.961 205.889 128.877C205.264 128.793 204.877 127.846 205.026 126.765C205.172 125.684 205.797 124.875 206.422 124.959C207.043 125.044 207.43 125.99 207.284 127.071Z" fill="#1E1814"/>
<path d="M207.219 126.037C206.686 126.037 206.272 125.849 206.245 125.838C206.15 125.792 206.107 125.681 206.153 125.581C206.199 125.485 206.314 125.443 206.41 125.485C206.418 125.489 207.208 125.842 207.925 125.497C208.442 125.247 208.807 124.695 209.014 123.86C209.04 123.756 209.144 123.695 209.247 123.718C209.351 123.745 209.412 123.848 209.389 123.952C209.152 124.906 208.715 125.546 208.09 125.845C207.787 125.991 207.488 126.037 207.219 126.037Z" fill="#1E1814"/>
<path d="M209.767 121.052C209.663 121.052 209.579 120.971 209.575 120.868C209.567 120.73 209.368 117.529 206.12 116.927C202.865 116.321 201.646 118.307 201.596 118.391C201.543 118.483 201.424 118.514 201.332 118.46C201.24 118.406 201.209 118.288 201.263 118.196C201.274 118.173 202.654 115.888 206.189 116.547C209.74 117.21 209.958 120.814 209.958 120.849C209.962 120.956 209.882 121.044 209.774 121.052C209.774 121.052 209.77 121.052 209.767 121.052Z" fill="#1E1814"/>
<path d="M199.3 141.702C199.158 141.702 199.016 141.687 198.874 141.656C198.406 141.553 198.038 141.277 197.781 140.832C196.723 139.003 199.33 135.457 199.442 135.308C199.507 135.223 199.626 135.204 199.71 135.269C199.794 135.335 199.814 135.453 199.748 135.538C199.721 135.572 197.18 139.03 198.111 140.64C198.314 140.993 198.59 141.204 198.951 141.281C199.975 141.507 201.301 140.587 201.313 140.579C201.401 140.518 201.52 140.541 201.581 140.625C201.642 140.713 201.623 140.832 201.535 140.893C201.489 140.932 200.377 141.702 199.3 141.702Z" fill="#1E1814"/>
<path d="M181.913 130.721C181.813 130.721 181.733 130.648 181.721 130.549C181.706 130.388 181.365 126.566 183.473 126.063C183.857 125.971 184.229 126.04 184.585 126.263C185.371 126.753 185.931 127.934 186.272 128.889C186.146 125.661 185.59 120.405 183.91 120.225C181.537 119.976 180.736 123.073 180.728 123.104C180.701 123.207 180.598 123.269 180.494 123.246C180.391 123.219 180.329 123.115 180.352 123.012C180.36 122.977 181.25 119.558 183.949 119.845C186.61 120.129 186.686 129.28 186.686 130.323C186.686 130.422 186.613 130.503 186.514 130.514C186.418 130.526 186.326 130.461 186.303 130.365C186.295 130.334 185.624 127.375 184.374 126.592C184.106 126.424 183.838 126.374 183.558 126.443C181.771 126.868 182.097 130.48 182.101 130.518C182.112 130.625 182.032 130.717 181.928 130.729C181.928 130.721 181.921 130.721 181.913 130.721Z" fill="#1E1814"/>
<path d="M200.112 131.951C200.112 133.941 198.498 135.555 196.508 135.555C194.518 135.555 192.904 133.941 192.904 131.951C192.904 129.962 194.518 128.348 196.508 128.348C198.498 128.344 200.112 129.962 200.112 131.951Z" fill="#E391A7"/>
<path d="M221.505 136.006C220.773 138.34 219.876 140.591 218.772 142.638C217.276 142.197 216.188 140.813 216.188 139.18C216.188 137.19 217.798 135.576 219.791 135.576C220.409 135.576 220.995 135.733 221.505 136.006Z" fill="#E391A7"/>
<path d="M234.506 117.194C230.933 111.562 230.047 94.3799 217.985 89.0205C205.92 83.6611 195.273 87.7822 192.899 91.083C192.899 91.083 182.145 88.3343 174.312 98.3669C166.475 108.4 158.857 141.054 187.662 143.631C186.382 141.104 185.607 138.099 185.415 134.679C185.258 134.687 185.101 134.691 184.94 134.691C179.73 134.691 175.505 130.466 175.505 125.256C175.505 121.093 178.204 117.562 181.946 116.308C181.946 116.308 183.341 127.583 197.726 125.275C212.112 122.967 218.537 105.386 224.668 113.491C224.591 118.838 224.043 127.94 221.509 136.009C221.018 137.573 220.451 139.099 219.799 140.552C219.799 140.556 219.795 140.56 219.795 140.564C219.795 140.564 227.225 149.615 235.748 141.514C244.264 133.41 238.079 122.825 234.506 117.194Z" fill="#E35757"/>
<path d="M224.937 104.437C223.798 102.451 221.352 101.788 219.201 101.799C216.732 101.811 214.355 102.723 212.273 104C207.875 106.699 204.904 110.981 201.162 114.435C199.191 116.252 196.987 117.786 194.452 118.702C191.914 119.622 189.162 119.963 186.474 119.649C183.951 119.354 181.336 118.388 179.761 116.298C178.162 114.182 177.736 111.318 177.982 108.734C178.541 102.877 182.981 97.9812 188.797 96.9768C189.043 96.9346 188.939 96.5627 188.694 96.6049C183.771 97.456 179.676 101.086 178.177 105.84C177.395 108.32 177.284 111.073 178.012 113.58C178.71 115.992 180.274 117.92 182.559 118.982C184.887 120.063 187.578 120.308 190.108 120.067C192.75 119.814 195.33 118.986 197.612 117.625C202.163 114.907 205.153 110.414 209.037 106.921C211.238 104.943 213.822 103.199 216.732 102.493C219.335 101.861 223.093 102.01 224.599 104.629C224.73 104.847 225.063 104.652 224.937 104.437Z" fill="#1E1814"/>
<path d="M225.012 112.941C224.969 115.924 225.667 118.895 227.024 121.552C228.458 124.366 230.636 126.501 233.002 128.544C235.344 130.564 237.786 132.658 239.04 135.564C239.669 137.02 239.96 138.707 239.562 140.267C239.186 141.743 238.12 142.844 236.686 143.334C233.354 144.477 230.26 142.295 228.194 139.857C228.033 139.669 227.761 139.942 227.922 140.129C229.762 142.299 232.346 144.281 235.352 144.005C236.598 143.89 237.832 143.415 238.73 142.525C239.784 141.479 240.171 139.972 240.121 138.523C240.014 135.406 238.055 132.707 235.896 130.614C233.439 128.23 230.567 126.267 228.593 123.419C226.472 120.356 225.349 116.66 225.399 112.937C225.403 112.692 225.015 112.692 225.012 112.941Z" fill="#1E1814"/>
<path d="M225.185 125.606C226.124 129.306 227.773 132.798 230.031 135.877C230.176 136.076 230.51 135.884 230.364 135.681C228.125 132.626 226.492 129.175 225.56 125.503C225.495 125.261 225.123 125.365 225.185 125.606Z" fill="#1E1814"/>
<path d="M173.633 110.43C171.793 114.617 170.389 119.106 170.412 123.721C170.432 127.57 171.547 131.439 173.898 134.521C175.155 136.169 176.746 137.538 178.61 138.454C178.832 138.561 179.027 138.232 178.805 138.121C175.5 136.495 173.146 133.451 171.896 130.032C170.462 126.11 170.566 121.843 171.497 117.818C172.073 115.345 172.943 112.949 173.963 110.626C174.062 110.4 173.733 110.2 173.633 110.43Z" fill="#1E1814"/>
<path d="M196.05 94.1102C201.798 89.3527 209.953 88.3061 216.697 91.5072C218.537 92.3813 220.228 93.5352 221.712 94.9306C221.892 95.0993 222.164 94.8271 221.984 94.6584C216.451 89.4524 208.254 87.8423 201.18 90.6408C199.221 91.4152 197.4 92.4963 195.778 93.838C195.587 93.9952 195.859 94.2674 196.05 94.1102Z" fill="#1E1814"/>
<path d="M186.492 89.4378C193.943 89.4378 199.984 83.1627 199.984 75.422C199.984 67.6813 193.943 61.4062 186.492 61.4062C179.041 61.4062 173 67.6813 173 75.422C173 83.1627 179.041 89.4378 186.492 89.4378Z" fill="#E35757"/>
<path d="M189.02 63.8834C195.817 63.9486 202.266 69.4613 202.22 76.5075C202.201 79.678 200.621 82.7947 197.93 84.5237C195.373 86.1683 192.022 86.1913 189.453 84.5428C188.061 83.6496 187.068 82.304 186.585 80.7245C186.129 79.2294 185.872 77.1477 187.582 76.3772C188.855 75.806 190.381 76.1893 191.27 77.2436C192.309 78.478 192.482 80.2798 192.183 81.8094C191.585 84.8533 189.254 87.4257 186.386 88.5413C183.184 89.7872 179.458 89.2007 176.605 87.3605C173.822 85.5664 171.897 82.6183 171.057 79.4479C170.34 76.7299 170.406 73.387 172.265 71.1098C172.71 70.5692 173.243 70.1245 173.852 69.7833C174.067 69.6607 173.875 69.3271 173.657 69.4498C170.912 70.9948 170.041 74.3799 170.291 77.3318C170.578 80.759 172.261 84.1595 174.811 86.4673C177.51 88.9093 181.329 90.1093 184.921 89.3732C188.161 88.71 191.006 86.3561 192.171 83.2471C193.149 80.6364 192.819 76.2468 189.361 75.7676C188.123 75.5951 186.696 76.059 186.125 77.2474C185.738 78.0563 185.822 79.0032 185.976 79.8581C186.144 80.7935 186.47 81.7098 186.957 82.5302C188.579 85.252 191.968 86.5516 195.035 86.0571C198.294 85.5319 200.917 82.9327 202.013 79.8965C203.267 76.4309 202.431 72.4746 200.384 69.492C198.356 66.5363 195.124 64.4623 191.615 63.7645C190.76 63.592 189.89 63.5077 189.02 63.5C188.771 63.4962 188.771 63.8796 189.02 63.8834Z" fill="#1E1814"/>
<path d="M182.354 132.497C182.354 132.497 180.728 126.624 183.301 125.643C185.873 124.661 183.975 132.217 183.975 132.217C183.975 132.217 186.82 127.165 189.493 129.028C192.165 130.887 184.992 133.141 184.992 133.141C184.992 133.141 190.539 136.285 187.902 138.593C185.264 140.9 183.638 134.878 183.638 134.878C183.638 134.878 184.044 142.442 181.065 141.468C178.09 140.494 181.943 135.215 181.943 135.215C181.943 135.215 176.867 136.68 176.936 133.141C177.009 129.603 182.354 132.497 182.354 132.497Z" fill="white"/>
<path d="M359.837 206.24L410.971 249.809L339.87 290.615L308.906 234.824L359.837 206.24Z" fill="#3969E4"/>
<path d="M316.754 237.049L359.154 213.254L400.968 248.884L342.081 282.677L316.754 237.049Z" fill="white"/>
<path d="M198.14 224.208L196.503 222.801C190.936 235.433 181.608 252.899 169.293 262.835L169.289 262.839C169.289 262.839 171.333 265.132 174.733 268.616C185.101 279.236 208.066 300.88 224.035 302.111L227.781 249.671L198.14 224.208Z" fill="#F2B3C1"/>
<path d="M322.73 248.337L311.309 219.205L227.781 249.667L224.035 302.107C224.43 302.138 224.817 302.161 225.205 302.165C246.322 302.441 322.73 248.337 322.73 248.337Z" fill="#F2B3C1"/>
<path d="M225.311 302.211C239.888 302.211 251.705 290.396 251.705 275.82C251.705 261.245 239.888 249.43 225.311 249.43C210.735 249.43 198.918 261.245 198.918 275.82C198.918 290.396 210.735 302.211 225.311 302.211Z" fill="#F2B3C1"/>
<path d="M196.503 222.797C190.936 235.429 181.608 252.895 169.293 262.831L169.289 262.835C169.289 262.835 171.333 265.128 174.733 268.613C182.693 260.738 191.25 247.248 198.144 224.204L196.503 222.797Z" fill="#F2B3C1"/>
<path d="M311.309 219.205C311.309 219.205 320.997 216.05 334.374 220.263C347.751 224.476 351.416 229.241 351.416 229.241L338.588 255.808L322.73 248.337L311.309 219.205Z" fill="#F2B3C1"/>
<path d="M315.139 250.28C323.837 250.28 330.889 243.229 330.889 234.532C330.889 225.834 323.837 218.783 315.139 218.783C306.44 218.783 299.389 225.834 299.389 234.532C299.389 243.229 306.44 250.28 315.139 250.28Z" fill="#F2B3C1"/>
<path d="M351.968 229.375L379.769 246.389C381.54 247.497 381.195 250.276 379.194 251.035C376.679 251.99 373.933 251.867 371.587 250.694L343.445 237.115L351.968 229.375Z" fill="#F2B3C1"/>
<path d="M365.089 250.698C364.345 253.876 360.699 255.379 357.927 253.65L339.865 242.379C338.094 241.271 338.439 238.492 340.44 237.732C342.955 236.778 345.7 236.901 348.047 238.074L362.581 245.346C364.556 246.335 365.595 248.547 365.089 250.698Z" fill="#F2B3C1"/>
<path d="M359.388 256.004C358.644 259.183 354.994 260.685 352.226 258.956L334.164 247.685C332.392 246.578 332.738 243.798 334.739 243.039C337.254 242.085 339.999 242.207 342.346 243.38L356.88 250.653C358.855 251.642 359.89 253.854 359.388 256.004Z" fill="#F2B3C1"/>
<path d="M351.884 261.574C350.948 265.132 347.122 266.995 344.369 265.231L326.434 253.719C325.928 253.393 325.613 252.914 325.464 252.362C325.245 251.553 325.395 250.598 325.866 249.816C326.188 249.276 326.664 248.819 327.277 248.54C328.604 247.938 329.98 247.639 331.314 247.639C332.63 247.639 333.906 247.93 335.072 248.513L349.603 255.785C351.573 256.774 352.517 259.166 351.884 261.574Z" fill="#F2B3C1"/>
<path d="M361.394 227.31C360.961 228.264 360.44 229.111 359.838 229.836C359.523 230.223 359.178 230.572 358.822 230.886C358.212 231.415 357.549 231.841 356.843 232.151C356.349 232.366 355.835 232.531 355.302 232.627L335.618 236.242L330.811 223.422L358.795 221.824C360.885 221.701 362.445 224.986 361.394 227.31Z" fill="#F2B3C1"/>
<path d="M359.836 229.836C359.521 230.223 359.176 230.572 358.82 230.886C358.21 231.415 357.547 231.841 356.841 232.152L356.811 232.159L343.445 224.48L359.836 229.836Z" fill="#F2B3C1"/>
<path d="M342.255 260.478L325.462 252.362C325.243 251.553 325.393 250.598 325.864 249.816L325.868 249.812L342.255 260.478Z" fill="#F2B3C1"/>
<path d="M334.395 247.005L334.182 247.328L352.126 259.151L352.339 258.828L334.395 247.005Z" fill="#1E1814"/>
<path d="M339.977 242.244L339.775 242.574L359.421 254.571L359.623 254.241L339.977 242.244Z" fill="#1E1814"/>
<path d="M345.66 236.071L345.467 236.406L364.432 247.302L364.625 246.966L345.66 236.071Z" fill="#1E1814"/>
<path d="M305.419 222.782C305.419 225.259 303.41 227.264 300.937 227.264C298.46 227.264 296.455 225.255 296.455 222.782C296.455 220.306 298.464 218.301 300.937 218.301C303.414 218.301 305.419 220.306 305.419 222.782Z" fill="white"/>
<path d="M305.203 237.024C306.953 235.274 306.953 232.437 305.203 230.686C303.453 228.936 300.615 228.936 298.864 230.687C297.114 232.437 297.114 235.274 298.865 237.024C300.615 238.774 303.453 238.774 305.203 237.024Z" fill="white"/>
<path d="M308.799 246.774C309.368 244.366 307.876 241.952 305.467 241.383C303.058 240.814 300.644 242.306 300.075 244.715C299.506 247.123 300.998 249.537 303.407 250.106C305.816 250.675 308.23 249.183 308.799 246.774Z" fill="white"/>
<path d="M309.454 261.211C311.911 260.909 313.657 258.672 313.355 256.215C313.052 253.759 310.815 252.013 308.358 252.315C305.902 252.618 304.155 254.855 304.458 257.311C304.761 259.768 306.998 261.514 309.454 261.211Z" fill="white"/>
<path d="M393.167 271.234L398.569 239.097C398.899 237.034 396.572 235.47 394.686 236.482C392.316 237.755 390.606 239.906 389.954 242.447L381.734 272.591L393.167 271.234Z" fill="#F2B3C1"/>
<path d="M382.865 276.383L385.775 243.924C385.944 241.842 383.506 240.462 381.7 241.616C379.434 243.069 377.896 245.346 377.44 247.926L371.57 278.615L382.865 276.383Z" fill="#F2B3C1"/>
<path d="M371.869 286.231L374.779 253.772C374.948 251.69 372.51 250.31 370.704 251.464C368.438 252.917 366.9 255.194 366.444 257.774L360.574 288.462L371.869 286.231Z" fill="#F2B3C1"/>
<path d="M362.511 288.678L364.394 263.334C364.497 261.709 362.232 260.57 360.61 261.429C358.57 262.51 357.221 264.258 356.864 266.267L352.232 290.15L362.511 288.678Z" fill="#F2B3C1"/>
<path d="M453.956 31.4004H281.406V44.3619H453.956V31.4004Z" fill="#6B98DF"/>
<path d="M371.569 234.048C371.558 234.048 371.546 234.048 371.535 234.044C371.443 234.025 371.377 233.949 371.377 233.857V174.696H281.405C281.297 174.696 281.213 174.608 281.213 174.504V31.3987C281.213 31.2914 281.297 31.207 281.405 31.207H453.954C454.062 31.207 454.146 31.2914 454.146 31.3987V174.504C454.146 174.612 454.062 174.696 453.954 174.696H395.171L371.749 233.926C371.719 234.002 371.646 234.048 371.569 234.048ZM281.596 174.313H371.569C371.676 174.313 371.761 174.397 371.761 174.504V232.844L394.861 174.431C394.891 174.359 394.96 174.309 395.041 174.309H453.763V31.5942H281.596V174.313Z" fill="#1E1814"/>
<path d="M427.132 37.8821C427.132 39.2699 426.009 40.3932 424.621 40.3932C423.233 40.3932 422.109 39.2699 422.109 37.8821C422.109 36.4943 423.233 35.3711 424.621 35.3711C426.009 35.3711 427.132 36.4943 427.132 37.8821Z" fill="white"/>
<path d="M436.714 37.8821C436.714 39.2699 435.591 40.3932 434.203 40.3932C432.815 40.3932 431.691 39.2699 431.691 37.8821C431.691 36.4943 432.815 35.3711 434.203 35.3711C435.591 35.3711 436.714 36.4943 436.714 37.8821Z" fill="#FFAE01"/>
<path d="M446.876 37.8821C446.876 39.2699 445.753 40.3932 444.365 40.3932C442.977 40.3932 441.854 39.2699 441.854 37.8821C441.854 36.4943 442.977 35.3711 444.365 35.3711C445.753 35.3711 446.876 36.4943 446.876 37.8821Z" fill="#1E1814"/>
<path d="M332.154 132.413H329.029V130.934H337.031V132.413H333.906V140.36H332.154V132.413Z" fill="#E55757"/>
<path d="M345.273 136.238V140.36H343.59V136.453C343.59 135.173 342.957 134.555 341.88 134.555C340.68 134.555 339.875 135.284 339.875 136.725V140.363H338.191V130.369H339.875V134.007C340.427 133.413 341.274 133.091 342.271 133.091C343.992 133.087 345.273 134.069 345.273 136.238Z" fill="#E55757"/>
<path d="M353.434 136.141V140.358H351.842V139.484C351.44 140.105 350.658 140.454 349.58 140.454C347.936 140.454 346.9 139.553 346.9 138.3C346.9 137.1 347.709 136.157 349.891 136.157H351.75V136.049C351.75 135.064 351.156 134.489 349.96 134.489C349.151 134.489 348.315 134.757 347.778 135.202L347.119 133.975C347.886 133.381 349.005 133.086 350.163 133.086C352.237 133.086 353.434 134.067 353.434 136.141ZM351.75 138.108V137.272H350.014C348.867 137.272 348.561 137.705 348.561 138.231C348.561 138.836 349.074 139.227 349.933 139.227C350.754 139.227 351.467 138.852 351.75 138.108Z" fill="#E55757"/>
<path d="M362.673 136.237V140.358H360.99V136.452C360.99 135.171 360.357 134.554 359.28 134.554C358.08 134.554 357.271 135.283 357.271 136.724V140.362H355.588V133.17H357.191V134.098C357.743 133.439 358.617 133.086 359.667 133.086C361.393 133.086 362.673 134.067 362.673 136.237Z" fill="#E55757"/>
<path d="M367.747 137.277L366.494 138.462V140.36H364.811V130.365H366.494V136.399L369.983 133.168H372.003L368.997 136.185L372.283 140.36H370.236L367.747 137.277Z" fill="#E55757"/>
<path d="M383.828 133.17L380.462 140.941C379.803 142.57 378.886 143.068 377.686 143.068C376.973 143.068 376.218 142.827 375.758 142.409L376.433 141.171C376.755 141.481 377.215 141.669 377.671 141.669C378.265 141.669 378.614 141.385 378.936 140.672L379.059 140.389L375.919 133.17H377.671L379.933 138.491L382.21 133.17H383.828Z" fill="#E55757"/>
<path d="M384.082 136.762C384.082 134.608 385.7 133.086 387.908 133.086C390.144 133.086 391.746 134.608 391.746 136.762C391.746 138.917 390.144 140.454 387.908 140.454C385.7 140.454 384.082 138.917 384.082 136.762ZM390.052 136.762C390.052 135.39 389.135 134.512 387.908 134.512C386.697 134.512 385.78 135.386 385.78 136.762C385.78 138.135 386.697 139.013 387.908 139.013C389.135 139.013 390.052 138.135 390.052 136.762Z" fill="#E55757"/>
<path d="M400.327 133.166V140.358H398.724V139.442C398.184 140.101 397.336 140.454 396.408 140.454C394.564 140.454 393.311 139.442 393.311 137.276V133.166H394.994V137.046C394.994 138.353 395.615 138.97 396.677 138.97C397.85 138.97 398.644 138.242 398.644 136.8V133.162H400.327V133.166Z" fill="#E55757"/>
<path d="M402.223 139.406C402.223 138.827 402.683 138.367 403.315 138.367C403.936 138.367 404.377 138.823 404.377 139.406C404.377 139.985 403.933 140.456 403.315 140.456C402.683 140.456 402.223 139.985 402.223 139.406ZM402.319 130.934H404.312L403.975 137.236H402.641L402.319 130.934Z" fill="#E55757"/>
<path d="M368.061 116.817C378.76 116.817 387.434 108.144 387.434 97.4456C387.434 86.7471 378.76 78.0742 368.061 78.0742C357.361 78.0742 348.688 86.7471 348.688 97.4456C348.688 108.144 357.361 116.817 368.061 116.817Z" fill="#E55757"/>
<path d="M377.604 89.2719C377.853 89.4713 374.234 94.34 369.522 100.14C368.518 101.359 367.555 102.529 366.67 103.602L366.279 104.074L365.861 103.64C362.184 99.8489 359.669 97.0351 359.849 96.8587C360.025 96.6824 362.843 99.1934 366.631 102.87L365.822 102.912C366.693 101.823 367.64 100.642 368.625 99.4081C373.337 93.6116 377.355 89.0726 377.604 89.2719Z" fill="white"/>
<path d="M395.582 89.6463C395.007 87.6107 392.361 87.81 392.361 87.81L392.434 89.2246C393.964 88.9601 394.915 90.7543 394.915 90.7543L395.582 89.6463Z" fill="#FF4F5B"/>
<path d="M339.469 93.9139C338.894 91.8783 336.248 92.0776 336.248 92.0776L336.321 93.4922C337.851 93.2277 338.802 95.0218 338.802 95.0218L339.469 93.9139Z" fill="#E1E1E1"/>
<path d="M370.378 65.7606C373.445 66.6883 375.355 63.1537 375.355 63.1537L373.488 62.0918C372.575 64.2578 369.512 64.0086 369.512 64.0086L370.378 65.7606Z" fill="#E1E1E1"/>
<path d="M353.351 69.5723C351.925 69.7256 351.752 71.5159 351.752 71.5159L352.707 71.6309C352.707 70.5767 354.014 70.1473 354.014 70.1473L353.351 69.5723Z" fill="#FF4F5B"/>
<path d="M412.208 82.6783C412.415 81.256 410.72 80.6465 410.72 80.6465L410.375 81.5436C411.395 81.8042 411.487 83.1767 411.487 83.1767L412.208 82.6783Z" fill="#E1E1E1"/>
<path d="M361.682 50.8717C361.889 49.4494 360.195 48.8398 360.195 48.8398L359.846 49.7369C360.866 49.9976 360.958 51.37 360.958 51.37L361.682 50.8717Z" fill="#FF4F5B"/>
<path d="M326.401 73.785C326.144 76.0124 329.096 76.5529 329.096 76.5529L329.629 75.0961C327.858 74.9351 327.604 72.8496 327.604 72.8496L326.401 73.785Z" fill="#FF4F5B"/>
<path d="M392.081 65.7174C393.515 65.7979 393.975 64.0574 393.975 64.0574L393.051 63.7891C392.883 64.828 391.521 65.0427 391.521 65.0427L392.081 65.7174Z" fill="#FF4F5B"/>
<path d="M399.91 71.5584C399.91 71.6235 399.381 71.6734 398.726 71.6734C398.07 71.6734 397.541 71.6197 397.541 71.5584C397.541 71.4932 398.07 71.4434 398.726 71.4434C399.381 71.4434 399.91 71.497 399.91 71.5584Z" fill="#E1E1E1"/>
<path d="M401.168 68.3418C401.233 68.3418 401.283 68.8785 401.283 69.5417C401.283 70.2049 401.229 70.7417 401.168 70.7417C401.103 70.7417 401.053 70.2049 401.053 69.5417C401.053 68.8785 401.106 68.3418 401.168 68.3418Z" fill="#E1E1E1"/>
<path d="M402.51 71.4802C402.51 71.4151 403.039 71.3652 403.694 71.3652C404.35 71.3652 404.879 71.4189 404.879 71.4802C404.879 71.5454 404.35 71.5953 403.694 71.5953C403.039 71.5953 402.51 71.5454 402.51 71.4802Z" fill="#E1E1E1"/>
<path d="M401.252 74.7026C401.187 74.7026 401.137 74.1659 401.137 73.5027C401.137 72.8394 401.19 72.3027 401.252 72.3027C401.317 72.3027 401.367 72.8394 401.367 73.5027C401.367 74.1659 401.313 74.7026 401.252 74.7026Z" fill="#E1E1E1"/>
<path d="M403.164 73.3226C403.115 73.3647 402.888 73.1692 402.655 72.8932C402.421 72.6133 402.275 72.3565 402.321 72.3143C402.371 72.2721 402.597 72.4677 402.831 72.7437C403.065 73.0235 403.21 73.2804 403.164 73.3226Z" fill="#E1E1E1"/>
<path d="M403.054 69.6669C403.1 69.7129 402.939 69.9467 402.697 70.1882C402.456 70.4298 402.222 70.5908 402.18 70.5486C402.134 70.5026 402.295 70.2687 402.536 70.0272C402.774 69.7857 403.008 69.6247 403.054 69.6669Z" fill="#E1E1E1"/>
<path d="M400.341 70.5982C400.299 70.648 400.08 70.533 399.85 70.3413C399.62 70.1496 399.467 69.9541 399.509 69.9081C399.551 69.8583 399.77 69.9733 400 70.165C400.23 70.3528 400.383 70.5483 400.341 70.5982Z" fill="#E1E1E1"/>
<path d="M400.23 72.21C400.276 72.2521 400.138 72.4821 399.92 72.7237C399.701 72.9652 399.486 73.1224 399.437 73.0802C399.391 73.038 399.529 72.808 399.747 72.5665C399.97 72.325 400.184 72.1678 400.23 72.21Z" fill="#E1E1E1"/>
<path d="M335.451 64.9646C335.451 65.0298 334.922 65.0796 334.267 65.0796C333.611 65.0796 333.082 65.026 333.082 64.9646C333.082 64.8994 333.611 64.8496 334.267 64.8496C334.922 64.8496 335.451 64.8994 335.451 64.9646Z" fill="#FF4F5B"/>
<path d="M336.709 61.7461C336.774 61.7461 336.824 62.2828 336.824 62.946C336.824 63.6092 336.774 64.1459 336.709 64.1459C336.644 64.1459 336.594 63.6092 336.594 62.946C336.594 62.2828 336.644 61.7461 336.709 61.7461Z" fill="#FF4F5B"/>
<path d="M338.047 64.8904C338.047 64.8252 338.576 64.7754 339.232 64.7754C339.887 64.7754 340.416 64.8291 340.416 64.8904C340.416 64.9556 339.887 65.0054 339.232 65.0054C338.576 65.0054 338.047 64.9517 338.047 64.8904Z" fill="#FF4F5B"/>
<path d="M336.789 68.1088C336.724 68.1088 336.674 67.5721 336.674 66.9089C336.674 66.2457 336.728 65.709 336.789 65.709C336.854 65.709 336.904 66.2457 336.904 66.9089C336.904 67.5683 336.854 68.1088 336.789 68.1088Z" fill="#FF4F5B"/>
<path d="M338.702 66.7249C338.652 66.7671 338.426 66.5716 338.192 66.2955C337.958 66.0157 337.812 65.7588 337.858 65.7167C337.908 65.6745 338.134 65.87 338.368 66.146C338.602 66.4259 338.751 66.6866 338.702 66.7249Z" fill="#FF4F5B"/>
<path d="M338.591 63.0782C338.637 63.1242 338.476 63.358 338.234 63.5995C337.993 63.841 337.759 64.0021 337.717 63.9599C337.671 63.9139 337.832 63.68 338.073 63.4385C338.315 63.1932 338.545 63.0322 338.591 63.0782Z" fill="#FF4F5B"/>
<path d="M335.88 64.0083C335.838 64.0582 335.619 63.9431 335.389 63.7515C335.159 63.5598 335.006 63.3643 335.048 63.3183C335.09 63.2684 335.309 63.3834 335.539 63.5751C335.765 63.763 335.918 63.9585 335.88 64.0083Z" fill="#FF4F5B"/>
<path d="M335.773 65.6141C335.819 65.6563 335.681 65.8863 335.463 66.1278C335.244 66.3694 335.029 66.5265 334.98 66.4844C334.934 66.4422 335.072 66.2122 335.29 65.9707C335.509 65.733 335.723 65.572 335.773 65.6141Z" fill="#FF4F5B"/>
<path d="M202.51 207.475C202.602 207.528 202.633 207.647 202.579 207.739C202.544 207.8 202.479 207.835 202.41 207.835C202.376 207.835 202.345 207.827 202.314 207.808" fill="#1E1814"/>
</svg>
