<svg width="65" height="53" viewBox="0 0 65 53" fill="none" xmlns="http://www.w3.org/2000/svg">
<g clip-path="url(#clip0_6204_24288)">
<g filter="url(#filter0_d_6204_24288)">
<path d="M52.7313 13.7321L47.8969 8.89772C46.8269 7.83722 45.3815 7.24224 43.875 7.24225H20.8406C19.3375 7.24225 17.8852 7.84147 16.8188 8.89772L11.9844 13.7321H0V39.7016H6.5C8.2875 39.7016 9.72969 38.2594 9.73984 36.4821H10.6641L19.2563 44.2415C22.3945 46.7907 26.7516 46.8516 29.9813 44.6274C31.2508 45.7243 32.6219 46.2422 34.1555 46.2422C36.0039 46.2422 37.7406 45.4907 39.1117 43.8047C41.3563 44.6883 44.007 44.0688 45.6117 42.0985L48.2727 38.818C48.8414 38.1172 49.1969 37.3149 49.3797 36.4821H55.2602C55.2703 38.2594 56.7227 39.7016 58.5 39.7016H65V13.7321H52.7313ZM4.875 36.4516C3.98125 36.4516 3.25 35.7204 3.25 34.8266C3.25 33.9329 3.98125 33.2016 4.875 33.2016C5.76875 33.2016 6.5 33.9329 6.5 34.8266C6.5 35.7305 5.76875 36.4516 4.875 36.4516ZM44.4844 35.7508L41.8336 39.0212C41.5492 39.3665 41.0414 39.4274 40.6859 39.143L38.2586 37.1727L35.2117 40.8797C34.6023 41.6212 33.6883 41.3672 33.3836 41.1235L29.6461 37.9243L28.0617 39.8743C26.65 41.611 24.0805 41.8751 22.4453 40.5446L12.5633 31.6071H9.75V18.5969H14.0055L20.2719 12.3407C20.475 12.2594 20.6477 12.1883 20.8508 12.1071H26.6094L22.6789 15.7126C19.693 18.4446 19.5203 23.0555 22.232 26.0008C23.7352 27.6462 28.4477 30.1852 32.5406 26.4477L33.3734 25.686L44.3625 34.6032C44.7078 34.8876 44.7586 35.4055 44.4844 35.7508ZM55.25 31.6071H48.2219C47.9883 31.3227 47.7242 31.0587 47.4398 30.8251L37.0094 22.3547L38.2789 21.1969C38.9391 20.5876 38.9898 19.5618 38.3805 18.9016L37.2734 17.7133C36.6641 17.0532 35.6383 17.0126 34.9781 17.6118L29.3719 22.7508C28.407 23.6344 26.7617 23.7055 25.8578 22.7508C24.9133 21.7454 24.9945 20.2016 25.9797 19.3079L32.6422 13.204C33.3937 12.5133 34.3687 12.1376 35.3844 12.1376L43.8852 12.1172C44.0984 12.1172 44.3016 12.1985 44.4438 12.3508L50.7102 18.6071H55.25V31.6071ZM60.125 36.4516C59.2313 36.4516 58.5 35.7204 58.5 34.8266C58.5 33.9329 59.2313 33.2016 60.125 33.2016C61.0187 33.2016 61.75 33.9329 61.75 34.8266C61.75 35.7305 61.0187 36.4516 60.125 36.4516Z" fill="#2A72DE" fill-opacity="0.35" shape-rendering="crispEdges"/>
</g>
</g>
<defs>
<filter id="filter0_d_6204_24288" x="-3" y="6.24225" width="71" height="45" filterUnits="userSpaceOnUse" color-interpolation-filters="sRGB">
<feFlood flood-opacity="0" result="BackgroundImageFix"/>
<feColorMatrix in="SourceAlpha" type="matrix" values="0 0 0 0 0 0 0 0 0 0 0 0 0 0 0 0 0 0 127 0" result="hardAlpha"/>
<feOffset dy="2"/>
<feGaussianBlur stdDeviation="1.5"/>
<feComposite in2="hardAlpha" operator="out"/>
<feColorMatrix type="matrix" values="0 0 0 0 0 0 0 0 0 0 0 0 0 0 0 0 0 0 0.25 0"/>
<feBlend mode="normal" in2="BackgroundImageFix" result="effect1_dropShadow_6204_24288"/>
<feBlend mode="normal" in="SourceGraphic" in2="effect1_dropShadow_6204_24288" result="shape"/>
</filter>
<clipPath id="clip0_6204_24288">
<rect width="65" height="52" fill="white" transform="translate(0 0.742249)"/>
</clipPath>
</defs>
</svg>
