<svg width="59" height="59" viewBox="0 0 59 59" fill="none" xmlns="http://www.w3.org/2000/svg">
<g filter="url(#filter0_di_6204_24607)">
<path d="M16.9225 3.81951C19.1389 2.14094 21.8447 1.23559 24.625 1.24226C25.405 1.24226 26.0257 1.64851 26.3865 1.92801C26.7895 2.24651 27.1665 2.65276 27.5045 3.05901C27.7442 3.3501 27.8751 3.71546 27.875 4.09251V15.8673H24.3487C23.9654 14.783 23.2111 13.8692 22.2192 13.2874C21.2273 12.7055 20.0616 12.493 18.9282 12.6875C17.7948 12.8819 16.7666 13.4708 16.0253 14.3501C15.2841 15.2293 14.8776 16.3423 14.8776 17.4923C14.8776 18.6423 15.2841 19.7552 16.0253 20.6345C16.7666 21.5137 17.7948 22.1026 18.9282 22.2971C20.0616 22.4915 21.2273 22.279 22.2192 21.6972C23.2111 21.1153 23.9654 20.2015 24.3487 19.1173H27.875V49.716C27.8752 49.9566 27.8219 50.1943 27.719 50.4118C27.6162 50.6293 27.4663 50.8212 27.2803 50.9738C25.7788 52.2023 23.7703 53.2423 21.375 53.2423C17.5205 53.2423 14.6508 51.2988 12.795 48.975C11.4617 47.3193 10.5485 45.3658 10.1332 43.281C8.87056 42.9443 7.69981 42.3279 6.70775 41.4773C4.91375 39.94 3.5 37.4473 3.5 33.7423C3.5 31.932 3.62025 30.2973 3.89 28.8673H14.0625C16.1295 28.8673 17.8325 30.411 18.0925 32.4065C17.0117 32.7977 16.1039 33.5581 15.5293 34.5536C14.9547 35.549 14.7503 36.7155 14.9523 37.847C15.1542 38.9786 15.7495 40.0023 16.6329 40.7376C17.5164 41.4729 18.6312 41.8723 19.7806 41.8655C20.93 41.8586 22.0399 41.4458 22.9146 40.7001C23.7892 39.9543 24.3721 38.9235 24.5605 37.7896C24.7489 36.6558 24.5306 35.4918 23.9442 34.5033C23.3578 33.5147 22.4409 32.7652 21.3555 32.387C21.2185 30.5465 20.3907 28.8259 19.0381 27.5704C17.6854 26.3148 15.9081 25.6171 14.0625 25.6173H4.93325C5.4305 24.6488 6.09675 23.8298 6.9645 23.248C7.184 23.1027 7.41434 22.9745 7.6535 22.8645C6.7305 20.1605 6.971 16.995 7.8615 14.5088C8.43025 12.9098 9.33375 11.3985 10.5753 10.391C11.3943 9.72476 12.3693 9.28601 13.4353 9.20151C13.9033 6.98176 15.2195 5.14551 16.9257 3.81951H16.9225ZM31.125 41.8673H33.5625C35.5019 41.8673 37.3619 41.0968 38.7332 39.7255C40.1046 38.3541 40.875 36.4942 40.875 34.5548V28.591C41.9592 28.2077 42.873 27.4534 43.4549 26.4615C44.0368 25.4696 44.2493 24.3039 44.0548 23.1704C43.8603 22.037 43.2714 21.0088 42.3922 20.2676C41.513 19.5264 40.4 19.1198 39.25 19.1198C38.1 19.1198 36.987 19.5264 36.1078 20.2676C35.2286 21.0088 34.6397 22.037 34.4452 23.1704C34.2507 24.3039 34.4632 25.4696 35.0451 26.4615C35.627 27.4534 36.5408 28.2077 37.625 28.591V34.5548C37.625 36.7973 35.805 38.6173 33.5625 38.6173H31.125V4.09251C31.1249 3.71546 31.2558 3.3501 31.4955 3.05901C31.8303 2.65276 32.2105 2.24651 32.6135 1.92801C32.971 1.64851 33.5917 1.24226 34.375 1.24226C37.1553 1.23559 39.8611 2.14094 42.0775 3.81951C43.7837 5.14551 45.1 6.98176 45.5648 9.20151C46.6307 9.28276 47.6058 9.72476 48.4248 10.391C49.6662 11.3985 50.5698 12.9098 51.1385 14.5088C52.029 16.995 52.2695 20.1638 51.3465 22.8613C51.5805 22.9718 51.8112 23.1018 52.0355 23.2513C52.9292 23.846 53.6085 24.6975 54.109 25.7018C55.0938 27.668 55.5 30.411 55.5 33.7423C55.5 37.4505 54.0863 39.94 52.2923 41.4773C51.3002 42.3279 50.1294 42.9443 48.8667 43.281C48.5417 45.0945 47.6318 47.194 46.205 48.975C44.3525 51.2988 41.4795 53.2423 37.625 53.2423C35.233 53.2423 33.2213 52.2023 31.723 50.9738C31.5363 50.8215 31.3859 50.6297 31.2824 50.4122C31.179 50.1947 31.1252 49.9569 31.125 49.716V41.8673ZM19.75 15.8673C19.319 15.8673 18.9057 16.0385 18.601 16.3432C18.2962 16.648 18.125 17.0613 18.125 17.4923C18.125 17.9232 18.2962 18.3366 18.601 18.6413C18.9057 18.9461 19.319 19.1173 19.75 19.1173C20.181 19.1173 20.5943 18.9461 20.899 18.6413C21.2038 18.3366 21.375 17.9232 21.375 17.4923C21.375 17.0613 21.2038 16.648 20.899 16.3432C20.5943 16.0385 20.181 15.8673 19.75 15.8673ZM19.75 35.3673C19.319 35.3673 18.9057 35.5385 18.601 35.8432C18.2962 36.148 18.125 36.5613 18.125 36.9923C18.125 37.4232 18.2962 37.8366 18.601 38.1413C18.9057 38.4461 19.319 38.6173 19.75 38.6173C20.181 38.6173 20.5943 38.4461 20.899 38.1413C21.2038 37.8366 21.375 37.4232 21.375 36.9923C21.375 36.5613 21.2038 36.148 20.899 35.8432C20.5943 35.5385 20.181 35.3673 19.75 35.3673ZM39.25 25.6173C39.681 25.6173 40.0943 25.4461 40.399 25.1413C40.7038 24.8366 40.875 24.4232 40.875 23.9923C40.875 23.5613 40.7038 23.148 40.399 22.8432C40.0943 22.5385 39.681 22.3673 39.25 22.3673C38.819 22.3673 38.4057 22.5385 38.101 22.8432C37.7962 23.148 37.625 23.5613 37.625 23.9923C37.625 24.4232 37.7962 24.8366 38.101 25.1413C38.4057 25.4461 38.819 25.6173 39.25 25.6173Z" fill="#2A72DE"/>
</g>
<defs>
<filter id="filter0_di_6204_24607" x="0.5" y="-0.757773" width="58" height="59" filterUnits="userSpaceOnUse" color-interpolation-filters="sRGB">
<feFlood flood-opacity="0" result="BackgroundImageFix"/>
<feColorMatrix in="SourceAlpha" type="matrix" values="0 0 0 0 0 0 0 0 0 0 0 0 0 0 0 0 0 0 127 0" result="hardAlpha"/>
<feOffset dy="2"/>
<feGaussianBlur stdDeviation="1.5"/>
<feComposite in2="hardAlpha" operator="out"/>
<feColorMatrix type="matrix" values="0 0 0 0 0 0 0 0 0 0 0 0 0 0 0 0 0 0 0.25 0"/>
<feBlend mode="normal" in2="BackgroundImageFix" result="effect1_dropShadow_6204_24607"/>
<feBlend mode="normal" in="SourceGraphic" in2="effect1_dropShadow_6204_24607" result="shape"/>
<feColorMatrix in="SourceAlpha" type="matrix" values="0 0 0 0 0 0 0 0 0 0 0 0 0 0 0 0 0 0 127 0" result="hardAlpha"/>
<feOffset dx="1" dy="-2"/>
<feGaussianBlur stdDeviation="1"/>
<feComposite in2="hardAlpha" operator="arithmetic" k2="-1" k3="1"/>
<feColorMatrix type="matrix" values="0 0 0 0 0 0 0 0 0 0 0 0 0 0 0 0 0 0 0.25 0"/>
<feBlend mode="normal" in2="shape" result="effect2_innerShadow_6204_24607"/>
</filter>
</defs>
</svg>
