<svg width="344" height="344" viewBox="0 0 344 344" fill="none" xmlns="http://www.w3.org/2000/svg">
<rect x="344" width="344" height="344" rx="10" transform="rotate(90 344 0)" fill="#D9D9D9"/>
<path d="M172 130.333C160.512 130.333 151.167 139.679 151.167 151.167V159.5H147C142.404 159.5 138.667 163.238 138.667 167.833V205.334C138.667 209.929 142.404 213.667 147 213.667H197C201.596 213.667 205.333 209.929 205.333 205.334V167.833C205.333 163.238 201.596 159.5 197 159.5H192.833V151.167C192.833 139.679 183.487 130.333 172 130.333ZM159.5 151.167C159.5 144.275 165.108 138.667 172 138.667C178.892 138.667 184.5 144.275 184.5 151.167V159.5H159.5V151.167ZM197.008 205.334H176.167V195.842C178.646 194.396 180.333 191.738 180.333 188.667C180.333 184.071 176.596 180.333 172 180.333C167.404 180.333 163.667 184.071 163.667 188.667C163.667 191.734 165.354 194.396 167.833 195.842V205.334H147V167.833H197L197.008 205.334Z" fill="#868686"/>
</svg>
