<svg width="24" height="20" viewBox="0 0 24 20" fill="none" xmlns="http://www.w3.org/2000/svg">
<g id="logos:google-gmail" clip-path="url(#clip0_2755_29835)">
<path id="Vector" d="M5.96906 19.0765V9.68093L3.17316 7.01519L0.666016 5.53589V17.4185C0.666016 18.3359 1.37923 19.0765 2.25697 19.0765H5.96906Z" fill="#4285F4"/>
<path id="Vector_2" d="M18.6973 19.0764H22.4094C23.2897 19.0764 24.0003 18.333 24.0003 17.4184V5.53589L21.1606 7.23025L18.6973 9.68084V19.0764Z" fill="#34A853"/>
<path id="Vector_3" d="M5.97029 9.68086L5.58984 6.00973L5.97029 2.49609L12.3339 7.47022L18.6975 2.49609L19.1231 5.82003L18.6975 9.68086L12.3339 14.655L5.97029 9.68086Z" fill="#EA4335"/>
<path id="Vector_4" d="M18.6973 2.49595V9.68072L24.0003 5.53568V3.32494C24.0003 1.27455 21.7545 0.105684 20.1822 1.33535L18.6973 2.49595Z" fill="#FBBC04"/>
<path id="Vector_5" d="M0.666016 5.53572L3.10499 7.4422L5.96906 9.68076V2.49599L4.48411 1.33539C2.90911 0.105632 0.666016 1.2746 0.666016 3.32489V5.53562V5.53572Z" fill="#C5221F"/>
</g>
<defs>
<clipPath id="clip0_2755_29835">
<rect width="23.3333" height="18.3333" fill="white" transform="translate(0.666016 0.833374)"/>
</clipPath>
</defs>
</svg>
