<svg width="65" height="66" viewBox="0 0 65 66" fill="none" xmlns="http://www.w3.org/2000/svg">
<g clip-path="url(#clip0_6204_24292)">
<g filter="url(#filter0_d_6204_24292)">
<path fill-rule="evenodd" clip-rule="evenodd" d="M43.3337 25.1173C43.3337 27.9904 42.1923 30.7459 40.1606 32.7776C38.129 34.8092 35.3735 35.9506 32.5003 35.9506C29.6271 35.9506 26.8716 34.8092 24.84 32.7776C22.8084 30.7459 21.667 27.9904 21.667 25.1173C21.667 22.2441 22.8084 19.4886 24.84 17.4569C26.8716 15.4253 29.6271 14.2839 32.5003 14.2839C35.3735 14.2839 38.129 15.4253 40.1606 17.4569C42.1923 19.4886 43.3337 22.2441 43.3337 25.1173ZM37.917 25.1173C37.917 26.5539 37.3463 27.9316 36.3305 28.9474C35.3147 29.9633 33.9369 30.5339 32.5003 30.5339C31.0637 30.5339 29.686 29.9633 28.6702 28.9474C27.6543 27.9316 27.0837 26.5539 27.0837 25.1173C27.0837 23.6807 27.6543 22.3029 28.6702 21.2871C29.686 20.2713 31.0637 19.7006 32.5003 19.7006C33.9369 19.7006 35.3147 20.2713 36.3305 21.2871C37.3463 22.3029 37.917 23.6807 37.917 25.1173Z" fill="#2A72DE" fill-opacity="0.35"/>
<path fill-rule="evenodd" clip-rule="evenodd" d="M32.5002 3.45059C16.047 3.45059 2.7085 16.7891 2.7085 33.2423C2.7085 49.6954 16.047 63.0339 32.5002 63.0339C48.9533 63.0339 62.2918 49.6954 62.2918 33.2423C62.2918 16.7891 48.9533 3.45059 32.5002 3.45059ZM8.12516 33.2423C8.12516 38.9027 10.0562 44.1135 13.2927 48.2518C15.5656 45.267 18.4978 42.848 21.8603 41.1839C25.2228 39.5198 28.9245 38.6557 32.6762 38.6589C36.3794 38.6554 40.0345 39.4972 43.3631 41.1202C46.6917 42.7432 49.6059 45.1045 51.8837 48.0243C54.2303 44.9466 55.8103 41.3543 56.493 37.5447C57.1757 33.7351 56.9413 29.8177 55.8094 26.1166C54.6775 22.4155 52.6805 19.0372 49.9838 16.2611C47.287 13.485 43.9679 11.391 40.3012 10.1524C36.6345 8.91373 32.7255 8.56602 28.8977 9.13802C25.0699 9.71002 21.4333 11.1853 18.2889 13.4418C15.1445 15.6983 12.5826 18.6711 10.8152 22.1142C9.04775 25.5574 8.12565 29.372 8.12516 33.2423ZM32.5002 57.6173C26.9046 57.6257 21.478 55.7007 17.1385 52.1681C18.8852 49.6676 21.21 47.626 23.9153 46.217C26.6205 44.8081 29.626 44.0734 32.6762 44.0756C35.6883 44.0732 38.6575 44.7894 41.3373 46.1649C44.017 47.5403 46.3299 49.5352 48.0839 51.9839C43.7108 55.6312 38.1947 57.6252 32.5002 57.6173Z" fill="#2A72DE" fill-opacity="0.35"/>
</g>
</g>
<defs>
<filter id="filter0_d_6204_24292" x="-0.291504" y="2.45059" width="65.5835" height="65.5833" filterUnits="userSpaceOnUse" color-interpolation-filters="sRGB">
<feFlood flood-opacity="0" result="BackgroundImageFix"/>
<feColorMatrix in="SourceAlpha" type="matrix" values="0 0 0 0 0 0 0 0 0 0 0 0 0 0 0 0 0 0 127 0" result="hardAlpha"/>
<feOffset dy="2"/>
<feGaussianBlur stdDeviation="1.5"/>
<feComposite in2="hardAlpha" operator="out"/>
<feColorMatrix type="matrix" values="0 0 0 0 0 0 0 0 0 0 0 0 0 0 0 0 0 0 0.25 0"/>
<feBlend mode="normal" in2="BackgroundImageFix" result="effect1_dropShadow_6204_24292"/>
<feBlend mode="normal" in="SourceGraphic" in2="effect1_dropShadow_6204_24292" result="shape"/>
</filter>
<clipPath id="clip0_6204_24292">
<rect width="65" height="65" fill="white" transform="translate(0 0.742249)"/>
</clipPath>
</defs>
</svg>
