<svg width="72" height="72" viewBox="0 0 72 72" fill="none" xmlns="http://www.w3.org/2000/svg">
<path d="M60.3 35.475C59.75 35.475 59.2625 35.275 58.8375 34.875C58.4125 34.475 58.15 33.975 58.05 33.375C57.35 28.225 55.1625 23.8125 51.4875 20.1375C47.8125 16.4625 43.4 14.275 38.25 13.575C37.65 13.475 37.15 13.2125 36.75 12.7875C36.35 12.3625 36.15 11.85 36.15 11.25C36.15 10.6 36.375 10.05 36.825 9.6C37.275 9.15 37.825 8.975 38.475 9.075C44.825 9.775 50.25 12.375 54.75 16.875C59.25 21.375 61.85 26.8 62.55 33.15C62.65 33.8 62.475 34.35 62.025 34.8C61.575 35.25 61 35.475 60.3 35.475ZM47.4 35.475C46.9 35.475 46.4375 35.3125 46.0125 34.9875C45.5875 34.6625 45.3 34.225 45.15 33.675C44.65 31.925 43.7625 30.4125 42.4875 29.1375C41.2125 27.8625 39.7 26.975 37.95 26.475C37.4 26.325 36.9625 26.0625 36.6375 25.6875C36.3125 25.3125 36.15 24.85 36.15 24.3C36.15 23.55 36.4 22.95 36.9 22.5C37.4 22.05 38 21.9 38.7 22.05C41.4 22.7 43.725 24 45.675 25.95C47.625 27.9 48.95 30.225 49.65 32.925C49.8 33.625 49.65 34.225 49.2 34.725C48.75 35.225 48.15 35.475 47.4 35.475ZM59.625 63C53.525 63 47.4625 61.5 41.4375 58.5C35.4125 55.5 30 51.6 25.2 46.8C20.4 42 16.5 36.5875 13.5 30.5625C10.5 24.5375 9 18.475 9 12.375C9 11.425 9.325 10.625 9.975 9.975C10.625 9.325 11.425 9 12.375 9H22.875C23.575 9 24.1875 9.2375 24.7125 9.7125C25.2375 10.1875 25.575 10.825 25.725 11.625L27.75 21.075C27.85 21.775 27.8375 22.4125 27.7125 22.9875C27.5875 23.5625 27.325 24.05 26.925 24.45L19.425 32.025C22.225 36.675 25.3625 40.725 28.8375 44.175C32.3125 47.625 36.25 50.55 40.65 52.95L47.775 45.6C48.275 45.05 48.85 44.6625 49.5 44.4375C50.15 44.2125 50.8 44.175 51.45 44.325L60.375 46.275C61.125 46.425 61.75 46.8 62.25 47.4C62.75 48 63 48.7 63 49.5V59.625C63 60.575 62.675 61.375 62.025 62.025C61.375 62.675 60.575 63 59.625 63ZM17.175 27.9L23.25 21.75L21.525 13.5H13.5C13.5 15.45 13.8 17.5875 14.4 19.9125C15 22.2375 15.925 24.9 17.175 27.9ZM58.5 58.5V50.475L50.775 48.9L44.85 55.125C46.9 56.075 49.125 56.85 51.525 57.45C53.925 58.05 56.25 58.4 58.5 58.5Z" fill="#22FE0F"/>
</svg>
