<svg width="344" height="344" viewBox="0 0 344 344" fill="none" xmlns="http://www.w3.org/2000/svg">
<rect x="344" width="344" height="344" rx="10" transform="rotate(90 344 0)" fill="#D9D9D9"/>
<path d="M211.333 166.667L146.833 134.417C145.963 134.013 145.006 133.834 144.049 133.896C143.092 133.957 142.165 134.256 141.354 134.767C140.542 135.278 139.871 135.984 139.402 136.82C138.932 137.656 138.68 138.597 138.667 139.555V204.028C138.659 205.012 138.904 205.982 139.381 206.843C139.857 207.705 140.547 208.429 141.385 208.945C142.223 209.462 143.18 209.754 144.164 209.793C145.147 209.831 146.124 209.616 147 209.167L211.333 176.917C212.286 176.438 213.087 175.704 213.647 174.797C214.207 173.889 214.504 172.844 214.504 171.778C214.504 170.711 214.207 169.666 213.647 168.759C213.087 167.851 212.286 167.117 211.333 166.639V166.667Z" fill="white"/>
</svg>
