<svg width="75" height="76" viewBox="0 0 75 76" fill="none" xmlns="http://www.w3.org/2000/svg">
<path fill-rule="evenodd" clip-rule="evenodd" d="M37.5 0.646973C16.7898 0.646973 0 17.4367 0 38.147C0 58.8572 16.7898 75.647 37.5 75.647C58.2102 75.647 75 58.8572 75 38.147C75 17.4367 58.2102 0.646973 37.5 0.646973ZM40.9091 51.7833C40.9091 52.6875 40.5499 53.5546 39.9106 54.1939C39.2713 54.8333 38.4041 55.1924 37.5 55.1924C36.5959 55.1924 35.7287 54.8333 35.0894 54.1939C34.4501 53.5546 34.0909 52.6875 34.0909 51.7833V41.5561H23.8636C22.9595 41.5561 22.0924 41.1969 21.453 40.5576C20.8137 39.9182 20.4545 39.0511 20.4545 38.147C20.4545 37.2428 20.8137 36.3757 21.453 35.7364C22.0924 35.0971 22.9595 34.7379 23.8636 34.7379H34.0909V24.5106C34.0909 23.6065 34.4501 22.7393 35.0894 22.1C35.7287 21.4607 36.5959 21.1015 37.5 21.1015C38.4041 21.1015 39.2713 21.4607 39.9106 22.1C40.5499 22.7393 40.9091 23.6065 40.9091 24.5106V34.7379H51.1364C52.0405 34.7379 52.9076 35.0971 53.547 35.7364C54.1863 36.3757 54.5455 37.2428 54.5455 38.147C54.5455 39.0511 54.1863 39.9182 53.547 40.5576C52.9076 41.1969 52.0405 41.5561 51.1364 41.5561H40.9091V51.7833Z" fill="#202020"/>
</svg>
