<svg width="50" height="50" viewBox="0 0 50 50" fill="none" xmlns="http://www.w3.org/2000/svg">
<path fill-rule="evenodd" clip-rule="evenodd" d="M33.3332 18.75C33.3332 20.9602 32.4552 23.0798 30.8924 24.6426C29.3296 26.2054 27.21 27.0834 24.9998 27.0834C22.7897 27.0834 20.6701 26.2054 19.1073 24.6426C17.5445 23.0798 16.6665 20.9602 16.6665 18.75C16.6665 16.5399 17.5445 14.4203 19.1073 12.8575C20.6701 11.2947 22.7897 10.4167 24.9998 10.4167C27.21 10.4167 29.3296 11.2947 30.8924 12.8575C32.4552 14.4203 33.3332 16.5399 33.3332 18.75ZM29.1665 18.75C29.1665 19.8551 28.7275 20.9149 27.9461 21.6963C27.1647 22.4777 26.1049 22.9167 24.9998 22.9167C23.8948 22.9167 22.835 22.4777 22.0536 21.6963C21.2722 20.9149 20.8332 19.8551 20.8332 18.75C20.8332 17.645 21.2722 16.5851 22.0536 15.8037C22.835 15.0223 23.8948 14.5834 24.9998 14.5834C26.1049 14.5834 27.1647 15.0223 27.9461 15.8037C28.7275 16.5851 29.1665 17.645 29.1665 18.75Z" fill="#AFC8EE"/>
<path fill-rule="evenodd" clip-rule="evenodd" d="M24.9999 2.08334C12.3437 2.08334 2.08325 12.3438 2.08325 25C2.08325 37.6563 12.3437 47.9167 24.9999 47.9167C37.6562 47.9167 47.9166 37.6563 47.9166 25C47.9166 12.3438 37.6562 2.08334 24.9999 2.08334ZM6.24992 25C6.24992 29.3542 7.73534 33.3625 10.2249 36.5458C11.9733 34.2498 14.2289 32.3891 16.8154 31.109C19.4019 29.8289 22.2494 29.1642 25.1353 29.1667C27.9839 29.164 30.7956 29.8115 33.356 31.06C35.9165 32.3084 38.1582 34.1249 39.9103 36.3708C41.7154 34.0034 42.9308 31.24 43.456 28.3096C43.9811 25.3791 43.8008 22.3657 42.9301 19.5187C42.0594 16.6717 40.5233 14.073 38.4489 11.9376C36.3744 9.80215 33.8213 8.19138 31.0007 7.23857C28.1802 6.28576 25.1733 6.01828 22.2288 6.45829C19.2843 6.89829 16.487 8.03312 14.0682 9.76887C11.6494 11.5046 9.67869 13.7914 8.31915 16.44C6.9596 19.0886 6.2503 22.0229 6.24992 25ZM24.9999 43.75C20.6956 43.7565 16.5213 42.2757 13.1833 39.5583C14.5269 37.6349 16.3152 36.0644 18.3962 34.9806C20.4771 33.8968 22.7891 33.3317 25.1353 33.3333C27.4523 33.3315 29.7364 33.8825 31.7977 34.9405C33.859 35.9985 35.6382 37.533 36.9874 39.4167C33.6235 42.2223 29.3803 43.7562 24.9999 43.75Z" fill="#AFC8EE"/>
</svg>
