<svg width="17" height="17" viewBox="0 0 17 17" fill="none" xmlns="http://www.w3.org/2000/svg">
<g id="skill-icons:linkedin" clip-path="url(#clip0_2755_29883)">
<g id="Group">
<path id="Vector" d="M12.916 0.739349H4.41602C2.34495 0.739349 0.666016 2.41828 0.666016 4.48935V12.9893C0.666016 15.0604 2.34495 16.7393 4.41602 16.7393H12.916C14.9871 16.7393 16.666 15.0604 16.666 12.9893V4.48935C16.666 2.41828 14.9871 0.739349 12.916 0.739349Z" fill="white"/>
<path id="Vector_2" d="M12.916 0.739349H4.41602C2.34495 0.739349 0.666016 2.41828 0.666016 4.48935V12.9893C0.666016 15.0604 2.34495 16.7393 4.41602 16.7393H12.916C14.9871 16.7393 16.666 15.0604 16.666 12.9893V4.48935C16.666 2.41828 14.9871 0.739349 12.916 0.739349Z" fill="#0A66C2"/>
<path id="Vector_3" d="M12.2107 14.3447H14.0401C14.1064 14.3447 14.17 14.3183 14.2168 14.2715C14.2637 14.2246 14.2901 14.161 14.2901 14.0947L14.291 10.2296C14.291 8.20941 13.8557 6.6566 11.4949 6.6566C10.5975 6.62322 9.75114 7.08585 9.29445 7.85835C9.29222 7.8621 9.28882 7.86502 9.28477 7.86666C9.28073 7.8683 9.27626 7.86857 9.27204 7.86743C9.26783 7.86629 9.2641 7.8638 9.26143 7.86034C9.25876 7.85689 9.2573 7.85265 9.25727 7.84829V7.0931C9.25727 7.0268 9.23093 6.96321 9.18404 6.91632C9.13716 6.86944 9.07357 6.8431 9.00727 6.8431H7.2712C7.2049 6.8431 7.14131 6.86944 7.09443 6.91632C7.04754 6.96321 7.0212 7.0268 7.0212 7.0931V14.0943C7.0212 14.1607 7.04754 14.2242 7.09443 14.2711C7.14131 14.318 7.2049 14.3443 7.2712 14.3443H9.10045C9.16676 14.3443 9.23035 14.318 9.27723 14.2711C9.32411 14.2242 9.35045 14.1607 9.35045 14.0943V10.6335C9.35045 9.65497 9.53608 8.70729 10.7493 8.70729C11.9452 8.70729 11.9607 9.82704 11.9607 10.6969V14.0947C11.9607 14.161 11.987 14.2246 12.0339 14.2714C12.0808 14.3183 12.1444 14.3447 12.2107 14.3447ZM3.04102 4.46604C3.04102 5.2076 3.65145 5.81772 4.39302 5.81772C5.13439 5.81766 5.74445 5.20716 5.74445 4.46579C5.74433 3.72441 5.1342 3.11435 4.39277 3.11435C3.65114 3.11435 3.04102 3.72454 3.04102 4.46604ZM3.47595 14.3447H5.30764C5.37394 14.3447 5.43753 14.3183 5.48442 14.2714C5.5313 14.2246 5.55764 14.161 5.55764 14.0947V7.0931C5.55764 7.0268 5.5313 6.96321 5.48442 6.91632C5.43753 6.86944 5.37394 6.8431 5.30764 6.8431H3.47595C3.40965 6.8431 3.34606 6.86944 3.29918 6.91632C3.25229 6.96321 3.22595 7.0268 3.22595 7.0931V14.0947C3.22595 14.161 3.25229 14.2246 3.29918 14.2714C3.34606 14.3183 3.40965 14.3447 3.47595 14.3447Z" fill="white"/>
</g>
</g>
<defs>
<clipPath id="clip0_2755_29883">
<rect width="16" height="16" fill="white" transform="translate(0.667969 0.739349)"/>
</clipPath>
</defs>
</svg>
