<svg width="17" height="17" viewBox="0 0 17 17" fill="none" xmlns="http://www.w3.org/2000/svg">
<g id="skill-icons:twitter" clip-path="url(#clip0_2755_29896)">
<g id="Group">
<path id="Vector" d="M12.916 0.333252H4.41602C2.34495 0.333252 0.666016 2.01218 0.666016 4.08325V12.5833C0.666016 14.6543 2.34495 16.3333 4.41602 16.3333H12.916C14.9871 16.3333 16.666 14.6543 16.666 12.5833V4.08325C16.666 2.01218 14.9871 0.333252 12.916 0.333252Z" fill="#D5D5D5"/>
<path id="Vector_2" d="M12.916 0.333252H4.41602C2.34495 0.333252 0.666016 2.01218 0.666016 4.08325V12.5833C0.666016 14.6543 2.34495 16.3333 4.41602 16.3333H12.916C14.9871 16.3333 16.666 14.6543 16.666 12.5833V4.08325C16.666 2.01218 14.9871 0.333252 12.916 0.333252Z" fill="#1D9BF0"/>
<path id="Vector_3" d="M13.1393 6.0465C13.1461 6.14569 13.1461 6.24487 13.1461 6.345C13.1461 9.39481 10.8244 12.9122 6.57895 12.9122V12.9103C5.32478 12.9121 4.09658 12.5529 3.04102 11.8756C3.22339 11.8976 3.40664 11.9085 3.59039 11.9089C4.62987 11.9098 5.63944 11.5611 6.45689 10.919C5.97526 10.9099 5.50852 10.7505 5.12192 10.4631C4.73531 10.1758 4.44817 9.77475 4.30064 9.31618C4.64644 9.38286 5.00293 9.36926 5.34264 9.27643C4.26589 9.05887 3.4912 8.11281 3.4912 7.01406V6.98481C3.8122 7.1636 4.17144 7.26267 4.5387 7.27368C3.52458 6.59587 3.21195 5.24669 3.82433 4.19181C4.40378 4.90487 5.12676 5.48806 5.9463 5.9035C6.76583 6.31894 7.66359 6.55733 8.58127 6.60319C8.48977 6.20933 8.50328 5.79836 8.62046 5.41138C8.73763 5.02439 8.95435 4.67495 9.24895 4.398C10.1786 3.52412 11.6406 3.56894 12.5145 4.49806C13.0314 4.39601 13.5271 4.20652 13.9802 3.93775C13.8079 4.47216 13.4473 4.92579 12.9656 5.21425C13.4231 5.16034 13.8699 5.03787 14.291 4.85093C13.9813 5.31481 13.5912 5.71963 13.1393 6.0465Z" fill="#D5D5D5"/>
</g>
</g>
<defs>
<clipPath id="clip0_2755_29896">
<rect width="16" height="16" fill="white" transform="translate(0.667969 0.333313)"/>
</clipPath>
</defs>
</svg>
