<svg width="25" height="25" viewBox="0 0 25 25" fill="none" xmlns="http://www.w3.org/2000/svg">
<g id="Star">
<path id="Vector" d="M20.3871 23.3687C19.5541 23.962 14.2089 20.2008 13.1852 20.1925C12.1615 20.1843 6.75617 23.859 5.93285 23.2524C5.10953 22.6457 7.04511 16.4143 6.73665 15.4409C6.42819 14.4676 1.25293 10.4769 1.57711 9.50864C1.90136 8.54035 8.44276 8.45042 9.2758 7.85706C10.1088 7.26377 12.3157 1.12267 13.3395 1.13087C14.3632 1.13913 16.4703 7.31494 17.2937 7.92163C18.117 8.52824 24.6562 8.72351 24.9647 9.69685C25.2732 10.6702 20.0341 14.5771 19.7098 15.5453C19.3856 16.5136 21.2202 22.7753 20.3871 23.3687Z" fill="url(#paint0_linear_825_8615)"/>
</g>
<defs>
<linearGradient id="paint0_linear_825_8615" x1="1.56253" y1="12.2815" x2="24.9778" y2="12.2815" gradientUnits="userSpaceOnUse">
<stop stop-color="#FCD635"/>
<stop offset="1" stop-color="#F7A928"/>
</linearGradient>
</defs>
</svg>
