<svg width="40" height="40" viewBox="0 0 40 40" fill="none" xmlns="http://www.w3.org/2000/svg">
<path d="M34 4C34.518 4 35.0206 4.06563 35.5 4.18903V8.5H39.811C39.9344 8.97943 40 9.48205 40 10C40 10.5179 39.9344 11.0206 39.811 11.5H35.5V15.811C35.0206 15.9344 34.518 16 34 16C33.482 16 32.9794 15.9344 32.5 15.811V11.5H28.189C28.0656 11.0206 28 10.5179 28 10C28 9.48205 28.0656 8.97943 28.189 8.5H32.5V4.18903C32.9794 4.06563 33.482 4 34 4ZM21 22.5C21 24.7091 19.2091 26.5 17 26.5C14.7909 26.5 13 24.7091 13 22.5C13 20.2909 14.7909 18.5 17 18.5C19.2091 18.5 21 20.2909 21 22.5Z" fill="#2A72DE"/>
<path fill-rule="evenodd" clip-rule="evenodd" d="M4 19.7278C4 17.7353 4 16.739 4.48291 15.9943C4.63969 15.7525 4.83048 15.5346 5.0494 15.3473C5.72374 14.7702 6.71128 14.6385 8.68634 14.3752L11.5 14L12.9425 11.692C13.4009 10.9586 13.6301 10.5919 13.9672 10.3576C14.0781 10.2806 14.1965 10.2149 14.3207 10.1617C14.698 10 15.1304 10 15.9953 10H18.0047C18.8696 10 19.302 10 19.6793 10.1617C19.8035 10.2149 19.9219 10.2806 20.0328 10.3576C20.3699 10.5919 20.5991 10.9586 21.0575 11.692L22.5 14L25.3137 14.3752C27.2887 14.6385 28.2763 14.7702 28.9506 15.3473C29.1695 15.5346 29.3603 15.7525 29.5171 15.9943C30 16.739 30 17.7353 30 19.7278V26.6C30 28.8499 30 29.9748 29.4271 30.7634C29.242 31.0181 29.018 31.242 28.7634 31.4271C27.9748 32 26.8498 32 24.6 32H9.4C7.15016 32 6.02524 32 5.23664 31.4271C4.98196 31.242 4.75799 31.0181 4.57295 30.7634C4 29.9748 4 28.8499 4 26.6V19.7278ZM28 18.25C28 18.9404 27.4404 19.5 26.75 19.5C26.0596 19.5 25.5 18.9404 25.5 18.25C25.5 17.5596 26.0596 17 26.75 17C27.4404 17 28 17.5596 28 18.25ZM24 22.5C24 26.366 20.866 29.5 17 29.5C13.134 29.5 10 26.366 10 22.5C10 18.634 13.134 15.5 17 15.5C20.866 15.5 24 18.634 24 22.5Z" fill="#2A72DE"/>
<path d="M6 11.8C6 11.0501 6 10.6751 6.19098 10.4122C6.25266 10.3273 6.32732 10.2527 6.41221 10.191C6.67508 10 7.05005 10 7.8 10H8.2C8.94995 10 9.32492 10 9.58779 10.191C9.67268 10.2527 9.74734 10.3273 9.80902 10.4122C10 10.6751 10 11.0501 10 11.8V12.2L6 12.75V11.8Z" fill="#2A72DE"/>
</svg>
