<svg width="64" height="64" viewBox="0 0 64 64" fill="none" xmlns="http://www.w3.org/2000/svg">
<g clip-path="url(#clip0_1974_45928)">
<path d="M2.09955 61.4909L4.96955 37.5009L11.6896 36.5309L11.8896 38.5609C11.8796 38.6109 11.8596 38.6509 11.8596 38.7009C11.8596 38.8509 11.8896 38.9809 11.9496 39.1109L13.9296 58.9509L2.09955 61.4909ZM63.2696 38.6909C62.9378 38.1519 62.5029 37.6837 61.9898 37.313C61.4767 36.9424 60.8955 36.6766 60.2796 36.5309C59.66 36.3854 59.0178 36.3635 58.3898 36.4665C57.7618 36.5694 57.1602 36.7952 56.6196 37.1309L43.4996 45.0109C42.7796 43.4509 41.1596 42.3709 39.2896 42.3709H33.9196C31.8396 42.3709 29.8196 41.7609 28.0696 40.6009C25.9196 39.1709 23.7996 38.2709 21.7796 37.9209C20.8696 37.7609 19.8996 37.7109 18.7296 37.7609C17.9196 37.7909 16.0896 37.7909 13.7596 37.7609L13.5196 35.3309C13.5064 35.1999 13.467 35.0728 13.4035 34.9573C13.34 34.8419 13.2538 34.7405 13.1501 34.6592C13.0464 34.5779 12.9273 34.5185 12.8001 34.4844C12.6728 34.4503 12.54 34.4424 12.4096 34.4609L3.94955 35.6809C3.51955 35.7409 3.17955 36.0909 3.12955 36.5309L0.00955376 62.6109C-0.0304462 62.9209 0.0895538 63.2309 0.319554 63.4409C0.499554 63.6109 0.729554 63.6909 0.969554 63.6909C1.03955 63.6909 1.10955 63.6909 1.16955 63.6709L15.1796 60.6609C15.6596 60.5609 15.9896 60.1109 15.9396 59.6209L15.7396 57.6209C18.2396 58.6809 21.0196 60.2709 21.3696 60.4809C21.4016 60.5085 21.4391 60.5289 21.4796 60.5409C24.4496 62.0909 27.2696 62.6109 29.7196 62.6109C34.8096 62.6109 38.2996 60.3509 38.3496 60.3209L61.7096 45.3409C62.4341 44.8995 63.0281 44.2732 63.4305 43.5263C63.833 42.7794 64.0294 41.9388 63.9996 41.0909C63.9796 40.2509 63.7296 39.4209 63.2696 38.6909ZM60.6796 43.7009L37.2896 58.7009C35.4396 59.9209 29.1896 62.3209 22.4396 58.8609C22.0396 58.5809 21.2796 58.1809 19.8596 57.4409C18.6696 56.8209 17.0196 56.0009 15.5296 55.4309L15.3696 53.8109L14.1096 41.2209L13.9596 39.7009C15.5196 39.7209 17.7396 39.7409 18.8096 39.7009C19.8396 39.6509 20.6796 39.6909 21.4396 39.8309C23.1996 40.1409 25.0696 40.9409 26.9996 42.2209C29.0596 43.5809 31.4496 44.3109 33.9196 44.3109H39.2896C40.6096 44.3109 41.7196 45.2109 41.9196 46.4109C41.9396 46.4809 41.9496 46.5609 41.9496 46.6409C41.9596 46.7009 41.9596 46.7609 41.9596 46.8109C41.9596 46.9209 41.9596 47.0209 41.9496 47.0809L41.9296 47.2609C41.8296 47.7709 41.5796 48.2409 41.2296 48.5909C40.7596 49.0709 40.1196 49.3309 39.4496 49.3309H26.8796C26.3496 49.3309 25.9096 49.7709 25.9096 50.3009C25.9096 50.8409 26.3496 51.2709 26.8796 51.2709H39.4496C40.6396 51.2709 41.7596 50.8109 42.5996 49.9609C42.7896 49.7709 42.9596 49.5709 43.1096 49.3509C43.1196 49.3409 43.1196 49.3409 43.1196 49.3309C43.4696 48.8309 43.7096 48.2409 43.8296 47.6009C43.8396 47.6009 43.8496 47.5109 43.8496 47.5009L43.8796 47.3309C43.8896 47.2209 43.8896 47.1309 43.8896 47.0309L57.6296 38.7809C58.2896 38.3709 59.0796 38.2409 59.8296 38.4209C60.5796 38.6009 61.2196 39.0609 61.6296 39.7209C61.8996 40.1509 62.0496 40.6409 62.0596 41.1509C62.0896 42.1909 61.5796 43.1409 60.6796 43.7009Z" fill="#2B2E63"/>
<path d="M13.9296 58.9493L2.09961 61.4893L4.96961 37.4993L11.6896 36.5293L11.8896 38.5593C11.8796 38.6093 11.8596 38.6493 11.8596 38.6993C11.8596 38.8493 11.8896 38.9793 11.9496 39.1093L13.9296 58.9493Z" fill="#4EBDE5"/>
<path d="M60.5594 41.1799C60.5794 41.6999 60.3294 42.1499 59.8894 42.4299L36.4794 57.4399C35.5694 58.0399 33.0194 59.1499 29.7694 59.1499C27.4994 59.1499 25.2894 58.6199 23.2094 57.5699C22.7194 57.2399 21.9694 56.8499 20.5494 56.1099C19.3394 55.4799 16.6694 54.3599 15.3694 53.8099L14.1094 41.2199H16.9694C17.7194 41.2199 18.3994 41.2199 18.8694 41.1999C19.1394 41.1899 19.3794 41.1799 19.6094 41.1799C20.1994 41.1799 20.7094 41.2199 21.1694 41.2999C22.7394 41.5799 24.4194 42.3099 26.1694 43.4699C28.4894 44.9999 31.1694 45.8099 33.9194 45.8099H39.2894C39.7594 45.8099 41.2594 46.0599 41.9194 46.4099C41.9394 46.4799 41.9494 46.5599 41.9494 46.6399C41.9594 46.6999 41.9594 46.7599 41.9594 46.8099C41.9594 46.9199 41.9594 47.0199 41.9494 47.0799L41.9294 47.2599C41.8294 47.7699 41.5794 48.2399 41.2294 48.5899C40.7594 49.0699 40.1194 49.3299 39.4494 49.3299H26.8794C26.3494 49.3299 25.9094 49.7699 25.9094 50.2999C25.9094 50.8399 26.3494 51.2699 26.8794 51.2699H39.4494C40.6394 51.2699 41.7594 50.8099 42.5994 49.9599C42.7894 49.7699 42.9594 49.5699 43.1094 49.3499C43.1194 49.3399 43.1194 49.3399 43.1194 49.3299L43.4594 49.1299C43.7394 48.9699 44.0294 48.7799 44.2994 48.6199L45.2294 48.0499C45.2594 48.0299 45.2694 48.0299 45.2694 48.0299L58.3994 40.0699C58.5567 39.9658 58.7338 39.8953 58.9196 39.8626C59.1054 39.8299 59.296 39.8358 59.4794 39.8799C59.8494 39.9699 60.1594 40.1899 60.3594 40.5099C60.4894 40.7199 60.5594 40.9499 60.5594 41.1799Z" fill="#FFE5AB"/>
<path d="M62.0591 41.1509C62.0891 42.1909 61.5791 43.1409 60.6791 43.7009L37.2891 58.7009C35.4391 59.9209 29.1891 62.3209 22.4391 58.8609C22.0391 58.5809 21.2791 58.1809 19.8591 57.4409C18.6691 56.8209 17.0191 56.0009 15.5291 55.4309L15.3691 53.8109C16.6691 54.3609 19.3391 55.4809 20.5491 56.1109C21.9691 56.8509 22.7191 57.2409 23.2091 57.5709C25.2891 58.6209 27.4991 59.1509 29.7691 59.1509C33.0191 59.1509 35.5691 58.0409 36.4791 57.4409L59.8891 42.4309C60.3291 42.1509 60.5791 41.7009 60.5591 41.1809C60.5591 40.9509 60.4891 40.7209 60.3591 40.5109C60.1591 40.1909 59.8491 39.9709 59.4791 39.8809C59.2957 39.8368 59.1052 39.8309 58.9194 39.8636C58.7336 39.8963 58.5565 39.9669 58.3991 40.0709L45.2691 48.0309C45.2691 48.0309 45.2591 48.0309 45.2291 48.0509L44.2991 48.6209C44.0291 48.7809 43.7391 48.9709 43.4591 49.1309L43.1191 49.3309C43.4691 48.8309 43.7091 48.2409 43.8291 47.6009C43.8391 47.6009 43.8491 47.5109 43.8491 47.5009L43.8791 47.3309C43.8891 47.2209 43.8891 47.1309 43.8891 47.0309L57.6291 38.7809C58.2891 38.3709 59.0791 38.2409 59.8291 38.4209C60.5791 38.6009 61.2191 39.0609 61.6291 39.7209C61.8991 40.1509 62.0491 40.6409 62.0591 41.1509Z" fill="#F0D39A"/>
<path d="M41.9209 46.4103C41.2609 46.0603 39.7609 45.8103 39.2909 45.8103H33.9209C31.1709 45.8103 28.4909 45.0003 26.1709 43.4703C24.4209 42.3103 22.7409 41.5803 21.1709 41.3003C20.7109 41.2203 20.2009 41.1803 19.6109 41.1803C19.3809 41.1803 19.1409 41.1903 18.8709 41.2003C18.4009 41.2203 17.7209 41.2203 16.9709 41.2203H14.1109L13.9609 39.7003C15.5209 39.7203 17.7409 39.7403 18.8109 39.7003C19.8409 39.6503 20.6809 39.6903 21.4409 39.8303C23.2009 40.1403 25.0709 40.9403 27.0009 42.2203C29.0609 43.5803 31.4509 44.3103 33.9209 44.3103H39.2909C40.6109 44.3103 41.7209 45.2103 41.9209 46.4103Z" fill="#F0D39A"/>
<path d="M43.1097 49.3509L43.1197 49.3309L43.4597 49.1309C43.3397 49.2109 43.2397 49.3509 43.1097 49.3509C43.3497 49.2109 43.0497 49.3509 43.1097 49.3509Z" fill="#FFE5AB"/>
<path d="M44.4104 19.6198C44.4104 20.1298 44.3204 20.5898 44.1404 20.9998C43.9504 21.4098 43.7004 21.7698 43.3604 22.0598C43.0304 22.3598 42.6304 22.5998 42.1604 22.7798C41.6904 22.9598 41.1704 23.0698 40.6004 23.1198L40.4104 25.0298C40.4004 25.0798 40.3904 25.1198 40.3704 25.1498C40.3504 25.1898 40.3104 25.2198 40.2504 25.2398C40.2004 25.2698 40.1204 25.2898 40.0204 25.2998C39.9204 25.3198 39.8004 25.3198 39.6504 25.3198C39.4604 25.3198 39.3104 25.3098 39.1904 25.2998C39.097 25.2863 39.0061 25.2593 38.9204 25.2198C38.8911 25.2079 38.8645 25.1903 38.8421 25.168C38.8198 25.1457 38.8022 25.1191 38.7904 25.0898C38.7665 25.0327 38.763 24.9691 38.7804 24.9098L38.9604 23.0998C38.7183 23.0646 38.478 23.0179 38.2404 22.9598C38.0104 22.9098 37.8104 22.8398 37.6204 22.7698C37.4404 22.7098 37.2804 22.6398 37.1504 22.5598C37.0104 22.4898 36.9104 22.4198 36.8404 22.3498C36.7704 22.2898 36.7304 22.1898 36.7004 22.0498C36.6704 21.9198 36.6504 21.7198 36.6504 21.4598C36.6504 21.2598 36.6604 21.0898 36.6704 20.9598C36.6804 20.8298 36.7004 20.7298 36.7304 20.6498C36.7604 20.5798 36.8004 20.5298 36.8404 20.5098C36.8904 20.4798 36.9404 20.4698 37.0004 20.4698C37.0804 20.4698 37.1904 20.5098 37.3404 20.5998C37.4904 20.6898 37.6804 20.7898 37.9104 20.8998C38.1404 20.9998 38.4204 21.0998 38.7504 21.1898C39.0804 21.2798 39.4704 21.3198 39.9204 21.3198C40.6104 21.3198 41.1304 21.1898 41.4704 20.9398C41.8104 20.6798 41.9804 20.3298 41.9804 19.8998C41.9804 19.6198 41.9104 19.3798 41.7604 19.1998C41.6204 19.0098 41.4204 18.8498 41.1804 18.7098C40.9304 18.5698 40.6604 18.4498 40.3504 18.3398C40.0404 18.2298 39.7304 18.1098 39.4104 17.9798C39.0904 17.8598 38.7704 17.7098 38.4704 17.5498C38.1604 17.3798 37.8904 17.1798 37.6404 16.9298C37.3887 16.6755 37.1914 16.3727 37.0604 16.0398C36.9104 15.6998 36.8404 15.2698 36.8404 14.7798C36.8404 14.3298 36.9104 13.9298 37.0604 13.5598C37.2104 13.1998 37.4204 12.8798 37.7004 12.5998C37.9804 12.3298 38.3304 12.1098 38.7404 11.9398C39.1404 11.7698 39.6104 11.6498 40.1204 11.5898L40.3004 9.79977C40.3104 9.74977 40.3204 9.70977 40.3404 9.67977C40.3724 9.64039 40.4136 9.60949 40.4604 9.58977C40.5104 9.55977 40.5904 9.53977 40.6904 9.52977C40.7804 9.51977 40.9104 9.50977 41.0604 9.50977C41.2504 9.50977 41.4004 9.51977 41.5204 9.53977C41.6404 9.55977 41.7404 9.57977 41.8004 9.61977C41.8704 9.64977 41.9104 9.68977 41.9304 9.74977C41.9404 9.79977 41.9504 9.85977 41.9504 9.91977L41.7804 11.6098C41.9404 11.6398 42.1204 11.6698 42.3004 11.7098C42.4904 11.7498 42.6604 11.7998 42.8204 11.8598C42.9804 11.9098 43.1304 11.9698 43.2604 12.0398C43.3904 12.0998 43.4804 12.1498 43.5304 12.1998C43.5804 12.2598 43.6204 12.3098 43.6504 12.3598C43.6704 12.4098 43.6904 12.4698 43.7104 12.5398C43.7204 12.6198 43.7304 12.7098 43.7404 12.8098C43.7504 12.9198 43.7504 13.0398 43.7504 13.1698C43.7504 13.3598 43.7404 13.5098 43.7304 13.6298C43.7304 13.7498 43.7104 13.8398 43.6904 13.8998C43.6604 13.9598 43.6404 14.0098 43.6104 14.0298C43.5804 14.0498 43.5404 14.0598 43.5004 14.0598C43.4204 14.0598 43.3104 14.0198 43.1604 13.9398C43.0104 13.8598 42.8304 13.7798 42.6104 13.6898C42.3904 13.5998 42.1404 13.5198 41.8604 13.4398C41.557 13.3603 41.244 13.3232 40.9304 13.3298C40.6204 13.3298 40.3504 13.3498 40.1304 13.4098C39.9104 13.4698 39.7304 13.5598 39.6004 13.6598C39.4604 13.7698 39.3604 13.8998 39.2904 14.0498C39.2304 14.1998 39.2004 14.3598 39.2004 14.5398C39.2004 14.8198 39.2704 15.0498 39.4204 15.2398C39.5704 15.4298 39.7704 15.5998 40.0104 15.7398C40.2604 15.8698 40.5404 15.9998 40.8504 16.1098C41.1604 16.2198 41.4804 16.3398 41.8104 16.4698C42.1304 16.5898 42.4504 16.7398 42.7604 16.8998C43.0704 17.0598 43.3504 17.2698 43.6004 17.5098C43.8404 17.7498 44.0404 18.0398 44.1904 18.3798C44.3304 18.7198 44.4104 19.1398 44.4104 19.6198Z" fill="#2B2E63"/>
<path d="M40.5299 0.310547C31.0999 0.310547 23.4199 7.98055 23.4199 17.4205C23.4199 26.8505 31.0999 34.5305 40.5299 34.5305C49.9599 34.5305 57.6399 26.8505 57.6399 17.4205C57.6399 7.98055 49.9599 0.310547 40.5299 0.310547ZM40.5299 32.5905C32.1699 32.5905 25.3599 25.7805 25.3599 17.4205C25.3599 9.05055 32.1699 2.25055 40.5299 2.25055C48.8899 2.25055 55.6999 9.05055 55.6999 17.4205C55.6999 25.7805 48.8899 32.5905 40.5299 32.5905Z" fill="#2B2E63"/>
<path d="M40.5294 2.25C32.1694 2.25 25.3594 9.05 25.3594 17.42C25.3594 25.78 32.1694 32.59 40.5294 32.59C48.8894 32.59 55.6994 25.78 55.6994 17.42C55.6994 9.05 48.8894 2.25 40.5294 2.25ZM40.5294 30.51C33.3094 30.51 27.4394 24.64 27.4394 17.42C27.4394 10.2 33.3094 4.33 40.5294 4.33C47.7494 4.33 53.6194 10.2 53.6194 17.42C53.6194 24.64 47.7494 30.51 40.5294 30.51Z" fill="#ECC25D"/>
<path d="M40.5295 4.33008C33.3095 4.33008 27.4395 10.2001 27.4395 17.4201C27.4395 24.6401 33.3095 30.5101 40.5295 30.5101C47.7495 30.5101 53.6195 24.6401 53.6195 17.4201C53.6195 10.2001 47.7495 4.33008 40.5295 4.33008ZM40.5295 28.5701C34.3795 28.5701 29.3795 23.5701 29.3795 17.4201C29.3795 11.2701 34.3795 6.27008 40.5295 6.27008C46.6795 6.27008 51.6795 11.2701 51.6795 17.4201C51.6795 23.5701 46.6795 28.5701 40.5295 28.5701Z" fill="#2B2E63"/>
<path d="M40.5309 6.26953C34.3809 6.26953 29.3809 11.2695 29.3809 17.4195C29.3809 23.5695 34.3809 28.5695 40.5309 28.5695C46.6809 28.5695 51.6809 23.5695 51.6809 17.4195C51.6809 11.2695 46.6809 6.26953 40.5309 6.26953ZM44.1409 20.9995C43.9509 21.4095 43.7009 21.7695 43.3609 22.0595C43.0309 22.3595 42.6309 22.5995 42.1609 22.7795C41.6909 22.9595 41.1709 23.0695 40.6009 23.1195L40.4109 25.0295C40.4009 25.0795 40.3909 25.1195 40.3709 25.1495C40.3509 25.1895 40.3109 25.2195 40.2509 25.2395C40.2009 25.2695 40.1209 25.2895 40.0209 25.2995C39.9209 25.3195 39.8009 25.3195 39.6509 25.3195C39.4609 25.3195 39.3109 25.3095 39.1909 25.2995C39.0975 25.286 39.0065 25.2591 38.9209 25.2195C38.8916 25.2077 38.865 25.1901 38.8426 25.1678C38.8203 25.1454 38.8027 25.1188 38.7909 25.0895C38.767 25.0324 38.7635 24.9689 38.7809 24.9095L38.9609 23.0995C38.7188 23.0644 38.4785 23.0177 38.2409 22.9595C38.0109 22.9095 37.8109 22.8395 37.6209 22.7695C37.4409 22.7095 37.2809 22.6395 37.1509 22.5595C37.0109 22.4895 36.9109 22.4195 36.8409 22.3495C36.7709 22.2895 36.7309 22.1895 36.7009 22.0495C36.6709 21.9195 36.6509 21.7195 36.6509 21.4595C36.6509 21.2595 36.6609 21.0895 36.6709 20.9595C36.6809 20.8295 36.7009 20.7295 36.7309 20.6495C36.7609 20.5795 36.8009 20.5295 36.8409 20.5095C36.8909 20.4795 36.9409 20.4695 37.0009 20.4695C37.0809 20.4695 37.1909 20.5095 37.3409 20.5995C37.4909 20.6895 37.6809 20.7895 37.9109 20.8995C38.1409 20.9995 38.4209 21.0995 38.7509 21.1895C39.0809 21.2795 39.4709 21.3195 39.9209 21.3195C40.6109 21.3195 41.1309 21.1895 41.4709 20.9395C41.8109 20.6795 41.9809 20.3295 41.9809 19.8995C41.9809 19.6195 41.9109 19.3795 41.7609 19.1995C41.6209 19.0095 41.4209 18.8495 41.1809 18.7095C40.9309 18.5695 40.6609 18.4495 40.3509 18.3395C40.0409 18.2295 39.7309 18.1095 39.4109 17.9795C39.0909 17.8595 38.7709 17.7095 38.4709 17.5495C38.1609 17.3795 37.8909 17.1795 37.6409 16.9295C37.3892 16.6752 37.1919 16.3724 37.0609 16.0395C36.9109 15.6995 36.8409 15.2695 36.8409 14.7795C36.8409 14.3295 36.9109 13.9295 37.0609 13.5595C37.2109 13.1995 37.4209 12.8795 37.7009 12.5995C37.9809 12.3295 38.3309 12.1095 38.7409 11.9395C39.1409 11.7695 39.6109 11.6495 40.1209 11.5895L40.3009 9.79953C40.3109 9.74953 40.3209 9.70953 40.3409 9.67953C40.3729 9.64016 40.4141 9.60926 40.4609 9.58953C40.5109 9.55953 40.5909 9.53953 40.6909 9.52953C40.7809 9.51953 40.9109 9.50953 41.0609 9.50953C41.2509 9.50953 41.4009 9.51953 41.5209 9.53953C41.6409 9.55953 41.7409 9.57953 41.8009 9.61953C41.8709 9.64953 41.9109 9.68953 41.9309 9.74953C41.9409 9.79953 41.9509 9.85953 41.9509 9.91953L41.7809 11.6095C41.9409 11.6395 42.1209 11.6695 42.3009 11.7095C42.4909 11.7495 42.6609 11.7995 42.8209 11.8595C42.9809 11.9095 43.1309 11.9695 43.2609 12.0395C43.3909 12.0995 43.4809 12.1495 43.5309 12.1995C43.5809 12.2595 43.6209 12.3095 43.6509 12.3595C43.6709 12.4095 43.6909 12.4695 43.7109 12.5395C43.7209 12.6195 43.7309 12.7095 43.7409 12.8095C43.7509 12.9195 43.7509 13.0395 43.7509 13.1695C43.7509 13.3595 43.7409 13.5095 43.7309 13.6295C43.7309 13.7495 43.7109 13.8395 43.6909 13.8995C43.6609 13.9595 43.6409 14.0095 43.6109 14.0295C43.5809 14.0495 43.5409 14.0595 43.5009 14.0595C43.4209 14.0595 43.3109 14.0195 43.1609 13.9395C43.0109 13.8595 42.8309 13.7795 42.6109 13.6895C42.3909 13.5995 42.1409 13.5195 41.8609 13.4395C41.5574 13.36 41.2445 13.323 40.9309 13.3295C40.6209 13.3295 40.3509 13.3495 40.1309 13.4095C39.9109 13.4695 39.7309 13.5595 39.6009 13.6595C39.4609 13.7695 39.3609 13.8995 39.2909 14.0495C39.2309 14.1995 39.2009 14.3595 39.2009 14.5395C39.2009 14.8195 39.2709 15.0495 39.4209 15.2395C39.5709 15.4295 39.7709 15.5995 40.0109 15.7395C40.2609 15.8695 40.5409 15.9995 40.8509 16.1095C41.1609 16.2195 41.4809 16.3395 41.8109 16.4695C42.1309 16.5895 42.4509 16.7395 42.7609 16.8995C43.0709 17.0595 43.3509 17.2695 43.6009 17.5095C43.8409 17.7495 44.0409 18.0395 44.1909 18.3795C44.3309 18.7195 44.4109 19.1395 44.4109 19.6195C44.4109 20.1295 44.3209 20.5895 44.1409 20.9995Z" fill="#FFDC7C"/>
<path d="M13.9296 58.9493L2.09961 61.4893L4.96961 37.4993L11.6896 36.5293L11.8396 38.0193L6.31961 38.8193L3.83961 59.5793L13.7796 57.4493L13.9296 58.9493Z" fill="#36A9DB"/>
<path d="M40.5294 2.25C32.1694 2.25 25.3594 9.05 25.3594 17.42C25.3594 25.78 32.1694 32.59 40.5294 32.59C48.8894 32.59 55.6994 25.78 55.6994 17.42C55.6994 9.05 48.8894 2.25 40.5294 2.25ZM40.5294 31.59C32.7194 31.59 26.3594 25.23 26.3594 17.42C26.3594 9.61 32.7194 3.25 40.5294 3.25C48.3394 3.25 54.6994 9.61 54.6994 17.42C54.6994 25.23 48.3394 31.59 40.5294 31.59Z" fill="#E3B348"/>
<path d="M40.5309 6.26953C34.3809 6.26953 29.3809 11.2695 29.3809 17.4195C29.3809 23.5695 34.3809 28.5695 40.5309 28.5695C46.6809 28.5695 51.6809 23.5695 51.6809 17.4195C51.6809 11.2695 46.6809 6.26953 40.5309 6.26953ZM44.1409 20.9995C43.9509 21.4095 43.7009 21.7695 43.3609 22.0595C43.0309 22.3595 42.6309 22.5995 42.1609 22.7795C41.6909 22.9595 41.1709 23.0695 40.6009 23.1195L40.4109 25.0295C40.4009 25.0795 40.3909 25.1195 40.3709 25.1495C40.3509 25.1895 40.3109 25.2195 40.2509 25.2395C40.2009 25.2695 40.1209 25.2895 40.0209 25.2995C39.9209 25.3195 39.8009 25.3195 39.6509 25.3195C39.4609 25.3195 39.3109 25.3095 39.1909 25.2995C39.0975 25.286 39.0065 25.2591 38.9209 25.2195C38.8916 25.2077 38.865 25.1901 38.8426 25.1678C38.8203 25.1454 38.8027 25.1188 38.7909 25.0895C38.767 25.0324 38.7635 24.9689 38.7809 24.9095L38.9609 23.0995C38.7188 23.0644 38.4785 23.0177 38.2409 22.9595C38.0109 22.9095 37.8109 22.8395 37.6209 22.7695C37.4409 22.7095 37.2809 22.6395 37.1509 22.5595C37.0109 22.4895 36.9109 22.4195 36.8409 22.3495C36.7709 22.2895 36.7309 22.1895 36.7009 22.0495C36.6709 21.9195 36.6509 21.7195 36.6509 21.4595C36.6509 21.2595 36.6609 21.0895 36.6709 20.9595C36.6809 20.8295 36.7009 20.7295 36.7309 20.6495C36.7609 20.5795 36.8009 20.5295 36.8409 20.5095C36.8909 20.4795 36.9409 20.4695 37.0009 20.4695C37.0809 20.4695 37.1909 20.5095 37.3409 20.5995C37.4909 20.6895 37.6809 20.7895 37.9109 20.8995C38.1409 20.9995 38.4209 21.0995 38.7509 21.1895C39.0809 21.2795 39.4709 21.3195 39.9209 21.3195C40.6109 21.3195 41.1309 21.1895 41.4709 20.9395C41.8109 20.6795 41.9809 20.3295 41.9809 19.8995C41.9809 19.6195 41.9109 19.3795 41.7609 19.1995C41.6209 19.0095 41.4209 18.8495 41.1809 18.7095C40.9309 18.5695 40.6609 18.4495 40.3509 18.3395C40.0409 18.2295 39.7309 18.1095 39.4109 17.9795C39.0909 17.8595 38.7709 17.7095 38.4709 17.5495C38.1609 17.3795 37.8909 17.1795 37.6409 16.9295C37.3892 16.6752 37.1919 16.3724 37.0609 16.0395C36.9109 15.6995 36.8409 15.2695 36.8409 14.7795C36.8409 14.3295 36.9109 13.9295 37.0609 13.5595C37.2109 13.1995 37.4209 12.8795 37.7009 12.5995C37.9809 12.3295 38.3309 12.1095 38.7409 11.9395C39.1409 11.7695 39.6109 11.6495 40.1209 11.5895L40.3009 9.79953C40.3109 9.74953 40.3209 9.70953 40.3409 9.67953C40.3729 9.64016 40.4141 9.60926 40.4609 9.58953C40.5109 9.55953 40.5909 9.53953 40.6909 9.52953C40.7809 9.51953 40.9109 9.50953 41.0609 9.50953C41.2509 9.50953 41.4009 9.51953 41.5209 9.53953C41.6409 9.55953 41.7409 9.57953 41.8009 9.61953C41.8709 9.64953 41.9109 9.68953 41.9309 9.74953C41.9409 9.79953 41.9509 9.85953 41.9509 9.91953L41.7809 11.6095C41.9409 11.6395 42.1209 11.6695 42.3009 11.7095C42.4909 11.7495 42.6609 11.7995 42.8209 11.8595C42.9809 11.9095 43.1309 11.9695 43.2609 12.0395C43.3909 12.0995 43.4809 12.1495 43.5309 12.1995C43.5809 12.2595 43.6209 12.3095 43.6509 12.3595C43.6709 12.4095 43.6909 12.4695 43.7109 12.5395C43.7209 12.6195 43.7309 12.7095 43.7409 12.8095C43.7509 12.9195 43.7509 13.0395 43.7509 13.1695C43.7509 13.3595 43.7409 13.5095 43.7309 13.6295C43.7309 13.7495 43.7109 13.8395 43.6909 13.8995C43.6609 13.9595 43.6409 14.0095 43.6109 14.0295C43.5809 14.0495 43.5409 14.0595 43.5009 14.0595C43.4209 14.0595 43.3109 14.0195 43.1609 13.9395C43.0109 13.8595 42.8309 13.7795 42.6109 13.6895C42.3909 13.5995 42.1409 13.5195 41.8609 13.4395C41.5574 13.36 41.2445 13.323 40.9309 13.3295C40.6209 13.3295 40.3509 13.3495 40.1309 13.4095C39.9109 13.4695 39.7309 13.5595 39.6009 13.6595C39.4609 13.7695 39.3609 13.8995 39.2909 14.0495C39.2309 14.1995 39.2009 14.3595 39.2009 14.5395C39.2009 14.8195 39.2709 15.0495 39.4209 15.2395C39.5709 15.4295 39.7709 15.5995 40.0109 15.7395C40.2609 15.8695 40.5409 15.9995 40.8509 16.1095C41.1609 16.2195 41.4809 16.3395 41.8109 16.4695C42.1309 16.5895 42.4509 16.7395 42.7609 16.8995C43.0709 17.0595 43.3509 17.2695 43.6009 17.5095C43.8409 17.7495 44.0409 18.0395 44.1909 18.3795C44.3309 18.7195 44.4109 19.1395 44.4109 19.6195C44.4109 20.1295 44.3209 20.5895 44.1409 20.9995Z" fill="#FFDC7C"/>
<path d="M40.5309 6.26953C34.3809 6.26953 29.3809 11.2695 29.3809 17.4195C29.3809 23.5695 34.3809 28.5695 40.5309 28.5695C46.6809 28.5695 51.6809 23.5695 51.6809 17.4195C51.6809 11.2695 46.6809 6.26953 40.5309 6.26953ZM40.5309 27.5695C34.9309 27.5695 30.3809 23.0195 30.3809 17.4195C30.3809 11.8195 34.9309 7.26953 40.5309 7.26953C46.1309 7.26953 50.6809 11.8195 50.6809 17.4195C50.6809 23.0195 46.1309 27.5695 40.5309 27.5695Z" fill="#ECC25D"/>
</g>
<defs>
<clipPath id="clip0_1974_45928">
<rect width="64" height="64" fill="white"/>
</clipPath>
</defs>
</svg>
