<svg width="64" height="64" viewBox="0 0 64 64" fill="none" xmlns="http://www.w3.org/2000/svg">
<path d="M23.293 16.707L22.707 17.293C22.254 17.746 22 18.36 22 19C22 19.64 22.254 20.254 22.707 20.707L27.293 25.293C27.746 25.746 28.36 26 29 26C29.64 26 30.254 25.746 30.707 25.293L31.293 24.707C31.746 24.254 32 23.64 32 23C32 22.36 31.746 21.746 31.293 21.293L26.707 16.707C26.254 16.254 25.64 16 25 16C24.36 16 23.746 16.254 23.293 16.707ZM43 13L41 14L38.27 17.41C38.15 17.25 38.01 17.1 37.86 16.96L33.86 13.29L33.85 13.28L32.71 13.97C31.59 14.64 30.31 15 29 15C28.45 15 27.95 14.78 27.59 14.41C27.22 14.05 27 13.55 27 13C27 12.37 27.3 11.78 27.8 11.4L31 9H35L37 7L43 13ZM56 35V39C56 42.314 53.314 45 50 45C46.686 45 44 42.314 44 39V35C45.921 35 47.763 34.237 49.121 32.878L49.999 32L50.878 32.879C52.237 34.237 54.079 35 56 35ZM21 35V39C21 42.314 18.314 45 15 45C11.686 45 9 42.314 9 39V35H12.838C14.726 35 16.403 33.792 17 32L21 35Z" fill="#F4B2B0"/>
<path d="M4 55.0003V62.0003C4 62.5522 4.448 63.0003 5 63.0003H25C25.552 63.0003 26 62.5522 26 62.0003V55.0003C26.552 55.0003 27 54.5522 27 54.0003V53.0003C27 49.0073 24.295 45.5433 20.422 44.5753L19.509 44.3473C20.267 43.7063 20.883 42.9062 21.315 42.0013H22.5C24.43 42.0013 26 40.4313 26 38.5013C26 37.1103 25.178 35.9163 24 35.3523V32.0002C24 30.1033 22.673 28.5112 20.898 28.1022C20.489 26.3272 18.897 25.0002 17 25.0002H12C8.691 25.0002 6 27.6912 6 31.0002V35.3513C4.822 35.9153 4 37.1093 4 38.5003C4 40.4303 5.57 42.0003 7.5 42.0003H8.685C9.117 42.9053 9.733 43.7063 10.491 44.3463L9.578 44.5743C5.705 45.5433 3 49.0073 3 53.0003V54.0003C3 54.5522 3.448 55.0003 4 55.0003ZM6 55.0003H8V61.0003H6V55.0003ZM24 61.0003H22V55.0003H24V61.0003ZM22.5 40.0003H21.92C21.967 39.6723 22 39.3403 22 39.0003V37.0003H22.5C23.327 37.0003 24 37.6733 24 38.5003C24 39.3273 23.327 40.0003 22.5 40.0003ZM8 31.0002C8 28.7943 9.794 27.0002 12 27.0002H17C18.103 27.0002 19 27.8972 19 29.0002C19 29.5522 19.448 30.0002 20 30.0002C21.103 30.0002 22 30.8972 22 32.0002V35.0003C22 34.6853 21.852 34.3893 21.6 34.2003L17.6 31.2003C17.343 31.0063 17.008 30.9503 16.702 31.0452C16.395 31.1413 16.153 31.3783 16.052 31.6833C15.589 33.0693 14.298 34.0003 12.838 34.0003H9C8.448 34.0003 8 34.4483 8 35.0003V31.0002ZM7.5 40.0003C6.673 40.0003 6 39.3273 6 38.5003C6 37.6733 6.673 37.0003 7.5 37.0003H8V39.0003C8 39.3403 8.033 39.6723 8.08 40.0003H7.5ZM10 39.0003V36.0003H12.838C14.703 36.0003 16.396 35.0453 17.37 33.5273L20 35.5003V39.0003C20 41.7573 17.757 44.0003 15 44.0003C12.243 44.0003 10 41.7573 10 39.0003ZM16.853 45.7433C16.558 46.4783 15.84 47.0003 15 47.0003C14.16 47.0003 13.442 46.4783 13.147 45.7433C13.738 45.9062 14.358 46.0003 15 46.0003C15.642 46.0003 16.262 45.9062 16.853 45.7433ZM10.063 46.5153L11.212 46.2283C11.735 47.8313 13.225 49.0003 15 49.0003C16.775 49.0003 18.265 47.8313 18.787 46.2283L19.936 46.5153C22.918 47.2603 25 49.9273 25 53.0003H21C20.448 53.0003 20 53.4483 20 54.0003V61.0003H10V54.0003C10 53.4483 9.552 53.0003 9 53.0003H5C5 49.9273 7.082 47.2603 10.063 46.5153ZM50 25.7172C49.289 25.2502 48.457 25.0002 47.586 25.0002C43.955 25.0002 41 27.9552 41 31.5863V35.3513C39.822 35.9153 39 37.1093 39 38.5003C39 39.8913 39.822 41.0853 41 41.6493V42.0003C41 42.5513 40.551 43.0003 40 43.0003C39.7 43.0003 39.417 43.1343 39.227 43.3663C39.037 43.5983 38.961 43.9033 39.02 44.1963L39.235 45.2743C39.497 46.5833 40.183 47.7363 41.171 48.5823C39.825 50.0123 39 51.9273 39 54.0003V56.0003C39 56.5522 39.448 57.0003 40 57.0003V62.0003C40 62.5522 40.448 63.0003 41 63.0003H59C59.552 63.0003 60 62.5522 60 62.0003V57.0003C60.552 57.0003 61 56.5522 61 56.0003V54.0003C61 51.9273 60.175 50.0123 58.829 48.5823C59.817 47.7363 60.503 46.5833 60.765 45.2743L60.98 44.1963C61.039 43.9033 60.963 43.5983 60.773 43.3663C60.583 43.1343 60.299 43.0003 60 43.0003C59.449 43.0003 59 42.5513 59 42.0003V41.6493C60.178 41.0853 61 39.8913 61 38.5003C61 37.1093 60.178 35.9153 59 35.3513V31.5863C59 27.9552 56.045 25.0002 52.414 25.0002C51.543 25.0002 50.711 25.2502 50 25.7172ZM56.315 42.0003H57C57 43.2393 57.754 44.3043 58.828 44.7623L58.804 44.8823C58.607 45.8673 58.032 46.7023 57.226 47.2713C56.324 46.7113 55.303 46.3203 54.202 46.1623L54 46.1333V44.7373C54.991 44.0433 55.79 43.1003 56.315 42.0003ZM52 46.7233L50 50.0563L48 46.7233V45.7053C48.634 45.8953 49.305 46.0003 50 46.0003C50.695 46.0003 51.366 45.8953 52 45.7053V46.7233ZM55 39.0003C55 41.7573 52.757 44.0003 50 44.0003C47.243 44.0003 45 41.7573 45 39.0003V35.9403C46.823 35.7212 48.51 34.9043 49.829 33.5853L50 33.4143L50.172 33.5863C51.49 34.9043 53.177 35.7212 55.001 35.9403L55 39.0003ZM46 44.7363V46.1323L45.798 46.1613C44.697 46.3183 43.677 46.7093 42.774 47.2693C41.967 46.7003 41.393 45.8653 41.196 44.8813L41.172 44.7613C42.246 44.3043 43 43.2393 43 42.0003H43.685C44.21 43.1003 45.009 44.0433 46 44.7363ZM42.5 37.0003H43V39.0003C43 39.3403 43.033 39.6723 43.08 40.0003H42.5C41.673 40.0003 41 39.3273 41 38.5003C41 37.6733 41.673 37.0003 42.5 37.0003ZM42 57.0003H43.127C43.232 57.5223 43.398 58.0312 43.636 58.5073L44 59.2363V61.0003H42V57.0003ZM58 61.0003H56V59.2363L56.364 58.5073C56.602 58.0312 56.768 57.5213 56.873 57.0003H58V61.0003ZM59 55.0003H56.934C56.884 54.6313 56.809 54.2663 56.69 53.9113L55.948 51.6833L54.051 52.3163L54.793 54.5443C54.931 54.9543 55 55.3813 55 55.8153C55 56.4362 54.853 57.0573 54.575 57.6133L54.105 58.5533C54.036 58.6923 54 58.8453 54 59.0003V61.0003H46V59.0003C46 58.8453 45.964 58.6923 45.895 58.5533L45.425 57.6133C45.147 57.0573 45 56.4362 45 55.8153C45 55.3813 45.069 54.9543 45.207 54.5443L45.949 52.3173L44.052 51.6842L43.31 53.9113C43.191 54.2663 43.117 54.6323 43.066 55.0013H41V54.0013C41 51.0753 43.184 48.5563 46.081 48.1423L46.484 48.0843L49.143 52.5153C49.323 52.8162 49.649 53.0003 50 53.0003C50.351 53.0003 50.677 52.8162 50.857 52.5153L53.516 48.0843L53.919 48.1423C56.816 48.5552 59 51.0743 59 54.0003V55.0003ZM57.5 40.0003H56.92C56.967 39.6723 57 39.3403 57 39.0003V37.0003H57.5C58.327 37.0003 59 37.6733 59 38.5003C59 39.3273 58.327 40.0003 57.5 40.0003ZM57 31.5863V35.0003C57 34.4483 56.552 34.0003 56 34.0003C54.332 34.0003 52.765 33.3512 51.585 32.1713L50.706 31.2922C50.332 30.9182 49.667 30.9172 49.291 31.2922L48.414 32.1702C47.235 33.3512 45.667 34.0003 44 34.0003C43.448 34.0003 43 34.4483 43 35.0003V31.5863C43 29.0573 45.057 27.0002 47.586 27.0002C48.221 27.0002 48.844 27.2583 49.293 27.7073C49.684 28.0983 50.316 28.0983 50.707 27.7073C51.156 27.2583 51.779 27.0002 52.414 27.0002C54.943 27.0002 57 29.0573 57 31.5863ZM18.293 15.7072C18.488 15.9022 18.744 16.0002 19 16.0002C19.256 16.0002 19.512 15.9022 19.707 15.7072L19.968 15.4462L21.542 17.1632C21.192 17.7062 21 18.3372 21 19.0002C21 19.9123 21.355 20.7703 22 21.4142L26.586 26.0002C27.231 26.6453 28.088 27.0002 29 27.0002C29.58 27.0002 30.131 26.8422 30.627 26.5712C31.224 26.8522 31.876 27.0002 32.545 27.0002C33.751 27.0002 34.884 26.5312 35.736 25.6782L38.678 22.7362C39.531 21.8843 40 20.7502 40 19.5452C40 18.8232 39.808 18.1263 39.484 17.4953L41.643 14.7962L42.802 14.2162L44.292 15.7063C44.488 15.9023 44.744 16.0002 45 16.0002C45.256 16.0002 45.512 15.9022 45.707 15.7072L49.707 11.7072C50.098 11.3162 50.098 10.6842 49.707 10.2933L40.707 1.29325C40.316 0.90225 39.684 0.90225 39.293 1.29325L35.293 5.29325C34.902 5.68425 34.902 6.31625 35.293 6.70725L35.586 7.00025L34.586 8.00025H31C30.784 8.00025 30.573 8.07025 30.4 8.20025L30.064 8.45225L28.446 6.96825L28.707 6.70725C29.098 6.31625 29.098 5.68425 28.707 5.29325L24.707 1.29325C24.316 0.90225 23.684 0.90225 23.293 1.29325L14.293 10.2933C13.902 10.6842 13.902 11.3162 14.293 11.7072L18.293 15.7072ZM28 24.5863L23.414 20.0002C23.151 19.7372 23 19.3722 23 19.0002C23 18.6283 23.151 18.2633 23.414 18.0002L24 17.4142C24.263 17.1512 24.628 17.0002 25 17.0002C25.372 17.0002 25.737 17.1512 26 17.4142L30.586 22.0002C30.849 22.2633 31 22.6283 31 23.0002C31 23.3722 30.849 23.7372 30.586 24.0002L30 24.5863C29.474 25.1123 28.526 25.1123 28 24.5863ZM40 3.41425L47.586 11.0002L45 13.5863L37.414 6.00025L40 3.41425ZM31.333 10.0002H35C35.265 10.0002 35.52 9.89525 35.707 9.70725L37 8.41425L41.312 12.7262L40.553 13.1062C40.424 13.1712 40.31 13.2633 40.22 13.3763L38.196 15.9062L35.521 13.4543L36.514 12.8582L35.485 11.1432L32.2 13.1132C31.233 13.6932 30.127 14.0002 29 14.0002C28.449 14.0002 28 13.5512 28 13.0002C28 12.6873 28.149 12.3882 28.4 12.2002L31.333 10.0002ZM28.436 9.67325L27.199 10.6003C26.448 11.1643 26 12.0612 26 13.0002C26 14.6543 27.346 16.0002 29 16.0002C30.489 16.0002 31.952 15.5953 33.229 14.8282L33.731 14.5273L37.185 17.6933C37.703 18.1673 38 18.8423 38 19.5452C38 20.2162 37.739 20.8472 37.264 21.3223L34.322 24.2642C33.804 24.7832 33.071 25.0303 32.356 24.9813C32.769 24.4062 33 23.7232 33 23.0002C33 22.0882 32.645 21.2302 32 20.5863L27.414 16.0002C26.232 14.8173 24.249 14.7323 22.933 15.7203L21.384 14.0302L27.03 8.38425L28.436 9.67325ZM24 3.41425L26.586 6.00025L19 13.5863L16.414 11.0002L24 3.41425Z" fill="#B3404A"/>
<path d="M13 19H19V17H12C11.448 17 11 17.448 11 18V23H13V19ZM42 19H51V23H53V18C53 17.448 52.552 17 52 17H42V19Z" fill="#B3404A"/>
</svg>
