<svg width="474" height="512" viewBox="0 0 474 512" fill="none" xmlns="http://www.w3.org/2000/svg">
<path fill-rule="evenodd" clip-rule="evenodd" d="M407.056 390.761C493.273 389.965 509.812 435.168 351.353 425.543C323.857 423.874 280.242 410.551 244.256 407.958C205.388 405.157 129.706 409.207 118.146 408.74C72.5271 406.886 45.1878 389.713 176.536 390.761C224.761 391.145 363.76 391.159 407.056 390.761Z" fill="#F6F6F6"/>
<path d="M397.463 420.191C412.382 420.191 424.477 418.434 424.477 416.267C424.477 414.1 412.382 412.344 397.463 412.344C382.544 412.344 370.449 414.1 370.449 416.267C370.449 418.434 382.544 420.191 397.463 420.191Z" fill="black" fill-opacity="0.2"/>
<path d="M254.611 398.729C266.121 398.729 275.452 397.409 275.452 395.781C275.452 394.152 266.121 392.832 254.611 392.832C243.1 392.832 233.77 394.152 233.77 395.781C233.77 397.409 243.1 398.729 254.611 398.729Z" fill="black" fill-opacity="0.2"/>
<path fill-rule="evenodd" clip-rule="evenodd" d="M451.983 219.835C478.466 299.557 415.288 415.827 348.347 355.925C313.305 324.57 249.907 284.858 204.846 311.169C26.5753 415.272 14.446 236.716 69.3199 246.831C217.835 274.208 207.462 204.775 242.833 151.312C290.004 80.0133 416.013 111.545 451.983 219.835Z" fill="#F6F6F6"/>
<path d="M125.251 405.042C136.459 405.042 145.545 403.629 145.545 401.885C145.545 400.142 136.459 398.729 125.251 398.729C114.043 398.729 104.957 400.142 104.957 401.885C104.957 403.629 114.043 405.042 125.251 405.042Z" fill="black" fill-opacity="0.2"/>
<path d="M146.075 393.99C145.329 393.116 144.646 392.189 144.032 391.217C142.015 388.16 140.792 384.986 139.854 381.063C137.958 373.955 137.627 366.52 138.884 359.271C138.985 359.884 139.009 360.474 139.085 361.121C139.108 362.023 139.568 362.597 140.002 363.205C140.335 363.7 140.434 364.437 140.843 365.017C141.535 365.847 142.763 365.714 143.433 364.768C143.917 364.952 144.445 364.986 144.948 364.865C145.452 364.743 145.907 364.473 146.254 364.089C146.897 363.365 147.258 362.39 147.543 361.392C147.594 361.136 147.647 360.882 147.673 360.661C148.211 361.07 148.876 361.31 149.493 360.745C150.623 359.812 150.833 357.98 150.606 356.538C150.519 355.957 150.366 355.387 150.148 354.841L150.2 354.835C151.329 354.402 151.103 352.585 150.643 351.699C150.308 350.918 149.861 350.188 149.316 349.535C149.42 349.33 149.448 349.095 149.394 348.871C149.27 347.481 148.17 346.57 147.171 346.211C145.942 345.72 144.276 345.806 143.457 345.146C143.124 344.822 142.878 344.42 142.742 343.975C142.691 343.919 142.691 343.856 142.666 343.765C142.776 343.501 142.871 343.23 142.949 342.955C144.653 338.591 146.354 334.726 148.773 331.096C148.837 331.527 148.87 331.961 148.872 332.396C148.844 333.553 148.686 334.879 149.453 335.671C150.348 336.728 151.911 336.653 152.608 335.111C153.02 334.256 153.048 333.223 153.512 332.362C153.646 332.104 153.801 331.858 153.975 331.626C154.255 332.5 153.969 333.872 153.685 334.87C152.96 337.569 150.879 339.384 150.052 342.156C149.818 343.335 150.535 343.82 151.253 343.679C151.122 344.598 150.966 345.488 151.092 346.379C151.522 348.672 153.237 349.766 155.084 349.129C155.133 349.935 155.182 350.741 155.463 351.428C156.023 352.99 157.506 354.139 158.996 353.542C159.572 353.267 160.067 352.848 160.434 352.326C161.275 354.2 161.524 357.105 163.677 357.371C164.342 357.549 165.061 357.284 165.601 356.696C165.975 356.887 166.37 357.033 166.779 357.131C167.572 357.201 168.343 356.806 169.011 356.235C171.246 354.215 171.076 350.647 170.237 348.086C170.237 348.024 170.211 347.995 170.211 347.932C170.288 347.893 170.365 347.916 170.442 347.876C173.214 346.516 171.3 342.886 169.817 341.612L169.637 341.413C171.282 339.925 169.98 337.663 168.343 336.468C168.036 336.252 167.78 335.967 167.472 335.751C167.869 335.379 168.139 334.891 168.245 334.358C168.53 333.048 167.636 332.054 166.791 331.614C166.262 331.377 165.714 331.186 165.153 331.043C165.272 330.838 165.329 330.602 165.316 330.365C165.303 330.128 165.221 329.9 165.079 329.709C164.466 328.902 163.415 328.735 162.494 328.835C162.161 328.902 161.854 328.998 161.493 329.099C161.186 328.633 160.188 328.647 159.649 328.737C158.213 328.892 157.109 329.417 155.983 328.915C154.984 328.43 154.526 327.357 154.041 326.192C153.865 325.709 153.72 325.214 153.609 324.711C155.949 321.806 158.366 319.112 160.885 316.47C161.097 317.327 161.189 318.209 161.16 319.091C161.13 320.934 160.557 324.49 162.787 324.28C163.142 324.195 163.469 324.02 163.737 323.772C164.016 324.771 164.373 325.793 165.012 326.504C166.059 327.857 168.621 328.142 169.319 325.914C169.486 325.254 169.512 324.567 169.394 323.897C169.277 323.227 169.019 322.589 168.638 322.026C168.05 321.123 166.643 319.996 167.234 319.338C167.337 319.202 167.593 319.237 168.029 319.283C168.248 319.34 168.47 319.379 168.695 319.399C169.06 320.78 169.664 322.087 170.479 323.261C172.063 325.46 173.93 327.286 175.719 329.213C176.767 330.317 178.249 332.09 179.817 330.705C180.11 330.411 180.3 330.029 180.358 329.617C181.228 330.209 182.124 330.83 183.174 330.81C184.686 330.864 185.255 328.869 185.156 327.32C185.144 327.237 185.144 327.153 185.156 327.07C186.155 327.555 187.23 327.751 188.08 326.505C189.548 323.882 188.868 319.246 186.692 317.89C186.539 317.782 186.36 317.708 186.206 317.599C186.352 317.396 186.449 317.161 186.49 316.914C186.775 315.542 185.932 314.354 185.011 313.83C184.422 313.55 183.782 313.588 183.14 313.564C183.11 313.337 183.001 313.128 182.833 312.973C182.168 312.359 181.297 312.266 180.478 312.105C181.683 311.943 182.71 311.458 183.378 310.513C183.601 310.152 183.758 309.755 183.843 309.339C185.048 309.24 186.305 309.011 187.332 308.151C188.411 307.411 189.056 305.813 188.546 304.62C189.191 304.415 189.78 304.063 190.266 303.592C192.168 301.64 191.79 299.092 189.743 297.753C189.348 297.488 188.917 297.282 188.463 297.143C190.209 295.956 192.186 294.588 192.577 291.957C192.863 290.71 192.507 289.438 191.714 288.744C189.897 287.413 187.538 287.917 185.408 288.677C185.669 288.168 185.819 287.61 185.848 287.039C185.955 285.218 184.241 283.999 182.856 284.274C182.045 284.407 181.279 284.736 180.624 285.232L180.598 285.266C180.603 283.27 179.116 283.493 177.6 284.811C176.136 285.936 174.978 287.589 174.051 289.374C173.617 288.579 172.797 288.73 172.102 289.522L171.974 289.692C172.362 288.558 172.339 287.469 171.11 286.979C170.955 286.915 170.79 286.88 170.623 286.876C171.242 285.499 171.81 284.003 171.506 282.539C171.151 281.08 169.612 281.121 168.636 281.913C168.626 281.932 168.611 281.948 168.594 281.961C168.576 281.974 168.556 281.983 168.534 281.987C168.613 281.136 168.795 280.274 168.515 279.524C167.904 277.844 166.034 277.391 164.749 278.652C164.606 278.789 164.477 278.939 164.363 279.1C162.341 278.414 160.666 281.308 160.225 283.571C159.738 283.031 159.175 282.717 158.483 283.135C156.968 284.079 156.424 286.29 156.291 288.145C156.252 288.581 156.251 289.019 156.288 289.455C156.022 289.538 155.781 289.687 155.588 289.888C155.395 290.088 155.255 290.335 155.183 290.604C154.405 293.87 156.5 296.887 157.493 299.244C157.77 299.92 157.999 300.614 158.18 301.322C157.597 300.883 156.888 300.642 156.158 300.636C155.784 300.641 155.423 300.776 155.137 301.017C154.852 301.259 154.659 301.592 154.591 301.959C154.55 302.415 154.647 302.872 154.869 303.271C155.085 303.838 155.377 304.373 155.737 304.861C156.198 305.435 156.631 306.043 157.142 306.612C156.96 306.661 156.792 306.754 156.654 306.883C155.857 307.812 156.674 309.158 157.108 309.953C157.376 310.344 157.694 310.698 158.055 311.005C157.95 312.015 159.586 313.772 160.072 314.187C160.329 314.426 160.603 314.646 160.891 314.847C158.424 317.36 156.059 319.986 153.771 322.697C153.64 322.881 153.493 323.053 153.334 323.213C153.121 323.093 152.898 322.992 152.668 322.91C152.338 322.779 152.027 322.603 151.746 322.386C150.62 321.634 149.778 320.133 150.526 318.525C150.835 317.806 151.735 316.866 152.122 315.92C152.206 315.654 152.232 315.374 152.197 315.098C152.162 314.821 152.068 314.556 151.921 314.32C152.411 313.237 153.592 312.298 153.954 311.074C154.009 310.839 153.997 310.594 153.921 310.366C153.844 310.137 153.706 309.934 153.522 309.78C153.701 309.417 153.908 309.02 154.089 308.658C154.912 307.196 155.226 304.729 153.303 304.968C153.201 304.979 153.124 305.02 153.022 305.03C153.361 302.529 154.626 299.055 151.86 298.356C151.656 298.326 151.449 298.327 151.245 298.36C151.607 297.136 152.072 295.838 151.768 294.561C151.44 292.506 149.286 292.676 148.002 293.626C147.718 293.83 147.459 294.067 147.231 294.333C146.928 292.495 146.241 290.791 144.574 290.877C141.446 291.278 140.001 295.052 139.659 298.427C139.633 298.586 139.633 298.711 139.608 298.869C139.526 298.839 139.439 298.828 139.352 298.835C138.456 298.713 137.53 299.5 136.938 300.343C135.6 302.484 136.054 305.305 136.741 307.445C136.767 307.536 136.818 307.593 136.843 307.684C136.073 308.141 135.737 309.331 135.888 310.251C136.01 310.858 136.272 311.428 136.653 311.915C136.945 312.299 137.322 312.61 137.754 312.826C137.725 313.057 137.752 313.292 137.832 313.511C137.911 313.73 138.042 313.927 138.212 314.086C138.903 314.854 140.03 315.356 140.642 315.976C140.993 316.427 141.309 316.903 141.587 317.402C140.457 318.272 139.684 319.729 140.244 321.29C141.134 324.157 143.744 325.996 146.334 325.685C147.616 325.547 148.9 324.472 149.875 324.304C150.284 324.26 150.694 324.528 150.976 324.965C151.129 325.198 151.206 325.408 151.308 325.584C148.968 328.551 146.704 331.665 144.978 335.19C144.36 336.379 143.793 337.626 143.225 338.872C141.993 339.629 140.866 339.502 139.945 338.603C139.025 337.517 139.363 335.703 139.188 334.006C139.089 333.239 138.8 332.508 138.347 331.881C137.861 331.466 137.144 331.231 136.528 331.548C136.404 331.025 136.119 330.554 135.712 330.202C134.892 329.542 133.764 329.726 133.301 330.712C132.737 330.086 132.097 329.625 131.278 329.589C129.997 329.416 128.969 330.4 128.863 331.784C128.226 331.754 127.596 331.932 127.067 332.29C125.398 333.437 124.57 336.397 125.797 338.073L125.848 338.13C124.794 339.086 124.252 340.86 125.943 341.177C126.628 341.263 127.325 341.177 127.968 340.926C127.691 341.59 127.567 342.307 127.604 343.026C127.604 343.378 127.718 343.72 127.931 344.001C128.143 344.282 128.441 344.487 128.779 344.583C129.266 344.685 129.805 344.535 130.292 344.388C130.399 344.344 130.502 344.292 130.599 344.23C130.594 346.227 132.284 346.855 134.235 345.646C134.409 345.529 134.572 345.397 134.723 345.251C135.096 345.344 135.484 345.36 135.863 345.298C136.242 345.235 136.605 345.096 136.928 344.887C137.416 344.554 137.751 343.925 138.034 343.364C138.679 342.016 138.606 340.183 139.759 340.339C140.281 340.342 140.792 340.48 141.244 340.74C141.577 340.86 141.884 341.264 142.243 341.1C142.036 341.622 141.804 342.177 141.623 342.727C141.56 342.759 141.507 342.808 141.47 342.868C141.029 344.569 139.465 345.143 138.282 346.457C137.565 347.245 137.021 348.175 136.686 349.187C136.628 349.343 136.585 349.504 136.558 349.669C135.684 350.637 134.732 352.018 135.241 353.148C135.353 353.355 135.5 353.539 135.676 353.694C135.461 354.525 135.398 355.388 135.491 356.241C135.539 357.296 135.69 358.403 136.15 359.039C134.996 359.382 134.106 356.578 132.209 356.595C131.964 356.559 131.715 356.579 131.48 356.653C131.244 356.727 131.029 356.854 130.849 357.023C129.134 356.554 127.817 359.909 129.171 361.727C129.477 362.061 129.88 362.29 130.323 362.383C130.285 362.622 130.311 362.866 130.398 363.092C130.884 363.758 131.729 363.572 132.423 363.216C132.831 363.921 133.78 363.974 134.447 363.59C135.063 363.149 135.45 362.328 135.938 361.682C136.118 361.382 136.581 361.02 136.658 361.042L137.195 360.89C136.776 363.841 136.611 366.822 136.703 369.8C136.847 373.777 137.554 377.631 138.468 381.338C139.381 385.294 140.909 388.997 143.054 392.071C143.668 392.941 144.332 393.805 144.996 394.605C145.054 394.696 145.142 394.765 145.244 394.799C145.347 394.833 145.458 394.832 145.559 394.794C146.533 394.877 146.536 394.377 146.075 393.99ZM165.651 306.814C165.714 305.207 166.263 303.658 167.226 302.371C167.346 302.196 167.484 302.035 167.638 301.889C167.454 303.625 167.372 305.349 167.266 307.045C167.213 307.736 167.185 308.457 167.132 309.149C166.927 309.359 166.695 309.54 166.516 309.715C166.462 309.67 166.426 309.608 166.413 309.539C165.95 308.702 165.689 307.769 165.651 306.814ZM168.019 313.077C167.503 312.718 167.068 312.255 166.741 311.718C166.626 311.528 166.523 311.331 166.434 311.127C166.511 311.15 166.639 311.105 166.715 311.127C167.151 311.049 167.304 311.032 167.767 310.983C168.677 310.869 169.595 310.843 170.51 310.904C171.945 310.999 174.148 311.634 176.352 312.02L175.891 312.07C174.198 312.44 172.299 313.331 170.837 313.458C169.71 313.456 168.889 313.545 168.019 313.077Z" fill="#319991"/>
<path d="M154.525 373.971C153.131 374.023 151.735 373.975 150.348 373.829C145.921 373.448 141.981 372.222 137.543 370.164C129.352 366.619 122.029 361.339 116.077 354.688C116.736 355.054 117.316 355.475 117.988 355.89C118.864 356.546 119.756 356.541 120.662 356.585C121.382 356.641 122.16 357.101 123.019 357.148C124.328 357.116 125.127 355.845 124.731 354.497C125.758 353.923 126.386 352.714 126.207 351.301C126.003 350.145 125.346 349.067 124.611 348.046C124.406 347.804 124.203 347.563 124.013 347.372C124.806 347.169 125.536 346.716 125.462 345.703C125.425 343.926 123.839 342.348 122.297 341.479C121.679 341.124 121.021 340.841 120.338 340.637L120.371 340.584C120.808 339.183 118.91 338.032 117.721 337.802C116.725 337.533 115.694 337.41 114.663 337.436C114.546 337.183 114.343 336.98 114.09 336.862C112.674 335.935 110.98 336.296 109.886 336.976C108.493 337.776 107.322 339.426 106.078 339.709C105.519 339.783 104.951 339.713 104.426 339.508C104.335 339.501 104.247 339.471 104.169 339.423C104 339.119 103.814 338.825 103.612 338.542C100.74 333.638 98.3438 329.111 96.7095 324.078C97.167 324.341 97.6052 324.636 98.0207 324.962C99.1003 325.86 100.245 327.008 101.574 326.873C103.253 326.817 104.358 325.272 103.415 323.45C102.912 322.414 101.951 321.611 101.48 320.522C101.335 320.2 101.217 319.868 101.128 319.527C102.171 319.918 103.261 321.222 103.995 322.244C106.018 324.964 106.179 328.311 108.194 331.183C109.141 332.293 110.139 331.976 110.547 331.187C111.323 332.002 112.052 332.821 112.995 333.371C115.5 334.688 117.831 333.879 118.615 331.643C119.419 332.202 120.223 332.761 121.088 333.012C122.995 333.654 125.205 333.107 125.757 331.242C125.929 330.486 125.903 329.7 125.682 328.958C128.098 329.568 131.05 331.518 132.923 329.669C133.593 329.169 133.882 328.287 133.728 327.33C134.191 327.117 134.627 326.851 135.027 326.536C135.693 325.833 135.895 324.803 135.854 323.737C135.615 320.091 132.091 317.568 129.023 316.439C128.963 316.392 128.917 316.395 128.858 316.348C128.878 316.246 128.958 316.189 128.978 316.086C129.77 312.426 124.876 311.514 122.547 311.967L122.223 311.988C122.044 309.303 118.914 308.841 116.544 309.499C116.107 309.627 115.645 309.658 115.208 309.787C115.151 309.129 114.891 308.506 114.463 308.003C113.431 306.746 111.811 306.849 110.758 307.322C110.134 307.647 109.54 308.025 108.981 308.452C108.876 308.184 108.694 307.953 108.459 307.787C108.224 307.621 107.945 307.527 107.657 307.519C106.428 307.495 105.478 308.368 104.878 309.322C104.691 309.69 104.551 310.055 104.377 310.473C103.703 310.413 102.964 311.376 102.644 311.955C101.711 313.438 101.38 314.883 100.055 315.577C98.8422 316.163 97.476 315.792 96.004 315.376C95.4107 315.18 94.8311 314.945 94.2691 314.672C93.2663 310.26 92.5211 305.934 91.9016 301.548C92.8765 301.992 93.7855 302.567 94.6031 303.259C96.3347 304.675 99.2879 307.896 100.765 305.614C100.951 305.212 101.03 304.769 100.996 304.328C102.157 304.814 103.397 305.244 104.554 305.171C106.63 305.192 108.829 302.968 107.234 300.628C106.732 299.973 106.097 299.431 105.371 299.039C104.645 298.646 103.844 298.412 103.021 298.351C101.72 298.23 99.589 298.721 99.4093 297.664C99.3581 297.464 99.5831 297.247 99.9551 296.867C100.174 296.702 100.378 296.519 100.566 296.32C102.155 297.012 103.853 297.421 105.583 297.528C108.868 297.676 112.009 297.274 115.19 297.022C117.029 296.854 119.832 296.779 119.692 294.245C119.634 293.744 119.414 293.275 119.064 292.911C120.283 292.529 121.548 292.143 122.319 291.129C123.509 289.731 122.039 287.688 120.491 286.616C120.402 286.566 120.322 286.503 120.254 286.428C121.466 285.843 122.462 284.966 121.916 283.22C120.524 279.85 115.601 277.009 112.674 278.059C112.456 278.123 112.25 278.238 112.032 278.303C111.948 278.01 111.798 277.741 111.593 277.517C110.502 276.213 108.737 276.121 107.545 276.603C106.836 276.953 106.39 277.592 105.885 278.183C105.646 278.041 105.366 277.986 105.091 278.029C104.006 278.2 103.262 278.959 102.492 279.617C103.245 278.348 103.556 277.005 103.16 275.658C102.984 275.175 102.724 274.727 102.392 274.334C103.204 273.112 103.931 271.744 103.886 270.12C103.994 268.536 102.958 266.72 101.44 266.308C101.731 265.54 101.839 264.714 101.756 263.897C101.33 260.619 98.6203 259.061 95.8063 260.002C95.2571 260.177 94.7368 260.433 94.2624 260.761C94.447 258.206 94.6333 255.296 92.4241 252.943C91.4513 251.733 89.9742 251.115 88.7172 251.347C86.0827 252.073 84.7873 254.698 83.9085 257.296C83.6205 256.665 83.2017 256.102 82.6797 255.645C81.028 254.173 78.5786 254.888 77.7978 256.413C77.3142 257.285 77.0505 258.262 77.0298 259.259L77.0428 259.31C75.1466 257.803 74.2396 259.387 74.3533 261.819C74.3223 264.059 75.0245 266.405 76.0247 268.63C74.9416 268.444 74.468 269.339 74.6997 270.595L74.7644 270.846C73.9772 269.624 72.9235 268.826 71.5317 269.626C71.3544 269.725 71.1969 269.856 71.067 270.012C70.2222 268.387 69.2259 266.721 67.6038 265.908C65.9483 265.148 64.8306 266.643 64.8493 268.168C64.8597 268.192 64.8644 268.219 64.8631 268.245C64.8619 268.272 64.8546 268.298 64.8419 268.321C64.092 267.606 63.4083 266.785 62.4846 266.487C60.4256 265.804 58.5875 267.242 58.8213 269.414C58.8438 269.653 58.8891 269.888 58.9567 270.118C56.7807 271.526 58.2765 275.297 60.0969 277.42C59.2175 277.476 58.4956 277.775 58.3717 278.75C58.1298 280.9 59.8243 283.082 61.489 284.605C61.874 284.97 62.2904 285.301 62.7334 285.594C62.6122 285.909 62.5726 286.25 62.6183 286.585C62.664 286.92 62.7935 287.238 62.9948 287.51C65.5174 290.707 69.9644 290.985 72.9548 291.812C73.8061 292.058 74.6395 292.362 75.449 292.723C74.5916 292.947 73.8289 293.44 73.273 294.131C72.9965 294.49 72.8533 294.935 72.868 295.388C72.8827 295.842 73.0542 296.276 73.3533 296.618C73.7553 296.999 74.2632 297.251 74.8105 297.339C75.5124 297.561 76.2412 297.685 76.9768 297.71C77.8692 297.705 78.7744 297.749 79.7001 297.691C79.6095 297.901 79.572 298.131 79.591 298.359C79.8747 299.816 81.7706 300.052 82.8538 300.237C83.4269 300.277 84.0029 300.241 84.5664 300.129C85.4478 300.989 88.3509 300.754 89.1117 300.604C89.5324 300.539 89.9481 300.445 90.3559 300.323C90.8901 304.561 91.6102 308.787 92.4676 313.005C92.5437 313.268 92.5977 313.537 92.6289 313.808C92.3549 313.921 92.0911 314.057 91.8401 314.214C91.4674 314.43 91.066 314.593 90.6479 314.697C89.0863 315.202 87.0248 314.876 86.0561 312.953C85.604 312.117 85.3871 310.554 84.7776 309.474C84.5885 309.194 84.3409 308.959 84.0519 308.784C83.763 308.609 83.4395 308.499 83.1039 308.461C82.4426 307.181 82.4383 305.35 81.5456 304.083C81.3635 303.855 81.1216 303.681 80.8467 303.582C80.5719 303.482 80.2748 303.461 79.9886 303.52C79.7792 303.076 79.557 302.581 79.3486 302.138C78.5781 300.254 76.4668 298.099 75.2472 300.109C75.1807 300.215 75.1602 300.318 75.0936 300.424C72.9688 298.219 70.6154 294.401 67.8683 296.507C67.6864 296.679 67.5316 296.877 67.4093 297.096C66.5166 295.83 65.6314 294.411 64.187 293.74C61.9854 292.506 60.5262 294.683 60.4645 296.62C60.4444 297.044 60.4756 297.469 60.5574 297.885C58.5798 296.79 56.4412 296.162 55.2695 297.813C53.2968 301.09 55.801 305.306 58.7544 308.171C58.886 308.315 59.0045 308.409 59.1361 308.554C59.046 308.609 58.969 308.683 58.9103 308.771C58.1198 309.533 58.172 311.005 58.5297 312.203C59.5596 315.087 62.5852 316.778 65.1386 317.735C65.2443 317.779 65.3367 317.773 65.4424 317.817C65.2981 318.894 66.1779 320.11 67.1666 320.659C67.8354 321 68.5748 321.179 69.3254 321.183C69.9104 321.194 70.49 321.07 71.0197 320.822C71.4269 321.305 72.0547 321.367 72.5638 321.334C73.8134 321.255 75.139 320.561 76.1906 320.443C76.8833 320.449 77.5746 320.508 78.2586 320.618C78.2368 322.348 79.0406 324.179 80.9466 324.821C84.3442 326.132 88.058 325.032 89.7107 322.334C90.5435 321.01 90.4877 318.979 91.0614 317.925C91.3279 317.502 91.8906 317.313 92.5183 317.376C92.8552 317.405 93.1127 317.491 93.3569 317.526C94.4188 321.985 95.6789 326.482 97.7333 330.777C98.4001 332.262 99.1594 333.738 99.919 335.216C99.7119 336.958 98.7414 337.935 97.1941 338.134C95.4687 338.192 93.9964 336.506 92.2502 335.395C91.4463 334.912 90.5342 334.637 89.5971 334.596C88.836 334.746 88.0734 335.252 87.9105 336.076C87.3191 335.8 86.6557 335.718 86.0146 335.84C84.7707 336.122 84.0969 337.335 84.686 338.518C83.6676 338.583 82.7475 338.844 82.096 339.598C80.9668 340.686 81.1301 342.405 82.3674 343.547C81.8591 344.131 81.5538 344.864 81.497 345.637C81.3329 348.088 83.5255 351.103 86.0435 351.198L86.1362 351.192C86.2532 352.913 87.5329 354.765 89.1058 353.393C89.7043 352.806 90.1465 352.079 90.3922 351.278C90.8151 352.04 91.4035 352.698 92.1143 353.203C92.4491 353.468 92.8614 353.617 93.2884 353.627C93.7155 353.636 94.134 353.506 94.4805 353.257C94.9452 352.873 95.206 352.244 95.4336 351.671C95.4727 351.536 95.4999 351.398 95.515 351.258C97.4112 352.766 99.281 351.63 99.5987 348.864C99.6188 348.61 99.6158 348.355 99.5895 348.102C99.9591 347.817 100.266 347.46 100.492 347.052C100.718 346.644 100.858 346.194 100.903 345.73C100.953 345.015 100.607 344.223 100.286 343.531C99.4879 341.904 97.69 340.594 98.7061 339.615C99.1013 339.121 99.6179 338.737 100.205 338.502C100.57 338.276 101.185 338.288 101.3 337.823C101.64 338.412 101.994 339.05 102.381 339.636C102.364 339.721 102.371 339.808 102.4 339.889C103.687 341.588 103.056 343.509 103.416 345.624C103.626 346.899 104.102 348.117 104.812 349.197C104.917 349.37 105.038 349.533 105.174 349.684C105.437 351.243 106.035 353.189 107.495 353.554C107.774 353.604 108.061 353.603 108.341 353.552C108.969 354.382 109.742 355.091 110.624 355.645C111.665 356.393 112.831 357.082 113.783 357.123C113.241 358.48 109.902 357.216 108.492 359.035C108.273 359.24 108.105 359.492 107.998 359.772C107.891 360.052 107.85 360.352 107.876 360.65C106.137 361.93 108.34 365.707 111.089 365.787C111.637 365.747 112.158 365.536 112.579 365.184C112.778 365.399 113.03 365.558 113.311 365.645C114.309 365.684 114.77 364.739 114.953 363.812C115.93 363.954 116.695 363.091 116.831 362.167C116.876 361.249 116.385 360.263 116.138 359.312C115.988 358.915 115.992 358.203 116.071 358.147L116.332 357.52C118.827 360.137 121.542 362.535 124.447 364.686C128.34 367.542 132.539 369.768 136.754 371.688C141.205 373.797 145.878 375.128 150.418 375.4C151.707 375.471 153.029 375.489 154.291 375.46C154.422 375.473 154.553 375.441 154.663 375.369C154.773 375.298 154.855 375.191 154.895 375.066C155.714 374.201 155.24 373.824 154.525 373.971ZM86.3041 289.747C84.8222 288.479 83.761 286.79 83.2611 284.905C83.1859 284.659 83.1363 284.407 83.1128 284.151C84.6258 285.632 86.2053 287.007 87.7385 288.385C88.3573 288.956 89.0218 289.524 89.6406 290.095C89.6849 290.448 89.6831 290.805 89.7148 291.108C89.6317 291.125 89.5452 291.112 89.4703 291.072C88.326 290.883 87.2417 290.429 86.3041 289.746V289.747ZM94.0456 292.207C93.3156 292.428 92.5474 292.494 91.7905 292.4C91.5233 292.367 91.2586 292.315 90.9982 292.247C91.0778 292.191 91.1313 292.035 91.2109 291.979C91.4643 291.505 91.5644 291.347 91.8642 290.87C92.4407 289.919 93.107 289.025 93.8538 288.201C95.0238 286.906 97.2858 285.288 99.311 283.482C99.2108 283.641 99.1108 283.8 99.011 283.959C98.0894 285.848 97.5087 288.326 96.5295 289.812C95.6781 290.882 95.1451 291.73 94.0456 292.206V292.207Z" fill="#43C3B9"/>
<path d="M135.702 363.169C136.572 362.038 137.499 361.193 138.393 359.928C138.419 359.892 138.444 359.823 138.472 359.787C140.895 358.216 143.771 356.42 146.159 354.331C149.925 351.009 153.167 346.843 156.082 342.461C159.816 337.118 162.649 331.015 164.642 324.568C165.404 321.752 167.913 315.596 166.127 313.388C164.386 312.253 159.917 315.376 158.188 316.592C151.244 321.772 145.581 328.477 141.637 336.191C139.033 341.512 138.221 347.797 139.041 353.502C139.143 354.795 139.303 356.406 139.028 357.653C138.829 358.332 138.531 358.978 138.144 359.57C138.095 359.603 138.051 359.642 138.012 359.686C137.978 359.736 137.96 359.796 137.96 359.856C137.441 360.547 136.877 361.202 136.271 361.818C136.112 362.003 135.955 362.22 135.796 362.405C135.859 361.286 135.921 360.166 135.956 359.018C135.958 354.215 135.451 349.513 134.997 344.805C134.795 342.317 134.566 339.799 134.283 337.322C136.054 335.351 137.908 333.529 139.514 331.383C142.889 326.924 145.838 322.158 148.322 317.149C151.52 310.278 155.416 303.376 156.447 295.624C156.501 293.983 156.644 291.252 155.234 290.594C154.91 290.507 154.563 290.685 154.243 290.859L152.163 292.024C150.243 292.996 148.493 294.271 146.978 295.8C140.812 302.128 136.154 311.812 134.665 321.163C134.061 325.394 134.211 329.654 133.796 333.892V333.925C133.707 333.382 133.617 332.838 133.501 332.331C132.623 328.007 131.29 323.843 130.413 319.519C129.946 317.328 129.506 315.101 129.04 312.909V312.877C129.051 311.895 129.038 311.113 129.267 310.297C129.702 308.931 130.89 307.496 131.78 306.003C133.797 302.623 135.161 298.812 136.743 295.166C139.251 289.01 141.571 282.715 142.808 276.078C143.129 274.485 143.346 272.873 143.455 271.252C143.661 269.035 142.108 269.442 140.911 270.324C138.514 271.972 136.387 273.98 134.604 276.278C133.025 278.454 131.993 281.11 130.986 283.697C129.515 287.556 128.1 291.539 127.548 295.665C127.305 298.041 127.344 300.438 127.665 302.805C127.833 304.84 128.401 306.691 128.889 308.585C129.002 308.863 128.982 309.323 129.12 309.599C128.956 309.958 128.836 310.337 128.761 310.725L128.691 311.323C128.343 309.802 127.996 308.313 127.595 306.832C126.571 303.443 125.31 300.38 124.261 297.124C123.274 294.35 122.1 291.668 121.06 288.934C121.079 288.873 121.105 288.815 121.137 288.76C121.247 288.53 121.369 288.306 121.503 288.089C122.317 286.9 123.324 285.913 124.193 284.783C125.353 283.318 126.568 281.912 127.618 280.331C128.72 278.569 129.714 276.743 130.596 274.862C132.708 270.719 134.006 266.132 134.926 261.499C135.249 259.854 135.383 258.235 135.602 256.767C135.699 256.102 135.795 255.401 135.838 254.742C135.833 254.449 135.827 254.058 135.582 253.927C135.256 253.775 134.967 254.174 134.729 254.403C134.12 255.008 133.51 255.581 132.9 256.122C131.254 257.457 129.47 258.581 127.989 260.22C125.192 263.204 123.197 266.847 122.189 270.811C121.514 273.974 121.701 277.183 121.698 280.32C121.674 282.153 121.678 284.014 121.355 285.66C121.207 286.496 120.978 287.312 120.777 288.156C120.124 286.4 119.565 284.611 119.102 282.797C119.015 282.428 118.955 282.054 118.923 281.677C118.993 281.551 119.037 281.412 119.051 281.268C119.098 280.946 119.173 280.63 119.277 280.322C119.76 278.558 120.35 276.811 120.617 275.01C120.805 273.351 120.591 271.714 120.51 270.091C120.308 267.105 119.9 264.137 119.288 261.207C117.608 254.312 115.403 247.557 112.693 240.999C112.416 240.512 112.001 238.217 111.393 238.855C110.743 240.251 110.393 241.867 109.906 243.338C107.843 250.512 108.157 258.18 109.909 264.967C110.435 266.963 111.078 268.927 111.835 270.847C112.646 272.763 113.724 274.479 114.694 276.242C115.609 277.914 116.605 279.544 117.864 280.842C118.012 281.01 118.177 281.163 118.355 281.298C118.62 283.379 119.095 285.427 119.774 287.411C116.693 283.321 114.793 277.372 110.444 274.663C108.485 273.361 106.268 272.649 104.001 272.271C102.286 271.893 100.519 271.813 98.7772 272.034C97.9191 272.216 97.0031 272.145 96.2041 272.645C95.121 273.871 96.6038 275.695 97.2898 276.516C98.6057 278.004 100.211 279.092 101.762 280.156C103.15 281.111 104.484 282.105 105.951 282.919C105.519 286.147 105.035 289.447 105.626 292.7C106.727 299.215 110.081 305.13 115.048 307.82C116.568 308.626 118.266 308.788 119.912 309.086C120.88 309.241 121.799 309.62 122.594 310.192C124.094 311.393 125.646 312.554 127.354 313.335C127.483 313.406 127.62 313.464 127.76 313.508C128.349 316.532 128.882 319.596 129.524 322.613C130.454 326.865 131.625 331.018 132.235 335.412C132.358 336.375 132.482 337.338 132.578 338.273C130.478 333.331 128.938 327.953 126.201 323.489C124.384 320.587 122.313 317.851 120.014 315.313C118.454 313.728 116.838 311.955 114.808 311.251C111.4 310.146 107.674 311.012 104.259 311.117C103.323 311.506 104.102 313.066 104.301 313.725C105.679 317.393 108.066 320.172 110.424 322.858C112.755 325.579 114.955 328.449 117.523 330.845C119.438 332.806 121.747 334.093 124.079 335.246C125.762 336.128 127.34 337.221 128.945 338.277C130.143 339.082 131.426 339.751 132.772 340.272C132.967 342.369 133.136 344.438 133.304 346.538C133.666 350.573 133.996 354.253 134.062 358.328C134.071 360.549 133.973 362.751 133.821 364.961C132.105 363.724 131.285 361.255 130.332 358.934C128.96 355.657 127.242 352.623 125.472 349.662C123.674 346.704 121.668 344.135 119.874 341.373C117.416 337.46 114.825 333.662 111.864 330.307C110.494 328.795 108.886 327.543 107.046 326.911C105.771 326.268 105.654 327.394 105.837 328.676C106.987 334.826 107.363 341.374 109.714 346.969C110.633 349.22 111.721 351.398 112.969 353.486C113.827 354.97 114.713 356.483 115.861 357.666C118.788 360.601 122.399 362.561 126.105 363.756C127.404 364.233 128.776 364.242 130.149 364.251C130.806 364.271 131.464 364.225 132.111 364.115L132.246 364.097C132.515 364.472 132.827 364.813 133.177 365.114C133.363 365.279 133.564 365.427 133.777 365.555C133.443 369.684 132.827 373.785 131.932 377.83C131.671 376.685 131.273 375.577 130.748 374.527C130.155 373.477 129.308 372.592 128.284 371.954C125.923 370.74 123.499 370.579 121.219 369.321C119.239 368.348 117.737 366.985 116.016 365.421C114.923 364.427 113.829 363.334 112.476 362.832C110.202 362.03 107.671 363.55 105.735 365.284C105.02 365.969 104.278 366.658 103.617 367.401C103.012 368.235 103.484 369.119 104.004 369.669C105.099 370.794 106.481 371.39 107.887 371.852C109.543 372.398 111.17 373.027 112.761 373.738C114.66 374.689 116.614 375.697 118.835 374.938C120.12 374.567 121.267 373.856 122.419 373.634C124.863 373.367 126.892 375.672 128.807 377.602C129.396 378.185 130.113 378.625 130.9 378.886C131.158 378.981 131.436 379.011 131.708 378.972C131.006 382.106 130.358 385.265 129.44 388.331C129.337 388.671 129.337 388.606 129.209 388.983V389.048C129.209 389.08 129.209 389.08 129.184 389.117V389.15C129.158 389.283 129.215 389.406 129.323 389.425C129.638 389.439 129.951 389.374 130.234 389.235C130.614 389.412 131.042 387.59 131.145 387.347C131.732 385.405 132.238 383.409 132.744 381.444C133.327 381.424 133.901 381.29 134.434 381.052C134.922 380.784 135.369 380.448 135.763 380.053C135.818 380.176 136.006 380.151 136.167 380.096C137.025 379.914 137.915 380.022 138.882 379.956C140 379.858 141.111 379.695 142.21 379.469C144.918 378.84 147.507 377.573 150.011 376.023C154.337 373.551 158.074 370.166 160.961 366.105C161.985 364.561 163.09 362.973 163.543 361.082C163.617 360.68 163.77 360.169 163.523 359.875C163.276 359.582 162.849 359.771 162.525 359.717C161.921 359.731 161.318 359.692 160.721 359.603C158.535 359.214 156.323 358.861 154.045 359.465C149.382 360.589 143.203 366.134 140.649 371.187C139.445 373.376 138.681 375.897 137.338 377.747C136.606 378.689 135.761 379.539 134.824 380.278C134.277 380.649 133.637 380.861 132.977 380.888L132.924 380.895C133.125 380.084 133.327 379.24 133.529 378.428C134.595 373.396 135.321 368.299 135.702 363.169ZM124.272 310.781C124.242 310.746 124.205 310.717 124.163 310.698C124.185 310.4 123.937 310.042 123.933 309.716C123.662 308.021 123.419 306.29 122.802 304.74C121.564 301.412 119.874 298.473 118.238 295.461C116.682 292.503 114.809 289.817 113.068 287.016L112.239 285.659C112.862 285.901 113.458 286.145 114.08 286.389C115.924 287.151 117.741 288.047 119.71 288.4C119.764 288.426 119.818 288.418 119.872 288.444C119.926 288.469 119.954 288.53 120.008 288.556L120.062 288.548C120.655 290.297 121.329 292.003 121.922 293.72C122.822 296.113 123.476 298.246 124.216 300.694C125.009 303.2 125.798 305.347 126.433 307.939C126.808 309.489 127.13 311.079 127.424 312.64C126.319 312.118 125.264 311.495 124.272 310.781Z" fill="#98DED9"/>
<path d="M145.433 366.071C146.182 366.03 146.847 366.154 147.656 366.066C147.679 366.063 147.715 366.046 147.738 366.044C149.24 366.661 150.996 367.426 152.676 367.784C155.337 368.338 158.112 368.21 160.843 367.802C164.241 367.403 167.581 366.154 170.73 364.282C172.064 363.403 175.301 361.95 175.445 359.941C175.207 358.452 172.354 357.418 171.248 357.021C166.855 355.567 162.117 355.525 157.7 356.901C154.737 357.915 152.095 360.368 150.288 363.457C149.846 364.111 149.308 364.944 148.741 365.367C148.422 365.568 148.066 365.702 147.695 365.763C147.665 365.751 147.633 365.745 147.601 365.743C147.568 365.749 147.539 365.767 147.518 365.794C147.062 365.826 146.604 365.815 146.15 365.763C146.022 365.761 145.881 365.774 145.752 365.772C146.191 365.289 146.631 364.807 147.07 364.296C148.855 362.079 150.409 359.626 151.986 357.2C152.833 355.938 153.681 354.649 154.494 353.348C155.898 353.418 157.276 353.604 158.681 353.504C161.617 353.314 164.515 352.745 167.304 351.811C171.067 350.409 175.106 349.381 178.375 346.371C179.005 345.643 180.074 344.461 179.783 343.376C179.682 343.181 179.514 343.029 179.309 342.95L178.089 342.335C177.053 341.738 175.909 341.354 174.722 341.206C170.037 340.711 164.676 342.602 160.639 346.095C158.839 347.715 157.314 349.766 155.583 351.494L155.571 351.509C155.739 351.209 155.907 350.908 156.051 350.61C157.324 348.126 158.366 345.464 159.639 342.981C160.276 341.71 160.937 340.438 161.574 339.166L161.586 339.151C161.877 338.744 162.229 338.385 162.63 338.085C163.302 337.695 164.285 337.691 165.177 337.494C167.195 337.052 169.127 336.047 171.081 335.24C174.318 333.787 177.534 332.164 180.467 329.784C181.194 329.215 181.875 328.589 182.505 327.914C183.406 327.004 182.666 326.331 181.885 326.075C180.419 325.517 178.853 325.263 177.285 325.33C175.879 325.46 174.502 326.114 173.159 326.751C171.169 327.719 169.154 328.774 167.413 330.374C166.404 331.38 165.528 332.51 164.805 333.736C164.114 334.77 163.641 335.939 163.123 337.085C163.062 337.276 162.884 337.478 162.834 337.682C162.634 337.76 162.447 337.868 162.28 338.004L162.031 338.24C162.464 337.344 162.885 336.465 163.283 335.559C164.154 333.426 164.814 331.312 165.626 329.227C166.282 327.399 166.834 325.509 167.455 323.67C167.484 323.653 167.516 323.641 167.549 323.633C167.675 323.588 167.805 323.552 167.936 323.526C168.687 323.428 169.434 323.531 170.184 323.49C171.17 323.494 172.155 323.442 173.135 323.332C174.21 323.128 175.266 322.835 176.294 322.456C178.632 321.714 180.827 320.314 182.896 318.683C183.63 318.102 184.282 317.429 184.91 316.873C185.194 316.618 185.49 316.349 185.751 316.068C185.82 316.001 185.875 315.921 185.91 315.831C185.945 315.742 185.961 315.646 185.956 315.55C185.889 315.3 185.631 315.324 185.456 315.297C185.001 315.239 184.557 315.166 184.125 315.077C183.005 314.781 181.912 314.312 180.743 314.249C178.567 314.079 176.399 314.672 174.612 315.925C173.182 317.012 172.061 318.598 170.895 320.047C170.205 320.88 169.515 321.742 168.782 322.323C168.415 322.628 168.026 322.877 167.636 323.156C168.025 322.093 168.462 320.856 168.993 319.751C169.094 319.537 169.21 319.331 169.34 319.134C169.417 319.113 169.486 319.073 169.541 319.016C169.674 318.896 169.821 318.792 169.978 318.705C170.816 318.157 171.688 317.678 172.458 316.994C173.145 316.332 173.672 315.456 174.244 314.662C175.298 313.136 176.246 311.538 177.081 309.882C179.042 305.669 180.714 301.329 182.086 296.89C182.161 296.512 182.857 295.222 182.389 295.18C181.625 295.464 180.892 296.016 180.162 296.426C176.717 298.597 173.988 302.312 172.131 306.418C171.581 307.653 171.096 308.916 170.677 310.201C170.273 311.536 170.044 312.925 169.757 314.278C169.454 315.55 169.284 316.851 169.249 318.159C169.243 318.32 169.248 318.482 169.266 318.642C168.575 319.788 167.995 320.996 167.533 322.252C167.885 318.655 169.375 314.855 168.733 311.192C168.464 309.562 167.94 307.984 167.18 306.517C166.696 305.431 166.059 304.419 165.29 303.512C164.897 303.121 164.576 302.58 164.088 302.369C163.222 302.334 163.107 303.999 163.061 304.758C163.05 306.152 163.165 307.545 163.404 308.918C163.575 310.128 163.711 311.327 163.965 312.516C162.602 313.768 161.193 315.025 160.21 316.853C158.207 320.474 157.28 325.064 158.163 329.059C158.44 330.274 159.023 331.29 159.536 332.34C159.85 332.966 160.055 333.642 160.141 334.337C160.232 335.716 160.445 337.085 160.777 338.427C160.799 338.531 160.829 338.633 160.867 338.732C159.966 340.454 159.031 342.166 158.153 343.914C156.926 346.394 155.827 348.961 154.427 351.329C154.116 351.842 153.805 352.355 153.494 352.839C154.535 349.393 155.948 346.055 156.569 342.477C156.962 340.094 157.193 337.686 157.262 335.271C157.259 333.675 157.306 331.96 156.798 330.51C155.918 328.11 154.184 326.445 152.852 324.601C152.353 324.262 152.069 325.415 151.899 325.83C151.059 328.287 150.931 330.894 150.827 333.441C150.699 335.99 150.467 338.536 150.55 341.065C150.547 343.032 150.943 344.905 151.399 346.732C151.709 348.072 151.901 349.451 152.116 350.828C152.269 351.859 152.506 352.877 152.824 353.87C152.12 354.947 151.416 355.995 150.699 357.06C149.338 359.124 148.096 361.006 146.608 362.925C145.787 363.956 144.932 364.919 144.053 365.855C143.863 364.333 144.469 362.737 144.97 361.137C145.639 358.845 146.174 356.516 146.573 354.161C146.99 351.799 147.184 349.5 147.53 347.23C148.086 344.072 148.445 340.882 148.606 337.68C148.677 336.244 148.486 334.808 148.042 333.441C147.799 332.437 147.336 332.893 146.929 333.586C145.081 337.064 142.791 340.297 141.604 344.184C141.109 345.763 140.712 347.37 140.417 348.997C140.154 350.159 140.001 351.342 139.96 352.532C140.007 355.434 140.555 358.306 141.579 361.022C141.912 361.904 142.365 362.735 142.927 363.492C143.161 363.856 143.427 364.198 143.72 364.516L143.778 364.582C143.74 364.909 143.732 365.239 143.752 365.568C143.762 365.748 143.783 365.927 143.816 366.104C142.193 367.793 140.435 369.348 138.558 370.751C138.893 370.053 139.154 369.322 139.336 368.569C139.502 367.727 139.509 366.861 139.359 366.016C138.916 364.147 138.057 362.728 137.66 360.883C137.271 359.337 137.209 357.874 137.137 356.199C137.093 355.134 137.084 354.023 136.758 353.04C136.195 351.41 134.671 350.709 133.294 350.437C132.768 350.344 132.238 350.278 131.705 350.241C131.166 350.291 131.017 350.961 131.01 351.503C131.04 352.587 131.263 353.658 131.67 354.664C132.087 355.837 132.481 357.013 132.816 358.236C133.182 359.728 133.548 361.277 134.671 362.157C135.296 362.698 135.994 363.004 136.513 363.541C137.537 364.772 137.45 366.961 137.46 368.913C137.467 369.511 137.574 370.104 137.776 370.666C137.834 370.846 137.927 371.012 138.051 371.154C136.621 372.213 135.202 373.313 133.715 374.219C133.55 374.32 133.574 374.29 133.385 374.392L133.362 374.423C133.35 374.438 133.35 374.438 133.326 374.441L133.315 374.456C133.285 374.48 133.264 374.513 133.255 374.55C133.246 374.587 133.249 374.626 133.265 374.661C133.369 374.831 133.511 374.974 133.681 375.079C133.759 375.371 134.598 374.766 134.727 374.711C135.671 374.14 136.604 373.498 137.524 372.871C137.737 373.169 138.004 373.425 138.31 373.626C138.583 373.769 138.879 373.863 139.184 373.901C139.158 373.989 139.24 374.081 139.321 374.145C139.714 374.537 140.011 375.08 140.402 375.585C140.853 376.151 141.335 376.692 141.843 377.206C145.164 380.128 149.492 381.641 153.909 381.426C154.871 381.28 155.879 381.159 156.753 380.536C156.93 380.392 157.178 380.241 157.193 379.968C157.208 379.696 156.977 379.547 156.874 379.342C156.636 379.007 156.423 378.655 156.234 378.289C155.55 376.898 154.843 375.509 153.757 374.526C151.572 372.461 147.173 371.597 144.329 372.515C143.06 372.86 141.834 373.6 140.639 373.71C140 373.738 139.361 373.662 138.746 373.486C138.373 373.333 138.051 373.075 137.82 372.743L137.797 372.718C138.175 372.455 138.565 372.177 138.943 371.914C141.258 370.142 143.429 368.188 145.433 366.071ZM160.557 335.539C160.559 335.506 160.556 335.472 160.547 335.44C160.666 335.315 160.705 335.013 160.824 334.859C161.396 333.935 161.871 332.955 162.244 331.934C163.01 329.711 163.462 327.417 163.961 325.118C164.47 322.891 164.757 320.611 165.138 318.353L165.328 317.266C165.474 317.723 165.61 318.166 165.755 318.623C166.169 319.996 166.525 321.417 167.14 322.672C167.151 322.714 167.174 322.74 167.185 322.782C167.196 322.824 167.185 322.867 167.195 322.91L167.218 322.935C166.794 324.072 166.416 325.233 166.003 326.355C165.455 327.959 164.911 329.307 164.282 330.847C163.652 332.445 163.153 333.873 162.43 335.423C161.997 336.346 161.529 337.259 161.061 338.143C160.835 337.287 160.667 336.417 160.557 335.539Z" fill="#42C2B9"/>
<path fill-rule="evenodd" clip-rule="evenodd" d="M111.787 377.428H162.934C162.934 377.428 159.416 384.155 156.072 390.553C154.285 393.97 151.596 396.833 148.298 398.83C145 400.828 141.217 401.884 137.361 401.885C133.505 401.884 129.723 400.828 126.424 398.83C123.126 396.833 120.437 393.97 118.65 390.553C115.305 384.154 111.787 377.428 111.787 377.428Z" fill="#B2B7F0"/>
<mask id="mask0_2043_34396" style="mask-type:luminance" maskUnits="userSpaceOnUse" x="111" y="377" width="52" height="25">
<path d="M111.787 377.428H162.934C162.934 377.428 159.416 384.155 156.072 390.553C154.285 393.97 151.596 396.833 148.298 398.83C145 400.828 141.217 401.884 137.361 401.885C133.505 401.884 129.723 400.828 126.424 398.83C123.126 396.833 120.437 393.97 118.65 390.553C115.305 384.154 111.787 377.428 111.787 377.428Z" fill="white"/>
</mask>
<g mask="url(#mask0_2043_34396)">
<path fill-rule="evenodd" clip-rule="evenodd" d="M157.275 377.426C148.69 377.107 118.599 375.968 111.416 377.426C108.417 378.036 114.176 386.181 114.176 386.181C114.176 386.181 155.747 380.799 162.929 379.34C164.879 378.944 159.264 377.501 157.275 377.426Z" fill="black" fill-opacity="0.2"/>
</g>
<path fill-rule="evenodd" clip-rule="evenodd" d="M164.983 371.836H109.738V371.844C109.738 372.828 109.932 373.803 110.309 374.713C110.686 375.622 111.238 376.449 111.934 377.145C112.63 377.841 113.457 378.393 114.366 378.77C115.276 379.147 116.251 379.34 117.235 379.34H157.486C158.471 379.34 159.446 379.147 160.355 378.77C161.265 378.393 162.091 377.841 162.787 377.145C163.484 376.449 164.036 375.622 164.413 374.713C164.789 373.803 164.983 372.828 164.983 371.844V371.836Z" fill="#1A2283"/>
<path fill-rule="evenodd" clip-rule="evenodd" d="M393.427 121.59C393.427 118.048 392.019 114.651 389.515 112.146C387.01 109.641 383.612 108.234 380.07 108.234H311.279C307.737 108.234 304.339 109.641 301.834 112.146C299.329 114.651 297.922 118.048 297.922 121.59V121.599C297.922 125.141 299.329 128.538 301.834 131.043C304.339 133.548 307.737 134.955 311.279 134.955H380.07C383.612 134.955 387.01 133.548 389.515 131.043C392.019 128.538 393.427 125.141 393.427 121.599V121.59Z" fill="#737CE3"/>
<path fill-rule="evenodd" clip-rule="evenodd" d="M351.446 126.803C351.285 127.013 350.894 126.908 350.361 126.511C349.699 125.981 349.108 125.368 348.603 124.686L345.347 120.444C344.793 119.737 344.323 118.968 343.945 118.154C343.641 117.46 343.561 116.951 343.722 116.741C343.883 116.531 344.273 116.635 344.806 117.032C345.469 117.562 346.06 118.176 346.565 118.857L349.821 123.1C350.375 123.807 350.845 124.575 351.223 125.389C351.527 126.084 351.607 126.593 351.446 126.803Z" fill="white"/>
<path fill-rule="evenodd" clip-rule="evenodd" d="M351.255 116.712C351.417 116.922 351.336 117.431 351.032 118.125C350.654 118.939 350.184 119.708 349.63 120.415L346.374 124.657C345.869 125.339 345.278 125.952 344.615 126.482C344.082 126.879 343.692 126.984 343.531 126.773C343.369 126.563 343.45 126.055 343.754 125.36C344.132 124.546 344.602 123.777 345.156 123.07L348.412 118.828C348.917 118.146 349.508 117.533 350.17 117.003C350.703 116.606 351.094 116.501 351.255 116.712Z" fill="white"/>
<path fill-rule="evenodd" clip-rule="evenodd" d="M352.98 121.537C352.98 121.834 352.647 122.12 352.055 122.331C351.333 122.561 350.578 122.671 349.821 122.659H345.217C344.459 122.671 343.704 122.561 342.982 122.331C342.39 122.12 342.058 121.835 342.058 121.537C342.058 121.239 342.39 120.954 342.982 120.743C343.704 120.513 344.459 120.403 345.217 120.415H349.822C350.58 120.403 351.334 120.514 352.056 120.743C352.648 120.954 352.982 121.239 352.982 121.537H352.98ZM334.852 126.803C334.691 127.013 334.3 126.908 333.767 126.511C333.105 125.981 332.514 125.368 332.01 124.686L328.753 120.444C328.199 119.737 327.729 118.968 327.351 118.154C327.047 117.46 326.967 116.951 327.128 116.741C327.29 116.531 327.68 116.635 328.213 117.032C328.875 117.562 329.466 118.176 329.971 118.857L333.228 123.1C333.781 123.807 334.251 124.575 334.629 125.389C334.933 126.084 335.013 126.593 334.852 126.803Z" fill="white"/>
<path fill-rule="evenodd" clip-rule="evenodd" d="M334.662 116.711C334.823 116.921 334.742 117.43 334.438 118.124C334.06 118.939 333.59 119.707 333.037 120.414L329.78 124.657C329.275 125.339 328.684 125.952 328.022 126.482C327.489 126.879 327.099 126.984 326.937 126.773C326.775 126.563 326.856 126.055 327.161 125.36C327.538 124.546 328.009 123.777 328.562 123.07L331.819 118.828C332.323 118.146 332.914 117.533 333.576 117.003C334.109 116.606 334.5 116.501 334.662 116.712V116.711Z" fill="white"/>
<path fill-rule="evenodd" clip-rule="evenodd" d="M336.388 121.537C336.388 121.834 336.056 122.12 335.463 122.331C334.741 122.561 333.987 122.671 333.229 122.659H328.624C327.866 122.671 327.111 122.561 326.39 122.331C325.797 122.12 325.465 121.835 325.465 121.537C325.465 121.239 325.797 120.954 326.39 120.743C327.112 120.513 327.866 120.403 328.624 120.415H333.229C333.987 120.403 334.741 120.514 335.463 120.743C336.055 120.954 336.388 121.239 336.388 121.537ZM318.323 126.803C318.161 127.013 317.771 126.908 317.238 126.511C316.576 125.981 315.985 125.368 315.48 124.686L312.224 120.444C311.67 119.737 311.2 118.969 310.822 118.154C310.518 117.46 310.438 116.951 310.599 116.741C310.76 116.531 311.15 116.635 311.683 117.032C312.346 117.562 312.937 118.176 313.442 118.857L316.698 123.1C317.252 123.807 317.722 124.575 318.099 125.389C318.404 126.084 318.483 126.593 318.323 126.803Z" fill="white"/>
<path fill-rule="evenodd" clip-rule="evenodd" d="M318.132 116.712C318.294 116.922 318.213 117.431 317.909 118.125C317.531 118.939 317.061 119.708 316.507 120.415L313.251 124.657C312.746 125.339 312.155 125.952 311.492 126.482C310.959 126.879 310.569 126.984 310.408 126.773C310.246 126.563 310.327 126.055 310.631 125.36C311.009 124.546 311.479 123.777 312.033 123.07L315.289 118.828C315.794 118.146 316.385 117.533 317.047 117.003C317.58 116.606 317.971 116.501 318.132 116.712Z" fill="white"/>
<path fill-rule="evenodd" clip-rule="evenodd" d="M319.858 121.538C319.858 121.836 319.525 122.121 318.932 122.332C318.21 122.562 317.456 122.673 316.698 122.66H312.093C311.335 122.673 310.58 122.562 309.859 122.332C309.266 122.121 308.934 121.836 308.934 121.538C308.934 121.241 309.266 120.955 309.859 120.745C310.581 120.515 311.335 120.404 312.093 120.416H316.699C317.457 120.404 318.211 120.515 318.933 120.745C319.525 120.955 319.858 121.24 319.858 121.538H319.858ZM382.651 126.805C382.49 127.015 382.099 126.91 381.566 126.513C380.904 125.983 380.313 125.37 379.808 124.688L376.552 120.446C375.998 119.739 375.528 118.97 375.15 118.156C374.846 117.462 374.766 116.953 374.927 116.743C375.088 116.533 375.479 116.637 376.011 117.034C376.674 117.564 377.265 118.178 377.77 118.86L381.027 123.102C381.58 123.809 382.05 124.577 382.428 125.391C382.732 126.086 382.811 126.595 382.651 126.805Z" fill="white"/>
<path fill-rule="evenodd" clip-rule="evenodd" d="M382.46 116.713C382.622 116.924 382.541 117.433 382.236 118.127C381.859 118.941 381.389 119.71 380.835 120.417L377.579 124.659C377.074 125.341 376.483 125.954 375.821 126.484C375.288 126.881 374.897 126.986 374.736 126.775C374.574 126.565 374.655 126.057 374.959 125.362C375.337 124.548 375.807 123.779 376.361 123.072L379.617 118.83C380.122 118.148 380.713 117.535 381.375 117.005C381.908 116.608 382.299 116.503 382.46 116.713Z" fill="white"/>
<path fill-rule="evenodd" clip-rule="evenodd" d="M384.185 121.539C384.185 121.837 383.852 122.122 383.259 122.333C382.538 122.563 381.783 122.674 381.026 122.661H376.42C375.662 122.674 374.908 122.563 374.186 122.333C373.594 122.122 373.261 121.837 373.261 121.539C373.261 121.241 373.594 120.956 374.186 120.746C374.908 120.515 375.662 120.404 376.42 120.417H381.026C381.783 120.404 382.538 120.515 383.259 120.746C383.852 120.956 384.185 121.241 384.185 121.539ZM366.12 126.805C365.958 127.015 365.568 126.91 365.035 126.513C364.373 125.983 363.782 125.37 363.277 124.688L360.021 120.446C359.467 119.739 358.997 118.97 358.619 118.156C358.315 117.462 358.235 116.953 358.396 116.743C358.557 116.533 358.947 116.637 359.48 117.034C360.143 117.564 360.734 118.178 361.239 118.86L364.495 123.102C365.048 123.809 365.518 124.577 365.896 125.391C366.201 126.086 366.282 126.595 366.12 126.805Z" fill="white"/>
<path fill-rule="evenodd" clip-rule="evenodd" d="M365.929 116.713C366.09 116.924 366.01 117.433 365.705 118.127C365.328 118.941 364.857 119.71 364.304 120.417L361.047 124.659C360.543 125.341 359.952 125.954 359.289 126.484C358.756 126.881 358.366 126.986 358.205 126.775C358.043 126.565 358.123 126.057 358.428 125.362C358.806 124.548 359.276 123.779 359.829 123.072L363.086 118.83C363.591 118.148 364.182 117.535 364.844 117.005C365.377 116.608 365.767 116.503 365.929 116.713Z" fill="white"/>
<path fill-rule="evenodd" clip-rule="evenodd" d="M367.656 121.537C367.656 121.835 367.324 122.12 366.731 122.331C366.009 122.561 365.255 122.672 364.497 122.66H359.892C359.134 122.672 358.379 122.561 357.657 122.331C357.065 122.12 356.732 121.835 356.732 121.537C356.732 121.24 357.065 120.954 357.657 120.744C358.379 120.514 359.134 120.403 359.892 120.415H364.497C365.255 120.403 366.009 120.514 366.731 120.744C367.323 120.954 367.656 121.239 367.656 121.537Z" fill="white"/>
<path fill-rule="evenodd" clip-rule="evenodd" d="M245.62 85.1113C248.832 85.1119 251.94 86.2499 254.394 88.3236C256.847 90.3974 258.486 93.2728 259.021 96.4401C263.913 125.417 276.896 202.305 282.535 235.7C282.864 237.649 282.764 239.646 282.242 241.552C281.72 243.458 280.789 245.227 279.513 246.737C278.237 248.246 276.648 249.459 274.855 250.291C273.062 251.123 271.11 251.553 269.133 251.553H148.062C144.85 251.553 141.742 250.415 139.289 248.341C136.837 246.267 135.198 243.391 134.663 240.224C129.769 211.247 116.788 134.359 111.148 100.964C110.82 99.0156 110.92 97.0188 111.442 95.113C111.964 93.2072 112.896 91.4381 114.171 89.929C115.447 88.42 117.036 87.2072 118.829 86.3751C120.621 85.5431 122.573 85.1118 124.549 85.1113H245.62Z" fill="#192280"/>
<path fill-rule="evenodd" clip-rule="evenodd" d="M157.996 240.24C154.784 240.24 151.676 239.102 149.222 237.028C146.769 234.954 145.13 232.078 144.595 228.911C139.994 201.652 128.29 132.335 122.993 100.964C122.663 99.0156 122.763 97.0188 123.285 95.1128C123.807 93.2069 124.738 91.4376 126.013 89.9284C127.289 88.4192 128.878 87.2063 130.671 86.3744C132.463 85.5424 134.416 85.1114 136.392 85.1113H247.359C250.572 85.111 253.68 86.2488 256.134 88.3227C258.587 90.3965 260.226 93.2724 260.761 96.4401C265.364 123.699 277.068 193.016 282.363 224.387C282.692 226.335 282.593 228.332 282.071 230.238C281.549 232.144 280.618 233.913 279.342 235.423C278.067 236.932 276.477 238.145 274.685 238.977C272.892 239.809 270.94 240.24 268.964 240.24H157.996Z" fill="#E7E7E7"/>
<path fill-rule="evenodd" clip-rule="evenodd" d="M193.429 109.036C195.705 108.746 198.073 108.438 200.48 108.278C202.029 108.176 203.596 108.114 205.152 108.161C207.703 108.25 210.24 108.581 212.729 109.149C213.292 109.249 213.871 109.121 214.341 108.796C214.811 108.47 215.133 107.971 215.238 107.409C215.342 106.847 215.22 106.266 214.898 105.793C214.577 105.32 214.081 104.994 213.52 104.885C210.829 104.488 208.034 104.419 205.214 104.41C203.581 104.406 201.94 104.406 200.311 104.441C197.833 104.497 195.386 104.583 193.03 104.718C192.746 104.744 192.469 104.825 192.216 104.957C191.964 105.09 191.739 105.27 191.557 105.49C191.374 105.709 191.236 105.962 191.152 106.234C191.067 106.507 191.037 106.793 191.063 107.077C191.089 107.362 191.171 107.638 191.305 107.89C191.438 108.142 191.62 108.366 191.839 108.548C192.059 108.73 192.313 108.867 192.586 108.95C192.858 109.034 193.145 109.063 193.429 109.036ZM193.342 124.561C195.745 124.401 205.292 124.197 214.735 124.133C219.974 124.098 225.179 124.159 229.138 124.058C230.716 124.016 232.101 123.965 233.219 123.885C233.791 123.832 234.319 123.553 234.686 123.111C235.054 122.668 235.23 122.098 235.177 121.525C235.123 120.953 234.845 120.425 234.402 120.058C233.96 119.69 233.39 119.514 232.817 119.567C229.417 119.946 223.423 120.268 217.091 120.374C213.899 120.427 210.625 120.407 207.553 120.38C200.75 120.321 194.932 120.168 193.116 120.23C192.542 120.26 192.003 120.517 191.618 120.944C191.233 121.371 191.034 121.934 191.064 122.508C191.094 123.083 191.351 123.622 191.778 124.007C192.205 124.392 192.768 124.591 193.342 124.561ZM193.537 142.38C201.239 142.222 208.623 142.012 215.864 141.775C220.878 141.613 225.823 141.413 230.757 141.21C238.979 140.868 247.169 140.487 255.592 139.807C255.876 139.782 256.153 139.701 256.407 139.569C256.66 139.436 256.885 139.255 257.068 139.036C257.251 138.816 257.389 138.563 257.474 138.29C257.559 138.017 257.589 137.73 257.562 137.446C257.536 137.161 257.453 136.885 257.32 136.632C257.186 136.379 257.004 136.156 256.783 135.974C256.563 135.792 256.309 135.656 256.035 135.572C255.762 135.489 255.475 135.461 255.19 135.489C246.852 136.362 238.741 137.053 230.587 137.464C225.679 137.71 220.756 137.845 215.764 137.936C208.543 138.069 201.177 138.058 193.497 138.044C192.922 138.05 192.372 138.283 191.97 138.693C191.567 139.104 191.344 139.657 191.349 140.232C191.354 140.807 191.588 141.356 191.998 141.759C192.408 142.162 192.962 142.385 193.537 142.38ZM174.022 201.79C173.991 201.759 173.973 201.708 173.94 201.668C173.818 201.512 173.714 201.342 173.629 201.163C173.338 200.523 173.121 199.852 172.982 199.163C172.552 197.237 172.426 195.156 172.302 194.25L171.564 188.058C171.12 184.008 170.796 179.77 170.058 175.652C169.58 172.801 168.807 170.008 167.751 167.317C165.945 162.858 163.152 161.649 160.554 162.037C158.224 162.385 155.728 164.325 153.875 167.26C153.447 167.941 153.038 168.635 152.65 169.341C152.082 170.37 151.549 171.418 151.021 172.469C150.118 174.264 149.243 176.073 148.447 177.917C147.909 179.167 147.405 180.433 146.953 181.718C146.771 182.26 146.81 182.852 147.062 183.364C147.313 183.877 147.757 184.27 148.297 184.457C148.837 184.645 149.429 184.611 149.944 184.364C150.46 184.118 150.857 183.677 151.049 183.139C151.561 181.643 152.148 180.176 152.78 178.728C153.425 177.254 154.117 175.802 154.826 174.359C155.32 173.355 155.819 172.353 156.351 171.369C156.695 170.731 157.057 170.103 157.437 169.485C158.521 167.736 159.802 166.349 161.183 166.129C162.32 165.95 163.169 166.921 163.976 168.867C164.947 171.288 165.664 173.804 166.115 176.374C166.871 180.397 167.208 184.54 167.671 188.496L168.462 194.789C168.655 196.135 168.914 199.828 169.932 202.279C170.692 204.108 171.913 205.309 173.392 205.571C174.946 205.846 176.537 205.03 177.818 203.354C179.459 201.206 180.715 197.567 181.228 196.379C183.375 191.396 185.086 186.215 187.079 181.164C187.913 179.045 188.802 176.953 189.793 174.902C190.349 173.75 191.049 172.081 192.049 170.819C192.506 170.245 193.007 169.733 193.662 169.607C194.515 169.441 195.216 170.019 195.938 170.693C197.266 171.93 198.485 173.71 199.709 175.215C200.901 176.678 202.129 177.89 203.364 178.489C204.603 179.075 205.97 179.336 207.338 179.247C209.466 179.151 211.69 178.336 213.861 177.695C215.517 177.209 217.126 176.748 218.576 177.416C219.806 177.983 220.558 179.24 221.211 180.625C222.468 183.29 223.235 186.495 224.341 188.576C226.104 191.886 228.568 193.714 231.37 194.616C235.242 195.867 239.87 195.213 244.251 194.076C244.526 194.003 244.784 193.876 245.01 193.703C245.237 193.53 245.427 193.315 245.57 193.068C245.712 192.822 245.806 192.55 245.843 192.268C245.881 191.986 245.863 191.699 245.79 191.424C245.717 191.148 245.59 190.89 245.417 190.664C245.245 190.438 245.029 190.248 244.783 190.105C244.536 189.962 244.264 189.869 243.982 189.831C243.7 189.793 243.413 189.811 243.138 189.884C240.157 190.689 237.038 191.316 234.227 190.937C231.718 190.6 229.495 189.388 227.981 186.615C226.671 184.214 225.805 180.295 224.104 177.478C223.106 175.829 221.85 174.51 220.234 173.781C218.957 173.224 217.555 173.013 216.171 173.171C214.114 173.364 211.931 174.221 209.771 174.845C208.142 175.315 206.528 175.707 205.035 175C203.843 174.433 202.772 172.926 201.606 171.445C200.181 169.636 198.691 167.809 197.101 166.799C195.793 165.965 194.405 165.608 192.933 165.903C191.73 166.169 190.636 166.795 189.797 167.698C188.272 169.25 187.195 171.663 186.421 173.279C185.397 175.411 184.482 177.592 183.613 179.796C181.634 184.809 179.909 189.941 177.766 194.879C177.415 195.686 176.71 197.736 175.751 199.539C175.425 200.183 175.027 200.788 174.563 201.34C174.397 201.508 174.216 201.658 174.022 201.79ZM153.762 218.57C158.967 218.521 164.171 218.402 169.376 218.266C179.767 217.994 190.158 217.535 200.549 217.147C210.932 216.759 221.311 216.466 231.683 216.172C231.97 216.164 232.252 216.099 232.513 215.981C232.775 215.864 233.01 215.695 233.206 215.486C233.402 215.277 233.554 215.031 233.655 214.763C233.755 214.494 233.801 214.208 233.79 213.922C233.779 213.636 233.712 213.354 233.591 213.094C233.471 212.834 233.3 212.6 233.089 212.407C232.878 212.213 232.631 212.063 232.361 211.965C232.092 211.868 231.805 211.825 231.519 211.838C222.19 212.284 212.857 212.834 203.511 213.257C197.293 213.541 191.072 213.77 184.848 213.944C174.486 214.232 164.124 214.329 153.763 214.234C153.188 214.234 152.637 214.463 152.23 214.869C151.824 215.276 151.596 215.827 151.596 216.402C151.596 216.977 151.824 217.529 152.23 217.935C152.637 218.342 153.188 218.57 153.763 218.57H153.762ZM155.247 228.962C157.727 228.988 160.21 228.873 162.703 228.757C164.337 228.682 165.973 228.587 167.611 228.538C170.317 228.461 173.019 228.487 175.706 228.516C176.277 228.496 176.817 228.252 177.21 227.836C177.602 227.42 177.813 226.867 177.799 226.295C177.785 225.724 177.545 225.181 177.133 224.786C176.721 224.39 176.168 224.173 175.597 224.182C173.56 224.313 171.527 224.511 169.475 224.654C168.13 224.748 166.78 224.836 165.43 224.876C162.098 224.965 158.764 224.883 155.44 224.63C155.155 224.616 154.87 224.658 154.601 224.755C154.332 224.851 154.085 225 153.874 225.192C153.663 225.384 153.492 225.616 153.37 225.875C153.249 226.133 153.18 226.413 153.167 226.699C153.155 226.984 153.199 227.269 153.296 227.537C153.394 227.806 153.544 228.052 153.737 228.262C153.93 228.473 154.163 228.643 154.423 228.763C154.682 228.882 154.962 228.95 155.247 228.961L155.247 228.962Z" fill="white"/>
<path fill-rule="evenodd" clip-rule="evenodd" d="M176.299 139.716C176.732 139.582 177.112 139.315 177.384 138.952C177.657 138.59 177.808 138.15 177.817 137.697C180.876 133.209 182.712 128.001 183.143 122.587C183.677 115.955 182.079 109.185 178.093 103.573C174.855 98.998 169.3 95.7394 164.162 95.8218C160.877 95.873 157.716 97.2094 155.303 100.368C153.659 101.043 152.183 102.07 150.978 103.376C148.46 105.996 146.516 109.68 145.359 112.144C142.11 119.051 140.775 128.334 143.269 135.799C145.01 141.012 148.555 145.379 154.536 147.586C155.616 147.987 156.737 148.269 157.878 148.427C159.018 148.586 160.171 148.623 161.318 148.537C164.147 148.288 166.878 147.38 169.293 145.886C171.622 144.459 173.721 142.687 175.518 140.631C175.784 140.332 176.045 140.027 176.299 139.716ZM173.031 137.804C172.518 137.128 172.012 136.447 171.514 135.76C169.69 133.242 167.95 130.673 166.113 128.15C165.539 127.319 164.916 126.524 164.246 125.769C163.723 125.218 163.156 124.708 162.473 124.541C162.005 124.43 161.573 124.742 161.142 125.031C160.423 125.552 159.749 126.132 159.127 126.766C157.254 128.558 155.401 130.501 153.634 132.52C151.959 134.44 150.363 136.429 148.851 138.481C150.531 141.035 152.991 142.979 155.865 144.022C156.687 144.333 157.54 144.552 158.41 144.676C159.281 144.801 160.163 144.832 161.041 144.769C163.287 144.573 165.455 143.852 167.372 142.665C169.375 141.442 171.181 139.92 172.727 138.153C172.83 138.038 172.932 137.921 173.031 137.804ZM175.599 134.202C177.742 130.573 179.016 126.497 179.321 122.294C179.738 116.567 178.317 110.728 174.826 105.918C172.74 103.054 169.497 100.824 166.212 100.197C164.118 99.796 162.012 100.12 160.256 101.456C160.301 101.629 160.324 101.807 160.323 101.986C160.323 102.125 160.31 102.264 160.283 102.401L161.174 105.57C161.677 107.796 162.079 110.019 162.519 112.229C162.814 113.713 163.134 115.188 163.422 116.675C163.714 118.18 163.998 119.687 164.248 121.212C165.037 121.565 165.763 122.045 166.396 122.633C167.469 123.598 168.391 124.845 169.163 125.841C170.818 127.949 172.399 130.099 174.03 132.211C174.547 132.878 175.071 133.542 175.6 134.202H175.599ZM156.692 104.874C156.41 104.928 156.12 104.924 155.839 104.863C155.181 105.285 154.576 105.784 154.037 106.35C151.825 108.6 150.14 111.805 149.112 113.933C146.691 118.94 145.37 125.395 146.219 131.205C146.36 132.181 146.571 133.147 146.849 134.094C148.07 132.632 149.331 131.204 150.631 129.811C152.539 127.763 154.522 125.79 156.531 123.977C157.416 123.166 158.633 122.044 159.936 121.392C159.731 118.962 159.501 116.564 159.083 114.188C158.631 111.617 157.965 109.088 157.294 106.53C157.123 105.968 156.923 105.415 156.693 104.874H156.692Z" fill="#737CE3"/>
<path fill-rule="evenodd" clip-rule="evenodd" d="M415.036 377.299C418.236 370.748 432.221 390.739 426.876 395.708C419.503 402.562 377.554 419.427 370.794 418.422C364.035 417.417 378.95 396.52 386.323 389.665C393.696 382.811 406.108 395.574 415.036 377.299Z" fill="#1A2283"/>
<mask id="mask1_2043_34396" style="mask-type:luminance" maskUnits="userSpaceOnUse" x="369" y="375" width="60" height="44">
<path d="M415.036 377.299C418.236 370.748 432.221 390.739 426.876 395.708C419.503 402.562 377.554 419.427 370.794 418.422C364.035 417.417 378.95 396.52 386.323 389.665C393.696 382.811 406.108 395.574 415.036 377.299Z" fill="white"/>
</mask>
<g mask="url(#mask1_2043_34396)">
<path fill-rule="evenodd" clip-rule="evenodd" d="M432.339 378.838C430.063 380.453 425.621 389.211 420.5 392.285C411.886 397.461 390.688 407.078 380.651 409.892C374.11 411.726 363.445 408.299 360.282 409.174C358.314 409.718 359.646 414.862 361.671 415.143C365.297 415.646 375.546 414.399 382.046 412.195C391.914 408.85 412.192 400.005 420.875 395.072C426.156 392.073 432.239 385.301 434.15 382.595C434.951 381.459 433.471 378.033 432.339 378.838Z" fill="white"/>
</g>
<path fill-rule="evenodd" clip-rule="evenodd" d="M288.674 346.544C294.982 342.885 295.462 367.278 288.257 368.427C278.316 370.014 234.081 360.661 229.026 356.062C223.972 351.463 247.997 342.412 257.938 340.825C267.879 339.238 271.081 356.751 288.674 346.544Z" fill="#1A2283"/>
<mask id="mask2_2043_34396" style="mask-type:luminance" maskUnits="userSpaceOnUse" x="228" y="340" width="66" height="29">
<path d="M288.674 346.544C294.982 342.885 295.462 367.278 288.257 368.427C278.316 370.014 234.081 360.661 229.026 356.062C223.972 351.463 247.997 342.412 257.938 340.825C267.879 339.238 271.081 356.751 288.674 346.544Z" fill="white"/>
</mask>
<g mask="url(#mask2_2043_34396)">
<path fill-rule="evenodd" clip-rule="evenodd" d="M302.189 357.459C299.399 357.532 290.834 362.333 284.868 362.035C274.831 361.536 251.869 357.72 241.964 354.467C235.51 352.348 228.56 343.562 225.446 342.528C223.509 341.883 221.751 346.898 223.276 348.259C226.008 350.696 235.215 355.367 241.841 357.156C251.9 359.874 273.668 363.82 283.628 364.558C289.685 365.009 298.507 362.771 301.602 361.589C302.9 361.09 303.579 357.421 302.189 357.459Z" fill="white"/>
</g>
<path fill-rule="evenodd" clip-rule="evenodd" d="M356.662 271.809C328.348 285.364 302.046 268.042 291.318 287.054C280.772 305.742 318.116 345.842 287.185 351.764C272.406 354.593 247.374 341.889 244.643 326.386C241.912 310.882 252.12 272.69 270.788 258.743C289.456 244.795 331.964 238.461 356.661 242.708C382.49 247.147 383.936 258.753 356.662 271.809Z" fill="#69BAC9"/>
<mask id="mask3_2043_34396" style="mask-type:luminance" maskUnits="userSpaceOnUse" x="244" y="241" width="133" height="112">
<path d="M356.662 271.809C328.348 285.364 302.046 268.042 291.318 287.054C280.772 305.742 318.116 345.842 287.185 351.764C272.406 354.593 247.374 341.889 244.643 326.386C241.912 310.882 252.12 272.69 270.788 258.743C289.456 244.795 331.964 238.461 356.661 242.708C382.49 247.147 383.936 258.753 356.662 271.809Z" fill="white"/>
</mask>
<g mask="url(#mask3_2043_34396)">
<path fill-rule="evenodd" clip-rule="evenodd" d="M325.763 235.052C326.16 235.276 326.348 235.757 326.499 236.247C326.734 237.052 326.863 237.884 326.885 238.723C327 243.24 325.664 247.674 323.074 251.377C321.408 253.732 319.124 255.183 316.562 256.081C312.455 257.522 307.704 257.628 303.568 257.801C299.949 257.895 296.347 258.332 292.809 259.104C289.261 259.915 285.829 261.161 282.713 263.107C278.528 265.636 275.817 269.098 273.809 273.017C269.29 281.833 268.561 293.165 263.526 301.764C262.482 303.552 261.337 305.278 260.096 306.935C258.873 308.563 257.509 310.079 256.019 311.466C252.012 315.175 247.641 318.056 243.966 321.824C242.267 323.547 240.778 325.465 239.531 327.539C239.25 328.041 239.181 328.634 239.338 329.187C239.495 329.74 239.865 330.208 240.367 330.488C240.869 330.768 241.462 330.837 242.015 330.68C242.568 330.523 243.036 330.153 243.317 329.651C244.641 327.17 246.326 324.898 248.317 322.911C251.416 319.725 254.949 316.997 258.173 313.672C259.702 312.083 261.09 310.364 262.322 308.536C263.535 306.739 264.648 304.876 265.654 302.955C270.395 294.089 270.59 282.581 274.93 273.575C276.748 269.802 279.339 266.504 283.293 264.057C286.323 262.283 289.634 261.042 293.084 260.388C296.537 259.697 300.102 259.484 303.597 259.486C307.935 259.517 312.896 259.577 317.273 258.314C320.401 257.409 323.22 255.824 325.395 253.136C327.01 251.107 328.292 248.834 329.194 246.403C330.12 243.954 330.654 241.374 330.774 238.758C330.846 237.296 330.672 235.832 330.258 234.427C329.884 233.177 329.095 232.092 328.022 231.351C327.779 231.202 327.509 231.103 327.227 231.059C326.946 231.015 326.659 231.027 326.382 231.094C326.105 231.161 325.844 231.282 325.614 231.45C325.384 231.617 325.19 231.829 325.041 232.072C324.893 232.315 324.794 232.585 324.75 232.866C324.706 233.147 324.718 233.435 324.785 233.711C324.852 233.988 324.973 234.249 325.14 234.479C325.308 234.709 325.52 234.904 325.763 235.052ZM306.798 287.458C305.195 286.385 303.288 285.858 301.361 285.955C298.881 286.08 296.36 287.073 294.266 288.409C290.779 290.641 287.715 293.47 285.213 296.768C282.631 300.177 280.7 304.021 280.27 307.926C279.916 310.71 280.239 313.492 280.886 316.232C281.84 320.248 283.54 324.178 285.328 327.747C286.104 329.347 287.51 331.349 288.301 333.386C288.771 334.596 289.015 335.81 288.638 336.932C287.463 340.359 284.424 342.516 281.232 344.59C277.697 346.886 274.002 349.09 271.712 352.239C270.343 354.119 269.529 356.344 269.362 358.663C269.351 358.948 269.396 359.232 269.494 359.499C269.593 359.766 269.743 360.011 269.936 360.221C270.129 360.43 270.362 360.599 270.62 360.718C270.879 360.838 271.158 360.905 271.443 360.916C272.017 360.939 272.578 360.733 273 360.343C273.423 359.953 273.673 359.411 273.696 358.836C273.687 356.148 274.797 354.097 276.424 352.334C281.044 347.329 288.855 344.146 290.59 337.525C290.894 336.283 290.816 334.979 290.369 333.781C289.553 331.372 287.638 328.964 286.599 327.087C284.763 323.657 282.892 319.896 281.968 315.977C281.335 313.405 281.21 310.734 281.598 308.114C282.219 304.528 284.189 301.05 286.816 298.084C289.366 295.242 292.417 292.892 295.817 291.153C297.263 290.401 298.842 289.94 300.465 289.794C301.824 289.675 303.176 290.091 304.231 290.956C304.461 291.124 304.721 291.246 304.998 291.314C305.274 291.382 305.562 291.395 305.843 291.352C306.124 291.308 306.395 291.21 306.638 291.063C306.882 290.915 307.094 290.721 307.262 290.492C307.431 290.262 307.553 290.002 307.621 289.725C307.688 289.449 307.701 289.161 307.658 288.88C307.615 288.598 307.517 288.328 307.369 288.085C307.222 287.841 307.028 287.629 306.798 287.46V287.458Z" fill="white"/>
<path fill-rule="evenodd" clip-rule="evenodd" d="M364.307 252.282C335.296 282.511 302.321 265.007 289.748 284.099C284.154 292.598 292.676 312.296 302.833 311.675C319.005 310.688 376.54 288.073 386.785 278.174C395.006 270.232 370.48 245.847 364.307 252.282Z" fill="black" fill-opacity="0.2"/>
</g>
<path fill-rule="evenodd" clip-rule="evenodd" d="M389.45 256.089C371.064 304.453 395.802 326.747 400.006 332.487C415.072 353.048 440.18 361.804 424.511 379.972C414.684 391.367 388.091 395.409 375.235 385.048C362.307 374.631 349.842 340.914 346.943 317.471C344.044 294.029 351.154 268.54 357.84 244.392C362.957 225.912 400.195 227.826 389.45 256.089Z" fill="#69BAC9"/>
<mask id="mask4_2043_34396" style="mask-type:luminance" maskUnits="userSpaceOnUse" x="346" y="232" width="84" height="160">
<path d="M389.45 256.089C371.064 304.453 395.802 326.747 400.006 332.487C415.072 353.048 440.18 361.804 424.511 379.972C414.684 391.367 388.091 395.409 375.235 385.048C362.307 374.631 349.842 340.914 346.943 317.471C344.044 294.029 351.154 268.54 357.84 244.392C362.957 225.912 400.195 227.826 389.45 256.089Z" fill="white"/>
</mask>
<g mask="url(#mask4_2043_34396)">
<path fill-rule="evenodd" clip-rule="evenodd" d="M398.743 233.555C396.112 234.39 393.529 236.199 391.165 238.458C388.004 241.474 385.194 245.236 383.044 247.927C375.645 257.102 367.936 269.656 364.593 282.574C362.317 291.367 362.028 300.333 365.353 308.576C366.038 310.303 367.118 312.143 368.614 313.147C369.17 313.536 369.806 313.794 370.475 313.902C371.144 314.011 371.829 313.967 372.48 313.775C373.974 313.371 376.492 311.669 378.602 311.181C379.85 310.893 380.929 311.11 381.35 312.671C384.309 323.955 381.521 336.707 383.475 348.302C384.335 353.409 386.093 358.296 389.582 362.769C391.698 365.484 394.407 367.16 397.415 368.313C403.779 370.751 411.599 370.607 417.568 373.599C420.341 374.991 422.374 377.017 424.043 379.345C426.738 383.1 428.485 387.632 430.586 391.826C430.719 392.078 430.9 392.301 431.119 392.483C431.337 392.665 431.59 392.802 431.862 392.887C432.134 392.971 432.42 393.001 432.703 392.975C432.987 392.949 433.262 392.867 433.514 392.735C433.766 392.602 433.989 392.421 434.171 392.202C434.353 391.983 434.491 391.731 434.575 391.459C434.659 391.187 434.689 390.901 434.663 390.618C434.637 390.334 434.555 390.059 434.423 389.807C432.06 385.524 430.016 380.896 427.059 377.09C424.956 374.384 422.422 372.063 419.042 370.521C412.849 367.692 404.891 368.085 398.322 365.821C395.702 364.919 393.315 363.569 391.419 361.289C388.04 357.218 386.268 352.704 385.341 347.963C383.089 336.417 385.645 323.594 382.447 312.371C381.952 310.582 380.885 309.966 379.587 309.947C377.278 309.913 373.993 312.212 372.189 312.699C371.694 312.844 371.172 312.875 370.664 312.79C370.155 312.705 369.672 312.507 369.25 312.21C367.942 311.316 367.046 309.665 366.464 308.142C363.44 300.12 363.859 291.46 366.319 283.051C369.966 270.587 378.05 258.708 385.599 250.073C387.785 247.594 390.64 244.108 393.807 241.366C395.764 239.673 397.839 238.276 399.951 237.717C400.498 237.553 400.958 237.179 401.23 236.677C401.503 236.175 401.566 235.586 401.407 235.037C401.247 234.489 400.878 234.025 400.379 233.748C399.88 233.47 399.291 233.401 398.741 233.555H398.743ZM352.572 344.201C352.469 342.25 353.07 339.972 354.097 337.89C355.172 335.705 356.643 333.712 358.237 332.502C359.092 331.818 360.112 331.371 361.194 331.205C361.691 331.126 362.2 331.154 362.685 331.288C363.17 331.422 363.621 331.658 364.007 331.981C364.839 332.757 365.464 333.729 365.827 334.807C366.503 336.616 366.782 338.666 367.061 340.337C367.458 342.85 367.711 345.419 367.937 347.997C368.163 350.593 368.387 353.191 368.775 355.749C369.083 357.982 369.587 360.183 370.282 362.328C371.177 365.118 372.797 367.622 374.974 369.583C379.587 373.834 386.141 375.512 390.843 380.463C392.167 381.915 393.137 383.654 393.678 385.543C394.589 388.482 394.684 391.713 394.635 394.757C394.655 395.328 394.9 395.868 395.315 396.26C395.731 396.652 396.285 396.864 396.856 396.85C397.427 396.836 397.969 396.597 398.365 396.185C398.762 395.773 398.979 395.222 398.971 394.651C398.743 391.213 398.29 387.595 396.998 384.366C396.096 382.107 394.828 380.021 392.955 378.317C387.835 373.602 381.037 372.352 376.094 368.296C374.021 366.61 372.439 364.397 371.514 361.89C370.536 359.147 369.885 356.298 369.575 353.403C369.059 348.99 369.076 344.481 368.551 340.135C368.363 338.352 368.17 336.176 367.585 334.216C367.204 332.796 366.48 331.492 365.477 330.417C364.224 329.145 362.63 328.697 361.01 328.748C359.452 328.836 357.944 329.327 356.633 330.173C354.576 331.453 352.562 333.669 351.005 336.171C349.398 338.749 348.371 341.648 348.236 344.202C348.236 344.777 348.465 345.328 348.871 345.735C349.278 346.141 349.829 346.37 350.404 346.37C350.979 346.37 351.53 346.141 351.937 345.735C352.344 345.328 352.572 344.777 352.572 344.202L352.572 344.201Z" fill="white"/>
<path fill-rule="evenodd" clip-rule="evenodd" d="M403.032 322.791C401.535 323.742 400.416 325.313 399.837 327.359C398.865 330.799 399.101 335.385 399.463 337.788C399.621 339.003 399.843 340.209 400.128 341.401C400.408 342.604 400.791 343.781 401.272 344.919C402.376 347.625 403.879 349.48 405.605 350.83C406.915 351.836 408.389 352.607 409.961 353.111C417.765 355.727 428.881 352.651 435.837 358.067C436.31 358.388 436.89 358.51 437.451 358.405C438.013 358.301 438.51 357.979 438.836 357.51C439.162 357.041 439.289 356.462 439.19 355.899C439.091 355.337 438.775 354.836 438.309 354.505C435.644 352.907 432.683 352.205 429.533 352.01C423.132 351.615 416.025 353.36 410.32 351.89C408.854 351.539 407.479 350.883 406.284 349.966C404.719 348.734 403.484 346.918 402.591 344.416C402.237 343.329 401.985 342.211 401.837 341.077C401.69 339.933 401.611 338.78 401.602 337.626C401.598 335.764 401.82 332.468 402.746 329.746C403.232 328.321 403.928 327.098 405.031 326.641C405.542 326.376 405.926 325.919 406.1 325.37C406.273 324.822 406.222 324.227 405.957 323.716C405.692 323.206 405.235 322.822 404.686 322.648C404.138 322.474 403.543 322.526 403.032 322.791H403.032Z" fill="white"/>
</g>
<path fill-rule="evenodd" clip-rule="evenodd" d="M380.97 186.687C368.999 183.875 357.628 215.074 345.616 215.564C333.605 216.053 314.272 195.232 308.902 189.622C306.635 187.249 303.119 184.961 301.473 184.457C297.24 183.158 290.212 182.753 289.725 185.033C289.403 186.543 296.705 185.409 296.311 187.661C295.311 193.385 298.21 194.843 303.702 195.203C309.4 207.302 334.05 234.819 347.95 236.57C361.849 238.321 383.615 214.064 387.09 205.711C390.869 196.634 387.456 188.209 380.97 186.687Z" fill="#D6AEAE"/>
<mask id="mask5_2043_34396" style="mask-type:luminance" maskUnits="userSpaceOnUse" x="289" y="183" width="100" height="54">
<path d="M380.97 186.687C368.999 183.875 357.628 215.074 345.616 215.564C333.605 216.053 314.272 195.232 308.902 189.622C306.635 187.249 303.119 184.961 301.473 184.457C297.24 183.158 290.212 182.753 289.725 185.033C289.403 186.543 296.705 185.409 296.311 187.661C295.311 193.385 298.21 194.843 303.702 195.203C309.4 207.302 334.05 234.819 347.95 236.57C361.849 238.321 383.615 214.064 387.09 205.711C390.869 196.634 387.456 188.209 380.97 186.687Z" fill="white"/>
</mask>
<g mask="url(#mask5_2043_34396)">
<path fill-rule="evenodd" clip-rule="evenodd" d="M382.515 217.458C378.393 218.151 375.272 213.169 371.492 211.327C363.431 207.401 361.436 219.265 352.576 205.545C349.899 201.396 354.766 185.703 360.467 181.204C366.169 176.705 380.835 174.215 386.791 178.543C392.748 182.872 396.924 200.685 396.21 207.171C395.588 212.847 386.635 216.766 382.515 217.458Z" fill="#1A2283"/>
<path fill-rule="evenodd" clip-rule="evenodd" d="M376.939 199.18C373.838 201.642 371.506 216.946 364.27 221.529C355.426 227.128 328.622 227.886 323.875 232.783C319.128 237.681 328.552 250.755 335.782 250.921C345.242 251.135 372.782 241.43 380.631 234.068C387.295 227.818 383.49 212.563 382.872 206.747C382.536 203.561 379.449 197.184 376.939 199.18Z" fill="black" fill-opacity="0.2"/>
</g>
<path fill-rule="evenodd" clip-rule="evenodd" d="M394.81 244.559C396.572 254.658 356.134 260.575 348.924 250.991C337.695 236.072 370.768 228.228 372.656 193.352C373.332 180.892 407.296 181.887 399.01 196.018C394.356 203.957 389.749 215.569 394.81 244.559Z" fill="#1A2283"/>
<mask id="mask6_2043_34396" style="mask-type:luminance" maskUnits="userSpaceOnUse" x="346" y="184" width="55" height="72">
<path d="M394.81 244.559C396.572 254.658 356.134 260.575 348.924 250.991C337.695 236.072 370.768 228.228 372.656 193.352C373.332 180.892 407.296 181.887 399.01 196.018C394.356 203.957 389.749 215.569 394.81 244.559Z" fill="white"/>
</mask>
<g mask="url(#mask6_2043_34396)">
<path fill-rule="evenodd" clip-rule="evenodd" d="M390.014 205.702C385.765 204.013 393.741 224.942 387.743 230.844C380.454 238.017 347.267 242.703 346.278 248.741C345.289 254.779 370.649 268.367 381.808 267.073C392.966 265.78 411.867 251.198 413.234 240.969C414.602 230.74 394.263 207.391 390.014 205.702Z" fill="black" fill-opacity="0.2"/>
</g>
<path fill-rule="evenodd" clip-rule="evenodd" d="M387.488 285.126C393.874 290.591 402.714 290.739 407.234 285.457L407.236 285.454C411.756 280.173 410.244 271.461 403.857 265.996L283.729 163.196C281.285 161.105 278.463 159.502 275.414 158.474C270.019 156.655 260.976 153.604 254.273 151.344C253.617 151.123 252.908 151.107 252.243 151.3C251.577 151.492 250.987 151.883 250.55 152.42C250.112 152.958 249.85 153.616 249.797 154.306C249.744 154.997 249.904 155.687 250.254 156.285C253.877 162.466 258.761 170.803 261.523 175.515C262.937 177.928 264.744 180.089 266.869 181.907L387.488 285.126Z" fill="#737CE3"/>
<mask id="mask7_2043_34396" style="mask-type:luminance" maskUnits="userSpaceOnUse" x="249" y="151" width="161" height="139">
<path d="M387.488 285.126C393.874 290.591 402.714 290.739 407.234 285.457L407.236 285.454C411.756 280.173 410.244 271.461 403.857 265.996L283.729 163.196C281.285 161.105 278.463 159.502 275.414 158.474C270.019 156.655 260.976 153.604 254.273 151.344C253.617 151.123 252.908 151.107 252.243 151.3C251.577 151.492 250.987 151.883 250.55 152.42C250.112 152.958 249.85 153.616 249.797 154.306C249.744 154.997 249.904 155.687 250.254 156.285C253.877 162.466 258.761 170.803 261.523 175.515C262.937 177.928 264.744 180.089 266.869 181.907L387.488 285.126Z" fill="white"/>
</mask>
<g mask="url(#mask7_2043_34396)">
<path fill-rule="evenodd" clip-rule="evenodd" d="M251.542 162.627C275.068 184.989 288.166 196.294 315.749 212.364C357.066 236.434 373.342 269.906 388.459 277.837C395.947 281.765 418.613 284.156 406.445 259.943C402.47 252.032 443.758 292.894 436.402 300.683C429.045 308.472 384.651 317.389 362.308 306.677C331.204 291.764 268.248 235.219 249.789 211.212C239.909 198.364 244.908 156.321 251.542 162.627Z" fill="black" fill-opacity="0.2"/>
</g>
<path fill-rule="evenodd" clip-rule="evenodd" d="M391.343 277.293C392.174 278.005 393.253 278.357 394.343 278.272C395.434 278.187 396.446 277.673 397.158 276.843L399.834 273.715C399.836 273.713 399.834 273.71 399.836 273.708C399.835 273.705 399.833 273.702 399.831 273.699L368.644 247.011C368.543 246.925 368.426 246.859 368.299 246.818C368.173 246.776 368.039 246.76 367.907 246.771C367.774 246.781 367.644 246.817 367.526 246.877C367.407 246.938 367.302 247.021 367.215 247.122L365.191 249.487C364.48 250.319 364.129 251.398 364.214 252.489C364.299 253.579 364.813 254.591 365.644 255.302L391.343 277.293Z" fill="white"/>
<path fill-rule="evenodd" clip-rule="evenodd" d="M391.347 188.697C381.436 195.976 397.783 224.881 390.358 234.334C382.932 243.787 353.907 242.303 346.791 245.413C345.661 245.906 342.124 239.415 340.538 238.742C338.221 237.755 338.283 240.944 339.812 243.96C340.509 245.338 333.761 238.04 333.389 239.467C332.495 242.888 337.406 251.605 347.659 252.992C367.825 255.716 397.494 255.631 407.85 246.196C418.206 236.761 413.889 204.458 409.791 196.392C405.34 187.625 396.717 184.75 391.347 188.697Z" fill="#D6AEAE"/>
<mask id="mask8_2043_34396" style="mask-type:luminance" maskUnits="userSpaceOnUse" x="333" y="186" width="82" height="69">
<path d="M391.347 188.697C381.436 195.976 397.783 224.881 390.358 234.334C382.932 243.787 353.907 242.303 346.791 245.413C345.661 245.906 342.124 239.415 340.538 238.742C338.221 237.755 338.283 240.944 339.812 243.96C340.509 245.338 333.761 238.04 333.389 239.467C332.495 242.888 337.406 251.605 347.659 252.992C367.825 255.716 397.494 255.631 407.85 246.196C418.206 236.761 413.889 204.458 409.791 196.392C405.34 187.625 396.717 184.75 391.347 188.697Z" fill="white"/>
</mask>
<g mask="url(#mask8_2043_34396)">
<path fill-rule="evenodd" clip-rule="evenodd" d="M415.755 207.499C413.607 211.083 407.791 210.223 403.936 211.902C395.717 215.483 403.444 224.704 387.257 222.535C382.363 221.878 373.586 207.987 373.868 200.729C374.15 193.472 381.776 180.701 388.935 178.981C396.095 177.261 412.354 185.649 416.824 190.403C420.736 194.562 417.904 203.917 415.755 207.499Z" fill="#1A2283"/>
</g>
<path fill-rule="evenodd" clip-rule="evenodd" d="M399.984 170.45C399.646 173.918 397.244 182.666 391.9 183.019C386.41 183.382 384.898 174.381 385.239 170.912C385.579 167.444 391.479 162.282 393.938 162.204C396.396 162.126 400.317 167.057 399.984 170.45Z" fill="#D6AEAE"/>
<path fill-rule="evenodd" clip-rule="evenodd" d="M386.106 177.695C386.46 177.402 388.005 179.466 388.905 179.514C389.805 179.563 390.619 177.894 391.505 177.987C392.392 178.081 393.186 180.45 394.219 180.061C395.252 179.672 397.191 177.317 397.71 175.658C398.229 173.999 397.876 171.101 397.322 170.116C396.836 169.257 395.305 169.405 394.378 169.751C391.348 170.888 387.174 170.56 385.527 169.394C383.88 168.228 382.289 166.721 384.503 162.748C385.268 161.381 389.643 157.901 390.605 160.61C392.538 166.064 392.955 157.788 399.321 164.016C400.852 165.513 400.44 168.445 400.316 170.615C400.192 172.785 399.691 175.124 398.569 177.037C397.324 179.167 396.918 180.697 392.833 183.4C391.092 184.551 383.39 185.568 386.784 181.266C387.367 180.53 385.753 177.985 386.106 177.695Z" fill="black"/>
</svg>
