<svg width="12" height="24" viewBox="0 0 12 24" fill="none" xmlns="http://www.w3.org/2000/svg">
<path id="evaArrowIosDownwardFill2" d="M0.00405365 12.0188C0.00327146 12.4187 0.142699 12.8062 0.398135 13.114L8.96514 23.3818C9.25597 23.7313 9.67388 23.951 10.127 23.9928C10.58 24.0345 11.0311 23.8947 11.381 23.6043C11.7309 23.3138 11.951 22.8964 11.9927 22.4439C12.0345 21.9914 11.8946 21.5408 11.6038 21.1913L3.92774 12.0188L11.3296 2.8463C11.472 2.67126 11.5782 2.46985 11.6424 2.25365C11.7065 2.03744 11.7272 1.81071 11.7033 1.58648C11.6795 1.36226 11.6114 1.14495 11.5032 0.947064C11.395 0.749177 11.2486 0.574605 11.0726 0.433385C10.8964 0.276665 10.6898 0.157972 10.4655 0.084741C10.2413 0.0115103 10.0043 -0.0146772 9.76948 0.00781438C9.53463 0.030306 9.30697 0.100992 9.10075 0.215449C8.89453 0.329906 8.7142 0.485666 8.57105 0.672968L0.295332 10.9407C0.0802726 11.2574 -0.0222828 11.637 0.00405365 12.0188Z" fill="#EDEDED"/>
</svg>
