<svg width="64" height="64" viewBox="0 0 64 64" fill="none" xmlns="http://www.w3.org/2000/svg">
<g clip-path="url(#clip0_1974_45873)">
<path d="M52.75 35.0725V28.9275C52.7499 28.7616 52.7132 28.5977 52.6423 28.4477C52.5715 28.2977 52.4683 28.1652 52.3403 28.0597C52.2122 27.9542 52.0624 27.8783 51.9015 27.8375C51.7407 27.7967 51.5729 27.792 51.41 27.8237L49.47 28.1987C49.1923 28.2528 48.9044 28.2002 48.6637 28.0515C48.423 27.9028 48.2471 27.6688 48.1712 27.3962C47.8172 26.1508 47.3188 24.951 46.6862 23.8213C46.5462 23.5747 46.5045 23.2843 46.5694 23.0083C46.6343 22.7322 46.801 22.4909 47.0363 22.3325L48.6775 21.2262C48.8148 21.1335 48.93 21.0116 49.0147 20.8692C49.0994 20.7268 49.1517 20.5675 49.1677 20.4026C49.1837 20.2376 49.163 20.0712 49.1073 19.9152C49.0515 19.7592 48.9619 19.6174 48.845 19.5L44.5 15.155C44.3826 15.0376 44.2407 14.9477 44.0844 14.8916C43.9281 14.8356 43.7613 14.8148 43.5961 14.8308C43.4309 14.8468 43.2712 14.8992 43.1286 14.9842C42.986 15.0692 42.8639 15.1848 42.7713 15.3225L41.665 16.9638C41.5066 17.199 41.2653 17.3657 40.9892 17.4306C40.7132 17.4955 40.4228 17.4538 40.1763 17.3137C39.0465 16.6812 37.8467 16.1828 36.6012 15.8287C36.3287 15.7529 36.0947 15.577 35.946 15.3363C35.7973 15.0956 35.7447 14.8077 35.7988 14.53L36.1738 12.59C36.2054 12.4273 36.2008 12.2597 36.1601 12.0991C36.1195 11.9384 36.0438 11.7887 35.9386 11.6607C35.8334 11.5327 35.7012 11.4295 35.5515 11.3585C35.4018 11.2875 35.2382 11.2504 35.0725 11.25H28.9275C28.7616 11.2501 28.5977 11.2869 28.4477 11.3577C28.2977 11.4285 28.1652 11.5317 28.0597 11.6597C27.9542 11.7878 27.8783 11.9376 27.8375 12.0985C27.7967 12.2593 27.792 12.4271 27.8237 12.59L28.1987 14.53C28.2528 14.8077 28.2002 15.0956 28.0515 15.3363C27.9028 15.577 27.6688 15.7529 27.3962 15.8287C26.1508 16.1828 24.951 16.6812 23.8213 17.3137C23.5747 17.4538 23.2843 17.4955 23.0083 17.4306C22.7322 17.3657 22.4909 17.199 22.3325 16.9638L21.2262 15.3225C21.1335 15.1852 21.0116 15.07 20.8692 14.9853C20.7268 14.9006 20.5675 14.8483 20.4026 14.8323C20.2376 14.8163 20.0712 14.837 19.9152 14.8927C19.7592 14.9485 19.6174 15.0381 19.5 15.155L15.155 19.5C15.0376 19.6174 14.9477 19.7593 14.8916 19.9156C14.8356 20.0719 14.8148 20.2386 14.8308 20.4039C14.8468 20.5691 14.8992 20.7288 14.9842 20.8714C15.0692 21.014 15.1848 21.1361 15.3225 21.2288L16.9638 22.335C17.199 22.4934 17.3657 22.7347 17.4306 23.0108C17.4955 23.2868 17.4538 23.5772 17.3137 23.8237C16.6812 24.9535 16.1828 26.1533 15.8287 27.3988C15.7529 27.6713 15.577 27.9053 15.3363 28.054C15.0956 28.2027 14.8077 28.2553 14.53 28.2013L12.59 27.8263C12.4273 27.7946 12.2597 27.7992 12.0991 27.8399C11.9384 27.8805 11.7887 27.9562 11.6607 28.0614C11.5327 28.1666 11.4295 28.2988 11.3585 28.4485C11.2875 28.5982 11.2504 28.7618 11.25 28.9275V35.0725C11.2501 35.2384 11.2869 35.4023 11.3577 35.5523C11.4285 35.7023 11.5317 35.8349 11.6597 35.9403C11.7878 36.0458 11.9376 36.1217 12.0985 36.1625C12.2593 36.2033 12.4271 36.208 12.59 36.1763L14.53 35.8013C14.8077 35.7472 15.0956 35.7997 15.3363 35.9485C15.577 36.0972 15.7529 36.3312 15.8287 36.6037C16.1828 37.8492 16.6812 39.049 17.3137 40.1787C17.4538 40.4253 17.4955 40.7157 17.4306 40.9917C17.3657 41.2678 17.199 41.5091 16.9638 41.6675L15.3225 42.7738C15.1852 42.8665 15.07 42.9884 14.9853 43.1308C14.9006 43.2732 14.8483 43.4325 14.8323 43.5974C14.8163 43.7624 14.837 43.9288 14.8927 44.0848C14.9485 44.2408 15.0381 44.3826 15.155 44.5L19.5 48.845C19.6174 48.9624 19.7593 49.0523 19.9156 49.1084C20.0719 49.1644 20.2386 49.1852 20.4039 49.1692C20.5691 49.1532 20.7288 49.1008 20.8714 49.0158C21.014 48.9308 21.1361 48.8152 21.2288 48.6775L22.335 47.0363C22.4934 46.801 22.7347 46.6343 23.0108 46.5694C23.2868 46.5045 23.5772 46.5462 23.8237 46.6862C24.9535 47.3188 26.1533 47.8172 27.3988 48.1712C27.6713 48.2471 27.9053 48.423 28.054 48.6637C28.2027 48.9044 28.2553 49.1923 28.2013 49.47L27.8263 51.41C27.7946 51.5727 27.7992 51.7403 27.8399 51.9009C27.8805 52.0616 27.9562 52.2113 28.0614 52.3393C28.1666 52.4673 28.2988 52.5705 28.4485 52.6415C28.5982 52.7125 28.7618 52.7496 28.9275 52.75H35.0725C35.2384 52.7499 35.4023 52.7132 35.5523 52.6423C35.7023 52.5715 35.8349 52.4683 35.9403 52.3403C36.0458 52.2122 36.1217 52.0624 36.1625 51.9015C36.2033 51.7407 36.208 51.5729 36.1763 51.41L35.8013 49.47C35.7472 49.1923 35.7997 48.9044 35.9485 48.6637C36.0972 48.423 36.3312 48.2471 36.6037 48.1712C37.8492 47.8172 39.049 47.3188 40.1787 46.6862C40.4253 46.5462 40.7157 46.5045 40.9917 46.5694C41.2678 46.6343 41.5091 46.801 41.6675 47.0363L42.7738 48.6775C42.8665 48.8148 42.9884 48.93 43.1308 49.0147C43.2732 49.0994 43.4325 49.1517 43.5974 49.1677C43.7624 49.1837 43.9288 49.163 44.0848 49.1073C44.2408 49.0515 44.3826 48.9619 44.5 48.845L48.845 44.5C48.9624 44.3826 49.0523 44.2407 49.1084 44.0844C49.1644 43.9281 49.1852 43.7613 49.1692 43.5961C49.1532 43.4309 49.1008 43.2712 49.0158 43.1286C48.9308 42.986 48.8152 42.8639 48.6775 42.7713L47.0363 41.665C46.801 41.5066 46.6343 41.2653 46.5694 40.9892C46.5045 40.7132 46.5462 40.4228 46.6862 40.1763C47.3188 39.0465 47.8172 37.8467 48.1712 36.6012C48.2471 36.3287 48.423 36.0947 48.6637 35.946C48.9044 35.7973 49.1923 35.7447 49.47 35.7988L51.41 36.1738C51.5727 36.2054 51.7403 36.2008 51.9009 36.1601C52.0616 36.1195 52.2113 36.0438 52.3393 35.9386C52.4673 35.8334 52.5705 35.7012 52.6415 35.5515C52.7125 35.4018 52.7496 35.2382 52.75 35.0725Z" fill="#918291"/>
<path d="M32 45.0625C39.2142 45.0625 45.0625 39.2142 45.0625 32C45.0625 24.7858 39.2142 18.9375 32 18.9375C24.7858 18.9375 18.9375 24.7858 18.9375 32C18.9375 39.2142 24.7858 45.0625 32 45.0625Z" fill="#FEDF30"/>
<path d="M35.1895 19.332C37.507 21.2002 39.1168 23.8041 39.7521 26.7123C40.3874 29.6205 40.0102 32.6585 38.6829 35.3229C37.3557 37.9874 35.158 40.1185 32.4539 41.3632C29.7498 42.6079 26.7017 42.8915 23.8145 42.167C25.335 43.3928 27.1111 44.2619 29.012 44.7104C30.9129 45.1588 32.8902 45.1752 34.7983 44.7584C36.7064 44.3415 38.4967 43.502 40.0374 42.3017C41.5781 41.1013 42.8299 39.5707 43.7008 37.8225C44.5716 36.0743 45.0393 34.1531 45.0693 32.2002C45.0994 30.2473 44.691 28.3126 43.8744 26.5385C43.0577 24.7643 41.8535 23.1959 40.3505 21.9487C38.8474 20.7016 37.0838 19.8074 35.1895 19.332Z" fill="#FED402"/>
<path d="M32 63.0625C33.2081 63.0625 34.1875 62.0831 34.1875 60.875C34.1875 59.6669 33.2081 58.6875 32 58.6875C30.7919 58.6875 29.8125 59.6669 29.8125 60.875C29.8125 62.0831 30.7919 63.0625 32 63.0625Z" fill="#26A6FE"/>
<path d="M32 5.3125C33.2081 5.3125 34.1875 4.33312 34.1875 3.125C34.1875 1.91688 33.2081 0.9375 32 0.9375C30.7919 0.9375 29.8125 1.91688 29.8125 3.125C29.8125 4.33312 30.7919 5.3125 32 5.3125Z" fill="#26A6FE"/>
<path d="M60.875 34.1875C62.0831 34.1875 63.0625 33.2081 63.0625 32C63.0625 30.7919 62.0831 29.8125 60.875 29.8125C59.6669 29.8125 58.6875 30.7919 58.6875 32C58.6875 33.2081 59.6669 34.1875 60.875 34.1875Z" fill="#26A6FE"/>
<path d="M3.125 34.1875C4.33312 34.1875 5.3125 33.2081 5.3125 32C5.3125 30.7919 4.33312 29.8125 3.125 29.8125C1.91688 29.8125 0.9375 30.7919 0.9375 32C0.9375 33.2081 1.91688 34.1875 3.125 34.1875Z" fill="#26A6FE"/>
<path d="M52.418 54.6055C53.6261 54.6055 54.6055 53.6261 54.6055 52.418C54.6055 51.2098 53.6261 50.2305 52.418 50.2305C51.2098 50.2305 50.2305 51.2098 50.2305 52.418C50.2305 53.6261 51.2098 54.6055 52.418 54.6055Z" fill="#26A6FE"/>
<path d="M11.582 13.7695C12.7902 13.7695 13.7695 12.7902 13.7695 11.582C13.7695 10.3739 12.7902 9.39453 11.582 9.39453C10.3739 9.39453 9.39453 10.3739 9.39453 11.582C9.39453 12.7902 10.3739 13.7695 11.582 13.7695Z" fill="#26A6FE"/>
<path d="M52.418 13.7695C53.6261 13.7695 54.6055 12.7902 54.6055 11.582C54.6055 10.3739 53.6261 9.39453 52.418 9.39453C51.2098 9.39453 50.2305 10.3739 50.2305 11.582C50.2305 12.7902 51.2098 13.7695 52.418 13.7695Z" fill="#26A6FE"/>
<path d="M11.582 54.6055C12.7902 54.6055 13.7695 53.6261 13.7695 52.418C13.7695 51.2098 12.7902 50.2305 11.582 50.2305C10.3739 50.2305 9.39453 51.2098 9.39453 52.418C9.39453 53.6261 10.3739 54.6055 11.582 54.6055Z" fill="#26A6FE"/>
<path d="M5.00032 21.8678C5.11315 21.915 5.23426 21.9392 5.35656 21.9391C5.52717 21.9409 5.69506 21.8964 5.84234 21.8102C5.98963 21.7241 6.11077 21.5996 6.19285 21.4501C6.27493 21.3005 6.31488 21.1314 6.30842 20.961C6.30196 20.7905 6.24935 20.6249 6.15619 20.482C6.06303 20.3391 5.93282 20.2241 5.77945 20.1494C5.62608 20.0746 5.4553 20.0429 5.28532 20.0576C5.11534 20.0723 4.95255 20.1329 4.8143 20.2329C4.67605 20.3329 4.56753 20.4685 4.50032 20.6253L4.49282 20.6441C4.44554 20.7577 4.42118 20.8796 4.42111 21.0027C4.42105 21.1257 4.44528 21.2476 4.49243 21.3613C4.53959 21.475 4.60872 21.5783 4.69588 21.6652C4.78303 21.7521 4.88649 21.821 5.00032 21.8678ZM11.5791 14.7066C12.1033 14.7061 12.619 14.5741 13.0791 14.3228L14.0128 15.2503C14.0993 15.3399 14.2027 15.4114 14.317 15.4606C14.4314 15.5097 14.5544 15.5357 14.6789 15.5368C14.8033 15.5379 14.9268 15.5143 15.042 15.4672C15.1573 15.4201 15.262 15.3505 15.3501 15.2626C15.4381 15.1746 15.5078 15.0699 15.555 14.9547C15.6022 14.8396 15.6259 14.7161 15.6249 14.5916C15.6239 14.4672 15.5981 14.3441 15.549 14.2297C15.4999 14.1153 15.4286 14.0118 15.3391 13.9253L14.3828 12.9691C14.6845 12.3603 14.7795 11.6698 14.6535 11.0021C14.5276 10.3345 14.1874 9.72608 13.6847 9.26909C13.1819 8.81209 12.5439 8.53141 11.8673 8.46955C11.1907 8.40768 10.5123 8.56802 9.93502 8.92626C9.35771 9.2845 8.91288 9.82113 8.66792 10.4549C8.42295 11.0886 8.3912 11.7849 8.57746 12.4383C8.76372 13.0917 9.15786 13.6666 9.70016 14.0759C10.2425 14.4852 10.9034 14.7066 11.5828 14.7066H11.5791ZM10.6991 10.6991C10.8739 10.5242 11.0966 10.4051 11.3391 10.3569C11.5816 10.3086 11.8329 10.3333 12.0613 10.4279C12.2898 10.5225 12.485 10.6827 12.6224 10.8883C12.7598 11.0939 12.8331 11.3356 12.8331 11.5828C12.8331 11.8301 12.7598 12.0717 12.6224 12.2773C12.485 12.4829 12.2898 12.6431 12.0613 12.7377C11.8329 12.8323 11.5816 12.857 11.3391 12.8088C11.0966 12.7605 10.8739 12.6414 10.6991 12.4666C10.4647 12.2322 10.3331 11.9143 10.3331 11.5828C10.3331 11.2514 10.4647 10.9335 10.6991 10.6991ZM6.56032 18.4303C6.70149 18.5125 6.86197 18.5556 7.02532 18.5553C7.19034 18.5567 7.35282 18.5146 7.49643 18.4333C7.64003 18.352 7.75969 18.2343 7.84338 18.092C7.92707 17.9498 7.97184 17.788 7.97319 17.623C7.97453 17.458 7.93241 17.2955 7.85105 17.1519C7.76969 17.0084 7.65196 16.8887 7.50971 16.8051C7.36745 16.7214 7.20567 16.6767 7.04065 16.6754C6.87562 16.6741 6.71316 16.7162 6.5696 16.7976C6.42604 16.879 6.30643 16.9968 6.22282 17.1391L6.21407 17.1541C6.15266 17.2605 6.1129 17.378 6.09707 17.4999C6.08124 17.6218 6.08966 17.7456 6.12184 17.8642C6.15402 17.9828 6.20932 18.0939 6.28457 18.191C6.35982 18.2882 6.45353 18.3695 6.56032 18.4303ZM5.07531 39.2416C5.01332 39.0007 4.85819 38.7944 4.64405 38.6679C4.4299 38.5414 4.17429 38.5052 3.93344 38.5672C3.69259 38.6292 3.48623 38.7843 3.35976 38.9985C3.23329 39.2126 3.19707 39.4682 3.25907 39.7091L3.26532 39.7341C3.33063 39.9741 3.48861 40.1783 3.70451 40.3019C3.92041 40.4254 4.17654 40.4581 4.41657 40.3928C4.65659 40.3275 4.86083 40.1695 4.98437 39.9536C5.10791 39.7377 5.14062 39.4816 5.07531 39.2416ZM3.90657 25.4803C4.02533 25.5131 4.1494 25.522 4.27164 25.5067C4.39389 25.4913 4.51189 25.452 4.61887 25.3909C4.72585 25.3298 4.81971 25.2481 4.89504 25.1507C4.97037 25.0532 5.02568 24.9418 5.05782 24.8228V24.7978C5.09706 24.5666 5.0482 24.329 4.92088 24.132C4.79356 23.935 4.59702 23.7929 4.37005 23.7338C4.14309 23.6746 3.90218 23.7026 3.69489 23.8124C3.4876 23.9221 3.32897 24.1056 3.25032 24.3266L4.15407 24.5766L3.24907 24.3266C3.21628 24.4455 3.20728 24.5697 3.2226 24.6921C3.23792 24.8146 3.27724 24.9327 3.33832 25.0399C3.39941 25.1471 3.48104 25.2412 3.57855 25.3168C3.67606 25.3923 3.78753 25.4479 3.90657 25.4803ZM42.6253 6.22282C42.8505 6.30335 43.0979 6.29479 43.317 6.19889C43.536 6.103 43.7102 5.92702 43.8038 5.70695C43.8973 5.48689 43.9033 5.23939 43.8204 5.01508C43.7375 4.79078 43.572 4.60663 43.3578 4.50032L43.3391 4.49282C43.1133 4.41553 42.8665 4.42727 42.649 4.52564C42.4316 4.62402 42.2598 4.80162 42.1688 5.02224C42.0778 5.24287 42.0744 5.4899 42.1592 5.71299C42.244 5.93607 42.4107 6.1184 42.6253 6.22282ZM56.1253 18.0328C56.252 18.2468 56.4584 18.4017 56.6993 18.4635C56.9402 18.5253 57.1957 18.4888 57.4097 18.3622C57.6237 18.2355 57.7786 18.0291 57.8404 17.7882C57.9022 17.5473 57.8657 17.2918 57.7391 17.0778L56.9253 17.5428L57.7378 17.0753C57.6137 16.8598 57.409 16.7025 57.1688 16.6379C56.9287 16.5733 56.6727 16.6068 56.4572 16.7309C56.2417 16.8551 56.0844 17.0598 56.0198 17.2999C55.9552 17.5401 55.9887 17.7961 56.1128 18.0116L56.1253 18.0328ZM45.9028 7.83406C46.1183 7.95938 46.3747 7.99396 46.6157 7.9302C46.8567 7.86644 47.0625 7.70955 47.1878 7.49407C47.3131 7.27858 47.3477 7.02213 47.2839 6.78115C47.2202 6.54016 47.0633 6.33438 46.8478 6.20906L46.8328 6.20157C46.7258 6.13248 46.6059 6.08591 46.4803 6.0647C46.3548 6.04349 46.2262 6.04809 46.1025 6.0782C45.9787 6.10832 45.8624 6.16334 45.7607 6.23988C45.6589 6.31643 45.5738 6.41291 45.5105 6.52344C45.4473 6.63396 45.4072 6.75622 45.3928 6.88274C45.3783 7.00926 45.3898 7.1374 45.4265 7.25934C45.4632 7.38128 45.5244 7.49447 45.6063 7.59199C45.6882 7.68951 45.7891 7.76933 45.9028 7.82657V7.83406ZM58.9166 24.7278C58.9688 24.9289 59.0862 25.1071 59.2504 25.2344C59.4145 25.3617 59.6163 25.431 59.8241 25.4316C59.9033 25.4314 59.9823 25.4213 60.0591 25.4016C60.1783 25.3708 60.2904 25.3169 60.3888 25.2428C60.4873 25.1688 60.5701 25.076 60.6327 24.9699C60.6953 24.8638 60.7363 24.7464 60.7535 24.6245C60.7707 24.5025 60.7636 24.3783 60.7328 24.2591L60.7266 24.2353C60.6613 23.9953 60.5033 23.791 60.2874 23.6675C60.0715 23.544 59.8153 23.5113 59.5753 23.5766C59.3353 23.6419 59.1311 23.7999 59.0075 24.0158C58.884 24.2317 58.8513 24.4878 58.9166 24.7278ZM6.25032 42.6853C6.1555 42.4549 5.97304 42.2716 5.74307 42.1757C5.51311 42.0798 5.25447 42.0793 5.02407 42.1741C4.79366 42.2689 4.61035 42.4513 4.51448 42.6813C4.4186 42.9113 4.418 43.1699 4.51281 43.4003V43.4128C4.58328 43.5834 4.70293 43.7292 4.85652 43.8316C5.01012 43.934 5.19072 43.9884 5.37532 43.9878C5.53069 43.9888 5.68389 43.9513 5.82125 43.8786C5.9586 43.806 6.07583 43.7004 6.16247 43.5715C6.24912 43.4425 6.30249 43.2941 6.31782 43.1394C6.33314 42.9848 6.30995 42.8288 6.25032 42.6853ZM17.5578 8.00032C17.7219 8.0004 17.8832 7.95729 18.0253 7.87532L18.0466 7.86407C18.2546 7.73469 18.4037 7.52903 18.462 7.2911C18.5203 7.05317 18.4832 6.80187 18.3585 6.59098C18.2339 6.38009 18.0316 6.22636 17.7951 6.16269C17.5585 6.09902 17.3065 6.13048 17.0928 6.25032L17.5578 7.06406L17.0891 6.25032C16.91 6.35337 16.7701 6.51267 16.6909 6.70346C16.6117 6.89425 16.5977 7.10585 16.6512 7.30538C16.7046 7.50492 16.8225 7.68121 16.9864 7.80688C17.1504 7.93254 17.3512 8.00055 17.5578 8.00032ZM57.7366 21.2741L57.7466 21.2966C57.8185 21.4647 57.9383 21.6079 58.0909 21.7086C58.2436 21.8093 58.4225 21.8629 58.6053 21.8628C58.7312 21.863 58.8559 21.8375 58.9716 21.7878C59.2001 21.691 59.3809 21.5077 59.4746 21.2779C59.5683 21.0481 59.5672 20.7905 59.4716 20.5616L58.6041 20.9153L59.4703 20.5578C59.3753 20.3279 59.1929 20.1451 58.9632 20.0497C58.7334 19.9543 58.4752 19.9541 58.2453 20.0491C58.0154 20.144 57.8326 20.3265 57.7372 20.5562C57.6418 20.7859 57.6416 21.0442 57.7366 21.2741ZM24.5003 5.11282C24.6344 5.11497 24.7674 5.08842 24.8903 5.03494C25.0133 4.98147 25.1234 4.90231 25.2132 4.80277C25.3031 4.70323 25.3706 4.58563 25.4112 4.45785C25.4519 4.33008 25.4647 4.19508 25.4489 4.06193C25.433 3.92879 25.3889 3.80057 25.3194 3.68589C25.2499 3.5712 25.1567 3.47271 25.046 3.39702C24.9354 3.32133 24.8098 3.2702 24.6777 3.24705C24.5456 3.2239 24.4101 3.22928 24.2803 3.26282L24.2553 3.27032C24.0355 3.32974 23.8448 3.46716 23.7189 3.65689C23.5929 3.84663 23.5404 4.07572 23.571 4.30138C23.6016 4.52704 23.7133 4.73384 23.8852 4.88316C24.0572 5.03248 24.2776 5.11411 24.5053 5.11282H24.5003ZM39.1678 5.05407L39.1953 5.06157C39.2714 5.08035 39.3495 5.09 39.4278 5.09032C39.6523 5.08486 39.8674 4.99899 40.034 4.84832C40.2005 4.69766 40.3074 4.49222 40.3353 4.26937C40.3631 4.04653 40.3101 3.82109 40.1857 3.63407C40.0614 3.44705 39.8741 3.31087 39.6578 3.25032C39.5382 3.21507 39.4127 3.20406 39.2887 3.21793C39.1647 3.2318 39.0448 3.27026 38.9359 3.33108C38.827 3.39189 38.7313 3.47383 38.6544 3.57209C38.5776 3.67035 38.5211 3.78296 38.4884 3.90331C38.4556 4.02367 38.4472 4.14936 38.4636 4.27301C38.48 4.39667 38.5209 4.5158 38.584 4.62344C38.647 4.73107 38.7309 4.82504 38.8307 4.89985C38.9306 4.97465 39.0443 5.02878 39.1653 5.05907L39.1678 5.05407ZM20.9316 6.32907C21.0542 6.32849 21.1756 6.3043 21.2891 6.25782L21.3116 6.24782C21.4248 6.19955 21.5275 6.12946 21.6137 6.04152C21.6998 5.95359 21.7678 5.84955 21.8138 5.73533C21.8598 5.62112 21.8828 5.49897 21.8815 5.37585C21.8803 5.25274 21.8548 5.13108 21.8066 5.01782C21.7583 4.90455 21.6882 4.8019 21.6003 4.71572C21.5123 4.62955 21.4083 4.56154 21.2941 4.51557C21.1799 4.46961 21.0577 4.44659 20.9346 4.44783C20.8115 4.44908 20.6898 4.47455 20.5766 4.52282L20.9303 5.39032L20.5728 4.52407C20.3716 4.60652 20.2052 4.75639 20.1023 4.94799C19.9994 5.13959 19.9663 5.36101 20.0087 5.57433C20.0511 5.78764 20.1664 5.97958 20.3347 6.11727C20.5031 6.25496 20.7141 6.32983 20.9316 6.32907ZM31.1253 6.12532V7.43782C31.1253 7.68646 31.2241 7.92491 31.3999 8.10073C31.5757 8.27654 31.8142 8.37532 32.0628 8.37532C32.3115 8.37532 32.5499 8.27654 32.7257 8.10073C32.9015 7.92491 33.0003 7.68646 33.0003 7.43782V6.08532C33.7076 5.84615 34.3058 5.36167 34.6868 4.71958C35.0677 4.0775 35.2062 3.32024 35.0772 2.58488C34.9482 1.84952 34.5601 1.18465 33.9833 0.710639C33.4065 0.236626 32.679 -0.0152123 31.9326 0.000711443C31.1862 0.0166352 30.4701 0.299269 29.914 0.79745C29.3579 1.29563 28.9986 1.97644 28.901 2.71663C28.8035 3.45683 28.9741 4.2075 29.3821 4.83275C29.7901 5.458 30.4085 5.91653 31.1253 6.12532ZM32.0003 1.87532C32.2475 1.87532 32.4892 1.94863 32.6948 2.08598C32.9003 2.22333 33.0606 2.41855 33.1552 2.64696C33.2498 2.87537 33.2745 3.1267 33.2263 3.36918C33.1781 3.61165 33.059 3.83438 32.8842 4.0092C32.7094 4.18401 32.4867 4.30307 32.2442 4.3513C32.0017 4.39953 31.7504 4.37477 31.522 4.28016C31.2936 4.18555 31.0983 4.02534 30.961 3.81978C30.8236 3.61422 30.7503 3.37254 30.7503 3.12532C30.7503 2.79379 30.882 2.47585 31.1164 2.24143C31.3509 2.00701 31.6688 1.87532 32.0003 1.87532ZM21.3416 57.7653C21.2279 57.7161 21.1056 57.69 20.9818 57.6883C20.858 57.6867 20.7351 57.7096 20.6202 57.7557C20.5052 57.8018 20.4006 57.8702 20.3123 57.957C20.2239 58.0438 20.1537 58.1473 20.1055 58.2614C20.0574 58.3755 20.0323 58.498 20.0318 58.6218C20.0313 58.7456 20.0553 58.8683 20.1025 58.9828C20.1496 59.0973 20.219 59.2013 20.3066 59.2889C20.3942 59.3764 20.4983 59.4457 20.6128 59.4928L20.6316 59.5003C20.7444 59.5475 20.8655 59.5717 20.9878 59.5716C21.2046 59.5704 21.4143 59.4943 21.5814 59.356C21.7484 59.2178 21.8624 59.026 21.9041 58.8133C21.9458 58.6005 21.9125 58.3799 21.81 58.1888C21.7074 57.9978 21.5419 57.8482 21.3416 57.7653ZM52.4178 8.45782C51.8863 8.45794 51.3635 8.59364 50.899 8.85209C50.4346 9.11055 50.0437 9.48321 49.7634 9.93484C49.4831 10.3865 49.3226 10.9021 49.2971 11.4331C49.2716 11.964 49.382 12.4927 49.6178 12.9691L48.6616 13.9253C48.5721 14.0118 48.5007 14.1153 48.4516 14.2297C48.4025 14.3441 48.3767 14.4672 48.3757 14.5916C48.3747 14.7161 48.3985 14.8396 48.4457 14.9547C48.4929 15.0699 48.5625 15.1746 48.6506 15.2626C48.7386 15.3505 48.8434 15.4201 48.9586 15.4672C49.0738 15.5143 49.1973 15.5379 49.3218 15.5368C49.4462 15.5357 49.5693 15.5097 49.6836 15.4606C49.798 15.4114 49.9014 15.3399 49.9878 15.2503L50.9153 14.3228C51.3332 14.552 51.7979 14.6825 52.2739 14.7045C52.75 14.7265 53.2247 14.6393 53.6619 14.4496C54.0991 14.2599 54.4871 13.9727 54.7962 13.6101C55.1054 13.2474 55.3275 12.8188 55.4455 12.3571C55.5636 11.8954 55.5745 11.4129 55.4775 10.9463C55.3804 10.4797 55.1779 10.0416 54.8855 9.66527C54.5931 9.28898 54.2185 8.98455 53.7903 8.77528C53.3622 8.566 52.8919 8.45741 52.4153 8.45782H52.4178ZM53.3016 12.4666C53.097 12.671 52.828 12.7982 52.5401 12.8265C52.2523 12.8548 51.9636 12.7825 51.7232 12.6218C51.4827 12.4611 51.3055 12.222 51.2216 11.9452C51.1377 11.6684 51.1523 11.3711 51.2631 11.104C51.3738 10.8368 51.5737 10.6163 51.8288 10.48C52.0839 10.3438 52.3783 10.3001 52.6619 10.3566C52.9456 10.4131 53.2008 10.5662 53.3842 10.7898C53.5677 11.0133 53.6679 11.2936 53.6678 11.5828C53.6677 11.9143 53.536 12.2322 53.3016 12.4666ZM45.9466 56.1416L45.9253 56.1528C45.7278 56.2867 45.5886 56.4907 45.5361 56.7235C45.4836 56.9563 45.5217 57.2003 45.6427 57.406C45.7637 57.6117 45.9584 57.7636 46.1874 57.8308C46.4164 57.898 46.6623 57.8755 46.8753 57.7678L46.4103 56.9528L46.8778 57.7653C46.9845 57.7038 47.0781 57.622 47.1531 57.5243C47.2282 57.4267 47.2833 57.3152 47.3152 57.1963C47.3472 57.0774 47.3555 56.9534 47.3395 56.8313C47.3235 56.7092 47.2837 56.5914 47.2222 56.4847C47.1607 56.378 47.0788 56.2844 46.9812 56.2094C46.8836 56.1343 46.7721 56.0793 46.6532 56.0473C46.5343 56.0153 46.4102 56.0071 46.2881 56.023C46.166 56.039 46.0483 56.0788 45.9416 56.1403L45.9466 56.1416ZM51.0316 49.6178L50.0753 48.6616C49.8984 48.4909 49.6616 48.3965 49.4158 48.3987C49.1699 48.401 48.9349 48.4997 48.7611 48.6736C48.5874 48.8475 48.4889 49.0827 48.4869 49.3285C48.4849 49.5743 48.5795 49.8111 48.7503 49.9878L49.6778 50.9153C49.3186 51.5699 49.2057 52.3314 49.3593 53.062C49.513 53.7926 49.9232 54.444 50.5156 54.8984C51.1081 55.3528 51.8436 55.58 52.5891 55.539C53.3346 55.498 54.0407 55.1914 54.5798 54.6748C55.1188 54.1582 55.455 53.4657 55.5276 52.7226C55.6002 51.9795 55.4044 51.235 54.9755 50.6238C54.5467 50.0127 53.9132 49.5752 53.1898 49.3907C52.4664 49.2061 51.7007 49.2867 51.0316 49.6178ZM53.3016 53.3016C53.0672 53.5359 52.7493 53.6675 52.4178 53.6675C52.0864 53.6675 51.7685 53.5359 51.5341 53.3016C51.3592 53.1268 51.2401 52.904 51.1919 52.6616C51.1436 52.4191 51.1683 52.1677 51.2629 51.9393C51.3575 51.7109 51.5177 51.5156 51.7233 51.3782C51.9289 51.2409 52.1706 51.1675 52.4178 51.1675C52.6651 51.1675 52.9067 51.2409 53.1123 51.3782C53.3179 51.5156 53.4781 51.7109 53.5727 51.9393C53.6673 52.1677 53.692 52.4191 53.6438 52.6616C53.5955 52.904 53.4764 53.1268 53.3016 53.3016ZM50.1028 43.5066C50.0738 43.2036 49.9781 42.9109 49.8225 42.6494C49.6669 42.3878 49.4552 42.164 49.2028 41.9941L47.5603 40.8878C47.5219 40.8603 47.495 40.8195 47.4848 40.7734C47.4747 40.7272 47.482 40.6789 47.5053 40.6378C48.1718 39.4438 48.6978 38.1766 49.0728 36.8616C49.0852 36.8155 49.1144 36.7757 49.1546 36.75C49.1949 36.7243 49.2433 36.7146 49.2903 36.7228L51.2316 37.0978C51.5301 37.1559 51.8378 37.1472 52.1327 37.0724C52.4275 36.9976 52.7021 36.8585 52.9368 36.6651C53.1716 36.4716 53.3606 36.2287 53.4905 35.9537C53.6203 35.6786 53.6877 35.3782 53.6878 35.0741V28.9278C53.6877 28.6237 53.6203 28.3233 53.4905 28.0482C53.3606 27.7732 53.1716 27.5302 52.9368 27.3368C52.7021 27.1434 52.4275 27.0043 52.1327 26.9295C51.8378 26.8547 51.5301 26.846 51.2316 26.9041L49.2903 27.2791C49.2433 27.2873 49.1949 27.2776 49.1546 27.2519C49.1144 27.2262 49.0852 27.1864 49.0728 27.1403C48.6961 25.8259 48.1684 24.5596 47.5003 23.3666C47.477 23.3255 47.4697 23.2772 47.4798 23.231C47.49 23.1848 47.5169 23.1441 47.5553 23.1166L49.1978 22.0103C49.4501 21.8402 49.6616 21.6164 49.8172 21.3549C49.9728 21.0934 50.0686 20.8007 50.0977 20.4979C50.1269 20.195 50.0886 19.8894 49.9858 19.6031C49.8829 19.3167 49.718 19.0567 49.5028 18.8416L45.1628 14.4928C44.9477 14.2788 44.6881 14.1148 44.4024 14.0126C44.1166 13.9104 43.8119 13.8725 43.5098 13.9017C43.2078 13.9308 42.9159 14.0262 42.655 14.1811C42.3941 14.336 42.1705 14.5466 42.0003 14.7978L40.8941 16.4403C40.8666 16.4788 40.8258 16.5056 40.7796 16.5158C40.7335 16.526 40.6852 16.5187 40.6441 16.4953C39.4501 15.8288 38.1829 15.3028 36.8678 14.9278C36.8216 14.9157 36.7816 14.8865 36.7559 14.8462C36.7301 14.8059 36.7206 14.7574 36.7291 14.7103L37.1041 12.7691C37.1623 12.4699 37.1534 12.1615 37.0782 11.8662C37.0029 11.5708 36.8632 11.2958 36.6689 11.0609C36.4747 10.826 36.2308 10.6371 35.9548 10.5078C35.6788 10.3784 35.3776 10.3118 35.0728 10.3128H28.9278C28.6237 10.3129 28.3233 10.3803 28.0482 10.5102C27.7732 10.64 27.5302 10.8291 27.3368 11.0638C27.1434 11.2985 27.0043 11.5732 26.9295 11.868C26.8547 12.1628 26.846 12.4705 26.9041 12.7691L27.2791 14.7103C27.2876 14.7574 27.278 14.8059 27.2523 14.8462C27.2265 14.8865 27.1866 14.9157 27.1403 14.9278C25.8259 15.3046 24.5596 15.8322 23.3666 16.5003C23.3255 16.5237 23.2772 16.531 23.231 16.5208C23.1848 16.5107 23.1441 16.4838 23.1166 16.4453L22.0103 14.8028C21.8402 14.5505 21.6164 14.339 21.3549 14.1834C21.0934 14.0279 20.8007 13.9321 20.4979 13.9029C20.195 13.8738 19.8894 13.912 19.6031 14.0148C19.3167 14.1177 19.0567 14.2826 18.8416 14.4978L14.4928 18.8378C14.2776 19.0529 14.1127 19.313 14.0098 19.5993C13.907 19.8857 13.8688 20.1913 13.8979 20.4941C13.9271 20.797 14.0229 21.0897 14.1784 21.3511C14.334 21.6126 14.5455 21.8365 14.7978 22.0066L16.4403 23.1128C16.4788 23.1403 16.5056 23.1811 16.5158 23.2273C16.526 23.2734 16.5187 23.3217 16.4953 23.3628C15.8288 24.5568 15.3028 25.824 14.9278 27.1391C14.9154 27.1852 14.8862 27.225 14.846 27.2506C14.8057 27.2763 14.7573 27.286 14.7103 27.2778L12.7691 26.9028C12.4704 26.8447 12.1626 26.8534 11.8677 26.9283C11.5728 27.0032 11.2981 27.1424 11.0633 27.336C10.8286 27.5295 10.6395 27.7726 10.5098 28.0478C10.38 28.323 10.3128 28.6236 10.3128 28.9278V35.0728C10.3129 35.377 10.3803 35.6773 10.5102 35.9524C10.64 36.2275 10.8291 36.4704 11.0638 36.6638C11.2985 36.8572 11.5732 36.9963 11.868 37.0711C12.1628 37.1459 12.4705 37.1546 12.7691 37.0966L14.7103 36.7216C14.7573 36.7134 14.8057 36.7231 14.846 36.7487C14.8862 36.7744 14.9154 36.8142 14.9278 36.8603C15.3046 38.1747 15.8322 39.4411 16.5003 40.6341C16.5237 40.6752 16.531 40.7235 16.5208 40.7696C16.5107 40.8158 16.4838 40.8566 16.4453 40.8841L14.7978 42.0003C14.5455 42.1704 14.334 42.3942 14.1784 42.6557C14.0229 42.9172 13.9271 43.2099 13.8979 43.5128C13.8688 43.8156 13.907 44.1212 14.0098 44.4075C14.1127 44.6939 14.2776 44.954 14.4928 45.1691L18.8378 49.5141C19.0529 49.7293 19.313 49.8942 19.5993 49.9971C19.8857 50.0999 20.1913 50.1381 20.4941 50.109C20.797 50.0798 21.0897 49.984 21.3511 49.8284C21.6126 49.6729 21.8365 49.4613 22.0066 49.2091L23.1128 47.5666C23.1403 47.5281 23.1811 47.5012 23.2273 47.4911C23.2734 47.4809 23.3217 47.4882 23.3628 47.5116C24.5568 48.1781 25.824 48.7041 27.1391 49.0791C27.1853 49.0912 27.2253 49.1203 27.251 49.1607C27.2767 49.201 27.2863 49.2495 27.2778 49.2966L26.9028 51.2378C26.8447 51.5364 26.8534 51.8441 26.9283 52.1389C27.0031 52.4337 27.1422 52.7083 27.3356 52.9431C27.529 53.1778 27.7719 53.3669 28.047 53.4967C28.322 53.6266 28.6224 53.6939 28.9266 53.6941H35.0716C35.3757 53.6939 35.6761 53.6266 35.9511 53.4967C36.2262 53.3669 36.4691 53.1778 36.6626 52.9431C36.856 52.7083 36.9951 52.4337 37.0699 52.1389C37.1447 51.8441 37.1534 51.5364 37.0953 51.2378L36.7203 49.2966C36.7118 49.2495 36.7214 49.201 36.7471 49.1607C36.7728 49.1203 36.8128 49.0912 36.8591 49.0791C38.1742 48.7004 39.441 48.1706 40.6341 47.5003C40.6752 47.477 40.7235 47.4697 40.7696 47.4798C40.8158 47.49 40.8566 47.5169 40.8841 47.5553L42.0003 49.2028C42.1704 49.4551 42.3942 49.6666 42.6557 49.8222C42.9172 49.9778 43.2099 50.0736 43.5128 50.1027C43.8156 50.1319 44.1212 50.0937 44.4075 49.9908C44.6939 49.8879 44.954 49.723 45.1691 49.5078L49.5141 45.1628C49.7286 44.9475 49.8927 44.6872 49.9945 44.4008C50.0963 44.1144 50.1333 43.809 50.1028 43.5066ZM48.1828 43.8378L43.8378 48.1828C43.8182 48.2025 43.7944 48.2175 43.7683 48.2268C43.7421 48.2361 43.7142 48.2395 43.6866 48.2366C43.6589 48.2342 43.6321 48.2255 43.6083 48.2112C43.5844 48.1969 43.5642 48.1774 43.5491 48.1541L42.4428 46.5116C42.1532 46.081 41.7113 45.7761 41.206 45.6581C40.7007 45.5401 40.1695 45.6177 39.7191 45.8753C38.652 46.4713 37.5194 46.9415 36.3441 47.2766C35.8453 47.4146 35.4172 47.7361 35.1455 48.1766C34.8738 48.617 34.7786 49.1439 34.8791 49.6516L35.2541 51.5916C35.2594 51.6187 35.2587 51.6467 35.2519 51.6736C35.2452 51.7004 35.2326 51.7254 35.215 51.7468C35.1974 51.7682 35.1754 51.7854 35.1503 51.7973C35.1253 51.8091 35.098 51.8153 35.0703 51.8153H28.9278C28.9001 51.8153 28.8728 51.8091 28.8478 51.7973C28.8228 51.7854 28.8007 51.7682 28.7831 51.7468C28.7656 51.7254 28.7529 51.7004 28.7462 51.6736C28.7394 51.6467 28.7387 51.6187 28.7441 51.5916L29.1191 49.6516C29.2195 49.1439 29.1243 48.617 28.8526 48.1766C28.581 47.7361 28.1528 47.4146 27.6541 47.2766C26.4787 46.9415 25.3461 46.4713 24.2791 45.8753C23.9677 45.6999 23.6165 45.6074 23.2591 45.6066C22.922 45.6066 22.5902 45.6898 22.293 45.8487C21.9958 46.0077 21.7424 46.2375 21.5553 46.5178L20.4491 48.1603C20.4339 48.1836 20.4137 48.2032 20.3899 48.2175C20.366 48.2318 20.3393 48.2404 20.3116 48.2428C20.2839 48.2457 20.256 48.2424 20.2299 48.2331C20.2037 48.2238 20.1799 48.2087 20.1603 48.1891L15.8178 43.8378C15.7981 43.8182 15.7831 43.7944 15.7738 43.7683C15.7645 43.7421 15.7612 43.7142 15.7641 43.6866C15.7664 43.6589 15.7751 43.6321 15.7894 43.6083C15.8037 43.5844 15.8233 43.5642 15.8466 43.5491L17.4891 42.4428C17.9204 42.1539 18.2264 41.7125 18.3456 41.2072C18.4648 40.7019 18.3883 40.1703 18.1316 39.7191C17.5356 38.652 17.0654 37.5194 16.7303 36.3441C16.592 35.8455 16.2705 35.4175 15.8301 35.1459C15.3897 34.8742 14.863 34.7789 14.3553 34.8791L12.4153 35.2541C12.3882 35.2594 12.3602 35.2587 12.3333 35.2519C12.3065 35.2452 12.2815 35.2326 12.2601 35.215C12.2387 35.1974 12.2214 35.1754 12.2096 35.1503C12.1978 35.1253 12.1916 35.098 12.1916 35.0703V28.9278C12.1926 28.9011 12.1993 28.8748 12.2113 28.8509C12.2233 28.8269 12.2403 28.8058 12.2612 28.789C12.282 28.7722 12.3062 28.76 12.3322 28.7534C12.3581 28.7467 12.3852 28.7457 12.4116 28.7503L14.3516 29.1253C14.8592 29.2254 15.3859 29.1302 15.8263 28.8585C16.2667 28.5869 16.5882 28.1589 16.7266 27.6603C17.0616 26.4849 17.5318 25.3524 18.1278 24.2853C18.3846 23.8341 18.461 23.3024 18.3418 22.7972C18.2227 22.2919 17.9166 21.8505 17.4853 21.5616L15.8428 20.4553C15.8195 20.4402 15.8 20.4199 15.7857 20.3961C15.7714 20.3723 15.7627 20.3455 15.7603 20.3178C15.7574 20.2902 15.7608 20.2623 15.7701 20.2361C15.7794 20.2099 15.7944 20.1862 15.8141 20.1666L20.1591 15.8216C20.1787 15.8019 20.2024 15.7869 20.2286 15.7776C20.2548 15.7683 20.2827 15.7649 20.3103 15.7678C20.338 15.7702 20.3648 15.7789 20.3886 15.7932C20.4124 15.8075 20.4327 15.827 20.4478 15.8503L21.5541 17.4928C21.843 17.9241 22.2844 18.2302 22.7897 18.3493C23.2949 18.4685 23.8266 18.3921 24.2778 18.1353C25.3449 17.5393 26.4774 17.0691 27.6528 16.7341C28.1516 16.596 28.5797 16.2745 28.8514 15.8341C29.1231 15.3936 29.2183 14.8667 29.1178 14.3591L28.7428 12.4191C28.7375 12.3919 28.7382 12.3639 28.7449 12.3371C28.7517 12.3102 28.7643 12.2852 28.7819 12.2638C28.7994 12.2424 28.8215 12.2252 28.8465 12.2133C28.8716 12.2015 28.8989 12.1953 28.9266 12.1953H35.0716C35.0992 12.1953 35.1266 12.2015 35.1516 12.2133C35.1766 12.2252 35.1987 12.2424 35.2163 12.2638C35.2338 12.2852 35.2464 12.3102 35.2532 12.3371C35.2599 12.3639 35.2607 12.3919 35.2553 12.4191L34.8803 14.3591C34.7799 14.8667 34.875 15.3936 35.1467 15.8341C35.4184 16.2745 35.8466 16.596 36.3453 16.7341C37.5207 17.0691 38.6533 17.5393 39.7203 18.1353C40.1715 18.3921 40.7032 18.4685 41.2085 18.3493C41.7137 18.2302 42.1552 17.9241 42.4441 17.4928L43.5503 15.8503C43.5654 15.827 43.5857 15.8075 43.6095 15.7932C43.6334 15.7789 43.6601 15.7702 43.6878 15.7678C43.7154 15.7649 43.7434 15.7683 43.7695 15.7776C43.7957 15.7869 43.8195 15.8019 43.8391 15.8216L48.1841 20.1666C48.2037 20.1862 48.2188 20.2099 48.2281 20.2361C48.2374 20.2623 48.2407 20.2902 48.2378 20.3178C48.2354 20.3455 48.2268 20.3723 48.2125 20.3961C48.1982 20.4199 48.1786 20.4402 48.1553 20.4553L46.5128 21.5616C46.0833 21.8511 45.779 22.2922 45.6608 22.7966C45.5426 23.3009 45.6192 23.8313 45.8753 24.2816C46.4713 25.3486 46.9415 26.4812 47.2766 27.6566C47.4149 28.1552 47.7364 28.5831 48.1768 28.8548C48.6172 29.1264 49.1439 29.2217 49.6516 29.1216L51.5916 28.7466C51.6187 28.7412 51.6467 28.7419 51.6736 28.7487C51.7004 28.7554 51.7254 28.7681 51.7468 28.7856C51.7682 28.8032 51.7854 28.8253 51.7973 28.8503C51.8091 28.8753 51.8153 28.9026 51.8153 28.9303V35.0753C51.8153 35.103 51.8091 35.1303 51.7973 35.1553C51.7854 35.1804 51.7682 35.2024 51.7468 35.22C51.7254 35.2376 51.7004 35.2502 51.6736 35.2569C51.6467 35.2637 51.6187 35.2644 51.5916 35.2591L49.6516 34.8841C49.1439 34.7836 48.617 34.8788 48.1766 35.1505C47.7361 35.4222 47.4146 35.8503 47.2766 36.3491C46.9415 37.5244 46.4713 38.657 45.8753 39.7241C45.6186 40.1753 45.5421 40.7069 45.6613 41.2122C45.7805 41.7175 46.0865 42.1589 46.5178 42.4478L48.1603 43.5541C48.1836 43.5692 48.2032 43.5894 48.2175 43.6133C48.2318 43.6371 48.2404 43.6639 48.2428 43.6916C48.2442 43.7189 48.2395 43.7461 48.2291 43.7714C48.2187 43.7966 48.2029 43.8193 48.1828 43.8378ZM60.0853 38.5516C59.8455 38.4861 59.5894 38.5186 59.3735 38.6419C59.1576 38.7652 58.9995 38.9692 58.9341 39.2091L58.9278 39.2341C58.8662 39.4737 58.9022 39.728 59.0278 39.9413C59.1534 40.1545 59.3583 40.3092 59.5978 40.3716C59.6753 40.3924 59.7551 40.4029 59.8353 40.4028C60.0422 40.4022 60.2431 40.3336 60.4071 40.2076C60.5711 40.0816 60.689 39.9051 60.7428 39.7053C60.7758 39.5864 60.7849 39.4621 60.7697 39.3396C60.7544 39.2172 60.7151 39.0989 60.654 38.9917C60.5929 38.8845 60.5112 38.7904 60.4136 38.7149C60.316 38.6393 60.2044 38.5838 60.0853 38.5516ZM60.8753 28.8753C60.2217 28.8755 59.5845 29.0806 59.0535 29.4618C58.5226 29.8429 58.1245 30.381 57.9153 31.0003H56.5628C56.3142 31.0003 56.0757 31.0991 55.8999 31.2749C55.7241 31.4507 55.6253 31.6892 55.6253 31.9378C55.6253 32.1865 55.7241 32.4249 55.8999 32.6007C56.0757 32.7765 56.3142 32.8753 56.5628 32.8753H57.8753C58.0378 33.4325 58.3522 33.9333 58.7834 34.3218C59.2145 34.7103 59.7453 34.9711 60.3163 35.0749C60.8873 35.1787 61.4759 35.1215 62.0162 34.9096C62.5565 34.6977 63.0271 34.3396 63.3753 33.8753C63.7235 33.411 63.9356 32.859 63.9877 32.281C64.0398 31.703 63.9299 31.1219 63.6704 30.6028C63.4109 30.0837 63.0119 29.6471 62.5182 29.342C62.0246 29.0369 61.4557 28.8753 60.8753 28.8753ZM60.8753 33.2503C60.6281 33.2503 60.3864 33.177 60.1809 33.0397C59.9753 32.9023 59.8151 32.7071 59.7205 32.4787C59.6259 32.2503 59.6011 31.9989 59.6493 31.7565C59.6976 31.514 59.8166 31.2912 59.9914 31.1164C60.1662 30.9416 60.389 30.8226 60.6315 30.7743C60.8739 30.7261 61.1253 30.7509 61.3537 30.8455C61.5821 30.9401 61.7773 31.1003 61.9147 31.3059C62.052 31.5114 62.1253 31.7531 62.1253 32.0003C62.1253 32.3318 61.9936 32.6498 61.7592 32.8842C61.5248 33.1186 61.2068 33.2503 60.8753 33.2503ZM32.0003 18.0003C29.2314 18.0003 26.5246 18.8214 24.2223 20.3597C21.92 21.8981 20.1256 24.0846 19.066 26.6427C18.0064 29.2009 17.7291 32.0159 18.2693 34.7316C18.8095 37.4473 20.1429 39.9419 22.1008 41.8998C24.0588 43.8577 26.5533 45.1911 29.2691 45.7313C31.9848 46.2715 34.7997 45.9943 37.3579 44.9346C39.916 43.875 42.1026 42.0806 43.6409 39.7783C45.1792 37.476 46.0003 34.7693 46.0003 32.0003C45.9963 28.2885 44.5201 24.7299 41.8954 22.1052C39.2708 19.4806 35.7121 18.0043 32.0003 18.0003ZM32.0003 44.1253C29.6022 44.1253 27.258 43.4142 25.264 42.0819C23.2701 40.7496 21.716 38.8559 20.7983 36.6404C19.8806 34.4248 19.6404 31.9869 20.1083 29.6348C20.5761 27.2828 21.7309 25.1224 23.4266 23.4266C25.1224 21.7309 27.2828 20.5761 29.6348 20.1083C31.9869 19.6404 34.4248 19.8806 36.6404 20.7983C38.8559 21.716 40.7496 23.2701 42.0819 25.264C43.4142 27.258 44.1253 29.6022 44.1253 32.0003C44.122 35.215 42.8435 38.2972 40.5703 40.5703C38.2972 42.8435 35.215 44.122 32.0003 44.1253ZM57.4241 45.5978C57.2632 45.504 57.0781 45.46 56.8922 45.4713C56.7063 45.4826 56.528 45.5487 56.3796 45.6613C56.2313 45.7739 56.1196 45.9279 56.0587 46.1039C55.9978 46.2799 55.9904 46.47 56.0375 46.6502C56.0845 46.8304 56.1839 46.9926 56.3231 47.1164C56.4622 47.2401 56.635 47.3199 56.8194 47.3456C57.0039 47.3713 57.1918 47.3417 57.3595 47.2607C57.5271 47.1797 57.6671 47.0508 57.7616 46.8903L57.7703 46.8753C57.8316 46.7687 57.8712 46.6511 57.887 46.5292C57.9027 46.4073 57.8943 46.2834 57.8621 46.1648C57.83 46.0461 57.7747 45.9349 57.6996 45.8377C57.6244 45.7404 57.5308 45.6589 57.4241 45.5978ZM58.9841 42.1628C58.8123 42.0901 58.6228 42.07 58.4396 42.1049C58.2564 42.1398 58.0876 42.2282 57.9546 42.3589C57.8216 42.4897 57.7303 42.6569 57.6923 42.8395C57.6543 43.0221 57.6712 43.2119 57.741 43.3849C57.8107 43.5579 57.9302 43.7063 58.0842 43.8114C58.2383 43.9166 58.42 43.9737 58.6065 43.9756C58.793 43.9776 58.9759 43.9242 59.1321 43.8222C59.2883 43.7203 59.4108 43.5743 59.4841 43.4028L59.4916 43.3841C59.5385 43.2706 59.5625 43.1489 59.5624 43.0261C59.5623 42.9033 59.5379 42.7817 59.4908 42.6683C59.4437 42.5549 59.3747 42.4519 59.2877 42.3652C59.2008 42.2784 59.0976 42.2097 58.9841 42.1628ZM7.85907 45.9403C7.72969 45.7323 7.52403 45.5832 7.2861 45.5249C7.04817 45.4666 6.79687 45.5037 6.58598 45.6284C6.37509 45.753 6.22136 45.9552 6.15769 46.1918C6.09402 46.4283 6.12547 46.6804 6.24532 46.8941L7.05907 46.4291L6.24657 46.8966C6.30694 47.0052 6.38832 47.1007 6.48596 47.1776C6.5836 47.2545 6.69556 47.3113 6.81532 47.3445C6.93507 47.3777 7.06025 47.3868 7.18355 47.3712C7.30686 47.3557 7.42583 47.3157 7.53356 47.2537C7.64128 47.1917 7.73561 47.109 7.81105 47.0102C7.88649 46.9114 7.94154 46.7986 7.97299 46.6784C8.00444 46.5581 8.01167 46.4328 7.99426 46.3098C7.97685 46.1867 7.93514 46.0684 7.87157 45.9616C7.87157 45.9616 7.85782 45.9428 7.85532 45.9403H7.85907ZM13.9291 48.6616L12.9728 49.6178C12.3036 49.2867 11.538 49.2061 10.8146 49.3907C10.0911 49.5752 9.45767 50.0127 9.02884 50.6238C8.60001 51.235 8.40417 51.9795 8.47677 52.7226C8.54937 53.4657 8.88561 54.1582 9.42462 54.6748C9.96364 55.1914 10.6698 55.498 11.4153 55.539C12.1608 55.58 12.8963 55.3528 13.4887 54.8984C14.0812 54.444 14.4914 53.7926 14.645 53.062C14.7987 52.3314 14.6858 51.5699 14.3266 50.9153L15.2503 49.9878C15.4212 49.8111 15.5158 49.5743 15.5138 49.3285C15.5117 49.0827 15.4133 48.8475 15.2395 48.6736C15.0658 48.4997 14.8307 48.401 14.5849 48.3987C14.3391 48.3965 14.1022 48.4909 13.9253 48.6616H13.9291ZM12.4666 53.3016C12.2918 53.4764 12.069 53.5955 11.8266 53.6438C11.5841 53.692 11.3327 53.6673 11.1043 53.5727C10.8759 53.4781 10.6806 53.3179 10.5432 53.1123C10.4059 52.9067 10.3325 52.6651 10.3325 52.4178C10.3325 52.1706 10.4059 51.9289 10.5432 51.7233C10.6806 51.5177 10.8759 51.3575 11.1043 51.2629C11.3327 51.1683 11.5841 51.1436 11.8266 51.1919C12.069 51.2401 12.2918 51.3592 12.4666 51.5341C12.5837 51.6495 12.6766 51.7871 12.7401 51.9388C12.8035 52.0906 12.8362 52.2534 12.8362 52.4178C12.8362 52.5823 12.8035 52.7451 12.7401 52.8968C12.6766 53.0485 12.5837 53.1861 12.4666 53.3016ZM18.0691 56.1503C17.8536 56.025 17.5971 55.9904 17.3561 56.0542C17.1152 56.1179 16.9094 56.2748 16.7841 56.4903C16.6588 56.7058 16.6242 56.9622 16.6879 57.2032C16.7517 57.4442 16.9086 57.65 17.1241 57.7753L17.1403 57.7841C17.3545 57.8901 17.6011 57.9104 17.8297 57.8407C18.0583 57.771 18.2517 57.6166 18.3702 57.4091C18.4888 57.2016 18.5237 56.9567 18.4677 56.7243C18.4117 56.492 18.2691 56.2898 18.0691 56.1591V56.1503ZM7.43782 31.0003H6.08532C5.84615 30.2931 5.36167 29.6948 4.71958 29.3138C4.0775 28.9329 3.32024 28.7944 2.58488 28.9234C1.84952 29.0525 1.18465 29.4405 0.710639 30.0173C0.236626 30.5942 -0.0152123 31.3216 0.000711443 32.068C0.0166352 32.8145 0.299269 33.5305 0.79745 34.0866C1.29563 34.6427 1.97644 35.002 2.71663 35.0996C3.45683 35.1972 4.2075 35.0265 4.83275 34.6185C5.458 34.2105 5.91653 33.5921 6.12532 32.8753H7.43782C7.68646 32.8753 7.92491 32.7765 8.10073 32.6007C8.27654 32.4249 8.37532 32.1865 8.37532 31.9378C8.37532 31.6892 8.27654 31.4507 8.10073 31.2749C7.92491 31.0991 7.68646 31.0003 7.43782 31.0003ZM3.12532 33.2503C2.87809 33.2503 2.63641 33.177 2.43085 33.0397C2.22529 32.9023 2.06508 32.7071 1.97047 32.4787C1.87586 32.2503 1.8511 31.9989 1.89933 31.7565C1.94757 31.514 2.06662 31.2912 2.24143 31.1164C2.41625 30.9416 2.63898 30.8226 2.88145 30.7743C3.12393 30.7261 3.37526 30.7509 3.60367 30.8455C3.83208 30.9401 4.0273 31.1003 4.16465 31.3059C4.302 31.5114 4.37532 31.7531 4.37532 32.0003C4.37532 32.3318 4.24362 32.6498 4.0092 32.8842C3.77478 33.1186 3.45684 33.2503 3.12532 33.2503ZM24.8066 58.9391L24.7816 58.9316C24.6621 58.9006 24.5378 58.8935 24.4156 58.9106C24.2935 58.9277 24.1758 58.9687 24.0695 59.0313C23.9632 59.0939 23.8702 59.1768 23.796 59.2752C23.7217 59.3737 23.6675 59.4859 23.6366 59.6053C23.6056 59.7247 23.5985 59.8491 23.6156 59.9713C23.6327 60.0934 23.6737 60.211 23.7363 60.3174C23.7989 60.4237 23.8818 60.5166 23.9802 60.5909C24.0787 60.6652 24.1909 60.7194 24.3103 60.7503L24.5603 59.8466L24.3103 60.7516C24.3918 60.7735 24.4759 60.7844 24.5603 60.7841C24.7872 60.7842 25.0065 60.7021 25.1775 60.5529C25.3484 60.4037 25.4595 60.1976 25.49 59.9727C25.5205 59.7479 25.4685 59.5196 25.3435 59.3302C25.2185 59.1408 25.0291 59.0032 24.8103 58.9428L24.8066 58.9391ZM42.6703 57.7603C42.4396 57.8551 42.256 58.0377 42.1598 58.2679C42.0637 58.4981 42.063 58.7571 42.1578 58.9878C42.2526 59.2186 42.4352 59.4022 42.6654 59.4983C42.8956 59.5944 43.1546 59.5951 43.3853 59.5003H43.3978C43.511 59.453 43.6138 59.3839 43.7003 59.2968C43.7867 59.2097 43.8551 59.1064 43.9016 58.9928C43.948 58.8793 43.9716 58.7577 43.9709 58.635C43.9703 58.5123 43.9455 58.3909 43.8978 58.2778C43.8035 58.0465 43.6213 57.8621 43.3912 57.765C43.161 57.668 42.9017 57.6663 42.6703 57.7603ZM37.9628 25.3128C37.9628 25.0642 37.864 24.8257 37.6882 24.6499C37.5124 24.4741 37.274 24.3753 37.0253 24.3753H26.9753C26.7267 24.3753 26.4882 24.4741 26.3124 24.6499C26.1366 24.8257 26.0378 25.0642 26.0378 25.3128C26.0378 25.5615 26.1366 25.7999 26.3124 25.9757C26.4882 26.1515 26.7267 26.2503 26.9753 26.2503H30.5828C31.1948 26.2512 31.7912 26.4436 32.2884 26.8005C32.7855 27.1573 33.1586 27.6608 33.3553 28.2403H26.9803C26.7317 28.2403 26.4932 28.3391 26.3174 28.5149C26.1416 28.6907 26.0428 28.9292 26.0428 29.1778C26.0428 29.4265 26.1416 29.6649 26.3174 29.8407C26.4932 30.0165 26.7317 30.1153 26.9803 30.1153H33.3553C33.1589 30.695 32.786 31.1987 32.2887 31.5556C31.7914 31.9125 31.1949 32.1048 30.5828 32.1053H26.9753C26.7907 32.1052 26.6101 32.1597 26.4562 32.2618C26.3024 32.364 26.1821 32.5093 26.1106 32.6795C26.039 32.8497 26.0193 33.0373 26.054 33.2187C26.0886 33.4001 26.1761 33.5672 26.3053 33.6991L33.7778 41.3428C33.9515 41.5215 34.1891 41.6239 34.4383 41.6274C34.6875 41.6309 34.9279 41.5353 35.1066 41.3616C35.2853 41.1879 35.3876 40.9503 35.3911 40.7011C35.3947 40.4519 35.299 40.2115 35.1253 40.0328L29.2091 33.9803H30.5841C31.6947 33.9789 32.7705 33.5932 33.6291 32.8887C34.4876 32.1841 35.0759 31.2043 35.2941 30.1153H37.0253C37.274 30.1153 37.5124 30.0165 37.6882 29.8407C37.864 29.6649 37.9628 29.4265 37.9628 29.1778C37.9628 28.9292 37.864 28.6907 37.6882 28.5149C37.5124 28.3391 37.274 28.2403 37.0253 28.2403H35.2928C35.1486 27.5158 34.8384 26.8347 34.3866 26.2503H37.0253C37.274 26.2503 37.5124 26.1515 37.6882 25.9757C37.864 25.7999 37.9628 25.5615 37.9628 25.3128ZM33.0003 57.9153V56.5628C33.0003 56.3142 32.9015 56.0757 32.7257 55.8999C32.5499 55.7241 32.3115 55.6253 32.0628 55.6253C31.8142 55.6253 31.5757 55.7241 31.3999 55.8999C31.2241 56.0757 31.1253 56.3142 31.1253 56.5628V57.8753C30.4085 58.0841 29.7901 58.5426 29.3821 59.1679C28.9741 59.7931 28.8035 60.5438 28.901 61.284C28.9986 62.0242 29.3579 62.705 29.914 63.2032C30.4701 63.7014 31.1862 63.984 31.9326 63.9999C32.679 64.0158 33.4065 63.764 33.9833 63.29C34.5601 62.816 34.9482 62.1511 35.0772 61.4158C35.2062 60.6804 35.0677 59.9231 34.6868 59.281C34.3058 58.639 33.7076 58.1545 33.0003 57.9153ZM32.0003 62.1253C31.7531 62.1253 31.5114 62.052 31.3059 61.9147C31.1003 61.7773 30.9401 61.5821 30.8455 61.3537C30.7509 61.1253 30.7261 60.8739 30.7743 60.6315C30.8226 60.389 30.9416 60.1662 31.1164 59.9914C31.2912 59.8166 31.514 59.6976 31.7565 59.6493C31.9989 59.6011 32.2503 59.6259 32.4787 59.7205C32.7071 59.8151 32.9023 59.9753 33.0397 60.1809C33.177 60.3864 33.2503 60.6281 33.2503 60.8753C33.2503 61.2068 33.1186 61.5248 32.8842 61.7592C32.6498 61.9936 32.3318 62.1253 32.0003 62.1253ZM39.2266 58.9303C39.006 58.9875 38.8138 59.1231 38.6859 59.3116C38.558 59.5002 38.5032 59.729 38.5317 59.955C38.5602 60.1811 38.67 60.3891 38.8407 60.54C39.0114 60.691 39.2312 60.7747 39.4591 60.7753C39.5383 60.7751 39.6173 60.765 39.6941 60.7453H39.7191C39.9544 60.676 40.1531 60.5172 40.2727 60.3031C40.3923 60.0889 40.4232 59.8364 40.3587 59.5997C40.2943 59.363 40.1397 59.161 39.928 59.0371C39.7163 58.9131 39.4645 58.877 39.2266 58.9366V58.9303Z" fill="black"/>
</g>
<defs>
<clipPath id="clip0_1974_45873">
<rect width="64" height="64" fill="white"/>
</clipPath>
</defs>
</svg>
