<svg width="80" height="17" viewBox="0 0 80 17" fill="none" xmlns="http://www.w3.org/2000/svg">
<path d="M6.04983 12.7816H8.5745V14H4.51307V6.33816H6.04983V12.7816ZM12.5809 14.0988C11.9955 14.0988 11.4686 13.9707 11.0002 13.7146C10.5319 13.4512 10.1623 13.0816 9.89155 12.6059C9.62811 12.1303 9.49639 11.5814 9.49639 10.9594C9.49639 10.3374 9.63177 9.78855 9.90253 9.31288C10.1806 8.83722 10.5575 8.47133 11.0331 8.2152C11.5088 7.95175 12.0394 7.82003 12.6248 7.82003C13.2102 7.82003 13.7408 7.95175 14.2164 8.2152C14.6921 8.47133 15.0653 8.83722 15.3361 9.31288C15.6142 9.78855 15.7532 10.3374 15.7532 10.9594C15.7532 11.5814 15.6105 12.1303 15.3251 12.6059C15.047 13.0816 14.6665 13.4512 14.1835 13.7146C13.7078 13.9707 13.1736 14.0988 12.5809 14.0988ZM12.5809 12.7596C12.859 12.7596 13.1187 12.6938 13.3602 12.562C13.609 12.423 13.8066 12.2181 13.953 11.9473C14.0993 11.6766 14.1725 11.3473 14.1725 10.9594C14.1725 10.3813 14.0188 9.93856 13.7115 9.63121C13.4115 9.31654 13.0419 9.15921 12.6028 9.15921C12.1638 9.15921 11.7942 9.31654 11.4942 9.63121C11.2015 9.93856 11.0551 10.3813 11.0551 10.9594C11.0551 11.5375 11.1978 11.9839 11.4832 12.2986C11.7759 12.6059 12.1418 12.7596 12.5809 12.7596ZM16.8146 10.9375C16.8146 10.3228 16.9353 9.77757 17.1768 9.30191C17.4256 8.82624 17.7586 8.46035 18.1757 8.20422C18.6002 7.9481 19.0722 7.82003 19.5917 7.82003C20.0455 7.82003 20.4406 7.91151 20.7772 8.09445C21.1212 8.2774 21.3956 8.50792 21.6005 8.786V7.91882H23.1482V14H21.6005V13.1109C21.4029 13.3963 21.1285 13.6341 20.7772 13.8244C20.4333 14.0073 20.0345 14.0988 19.5808 14.0988C19.0685 14.0988 18.6002 13.9671 18.1757 13.7036C17.7586 13.4402 17.4256 13.0706 17.1768 12.595C16.9353 12.112 16.8146 11.5595 16.8146 10.9375ZM21.6005 10.9594C21.6005 10.5862 21.5273 10.2679 21.381 10.0044C21.2346 9.73366 21.037 9.52876 20.7882 9.38972C20.5394 9.24336 20.2723 9.17019 19.9869 9.17019C19.7015 9.17019 19.4381 9.23971 19.1966 9.37875C18.9551 9.51779 18.7575 9.72269 18.6038 9.99345C18.4575 10.2569 18.3843 10.5716 18.3843 10.9375C18.3843 11.3034 18.4575 11.6253 18.6038 11.9034C18.7575 12.1742 18.9551 12.3827 19.1966 12.5291C19.4454 12.6755 19.7088 12.7486 19.9869 12.7486C20.2723 12.7486 20.5394 12.6791 20.7882 12.5401C21.037 12.3937 21.2346 12.1888 21.381 11.9254C21.5273 11.6546 21.6005 11.3326 21.6005 10.9594ZM24.5833 10.9375C24.5833 10.3228 24.704 9.77757 24.9455 9.30191C25.1943 8.82624 25.531 8.46035 25.9554 8.20422C26.3798 7.9481 26.8518 7.82003 27.3714 7.82003C27.7666 7.82003 28.1435 7.90785 28.502 8.08348C28.8606 8.25179 29.146 8.47864 29.3582 8.76404V5.87713H30.9169V14H29.3582V13.0999C29.168 13.3999 28.9009 13.6414 28.5569 13.8244C28.213 14.0073 27.8142 14.0988 27.3604 14.0988C26.8482 14.0988 26.3798 13.9671 25.9554 13.7036C25.531 13.4402 25.1943 13.0706 24.9455 12.595C24.704 12.112 24.5833 11.5595 24.5833 10.9375ZM29.3692 10.9594C29.3692 10.5862 29.296 10.2679 29.1497 10.0044C29.0033 9.73366 28.8057 9.52876 28.5569 9.38972C28.3081 9.24336 28.041 9.17019 27.7556 9.17019C27.4702 9.17019 27.2068 9.23971 26.9653 9.37875C26.7238 9.51779 26.5262 9.72269 26.3725 9.99345C26.2262 10.2569 26.153 10.5716 26.153 10.9375C26.153 11.3034 26.2262 11.6253 26.3725 11.9034C26.5262 12.1742 26.7238 12.3827 26.9653 12.5291C27.2141 12.6755 27.4775 12.7486 27.7556 12.7486C28.041 12.7486 28.3081 12.6791 28.5569 12.5401C28.8057 12.3937 29.0033 12.1888 29.1497 11.9254C29.296 11.6546 29.3692 11.3326 29.3692 10.9594ZM43.2441 7.83101C43.9905 7.83101 44.5906 8.06152 45.0443 8.52255C45.5053 8.97626 45.7359 9.61292 45.7359 10.4325V14H44.1991V10.6411C44.1991 10.1654 44.0784 9.80318 43.8369 9.55437C43.5954 9.29825 43.2661 9.17019 42.8489 9.17019C42.4318 9.17019 42.0989 9.29825 41.8501 9.55437C41.6086 9.80318 41.4878 10.1654 41.4878 10.6411V14H39.9511V10.6411C39.9511 10.1654 39.8303 9.80318 39.5888 9.55437C39.3473 9.29825 39.018 9.17019 38.6009 9.17019C38.1765 9.17019 37.8398 9.29825 37.591 9.55437C37.3495 9.80318 37.2288 10.1654 37.2288 10.6411V14H35.692V7.91882H37.2288V8.65427C37.4264 8.39815 37.6789 8.1969 37.9862 8.05055C38.3009 7.90419 38.6448 7.83101 39.018 7.83101C39.4937 7.83101 39.9181 7.93346 40.2913 8.13836C40.6646 8.33594 40.9536 8.62134 41.1585 8.99456C41.3561 8.6433 41.6415 8.36156 42.0147 8.14934C42.3952 7.93712 42.805 7.83101 43.2441 7.83101ZM50.2238 14.0988C49.6383 14.0988 49.1114 13.9707 48.6431 13.7146C48.1748 13.4512 47.8052 13.0816 47.5344 12.6059C47.271 12.1303 47.1393 11.5814 47.1393 10.9594C47.1393 10.3374 47.2747 9.78855 47.5454 9.31288C47.8235 8.83722 48.2004 8.47133 48.676 8.2152C49.1517 7.95175 49.6822 7.82003 50.2677 7.82003C50.8531 7.82003 51.3837 7.95175 51.8593 8.2152C52.335 8.47133 52.7082 8.83722 52.979 9.31288C53.257 9.78855 53.3961 10.3374 53.3961 10.9594C53.3961 11.5814 53.2534 12.1303 52.968 12.6059C52.6899 13.0816 52.3094 13.4512 51.8264 13.7146C51.3507 13.9707 50.8165 14.0988 50.2238 14.0988ZM50.2238 12.7596C50.5018 12.7596 50.7616 12.6938 51.0031 12.562C51.2519 12.423 51.4495 12.2181 51.5959 11.9473C51.7422 11.6766 51.8154 11.3473 51.8154 10.9594C51.8154 10.3813 51.6617 9.93856 51.3544 9.63121C51.0543 9.31654 50.6848 9.15921 50.2457 9.15921C49.8066 9.15921 49.4371 9.31654 49.1371 9.63121C48.8443 9.93856 48.698 10.3813 48.698 10.9594C48.698 11.5375 48.8407 11.9839 49.1261 12.2986C49.4188 12.6059 49.7847 12.7596 50.2238 12.7596ZM56.3894 8.86283C56.587 8.54085 56.8431 8.28838 57.1578 8.10543C57.4798 7.92248 57.8457 7.83101 58.2555 7.83101V9.44461H57.8493C57.3664 9.44461 57.0005 9.55803 56.7516 9.78489C56.5102 10.0117 56.3894 10.4069 56.3894 10.9704V14H54.8527V7.91882H56.3894V8.86283ZM65.2729 10.8277C65.2729 11.0472 65.2583 11.2448 65.229 11.4204H60.7834C60.82 11.8595 60.9737 12.2035 61.2444 12.4523C61.5152 12.7011 61.8482 12.8255 62.2433 12.8255C62.8141 12.8255 63.2203 12.5803 63.4618 12.09H65.1193C64.9436 12.6755 64.607 13.1584 64.1094 13.539C63.6118 13.9122 63.0007 14.0988 62.2763 14.0988C61.6908 14.0988 61.1639 13.9707 60.6956 13.7146C60.2346 13.4512 59.8723 13.0816 59.6089 12.6059C59.3528 12.1303 59.2247 11.5814 59.2247 10.9594C59.2247 10.3301 59.3528 9.77757 59.6089 9.30191C59.865 8.82624 60.2236 8.46035 60.6846 8.20422C61.1456 7.9481 61.6762 7.82003 62.2763 7.82003C62.8544 7.82003 63.3703 7.94444 63.824 8.19325C64.285 8.44205 64.6399 8.79697 64.8888 9.258C65.1449 9.71171 65.2729 10.2349 65.2729 10.8277ZM63.6813 10.3886C63.674 9.99345 63.5313 9.67878 63.2532 9.44461C62.9751 9.20312 62.6348 9.08237 62.2324 9.08237C61.8518 9.08237 61.5298 9.19946 61.2664 9.43363C61.0103 9.66048 60.8529 9.97881 60.7944 10.3886H63.6813Z" fill="#0058DD"/>
<path d="M79.3412 4.67485C79.2736 4.51203 79.1442 4.38264 78.9814 4.31503C78.9013 4.28088 78.8153 4.26277 78.7282 4.26172H72.0647C71.888 4.26172 71.7185 4.33192 71.5936 4.45689C71.4686 4.58185 71.3984 4.75134 71.3984 4.92806C71.3984 5.10479 71.4686 5.27428 71.5936 5.39924C71.7185 5.5242 71.888 5.59441 72.0647 5.59441H77.1223L71.5916 11.1184C71.5292 11.1804 71.4796 11.254 71.4458 11.3352C71.4119 11.4165 71.3945 11.5035 71.3945 11.5915C71.3945 11.6795 71.4119 11.7666 71.4458 11.8478C71.4796 11.929 71.5292 12.0027 71.5916 12.0646C71.6536 12.1271 71.7273 12.1766 71.8085 12.2105C71.8897 12.2443 71.9768 12.2617 72.0647 12.2617C72.1527 12.2617 72.2398 12.2443 72.321 12.2105C72.4022 12.1766 72.4759 12.1271 72.5378 12.0646L78.0618 6.53395V11.5915C78.0618 11.7682 78.132 11.9377 78.257 12.0627C78.382 12.1877 78.5515 12.2579 78.7282 12.2579C78.9049 12.2579 79.0744 12.1877 79.1994 12.0627C79.3243 11.9377 79.3945 11.7682 79.3945 11.5915V4.92806C79.3935 4.84099 79.3754 4.75496 79.3412 4.67485Z" fill="#0058DD"/>
</svg>
