<svg width="60" height="60" viewBox="0 0 60 60" fill="none" xmlns="http://www.w3.org/2000/svg">
<g clip-path="url(#clip0_2043_34591)">
<path d="M15.2147 59.7877C12.894 59.7617 10.595 59.3361 8.41882 58.5294C6.82967 57.942 5.39189 57.0068 4.21059 55.7924C2.99281 54.6134 2.05628 53.1753 1.47059 51.5847C0.664561 49.4086 0.239519 47.1099 0.214118 44.7894C0.0358824 40.9318 0 39.7747 0 30C0 20.2253 0.0394118 19.0724 0.212353 15.2118C0.240837 12.8922 0.666401 10.5947 1.47059 8.41882C2.05914 6.82941 2.99433 5.39105 4.20824 4.20824C5.38808 2.99155 6.82653 2.0559 8.41706 1.47059C10.5933 0.663892 12.8922 0.238252 15.2129 0.212353C19.0718 0.0358824 20.2306 0 30 0C39.7694 0 40.9276 0.0394118 44.7882 0.212353C47.1084 0.240636 49.4065 0.666203 51.5829 1.47059C53.1728 2.05667 54.6108 2.99199 55.7912 4.20765C57.0072 5.38838 57.9429 6.82682 58.5294 8.41706C59.3363 10.5932 59.7621 12.8922 59.7882 15.2129C59.9647 19.0735 60.0006 20.2294 60.0006 30.0012C60.0006 39.7729 59.9647 40.9288 59.7882 44.7894C59.7602 47.1098 59.3344 49.4082 58.5294 51.5847C57.9205 53.163 56.9878 54.5964 55.7914 55.7925C54.595 56.9886 53.1614 57.9209 51.5829 58.5294C49.4068 59.3363 47.1078 59.7621 44.7871 59.7882C40.93 59.9647 39.7706 60.0006 29.9988 60.0006C20.2271 60.0006 19.0712 59.9665 15.2141 59.7882" fill="url(#paint0_radial_2043_34591)"/>
<path d="M15.2147 59.7877C12.894 59.7617 10.595 59.3361 8.41882 58.5294C6.82967 57.942 5.39189 57.0068 4.21059 55.7924C2.99281 54.6134 2.05628 53.1753 1.47059 51.5847C0.664561 49.4086 0.239519 47.1099 0.214118 44.7894C0.0358824 40.9318 0 39.7747 0 30C0 20.2253 0.0394118 19.0724 0.212353 15.2118C0.240837 12.8922 0.666401 10.5947 1.47059 8.41882C2.05914 6.82941 2.99433 5.39105 4.20824 4.20824C5.38808 2.99155 6.82653 2.0559 8.41706 1.47059C10.5933 0.663892 12.8922 0.238252 15.2129 0.212353C19.0718 0.0358824 20.2306 0 30 0C39.7694 0 40.9276 0.0394118 44.7882 0.212353C47.1084 0.240636 49.4065 0.666203 51.5829 1.47059C53.1728 2.05667 54.6108 2.99199 55.7912 4.20765C57.0072 5.38838 57.9429 6.82682 58.5294 8.41706C59.3363 10.5932 59.7621 12.8922 59.7882 15.2129C59.9647 19.0735 60.0006 20.2294 60.0006 30.0012C60.0006 39.7729 59.9647 40.9288 59.7882 44.7894C59.7602 47.1098 59.3344 49.4082 58.5294 51.5847C57.9205 53.163 56.9878 54.5964 55.7914 55.7925C54.595 56.9886 53.1614 57.9209 51.5829 58.5294C49.4068 59.3363 47.1078 59.7621 44.7871 59.7882C40.93 59.9647 39.7706 60.0006 29.9988 60.0006C20.2271 60.0006 19.0712 59.9665 15.2141 59.7882" fill="url(#paint1_radial_2043_34591)"/>
<path d="M22.6327 30.1267C22.6328 28.6572 23.0687 27.2207 23.8852 25.9989C24.7018 24.7771 25.8623 23.8248 27.22 23.2626C28.5777 22.7004 30.0717 22.5534 31.513 22.8402C32.9542 23.1271 34.2781 23.8349 35.3171 24.8741C36.3561 25.9134 37.0636 27.2374 37.3501 28.6787C37.6366 30.1201 37.4892 31.614 36.9267 32.9716C36.3641 34.3292 35.4116 35.4895 34.1896 36.3057C32.9676 37.122 31.531 37.5575 30.0615 37.5573C28.091 37.557 26.2014 36.774 24.8082 35.3805C23.4151 33.987 22.6325 32.0972 22.6327 30.1267ZM18.6156 30.1267C18.6156 32.3905 19.2869 34.6034 20.5446 36.4857C21.8023 38.368 23.5899 39.835 25.6813 40.7013C27.7728 41.5676 30.0742 41.7943 32.2945 41.3527C34.5147 40.911 36.5542 39.8209 38.1549 38.2202C39.7557 36.6194 40.8458 34.58 41.2874 32.3597C41.7291 30.1394 41.5024 27.838 40.6361 25.7466C39.7698 23.6551 38.3027 21.8675 36.4205 20.6098C34.5382 19.3521 32.3253 18.6808 30.0615 18.6808C28.5584 18.6807 27.07 18.9768 25.6812 19.5519C24.2925 20.1271 23.0307 20.9702 21.9678 22.0331C20.905 23.0959 20.0619 24.3578 19.4867 25.7465C18.9115 27.1352 18.6155 28.6236 18.6156 30.1267ZM39.2856 18.2273C39.2854 18.7563 39.442 19.2735 39.7357 19.7135C40.0294 20.1535 40.447 20.4965 40.9357 20.6991C41.4243 20.9018 41.9621 20.955 42.481 20.852C42.9998 20.749 43.4766 20.4945 43.8508 20.1206C44.225 19.7467 44.48 19.2702 44.5834 18.7514C44.6868 18.2326 44.6341 17.6948 44.4319 17.206C44.2296 16.7172 43.887 16.2993 43.4473 16.0052C43.0075 15.7111 42.4905 15.554 41.9615 15.5538C41.2524 15.5541 40.5724 15.8358 40.0709 16.3371C39.5694 16.8384 39.2874 17.5182 39.2868 18.2273M21.0574 48.2708C19.6439 48.2553 18.2437 47.9966 16.9179 47.5061C15.9565 47.1356 15.0833 46.5678 14.3546 45.8394C13.6259 45.1109 13.0577 44.238 12.6868 43.2767C12.1961 41.9511 11.9374 40.5508 11.9221 39.1373C11.8138 36.7879 11.7927 36.082 11.7927 30.1297C11.7927 24.1773 11.8162 23.4732 11.9221 21.1214C11.9392 19.7081 12.1978 18.3081 12.6868 16.982C13.0573 16.0203 13.6253 15.1469 14.3541 14.4181C15.0828 13.6893 15.9562 13.1214 16.9179 12.7508C18.2436 12.2601 19.6439 12.0014 21.0574 11.9861C23.4068 11.8779 24.1127 11.8567 30.0627 11.8567C36.0127 11.8567 36.7191 11.8797 39.0709 11.9867C40.4842 12.0039 41.8842 12.2625 43.2103 12.7514C44.172 13.122 45.0454 13.69 45.7742 14.4187C46.5029 15.1475 47.0709 16.0209 47.4415 16.9826C47.9322 18.3083 48.1908 19.7085 48.2062 21.122C48.3144 23.475 48.3356 24.1773 48.3356 30.1302C48.3356 36.0832 48.3138 36.7867 48.2062 39.1385C48.1897 40.5518 47.9311 41.9519 47.4415 43.2779C47.0705 44.2392 46.5024 45.1121 45.7736 45.8405C45.0449 46.569 44.1717 47.1367 43.2103 47.5073C41.8847 47.998 40.4844 48.2567 39.0709 48.272C36.7215 48.3802 36.0156 48.4014 30.0627 48.4014C24.1097 48.4014 23.4062 48.3797 21.0574 48.272M20.8727 7.9726C19.0232 8.00896 17.1932 8.35902 15.4609 9.00788C13.98 9.58045 12.6351 10.4562 11.5124 11.5788C10.3898 12.7015 9.51405 14.0464 8.94147 15.5273C8.2927 17.2597 7.94265 19.0896 7.90619 20.9391C7.79619 23.3155 7.77148 24.0755 7.77148 30.1291C7.77148 36.1826 7.79678 36.942 7.90619 39.3191C7.94264 41.1686 8.29269 42.9985 8.94147 44.7308C9.51408 46.2117 10.3898 47.5566 11.5125 48.6792C12.6352 49.8019 13.98 50.6776 15.4609 51.2502C17.1933 51.8988 19.0232 52.2489 20.8727 52.2855C23.2503 52.3938 24.0091 52.4202 30.0627 52.4202C36.1162 52.4202 36.8756 52.395 39.2527 52.2855C41.1022 52.249 42.932 51.8989 44.6644 51.2502C46.1453 50.6776 47.4902 49.8019 48.6128 48.6792C49.7355 47.5566 50.6112 46.2117 51.1838 44.7308C51.8335 42.9987 52.1836 41.1687 52.2191 39.3191C52.3274 36.9408 52.3521 36.1826 52.3521 30.1291C52.3521 24.0755 52.3268 23.3161 52.2191 20.9391C52.1828 19.0896 51.8327 17.2596 51.1838 15.5273C50.6113 14.0467 49.7358 12.702 48.6134 11.5794C47.4911 10.4567 46.1466 9.58085 44.6662 9.00788C42.934 8.3586 41.104 8.00853 39.2544 7.9726C36.8774 7.86378 36.118 7.83789 30.0656 7.83789C24.0132 7.83789 23.2521 7.86319 20.8738 7.9726" fill="white"/>
</g>
<defs>
<radialGradient id="paint0_radial_2043_34591" cx="0" cy="0" r="1" gradientUnits="userSpaceOnUse" gradientTransform="translate(3.88294 58.6859) scale(76.1776)">
<stop offset="0.09" stop-color="#FA8F21"/>
<stop offset="0.78" stop-color="#D82D7E"/>
</radialGradient>
<radialGradient id="paint1_radial_2043_34591" cx="0" cy="0" r="1" gradientUnits="userSpaceOnUse" gradientTransform="translate(41.56 56.7588) scale(67.0371)">
<stop offset="0.64" stop-color="#8C3AAA" stop-opacity="0"/>
<stop offset="1" stop-color="#8C3AAA"/>
</radialGradient>
<clipPath id="clip0_2043_34591">
<rect width="60" height="60" fill="white"/>
</clipPath>
</defs>
</svg>
