<svg width="64" height="64" viewBox="0 0 64 64" fill="none" xmlns="http://www.w3.org/2000/svg">
<g clip-path="url(#clip0_1974_45335)">
<path d="M51 62.7509V52.1572C50.9998 50.6197 50.5272 49.1195 49.646 47.8596C48.7649 46.5997 47.5178 45.641 46.0737 45.1134L33.75 40.6134C33.028 40.3495 32.4045 39.87 31.964 39.24C31.5236 38.6099 31.2874 37.8597 31.2875 37.0909V33.4297H20.6488V37.0872C20.6488 37.8559 20.4127 38.6062 19.9722 39.2362C19.5317 39.8663 18.9083 40.3457 18.1863 40.6097L5.86375 45.1097C4.41906 45.6375 3.17159 46.5967 2.29039 47.8574C1.4092 49.118 0.936897 50.6191 0.937501 52.1572V62.7509C0.937501 63.0825 1.0692 63.4004 1.30362 63.6348C1.53804 63.8692 1.85598 64.0009 2.1875 64.0009H49.75C50.0815 64.0009 50.3995 63.8692 50.6339 63.6348C50.8683 63.4004 51 63.0825 51 62.7509Z" fill="#918291"/>
<path d="M33.7493 40.6097C33.0273 40.3457 32.4038 39.8663 31.9633 39.2362C31.5229 38.6062 31.2867 37.8559 31.2868 37.0872V33.4297H20.648V37.0872C20.6481 37.8559 20.412 38.6062 19.9715 39.2362C19.531 39.8663 18.9076 40.3457 18.1855 40.6097L25.9668 44.3384L33.7493 40.6097Z" fill="#FFCEBF"/>
<path d="M31.2845 37.0872V33.4297H20.6495V37.0872C20.6493 37.3209 20.6267 37.554 20.582 37.7834C20.7608 37.9797 20.9483 38.1697 21.147 38.3497L22.0933 39.2109C23.6458 40.6224 25.6688 41.4046 27.767 41.4047H29.5908C30.927 41.4042 32.244 41.0863 33.4333 40.4772C32.7907 40.1738 32.2476 39.694 31.8672 39.0939C31.4868 38.4937 31.2847 37.7978 31.2845 37.0872Z" fill="#FFB09E"/>
<path d="M36.471 17.4463V28.3601C36.471 29.535 36.2254 30.6969 35.7498 31.7713C35.2743 32.8457 34.5794 33.8088 33.7098 34.5988L32.7635 35.4601C31.211 36.8716 29.188 37.6537 27.0898 37.6538H25.266C23.1677 37.6537 21.1448 36.8716 19.5923 35.4601L18.646 34.5988C17.7764 33.8088 17.0815 32.8457 16.6059 31.7713C16.1304 30.6969 15.8848 29.535 15.8848 28.3601V16.6738L36.471 17.4463Z" fill="#FFCEBF"/>
<path d="M36.4719 18.6971C35.4329 19.2645 34.222 19.4315 33.0682 19.1663C31.9144 18.9012 30.8978 18.2224 30.2107 17.2583C29.6819 17.5346 22.7444 21.0308 17.0119 17.4771C15.3279 16.4185 13.9664 14.9182 13.0757 13.1396C11.2419 9.48334 11.2657 4.32209 13.9182 2.02209C14.2507 1.73334 15.6132 0.632089 16.8532 1.02209C18.2869 1.47084 18.0007 3.42084 19.1494 4.82084C21.8857 8.15334 29.0319 3.82084 33.3757 6.92209C34.5394 7.75334 35.9832 9.46334 36.4244 13.4433C36.4403 15.1942 36.4561 16.9454 36.4719 18.6971Z" fill="#554E56"/>
<path d="M16.7305 50.0595L13.9167 48.897C13.2917 48.637 13.0542 47.9269 13.4167 47.3895L16.7505 42.4707L19.1867 48.0132L16.7305 50.0595Z" fill="#685E68"/>
<path d="M25.8758 59.5705L19.1871 48.0117L14.0533 52.2905C13.8607 52.4431 13.7321 52.6622 13.6925 52.9047C13.653 53.1472 13.7054 53.3958 13.8396 53.6017L23.7946 63.0617L25.8758 59.5705Z" fill="#685E68"/>
<path d="M25.9675 44.3376L22.1637 47.6601C21.0762 48.6114 19.2888 48.2539 18.7288 46.9739L16.75 42.4739L17.9713 40.7989C18.1562 40.5451 18.43 40.3702 18.738 40.3091C19.0461 40.2479 19.3659 40.305 19.6338 40.4689L25.9675 44.3376Z" fill="#E8EDF2"/>
<path d="M35.205 50.0595L38.0175 48.897C38.6425 48.637 38.88 47.9269 38.5175 47.3895L35.1862 42.4707L32.75 48.0132L33.75 48.8457L35.205 50.0595Z" fill="#685E68"/>
<path d="M23.2363 63.9992L32.7501 48.0117L37.8888 52.293C38.0803 52.4455 38.2085 52.6636 38.2484 52.9051C38.2884 53.1467 38.2373 53.3944 38.1051 53.6005L27.3063 63.9992H23.2363Z" fill="#685E68"/>
<path d="M25.9668 44.3371L29.7718 47.6596C30.8593 48.6109 32.6468 48.2534 33.2055 46.9734L35.1855 42.4734L33.963 40.7984C33.7781 40.5449 33.5046 40.3703 33.1968 40.3091C32.8891 40.248 32.5696 40.3048 32.3018 40.4684L25.9668 44.3371Z" fill="#E8EDF2"/>
<path d="M33.2041 46.9736L32.7491 48.0123L25.8741 59.5711L19.1854 48.0123L18.7441 47.0123C19.3241 48.2623 21.0854 48.6048 22.1629 47.6623L25.9654 44.3398L29.7691 47.6623C30.8579 48.6111 32.6416 48.2498 33.2041 46.9736Z" fill="white"/>
<path d="M53.7506 63.0623C55.9039 63.0623 57.9907 62.3158 59.6553 60.9497C61.3199 59.5837 62.4593 57.6828 62.8795 55.5708C63.2996 53.4589 62.9745 51.2666 61.9595 49.3675C60.9445 47.4684 59.3023 45.98 57.3129 45.1559C55.3235 44.3318 53.1099 44.2229 51.0493 44.848C48.9886 45.473 47.2085 46.7932 46.0121 48.5836C44.8157 50.374 44.2772 52.5239 44.4882 54.6668C44.6992 56.8098 45.6467 58.8133 47.1693 60.336C48.0317 61.2029 49.0573 61.8901 50.187 62.3581C51.3166 62.826 52.5279 63.0654 53.7506 63.0623Z" fill="#FEDF30"/>
<path d="M60.3367 47.1742C59.9175 46.7544 59.4592 46.3756 58.968 46.043C60.1786 47.8343 60.728 49.9912 60.5218 52.1434C60.3155 54.2956 59.3666 56.3089 57.8377 57.8377C56.3089 59.3666 54.2956 60.3155 52.1434 60.5218C49.9912 60.728 47.8343 60.1786 46.043 58.968C46.7697 60.0419 47.7128 60.9521 48.8118 61.6403C49.9108 62.3284 51.1414 62.7794 52.4249 62.9642C53.7083 63.149 55.0162 63.0636 56.2647 62.7135C57.5132 62.3633 58.6748 61.7562 59.675 60.9309C60.6751 60.1057 61.4919 59.0806 62.0727 57.9213C62.6536 56.762 62.9859 55.4941 63.0482 54.1989C63.1105 52.9037 62.9015 51.6098 62.4345 50.4001C61.9676 49.1904 61.2531 48.0917 60.3367 47.1742Z" fill="#FED402"/>
<path d="M9.44625 57.9694C9.19761 57.9694 8.95915 58.0681 8.78334 58.2439C8.60752 58.4198 8.50875 58.6582 8.50875 58.9069V63.0619C8.50875 63.3105 8.60752 63.549 8.78334 63.7248C8.95915 63.9006 9.19761 63.9994 9.44625 63.9994C9.69489 63.9994 9.93335 63.9006 10.1092 63.7248C10.285 63.549 10.3837 63.3105 10.3837 63.0619V58.9069C10.3837 58.6582 10.285 58.4198 10.1092 58.2439C9.93335 58.0681 9.69489 57.9694 9.44625 57.9694ZM42.4875 57.9694C42.2389 57.9694 42.0004 58.0681 41.8246 58.2439C41.6488 58.4198 41.55 58.6582 41.55 58.9069V63.0619C41.55 63.3105 41.6488 63.549 41.8246 63.7248C42.0004 63.9006 42.2389 63.9994 42.4875 63.9994C42.7361 63.9994 42.9746 63.9006 43.1504 63.7248C43.3262 63.549 43.425 63.3105 43.425 63.0619V58.9069C43.425 58.6582 43.3262 58.4198 43.1504 58.2439C42.9746 58.0681 42.7361 57.9694 42.4875 57.9694ZM48.9575 41.4169C49.0122 41.5272 49.0882 41.6256 49.181 41.7066C49.2738 41.7875 49.3816 41.8494 49.4983 41.8887C49.615 41.928 49.7383 41.9439 49.8612 41.9356C49.9841 41.9272 50.1041 41.8947 50.2144 41.84C50.3247 41.7852 50.4231 41.7093 50.5041 41.6165C50.5851 41.5237 50.647 41.4159 50.6862 41.2992C50.7255 41.1825 50.7415 41.0592 50.7331 40.9363C50.7247 40.8134 50.6922 40.6934 50.6375 40.5831L49.8675 39.0306C49.7569 38.8078 49.5624 38.6381 49.3267 38.5587C49.091 38.4794 48.8334 38.4969 48.6106 38.6075C48.3878 38.718 48.2181 38.9126 48.1388 39.1483C48.0594 39.384 48.0769 39.6416 48.1875 39.8644L48.9575 41.4169ZM57.2962 41.8406C57.519 41.951 57.7765 41.9684 58.0121 41.8889C58.2477 41.8094 58.4421 41.6396 58.5525 41.4169L59.3225 39.8644C59.4331 39.6416 59.4506 39.384 59.3712 39.1483C59.2919 38.9126 59.1222 38.718 58.8994 38.6075C58.6766 38.4969 58.419 38.4794 58.1833 38.5587C57.9476 38.6381 57.7531 38.8078 57.6425 39.0306L56.875 40.5831C56.7644 40.8058 56.7466 41.0632 56.8256 41.299C56.9046 41.5347 57.0738 41.7295 57.2962 41.8406ZM53.75 41.3031C53.9986 41.3031 54.2371 41.2043 54.4129 41.0285C54.5887 40.8527 54.6875 40.6143 54.6875 40.3656V36.5844C54.6875 36.3357 54.5887 36.0973 54.4129 35.9215C54.2371 35.7456 53.9986 35.6469 53.75 35.6469C53.5014 35.6469 53.2629 35.7456 53.0871 35.9215C52.9113 36.0973 52.8125 36.3357 52.8125 36.5844V40.3656C52.8125 40.6143 52.9113 40.8527 53.0871 41.0285C53.2629 41.2043 53.5014 41.3031 53.75 41.3031ZM21.8288 29.8744C21.7416 29.9614 21.6725 30.0648 21.6254 30.1786C21.5782 30.2924 21.5539 30.4143 21.5539 30.5375C21.5539 30.6607 21.5782 30.7826 21.6254 30.8964C21.6725 31.0102 21.7416 31.1136 21.8288 31.2006L21.8512 31.2231C22.2935 31.6677 22.8194 32.0201 23.3988 32.2599C23.9781 32.4998 24.5992 32.6224 25.2262 32.6206H27.155C27.782 32.6224 28.4032 32.4998 28.9825 32.2599C29.5618 32.0201 30.0878 31.6677 30.53 31.2231C30.6171 31.136 30.6862 31.0326 30.7333 30.9189C30.7804 30.8051 30.8047 30.6831 30.8047 30.56C30.8047 30.4368 30.7804 30.3149 30.7333 30.2011C30.6862 30.0873 30.6171 29.9839 30.53 29.8969C30.4429 29.8098 30.3395 29.7407 30.2258 29.6936C30.112 29.6464 29.99 29.6222 29.8669 29.6222C29.7437 29.6222 29.6218 29.6464 29.508 29.6936C29.3942 29.7407 29.2908 29.8098 29.2038 29.8969C28.9356 30.1668 28.6165 30.3808 28.2651 30.5265C27.9136 30.6722 27.5367 30.7467 27.1562 30.7456H25.225C24.8445 30.7467 24.4676 30.6722 24.1162 30.5265C23.7647 30.3808 23.4456 30.1668 23.1775 29.8969L23.155 29.8744C23.0679 29.7872 22.9646 29.7181 22.8508 29.671C22.737 29.6238 22.615 29.5996 22.4919 29.5996C22.3687 29.5996 22.2468 29.6238 22.133 29.671C22.0192 29.7181 21.9158 29.7872 21.8288 29.8744ZM30.3612 23.7494C30.5467 23.7494 30.7279 23.6944 30.8821 23.5914C31.0363 23.4884 31.1564 23.3419 31.2274 23.1706C31.2983 22.9993 31.3169 22.8108 31.2807 22.629C31.2446 22.4471 31.1553 22.2801 31.0242 22.149C30.8931 22.0178 30.726 21.9286 30.5441 21.8924C30.3623 21.8562 30.1738 21.8748 30.0025 21.9457C29.8312 22.0167 29.6848 22.1368 29.5817 22.291C29.4787 22.4452 29.4237 22.6264 29.4237 22.8119C29.4267 23.0585 29.5268 23.2941 29.7023 23.4675C29.8778 23.6409 30.1145 23.7381 30.3612 23.7381V23.7494ZM58.125 48.8044C58.125 48.5557 58.0262 48.3173 57.8504 48.1414C57.6746 47.9656 57.4361 47.8669 57.1875 47.8669H50.3325C50.0839 47.8669 49.8454 47.9656 49.6696 48.1414C49.4938 48.3173 49.395 48.5557 49.395 48.8044C49.395 49.053 49.4938 49.2915 49.6696 49.4673C49.8454 49.6431 50.0839 49.7419 50.3325 49.7419H52.6975C53.041 49.7426 53.3783 49.8339 53.6752 50.0066C53.9722 50.1793 54.2183 50.4273 54.3887 50.7256H50.3325C50.0839 50.7256 49.8454 50.8244 49.6696 51.0002C49.4938 51.176 49.395 51.4145 49.395 51.6631C49.395 51.9118 49.4938 52.1502 49.6696 52.326C49.8454 52.5018 50.0839 52.6006 50.3325 52.6006H54.44C54.2779 52.924 54.0291 53.196 53.7214 53.3863C53.4137 53.5765 53.0593 53.6776 52.6975 53.6781H50.3862C50.1924 53.658 49.9972 53.6988 49.8276 53.7947C49.658 53.8907 49.5226 54.0372 49.4401 54.2137C49.3576 54.3902 49.3321 54.5881 49.3673 54.7798C49.4025 54.9714 49.4965 55.1474 49.6362 55.2831L54.8363 60.3344C55.0151 60.5049 55.2541 60.5978 55.5012 60.593C55.7482 60.5883 55.9834 60.4861 56.1556 60.3089C56.3277 60.1316 56.423 59.8935 56.4205 59.6464C56.4181 59.3993 56.3181 59.1632 56.1425 58.9894L52.6063 55.5531H52.695C53.5576 55.551 54.3944 55.2586 55.0705 54.723C55.7467 54.1874 56.2229 53.4398 56.4225 52.6006H57.19C57.4386 52.6006 57.6771 52.5018 57.8529 52.326C58.0287 52.1502 58.1275 51.9118 58.1275 51.6631C58.1275 51.4145 58.0287 51.176 57.8529 51.0002C57.6771 50.8244 57.4386 50.7256 57.19 50.7256H56.3988C56.3075 50.38 56.1682 50.0488 55.985 49.7419H57.19C57.4382 49.7412 57.676 49.6421 57.8513 49.4664C58.0266 49.2906 58.125 49.0526 58.125 48.8044ZM61 46.5094C59.3427 44.8531 57.1679 43.8146 54.8379 43.5669C52.508 43.3192 50.1635 43.8773 48.195 45.1481C47.6331 44.7715 47.0279 44.4639 46.3925 44.2319L34.3063 39.8144C34.0538 39.618 33.7616 39.479 33.45 39.4069C33.0725 39.1485 32.7636 38.8021 32.5497 38.3978C32.3359 37.9934 32.2236 37.5431 32.2225 37.0856V37.0594C32.6364 36.7884 33.0284 36.4854 33.395 36.1531L34.3425 35.2919C35.3076 34.413 36.0789 33.3426 36.607 32.149C37.1352 30.9553 37.4087 29.6647 37.41 28.3594V18.6956L37.3625 13.4456C37.3622 13.4139 37.3602 13.3821 37.3563 13.3506C36.9813 9.94687 35.8237 7.53061 33.9225 6.17061C31.4688 4.42061 28.3475 4.74311 25.595 5.03061C23.095 5.29311 20.9275 5.51937 19.875 4.23687C19.5 3.78062 19.3125 3.21936 19.115 2.62436C18.8037 1.68311 18.4187 0.526865 17.1325 0.124365C15.5075 -0.386885 13.9113 0.784365 13.3025 1.31186C11.875 2.55561 11.0075 4.58311 10.875 7.02061C10.7703 9.27942 11.2376 11.5281 12.2338 13.5581C12.9106 14.895 13.8299 16.0946 14.945 17.0956V28.3594C14.9463 29.6647 15.2198 30.9553 15.748 32.149C16.2761 33.3426 17.0474 34.413 18.0125 35.2919L18.96 36.1531C19.199 36.37 19.4494 36.574 19.71 36.7644V37.0856C19.7088 37.5433 19.5963 37.9939 19.3822 38.3985C19.1682 38.8031 18.859 39.1496 18.4813 39.4081C18.1714 39.4796 17.8809 39.6178 17.63 39.8131L5.5425 44.2319C3.92 44.8285 2.51912 45.9077 1.52826 47.3243C0.537391 48.7409 0.00406361 50.4269 0 52.1556L0 63.0619C0 63.3105 0.098772 63.549 0.274587 63.7248C0.450403 63.9006 0.68886 63.9994 0.9375 63.9994C1.18614 63.9994 1.4246 63.9006 1.60041 63.7248C1.77623 63.549 1.875 63.3105 1.875 63.0619V52.1556C1.8784 50.8111 2.2932 49.4999 3.06366 48.398C3.83412 47.2962 4.92335 46.4565 6.185 45.9919L15.5487 42.5706L12.6425 46.8631C12.4824 47.0982 12.3768 47.3662 12.3336 47.6473C12.2903 47.9285 12.3104 48.2157 12.3925 48.4881C12.4798 48.7741 12.6301 49.0369 12.8324 49.2571C13.0346 49.4773 13.2837 49.6494 13.5612 49.7606L14.9362 50.3306L13.45 51.5681C13.0801 51.867 12.8344 52.2927 12.7607 52.7625C12.687 53.2324 12.7906 53.7128 13.0513 54.1106C13.0913 54.1728 13.1388 54.2298 13.1925 54.2806L23.1475 63.7406C23.1604 63.7533 23.1742 63.765 23.1887 63.7756L23.22 63.8031L23.2537 63.8256L23.3 63.8569L23.3088 63.8631L23.3213 63.8694C23.35 63.8856 23.38 63.9006 23.41 63.9144L23.4312 63.9231C23.4658 63.938 23.5013 63.9505 23.5375 63.9606H23.5613C23.5888 63.9681 23.6175 63.9731 23.645 63.9781H23.68C23.7125 63.9781 23.7463 63.9781 23.7787 63.9844H23.7925C23.8268 63.9842 23.861 63.9821 23.895 63.9781H23.9275L24.0063 63.9631L24.0375 63.9544C24.0659 63.9469 24.0939 63.9377 24.1213 63.9269C24.1281 63.9249 24.1348 63.9224 24.1413 63.9194C24.1756 63.9058 24.209 63.89 24.2412 63.8719C24.2471 63.8693 24.2526 63.8659 24.2575 63.8619C24.2837 63.848 24.3087 63.8321 24.3325 63.8144L24.3662 63.7881L24.4175 63.7444C24.4298 63.7342 24.4414 63.7233 24.4525 63.7119L24.4675 63.6981L24.505 63.6544C24.505 63.6456 24.5187 63.6381 24.525 63.6306C24.5487 63.5994 24.57 63.5681 24.59 63.5356L26.66 60.0569L32.9813 49.4319L37.275 53.0094C37.289 53.0198 37.3002 53.0335 37.3075 53.0494L27.6 62.3819C27.4206 62.5543 27.3171 62.7908 27.3122 63.0396C27.3073 63.2883 27.4014 63.5288 27.5737 63.7081C27.7461 63.8875 27.9827 63.991 28.2314 63.9959C28.4802 64.0008 28.7206 63.9068 28.9 63.7344L38.75 54.2756C38.8026 54.2249 38.8491 54.1683 38.8887 54.1069C39.1462 53.7091 39.2473 53.2301 39.1725 52.7623C39.0977 52.2944 38.8524 51.8708 38.4837 51.5731L37 50.3319L38.375 49.7619C38.6525 49.6506 38.9016 49.4785 39.1039 49.2583C39.3061 49.0381 39.4565 48.7753 39.5438 48.4894C39.6258 48.217 39.6459 47.9297 39.6027 47.6486C39.5594 47.3674 39.4539 47.0995 39.2938 46.8644L36.3875 42.5719L45.75 45.9919C46.0543 46.1041 46.3501 46.2382 46.635 46.3931C46.595 46.4331 46.5525 46.4694 46.51 46.5094C45.0755 47.9425 44.0983 49.7688 43.702 51.7574C43.3058 53.746 43.5082 55.8074 44.2837 57.6809C45.0592 59.5544 46.3729 61.1558 48.0588 62.2826C49.7446 63.4093 51.7267 64.0107 53.7544 64.0107C55.7821 64.0107 57.7642 63.4093 59.45 62.2826C61.1358 61.1558 62.4496 59.5544 63.2251 57.6809C64.0006 55.8074 64.203 53.746 63.8067 51.7574C63.4104 49.7688 62.4332 47.9425 60.9987 46.5094H61ZM13.9125 12.7181C12.3175 9.53687 12.185 4.76436 14.5375 2.72811C15.1513 2.19686 16.02 1.73811 16.5788 1.91311C16.9163 2.01936 17.0625 2.36936 17.3412 3.20311C17.5612 3.86561 17.835 4.68812 18.43 5.41312C20.125 7.47562 23 7.17437 25.7887 6.88187C28.3288 6.61561 30.9563 6.34061 32.83 7.68186C34.2725 8.71311 35.1663 10.6694 35.4863 13.4969L35.5275 18.0956C34.7911 18.3724 33.9886 18.422 33.2238 18.2381C32.3186 18.0077 31.5225 17.4677 30.9737 16.7119C30.8871 16.5904 30.7727 16.4915 30.6401 16.4232C30.5075 16.3549 30.3604 16.3193 30.2113 16.3194C30.0602 16.3189 29.9113 16.3554 29.7775 16.4256C28.3906 17.1111 26.9153 17.6007 25.3937 17.8806C22.3512 18.4419 19.6987 18.0369 17.5063 16.6794C15.9714 15.7092 14.7292 14.3399 13.9125 12.7181ZM19.2763 33.9056C18.5043 33.2024 17.8874 32.346 17.4649 31.3911C17.0424 30.4361 16.8237 29.4036 16.8225 28.3594V18.4506C19.3325 19.8956 22.4025 20.3381 25.7325 19.7244C27.1875 19.453 28.6062 19.0139 29.96 18.4156C30.7239 19.2208 31.7018 19.791 32.7788 20.0594C33.2205 20.168 33.6738 20.2229 34.1287 20.2231C34.6024 20.222 35.0741 20.1637 35.5337 20.0494V28.3594C35.5326 29.4036 35.3138 30.4361 34.8913 31.3911C34.4688 32.346 33.8519 33.2024 33.08 33.9056L32.1325 34.7656C30.7536 36.0217 28.9552 36.7172 27.09 36.7156H25.2663C23.4011 36.7172 21.6026 36.0217 20.2237 34.7656L19.2763 33.9056ZM31.3337 39.9569L25.9675 43.2381L20.6 39.9569C21.0846 39.3316 21.404 38.5943 21.5287 37.8131C22.7079 38.3265 23.9802 38.5911 25.2663 38.5906H27.09C28.2324 38.5908 29.3653 38.382 30.4325 37.9744C30.5731 38.6968 30.8819 39.3759 31.3337 39.9569ZM18.6712 41.4256C18.8112 41.3681 18.9462 41.3006 19.0775 41.2356C19.1012 41.2421 19.1239 41.2517 19.145 41.2644L24.395 44.4706L21.5525 46.9544C21.3966 47.0863 21.2118 47.1797 21.0131 47.227C20.8144 47.2743 20.6074 47.2743 20.4088 47.2269C20.2324 47.1939 20.0664 47.1195 19.9245 47.0097C19.7825 46.9 19.6687 46.758 19.5925 46.5956L17.83 42.5856L18.6712 41.4256ZM14.275 48.0294C14.2552 48.0236 14.2368 48.0136 14.2213 48C14.2057 47.9864 14.1933 47.9695 14.185 47.9506C14.185 47.9419 14.185 47.9344 14.195 47.9144L16.57 44.3994L17.875 47.3506C17.9315 47.4803 17.9975 47.6057 18.0725 47.7256L16.5725 48.9756L14.275 48.0294ZM23.5888 61.5731L14.625 53.0506C14.6319 53.0345 14.6431 53.0206 14.6575 53.0106L18.9375 49.4444L24.7887 59.5694L23.5888 61.5731ZM25.8825 57.7181L20.9137 49.1244C21.6027 49.0825 22.2588 48.8155 22.7812 48.3644L25.9675 45.5819L29.1537 48.3644C29.6704 48.8113 30.3184 49.0781 31 49.1244L25.8825 57.7181ZM32.3475 46.5931C32.2717 46.7558 32.158 46.898 32.016 47.0078C31.874 47.1177 31.7078 47.1919 31.5312 47.2244C31.3326 47.2715 31.1256 47.2714 30.927 47.2241C30.7284 47.1768 30.5436 47.0835 30.3875 46.9519L27.545 44.4681L32.795 41.2619C32.8156 41.25 32.8374 41.2403 32.86 41.2331C32.9925 41.3031 33.1287 41.3669 33.2687 41.4244L34.115 42.5831L32.3475 46.5931ZM37.74 47.9119C37.7445 47.9166 37.7478 47.9224 37.7495 47.9287C37.7513 47.9351 37.7514 47.9417 37.75 47.9481C37.7417 47.967 37.7293 47.9839 37.7137 47.9975C37.6982 48.0111 37.6798 48.0211 37.66 48.0269L35.375 48.9756L33.875 47.7256C33.9504 47.6057 34.0168 47.4803 34.0737 47.3506L35.37 44.3994L37.74 47.9119ZM59.6738 59.6706C58.087 61.1553 55.9853 61.9651 53.8126 61.929C51.6399 61.8929 49.5663 61.0137 48.0297 59.4771C46.4932 57.9406 45.614 55.867 45.5779 53.6943C45.5418 51.5215 46.3516 49.4199 47.8363 47.8331C48.0896 47.5811 48.3584 47.3453 48.6413 47.1269C48.7213 47.083 48.7945 47.0279 48.8587 46.9631C50.5663 45.7489 52.6669 45.2188 54.7461 45.4775C56.8253 45.7362 58.732 46.7648 60.09 48.3604C61.448 49.956 62.1585 52.0027 62.0815 54.0965C62.0044 56.1903 61.1453 58.1792 59.6738 59.6706ZM22 23.7381C22.1854 23.7381 22.3667 23.6831 22.5208 23.5801C22.675 23.4771 22.7952 23.3307 22.8661 23.1594C22.9371 22.9881 22.9557 22.7996 22.9195 22.6177C22.8833 22.4359 22.794 22.2688 22.6629 22.1377C22.5318 22.0066 22.3648 21.9173 22.1829 21.8811C22.001 21.845 21.8125 21.8635 21.6412 21.9345C21.4699 22.0054 21.3235 22.1256 21.2205 22.2798C21.1175 22.4339 21.0625 22.6152 21.0625 22.8006C21.0625 23.0493 21.1613 23.2877 21.3371 23.4635C21.5129 23.6393 21.7514 23.7381 22 23.7381Z" fill="black"/>
</g>
<defs>
<clipPath id="clip0_1974_45335">
<rect width="64" height="64" fill="white"/>
</clipPath>
</defs>
</svg>
