<svg width="64" height="64" viewBox="0 0 64 64" fill="none" xmlns="http://www.w3.org/2000/svg">
<path d="M31 49L27 46V52L31 49Z" fill="#F71735"/>
<path d="M37 14L41 11V17L37 14Z" fill="#F71735"/>
<path d="M33 7H3V27H33V7Z" fill="#4F5D75"/>
<path d="M21 13H15V19H21V13Z" fill="#FF9F1C"/>
<path d="M31 61H61V58.469C61.0001 57.2255 60.7553 55.9941 60.2795 54.8452C59.8037 53.6963 59.1062 52.6524 58.2269 51.7731C57.3476 50.8938 56.3037 50.1963 55.1548 49.7205C54.0059 49.2447 52.7745 48.9999 51.531 49L46 56L40.469 49C39.2255 48.9999 37.9941 49.2447 36.8452 49.7205C35.6963 50.1963 34.6524 50.8938 33.7731 51.7731C32.8938 52.6524 32.1963 53.6963 31.7205 54.8452C31.2447 55.9941 30.9999 57.2255 31 58.469V61Z" fill="#1B98E0"/>
<path d="M54 61H52V56C52 55.7348 52.1054 55.4804 52.2929 55.2929C52.4804 55.1054 52.7348 55 53 55C53.2652 55 53.5196 55.1054 53.7071 55.2929C53.8946 55.4804 54 55.7348 54 56V61ZM40 61H38V56C38 55.7348 38.1054 55.4804 38.2929 55.2929C38.4804 55.1054 38.7348 55 39 55C39.2652 55 39.5196 55.1054 39.7071 55.2929C39.8946 55.4804 40 55.7348 40 56V61Z" fill="black"/>
<path d="M56.95 38H57V34.22C57 32.0399 56.134 29.9491 54.5924 28.4076C53.0509 26.866 50.9601 26 48.78 26H43.22C41.0399 26 38.9491 26.866 37.4076 28.4076C35.866 29.9491 35 32.0399 35 34.22V38H56.95Z" fill="#2D3142"/>
<path d="M55 36.531C55 35.7884 54.705 35.0762 54.1799 34.5511C53.6548 34.026 52.9426 33.731 52.2 33.731H51L43 30L44 33.732H39.8C39.0574 33.732 38.3452 34.027 37.8201 34.5521C37.295 35.0772 37 35.7894 37 36.532C36.4871 36.5147 35.9884 36.7018 35.6134 37.0521C35.2384 37.4023 35.0177 37.8872 35 38.4C35.0185 38.9124 35.2394 39.3966 35.6143 39.7464C35.9892 40.0961 36.4875 40.283 37 40.266V44.131C37.0143 44.9441 37.27 45.7347 37.7348 46.4021C38.1995 47.0695 38.8523 47.5836 39.61 47.879L43.563 49.518C44.3355 49.8384 45.1637 50.0033 46 50.0033C46.8363 50.0033 47.6645 49.8384 48.437 49.518L52.39 47.879C53.1482 47.5834 53.8012 47.0688 54.266 46.4008C54.7308 45.7329 54.9863 44.9417 55 44.128V40.263C55.512 40.28 56.0098 40.0936 56.3846 39.7444C56.7595 39.3953 56.9807 38.9119 57 38.4C56.9825 37.887 56.762 37.4019 56.387 37.0514C56.0119 36.7009 55.513 36.5137 55 36.531Z" fill="#FEC3A6"/>
<path d="M20 48H18V50H20V48Z" fill="black"/>
<path d="M24 48H22V50H24V48Z" fill="black"/>
<path d="M16 48H14V50H16V48Z" fill="black"/>
<path d="M16 40H14V42H16V40Z" fill="black"/>
<path d="M16 36H14V38H16V36Z" fill="black"/>
<path d="M16 32H14V34H16V32Z" fill="black"/>
<path d="M16 44H14V46H16V44Z" fill="black"/>
<path d="M50 13H48V15H50V13Z" fill="black"/>
<path d="M46 13H44V15H46V13Z" fill="black"/>
<path d="M50 17H48V19H50V17Z" fill="black"/>
<path d="M50 21H48V23H50V21Z" fill="black"/>
<path d="M32 49C32 48.8448 31.9639 48.6916 31.8944 48.5528C31.825 48.4139 31.7242 48.2931 31.6 48.2L27.6 45.2C27.4514 45.0886 27.2748 45.0207 27.0898 45.004C26.9048 44.9874 26.7189 45.0225 26.5528 45.1056C26.3867 45.1886 26.247 45.3163 26.1493 45.4743C26.0517 45.6322 26 45.8143 26 46V52C26 52.1857 26.0517 52.3678 26.1493 52.5257C26.247 52.6837 26.3867 52.8114 26.5528 52.8944C26.7189 52.9775 26.9048 53.0126 27.0898 52.996C27.2748 52.9793 27.4514 52.9114 27.6 52.8L31.6 49.8C31.7242 49.7069 31.825 49.5861 31.8944 49.4472C31.9639 49.3084 32 49.1552 32 49ZM28 50V48L29.333 49L28 50ZM36 14C36 14.1552 36.0361 14.3084 36.1056 14.4472C36.175 14.5861 36.2758 14.7069 36.4 14.8L40.4 17.8C40.5731 17.9298 40.7836 18 41 18C41.2652 18 41.5196 17.8946 41.7071 17.7071C41.8946 17.5196 42 17.2652 42 17V11C42 10.8143 41.9483 10.6322 41.8507 10.4743C41.753 10.3163 41.6133 10.1886 41.4472 10.1056C41.2811 10.0225 41.0952 9.98736 40.9102 10.004C40.7252 10.0207 40.5486 10.0886 40.4 10.2L36.4 13.2C36.2758 13.2931 36.175 13.4139 36.1056 13.5528C36.0361 13.6916 36 13.8448 36 14ZM40 13V15L38.667 14L40 13ZM34 27V7C34 6.73478 33.8946 6.48043 33.7071 6.29289C33.5196 6.10536 33.2652 6 33 6H24V3C24 2.73478 23.8946 2.48043 23.7071 2.29289C23.5196 2.10536 23.2652 2 23 2H13C12.7348 2 12.4804 2.10536 12.2929 2.29289C12.1054 2.48043 12 2.73478 12 3V6H3C2.73478 6 2.48043 6.10536 2.29289 6.29289C2.10536 6.48043 2 6.73478 2 7V27C2 27.2652 2.10536 27.5196 2.29289 27.7071C2.48043 27.8946 2.73478 28 3 28H33C33.2652 28 33.5196 27.8946 33.7071 27.7071C33.8946 27.5196 34 27.2652 34 27ZM21 12H15C14.7348 12 14.4804 12.1054 14.2929 12.2929C14.1054 12.4804 14 12.7348 14 13V13.5C10.5139 12.6562 7.3842 10.731 5.059 8H30.941C28.6158 10.731 25.4861 12.6562 22 13.5V13C22 12.7348 21.8946 12.4804 21.7071 12.2929C21.5196 12.1054 21.2652 12 21 12ZM20 14V18H16V14H20ZM14 4H22V6H14V4ZM4 26V9.8C6.65675 12.7053 10.1516 14.712 14 15.542V19C14 19.2652 14.1054 19.5196 14.2929 19.7071C14.4804 19.8946 14.7348 20 15 20H21C21.2652 20 21.5196 19.8946 21.7071 19.7071C21.8946 19.5196 22 19.2652 22 19V15.542C25.8483 14.7117 29.343 12.705 32 9.8V26H4Z" fill="black"/>
<path d="M29 18H27V24H29V18Z" fill="black"/>
<path d="M9 18H7V24H9V18Z" fill="black"/>
<path d="M53.766 48.246C54.4456 47.7934 55.0043 47.1817 55.3937 46.464C55.783 45.7463 55.9911 44.9444 56 44.128V41.1C56.5738 40.9156 57.0754 40.5559 57.4342 40.0716C57.7929 39.5873 57.9908 39.0027 58 38.4C57.997 38.307 57.989 38.2142 57.976 38.122C57.9868 38.0819 57.9948 38.0412 58 38V34.22C57.9974 31.7755 57.0251 29.4319 55.2966 27.7034C53.5681 25.9749 51.2245 25.0026 48.78 25H43.22C40.7755 25.0026 38.4319 25.9749 36.7034 27.7034C34.9749 29.4319 34.0026 31.7755 34 34.22V38C34.0058 38.0375 34.0142 38.0746 34.025 38.111C34.0115 38.2068 34.0031 38.3033 34 38.4C34.0092 39.0027 34.2071 39.5873 34.5658 40.0716C34.9246 40.5559 35.4262 40.9156 36 41.1V44.129C36.0089 44.9454 36.217 45.7473 36.6063 46.465C36.9957 47.1827 37.5544 47.7944 38.234 48.247C35.9029 48.759 33.8163 50.0512 32.3192 51.9098C30.822 53.7685 30.0039 56.0824 30 58.469V61C30 61.2652 30.1054 61.5196 30.2929 61.7071C30.4804 61.8946 30.7348 62 31 62H61C61.2652 62 61.5196 61.8946 61.7071 61.7071C61.8946 61.5196 62 61.2652 62 61V58.469C61.9964 56.0822 61.1784 53.7681 59.6812 51.9092C58.184 50.0503 56.0972 48.7581 53.766 48.246ZM43.22 27H48.78C50.6943 27.0019 52.5297 27.7631 53.8833 29.1167C55.2369 30.4703 55.9981 32.3057 56 34.22V35.7C55.966 35.688 55.935 35.671 55.9 35.661C55.7042 34.8267 55.2322 34.083 54.5605 33.5507C53.8889 33.0185 53.057 32.7289 52.2 32.729H51.221L43.421 29.092C43.2485 29.0114 43.0565 28.9818 42.8677 29.0066C42.679 29.0314 42.5012 29.1095 42.3553 29.2319C42.2094 29.3543 42.1015 29.5157 42.0442 29.6973C41.9869 29.8789 41.9827 30.0731 42.032 30.257L42.694 32.729H39.8C38.9433 32.73 38.1119 33.0199 37.4405 33.552C36.769 34.0841 36.2967 34.8272 36.1 35.661C36.065 35.671 36.034 35.688 36 35.7V34.22C36.0019 32.3057 36.7631 30.4703 38.1167 29.1167C39.4703 27.7631 41.3057 27.0019 43.22 27ZM37 39.263C36.876 39.2804 36.7498 39.271 36.6297 39.2354C36.5097 39.1999 36.3987 39.139 36.3042 39.0568C36.2098 38.9747 36.134 38.8732 36.0821 38.7593C36.0302 38.6454 36.0033 38.5217 36.0033 38.3965C36.0033 38.2713 36.0302 38.1476 36.0821 38.0337C36.134 37.9198 36.2098 37.8183 36.3042 37.7362C36.3987 37.654 36.5097 37.5931 36.6297 37.5576C36.7498 37.522 36.876 37.5126 37 37.53C37.2652 37.53 37.5196 37.4246 37.7071 37.2371C37.8946 37.0496 38 36.7952 38 36.53C38 36.0526 38.1896 35.5948 38.5272 35.2572C38.8648 34.9196 39.3226 34.73 39.8 34.73H44C44.1533 34.73 44.3046 34.6947 44.4421 34.6269C44.5796 34.5591 44.6996 34.4606 44.793 34.339C44.8864 34.2174 44.9505 34.076 44.9805 33.9257C45.0105 33.7753 45.0056 33.6201 44.966 33.472L44.521 31.812L50.577 34.637C50.7097 34.6981 50.8539 34.7298 51 34.73H52.2C52.6774 34.73 53.1352 34.9196 53.4728 35.2572C53.8104 35.5948 54 36.0526 54 36.53C54 36.7952 54.1054 37.0496 54.2929 37.2371C54.4804 37.4246 54.7348 37.53 55 37.53C55.1242 37.512 55.2508 37.521 55.3712 37.5563C55.4916 37.5916 55.6031 37.6524 55.6979 37.7345C55.7928 37.8166 55.8689 37.9182 55.921 38.0324C55.9732 38.1465 56.0002 38.2705 56.0002 38.396C56.0002 38.5215 55.9732 38.6455 55.921 38.7596C55.8689 38.8738 55.7928 38.9754 55.6979 39.0575C55.6031 39.1396 55.4916 39.2004 55.3712 39.2357C55.2508 39.271 55.1242 39.28 55 39.262C54.7348 39.262 54.4804 39.3674 54.2929 39.5549C54.1054 39.7424 54 39.9968 54 40.262V44.127C53.9849 44.7422 53.7874 45.3391 53.4326 45.8418C53.0778 46.3446 52.5816 46.7307 52.007 46.951L48.053 48.59C46.7376 49.132 45.2614 49.132 43.946 48.59L39.993 46.951C39.4186 46.7307 38.9225 46.3448 38.5677 45.8423C38.2128 45.3397 38.0153 44.743 38 44.128V40.263C38 39.9978 37.8946 39.7434 37.7071 39.5559C37.5196 39.3684 37.2652 39.263 37 39.263ZM49.267 50.253L46 54.387L42.734 50.254L43.18 50.438C44.986 51.1822 47.013 51.1822 48.819 50.438L49.267 50.253ZM60 60H32V58.469C32.0026 56.3057 32.8319 54.2251 34.3181 52.6532C35.8044 51.0812 37.8352 50.1367 39.995 50.013L45.216 56.62C45.3129 56.7332 45.4331 56.824 45.5685 56.8863C45.7038 56.9486 45.851 56.9809 46 56.9809C46.149 56.9809 46.2962 56.9486 46.4315 56.8863C46.5669 56.824 46.6871 56.7332 46.784 56.62L52.005 50.013C54.1648 50.1367 56.1956 51.0812 57.6819 52.6532C59.1681 54.2251 59.9974 56.3057 60 58.469V60Z" fill="black"/>
<path d="M42 38C42.2652 38 42.5196 38.1054 42.7071 38.2929C42.8946 38.4804 43 38.7348 43 39H45C45 38.2044 44.6839 37.4413 44.1213 36.8787C43.5587 36.3161 42.7956 36 42 36C41.2044 36 40.4413 36.3161 39.8787 36.8787C39.3161 37.4413 39 38.2044 39 39H41C41 38.7348 41.1054 38.4804 41.2929 38.2929C41.4804 38.1054 41.7348 38 42 38ZM50 38C50.2652 38 50.5196 38.1054 50.7071 38.2929C50.8946 38.4804 51 38.7348 51 39H53C53 38.2044 52.6839 37.4413 52.1213 36.8787C51.5587 36.3161 50.7956 36 50 36C49.2044 36 48.4413 36.3161 47.8787 36.8787C47.3161 37.4413 47 38.2044 47 39H49C49 38.7348 49.1054 38.4804 49.2929 38.2929C49.4804 38.1054 49.7348 38 50 38ZM44 43H42C42 44.683 43.757 46 46 46C48.243 46 50 44.683 50 43H48C48 43.408 47.221 44 46 44C44.779 44 44 43.408 44 43Z" fill="black"/>
</svg>
