<svg width="64" height="64" viewBox="0 0 64 64" fill="none" xmlns="http://www.w3.org/2000/svg">
<path d="M37.4494 7.15348L12.1206 7.08985C10.6414 7.08623 9.43948 8.2826 9.4361 9.76173L9.32423 59.6621C9.32085 61.141 10.517 62.3425 11.9959 62.346L46.381 62.4299C47.8601 62.4334 49.062 61.2371 49.0652 59.758L49.157 18.8546L37.4494 7.15348Z" fill="#47AACB"/>
<path d="M49.1578 18.8581L49.0597 59.7617C49.0597 61.2341 47.8621 62.4317 46.38 62.4317L11.9942 62.3433C10.512 62.3433 9.32422 61.1458 9.32422 59.6636V57.6218L19.6703 57.6513C33.2852 57.6905 44.3577 46.6671 44.3872 33.0425L44.4363 14.1367L49.1578 18.8581Z" fill="#90CDDF"/>
<path d="M42.9688 1.63395L17.64 1.57032C16.1609 1.5667 14.9589 2.76307 14.9556 4.2422L14.8438 54.1426C14.8404 55.6214 16.0365 56.8229 17.5154 56.8264L51.9005 56.9103C53.3796 56.9138 54.5815 55.7176 54.5848 54.2384L54.6765 13.3351L42.9688 1.63395Z" fill="white"/>
<path d="M45.5843 13.3233H54.6401L42.9062 1.64844V10.6453C42.9064 12.1244 44.1053 13.3233 45.5843 13.3233Z" fill="#DBDBDB"/>
<path d="M29.6041 40.0039C29.6041 42.2322 27.7881 44.0383 25.5599 44.0383C23.3316 44.0383 21.5254 42.2322 21.5254 40.0039H29.6041ZM39.9166 40.0039C39.9166 42.2322 41.7326 44.0383 43.9609 44.0383C46.1891 44.0383 47.9954 42.2322 47.9954 40.0039H39.9166Z" fill="#47AACB"/>
<path d="M55.3693 12.6421L43.6619 0.94039C43.4788 0.75639 43.2296 0.653765 42.9708 0.652765L17.6417 0.58964C15.7951 0.528015 13.9783 2.10126 13.9731 4.24089L13.9688 6.11377L12.1219 6.10927H12.1123C10.0978 6.10927 8.45781 7.73727 8.45381 9.76052L8.34181 59.6614C8.33681 61.679 9.96718 63.324 11.9927 63.328L46.3777 63.4124H46.3882C48.3993 63.4124 50.0402 61.7884 50.0462 59.7611L50.0504 57.8883L51.8972 57.8928C51.9011 57.8928 51.9039 57.8928 51.9068 57.8928C53.9198 57.8928 55.5609 56.2574 55.5658 54.2415L55.6569 13.338C55.6578 13.0773 55.5543 12.8261 55.3693 12.6421ZM52.2614 12.342H45.5838C44.6492 12.342 43.8881 11.5809 43.8881 10.6453V4.00989L52.2614 12.342ZM48.0829 59.7564C48.0809 60.6926 47.3236 61.4493 46.3872 61.4493H46.3833L11.9969 61.3649C11.0629 61.3629 10.3031 60.605 10.3051 59.6653L10.4172 9.76439C10.4192 8.82989 11.1761 8.07252 12.1124 8.07252H12.1172L13.9644 8.07701L13.8613 54.1419C13.8566 56.1588 15.4943 57.8046 17.5122 57.8095L48.0871 57.8836L48.0829 59.7564ZM51.9068 55.9296C51.9058 55.9296 51.9039 55.9296 51.9021 55.9296L17.5171 55.8463C16.5819 55.8434 15.8227 55.0813 15.8247 54.1458L15.9363 4.24489C15.9383 3.31226 16.6939 2.55301 17.6321 2.55301C17.6339 2.55301 17.6354 2.55301 17.6368 2.55301L41.9248 2.61364V10.6455C41.9248 12.6634 43.5659 14.3054 45.5838 14.3054H53.6913L53.6024 54.2369C53.5997 55.1714 52.8396 55.9296 51.9068 55.9296Z" fill="#3A3D3F"/>
<path d="M48.8775 39.5716L44.837 31.3153C44.701 31.0379 44.3629 30.765 43.9552 30.765H35.7409V28.173C35.7409 27.6304 35.3019 27.1914 34.7593 27.1914C34.2167 27.1914 33.7777 27.6304 33.7777 28.173V30.765H25.5629C25.1543 30.765 24.8163 31.0393 24.681 31.3153L20.641 39.5716C20.5893 39.6774 20.5298 39.9186 20.5547 40.1206C20.6189 42.8309 22.8334 45.0194 25.5587 45.0194C28.2959 45.0194 30.52 42.8211 30.5745 40.1025C30.5872 39.976 30.5502 39.7039 30.4849 39.5716L27.1363 32.7281H33.7777V49.3991H30.8654C30.3233 49.3991 29.8838 49.8381 29.8838 50.3808C29.8838 50.9234 30.3233 51.3624 30.8654 51.3624H38.653C39.1957 51.3624 39.6347 50.9234 39.6347 50.3808C39.6347 49.8381 39.1957 49.3991 38.653 49.3991H35.7408V32.7283H42.3818L39.0335 39.5718C38.981 39.6794 38.924 39.911 38.944 40.1035C38.9992 42.8219 41.2229 45.0195 43.9598 45.0195C46.6824 45.0195 48.8943 42.8349 48.9625 40.1284C48.988 39.9341 48.9378 39.6948 48.8775 39.5716ZM25.5585 43.0561C24.2184 43.0561 23.0772 42.1876 22.6679 40.9846H28.4588C28.048 42.1876 26.903 43.0561 25.5585 43.0561ZM23.0959 39.0214L25.5629 33.9801L28.0299 39.0214H23.0959ZM43.955 33.9801L46.4225 39.0214H41.4887L43.955 33.9801ZM43.9599 43.0561C42.615 43.0561 41.4704 42.1876 41.0592 40.9846H46.85C46.4407 42.1876 45.3 43.0561 43.9599 43.0561ZM22.272 9.08239H37.1184C37.661 9.08239 38.1 8.64339 38.1 8.10077C38.1 7.55814 37.661 7.11914 37.1184 7.11914H22.272C21.7299 7.11914 21.2904 7.55814 21.2904 8.10077C21.2904 8.64339 21.7299 9.08239 22.272 9.08239ZM22.272 15.3948H37.1184C37.661 15.3948 38.1 14.9558 38.1 14.4131C38.1 13.8705 37.661 13.4315 37.1184 13.4315H22.272C21.7299 13.4315 21.2904 13.8705 21.2904 14.4131C21.2904 14.9558 21.7299 15.3948 22.272 15.3948ZM22.272 21.7063H37.1184C37.661 21.7063 38.1 21.2673 38.1 20.7246C38.1 20.182 37.661 19.743 37.1184 19.743H22.272C21.7299 19.743 21.2904 20.182 21.2904 20.7246C21.2904 21.2673 21.7299 21.7063 22.272 21.7063Z" fill="#3A3D3F"/>
</svg>
