<svg width="60" height="60" viewBox="0 0 60 60" fill="none" xmlns="http://www.w3.org/2000/svg">
<g clip-path="url(#clip0_2043_34582)">
<path d="M46.5327 0H13.4673C6.0295 0 0 6.0295 0 13.4673V46.5327C0 53.9705 6.0295 60 13.4673 60H46.5327C53.9705 60 60 53.9705 60 46.5327V13.4673C60 6.0295 53.9705 0 46.5327 0Z" fill="#0B86CA"/>
<path d="M16.626 24.9399H22.8608V45.0577H16.626V24.9399ZM19.8057 14.9434C20.5201 14.9434 21.2184 15.1549 21.8126 15.5514C22.4068 15.9478 22.8703 16.5114 23.1446 17.1709C23.4189 17.8305 23.4918 18.5565 23.3539 19.2574C23.216 19.9584 22.8737 20.6027 22.37 21.1093C21.8664 21.6158 21.224 21.9619 20.5239 22.1037C19.8238 22.2456 19.0973 22.177 18.4362 21.9064C17.7751 21.6359 17.2089 21.1757 16.809 20.5837C16.4092 19.9918 16.1936 19.2947 16.1895 18.5804C16.1868 18.1037 16.2783 17.6312 16.4588 17.1901C16.6393 16.749 16.9052 16.3479 17.2413 16.0099C17.5774 15.6719 17.9769 15.4036 18.417 15.2206C18.8571 15.0376 19.3291 14.9434 19.8057 14.9434Z" fill="white"/>
<path d="M26.8509 24.9394H32.8571V27.6827C33.4583 26.6566 34.3269 25.8131 35.3701 25.2421C36.4132 24.6711 37.5919 24.3941 38.7802 24.4406C45.015 24.4406 46.2828 28.5971 46.2828 34.0215V45.0571H40.048V35.3308C40.048 33.0031 40.0479 29.9896 36.8058 29.9896C33.5637 29.9896 33.0649 32.5251 33.0649 35.1437V45.0987H26.8301L26.8509 24.9394Z" fill="white"/>
</g>
<defs>
<clipPath id="clip0_2043_34582">
<rect width="60" height="60" fill="white"/>
</clipPath>
</defs>
</svg>
