<svg width="64" height="64" viewBox="0 0 64 64" fill="none" xmlns="http://www.w3.org/2000/svg">
<path d="M49.7031 7.53867V6.07617H59.3194V49.8762H49.7031V48.6749V7.53867Z" fill="#00ACEA"/>
<path d="M49.7034 7.53906V48.6753C48.9034 48.0141 38.7984 39.8053 27.5096 38.5828C26.5951 38.4825 25.6759 38.4316 24.7559 38.4303V17.7866C36.5434 17.7866 48.8209 8.23781 49.7034 7.53906Z" fill="#FEDB41"/>
<path d="M27.5109 38.5858L30.2884 57.9233H20.5834L14.7422 38.4508V38.4258C14.8284 38.4283 14.9147 38.4295 15.0022 38.4295H24.7572C25.6772 38.4308 26.5964 38.4817 27.5109 38.582V38.5858Z" fill="#00ACEA"/>
<path d="M24.7554 17.7871V38.4309H15.0004C14.9129 38.4309 14.8266 38.4296 14.7404 38.4271C12.0261 38.359 9.44799 37.2241 7.56463 35.2684C5.68127 33.3127 4.64435 30.6936 4.67855 27.9787C4.71275 25.2638 5.81531 22.6717 7.74734 20.7641C9.67936 18.8564 12.2852 17.7868 15.0004 17.7871H24.7554Z" fill="#00EFD1"/>
<path d="M14.1671 39.1491L19.8638 58.1157C19.9114 58.2675 20.0074 58.3995 20.1372 58.4916C20.2669 58.5837 20.4232 58.6309 20.5822 58.6258H30.2872C30.393 58.6313 30.4986 58.6133 30.5966 58.5729C30.6945 58.5325 30.7822 58.4708 30.8532 58.3922C30.9243 58.3137 30.977 58.2203 31.0075 58.1189C31.038 58.0175 31.0456 57.9105 31.0296 57.8058L28.4146 39.4449C38.3557 40.8764 47.1247 47.5464 48.9997 49.0324V49.8771C48.9946 49.973 49.0089 50.0689 49.0419 50.1591C49.0749 50.2493 49.1258 50.3318 49.1916 50.4018C49.2573 50.4718 49.3366 50.5277 49.4246 50.5662C49.5125 50.6047 49.6074 50.625 49.7034 50.6258H59.3197C59.7339 50.6258 60.1247 50.2912 60.1247 49.8771V6.07706C60.1247 5.66281 59.7339 5.37581 59.3197 5.37581H49.7034C49.61 5.37122 49.5167 5.3862 49.4294 5.41978C49.3421 5.45337 49.2628 5.50481 49.1965 5.57083C49.1303 5.63685 49.0785 5.71598 49.0446 5.80316C49.0107 5.89033 48.9954 5.98362 48.9997 6.07706V7.17243C46.4553 9.0538 43.7785 10.7491 40.9901 12.2451C35.1173 15.3681 29.4886 17.0008 24.7559 17.0008H15.0009C8.89619 17.0008 3.92969 21.9854 3.92969 28.0902C3.92894 30.8842 4.98302 33.5756 6.88111 35.626C8.7792 37.6764 11.3812 38.9346 14.1671 39.1491ZM50.4997 6.87581H58.6247V49.1258H50.4997V6.87581ZM25.4997 18.5249C30.3747 18.3693 35.8193 16.7102 41.6912 13.5874C44.2194 12.2253 46.6603 10.707 48.9997 9.04143V47.1352C45.7497 44.7169 37.1394 38.8696 27.6106 37.8377C26.9086 37.7616 26.2497 37.7127 25.4997 37.6923V18.5249ZM26.8507 39.2221L29.4217 57.1258H21.1403L15.7426 39.1258H24.7559C25.4378 39.1258 26.1403 39.1609 26.8507 39.2221ZM15.0009 18.5008H23.9997V37.6258H15.0009C14.9208 37.6258 14.8417 37.6522 14.7594 37.6498C12.2428 37.5843 9.85324 36.5303 8.10785 34.7162C6.36246 32.902 5.40167 30.4734 5.43342 27.9562C5.46517 25.4389 6.48689 23.0354 8.27748 21.2658C10.0681 19.4962 12.4835 18.5029 15.0009 18.5008Z" fill="#083863"/>
</svg>
