<svg width="33" height="51" viewBox="0 0 33 51" fill="none" xmlns="http://www.w3.org/2000/svg">
<path fill-rule="evenodd" clip-rule="evenodd" d="M7.01367 14.8257V7.59766H25.0137V14.8257" fill="#92D9F7"/>
<path d="M29.0137 1.99219H3.01367V7.99829H29.0137V1.99219Z" fill="#89B9D8"/>
<path d="M25.6475 13.998H6.41953C3.43719 13.998 1.01953 16.4156 1.01953 19.3979V44.5999C1.01953 47.5822 3.43719 50 6.41953 50H25.6475C28.6299 50 31.0475 47.5822 31.0475 44.5999V19.3979C31.0475 16.4156 28.6299 13.998 25.6475 13.998Z" fill="#92D9F7"/>
<path d="M31.0137 41.998H1.01367V21.998H31.0137V41.998Z" fill="#EC7BB0"/>
<path d="M14.0332 25.998V29.998H10.0332V33.998H14.0332V37.998H18.0332V33.998H22.0332V29.998H18.0332V25.998H14.0332Z" fill="#F2F2F2"/>
<path d="M3.0112 0.994141C2.74598 0.994141 2.49163 1.09951 2.30409 1.28705C2.11655 1.47458 2.0112 1.72892 2.0112 1.99414V7.99615C2.0112 8.26137 2.11655 8.51571 2.30409 8.70325C2.49163 8.89078 2.74598 8.99615 3.0112 8.99615H24.0112V12.9962H6.4172C4.72012 12.9989 3.09339 13.6745 1.89393 14.8751C0.694477 16.0757 0.020254 17.7031 0.0191968 19.4001V21.7982C-0.00639892 21.927 -0.00639892 22.0594 0.0191968 22.1881V41.7982C-0.00639892 41.927 -0.00639892 42.0594 0.0191968 42.1881V44.5981C0.0207845 46.2952 0.695517 47.9224 1.89535 49.1226C3.09518 50.3228 4.72212 50.998 6.4192 51.0001H25.6452C27.3416 50.997 28.9676 50.3217 30.1672 49.1222C31.3667 47.9226 32.042 46.2966 32.0452 44.6002V19.4001C32.0452 15.9961 29.3652 13.2301 26.0112 13.0361V8.99615H29.0112C29.2764 8.99615 29.5308 8.89078 29.7183 8.70325C29.9058 8.51571 30.0112 8.26137 30.0112 7.99615V1.99414C30.0112 1.72892 29.9058 1.47458 29.7183 1.28705C29.5308 1.09951 29.2764 0.994141 29.0112 0.994141H3.0112ZM4.0112 2.99414H28.0112V6.99615H4.0112V2.99414ZM6.4172 14.9962H25.6452C28.0992 14.9962 30.0452 16.9441 30.0452 19.4001V20.9962H2.0192V19.4001C2.0192 16.9441 3.9612 14.9962 6.4172 14.9962ZM2.0192 22.9962H30.0472V40.9962H2.0192V22.9962ZM14.0312 24.9962C13.766 24.9962 13.5116 25.1015 13.3241 25.2891C13.1366 25.4766 13.0312 25.731 13.0312 25.9962V28.9962H10.0312C9.76598 28.9962 9.51163 29.1015 9.32409 29.2891C9.13655 29.4766 9.0312 29.731 9.0312 29.9962V33.9962C9.0312 34.2614 9.13655 34.5157 9.32409 34.7032C9.51163 34.8908 9.76598 34.9962 10.0312 34.9962H13.0312V37.9962C13.0312 38.2614 13.1366 38.5157 13.3241 38.7032C13.5116 38.8908 13.766 38.9962 14.0312 38.9962H18.0312C18.2964 38.9962 18.5508 38.8908 18.7383 38.7032C18.9258 38.5157 19.0312 38.2614 19.0312 37.9962V34.9962H22.0312C22.2964 34.9962 22.5508 34.8908 22.7383 34.7032C22.9258 34.5157 23.0312 34.2614 23.0312 33.9962V29.9962C23.0312 29.731 22.9258 29.4766 22.7383 29.2891C22.5508 29.1015 22.2964 28.9962 22.0312 28.9962H19.0312V25.9962C19.0312 25.731 18.9258 25.4766 18.7383 25.2891C18.5508 25.1015 18.2964 24.9962 18.0312 24.9962H14.0312ZM15.0312 26.9962H17.0312V29.9962C17.0312 30.2614 17.1366 30.5157 17.3241 30.7032C17.5116 30.8908 17.766 30.9962 18.0312 30.9962H21.0312V32.9962H18.0312C17.766 32.9962 17.5116 33.1015 17.3241 33.2891C17.1366 33.4766 17.0312 33.731 17.0312 33.9962V36.9962H15.0312V33.9962C15.0312 33.731 14.9258 33.4766 14.7383 33.2891C14.5508 33.1015 14.2964 32.9962 14.0312 32.9962H11.0312V30.9962H14.0312C14.2964 30.9962 14.5508 30.8908 14.7383 30.7032C14.9258 30.5157 15.0312 30.2614 15.0312 29.9962V26.9962ZM2.0192 42.9962H30.0472V44.5981C30.0512 45.1773 29.94 45.7516 29.7202 46.2875C29.5004 46.8234 29.1763 47.3102 28.7668 47.7197C28.3572 48.1293 27.8704 48.4534 27.3345 48.6732C26.7986 48.893 26.2244 49.0041 25.6452 49.0001H6.4172C3.9632 49.0001 2.0192 47.0542 2.0192 44.6002V42.9962Z" fill="#62355C"/>
<path fill-rule="evenodd" clip-rule="evenodd" d="M6.01367 7.59766V14.8237H8.01367V7.59766H6.01367Z" fill="#62355C"/>
</svg>
