<svg width="64" height="64" viewBox="0 0 64 64" fill="none" xmlns="http://www.w3.org/2000/svg">
<path d="M32 61C48.0163 61 61 48.0163 61 32C61 15.9837 48.0163 3 32 3C15.9837 3 3 15.9837 3 32C3 48.0163 15.9837 61 32 61Z" fill="#94E6FF"/>
<path d="M32 6C39.4383 5.99004 46.5961 8.83864 51.9935 13.9569C57.3909 19.0751 60.6153 26.0716 61 33.5C61 33 61 32.5 61 32C61 24.3087 57.9446 16.9325 52.5061 11.4939C47.0675 6.05535 39.6913 3 32 3C24.3087 3 16.9325 6.05535 11.4939 11.4939C6.05535 16.9325 3 24.3087 3 32C3 32.5 3 33 3 33.5C3.38473 26.0716 6.60911 19.0751 12.0065 13.9569C17.4039 8.83864 24.5617 5.99004 32 6Z" fill="#5CB7E6"/>
<path d="M37.0293 49.6309C38.6862 49.6309 40.0293 48.2877 40.0293 46.6309C40.0293 44.974 38.6862 43.6309 37.0293 43.6309C35.3724 43.6309 34.0293 44.974 34.0293 46.6309C34.0293 48.2877 35.3724 49.6309 37.0293 49.6309Z" fill="#FFCC40"/>
<path d="M47.6797 18.8301C49.3365 18.8301 50.6797 17.4869 50.6797 15.8301C50.6797 14.1732 49.3365 12.8301 47.6797 12.8301C46.0228 12.8301 44.6797 14.1732 44.6797 15.8301C44.6797 17.4869 46.0228 18.8301 47.6797 18.8301Z" fill="#FFCC40"/>
<path d="M13.1191 35C14.776 35 16.1191 33.6569 16.1191 32C16.1191 30.3431 14.776 29 13.1191 29C11.4623 29 10.1191 30.3431 10.1191 32C10.1191 33.6569 11.4623 35 13.1191 35Z" fill="#FC7A71"/>
<path d="M55.0904 12.8701C52.2753 9.47635 48.7467 6.74491 44.7558 4.87016C40.7648 2.9954 36.4097 2.02344 32.0004 2.02344C27.5911 2.02344 23.2359 2.9954 19.245 4.87016C15.2541 6.74491 11.7255 9.47635 8.91039 12.8701C4.45788 18.2183 2.00817 24.9509 1.98262 31.9099C1.95707 38.8689 4.35727 45.6193 8.77039 51.0001C8.80053 51.0458 8.83395 51.0892 8.87039 51.1301C11.6851 54.5378 15.2181 57.2815 19.2166 59.1649C23.2152 61.0484 27.5805 62.025 32.0004 62.025C36.4203 62.025 40.7856 61.0484 44.7841 59.1649C48.7827 57.2815 52.3156 54.5378 55.1304 51.1301C55.1693 51.0876 55.2029 51.0406 55.2304 50.9901C59.6293 45.6194 62.023 38.8857 62.0011 31.9435C61.9792 25.0013 59.5431 18.2829 55.1104 12.9401L55.0904 12.8701ZM54.0904 49.1701C52.436 48.4893 50.735 47.9279 49.0004 47.4901C50.8036 42.8673 51.7719 37.9612 51.8604 33.0001H60.0004C59.7924 38.8799 57.723 44.5419 54.0904 49.1701ZM4.00039 33.0001H9.27039C9.45353 33.7146 9.83066 34.3645 10.3601 34.878C10.8895 35.3916 11.5507 35.7488 12.2704 35.9101C12.6148 39.8819 13.5344 43.7826 15.0004 47.4901C13.2792 47.9292 11.5916 48.4906 9.95039 49.1701C6.30342 44.5469 4.21984 38.8844 4.00039 33.0001ZM9.91039 14.8301C11.5646 15.5113 13.2657 16.0728 15.0004 16.5101C13.5446 20.219 12.6352 24.1197 12.3004 28.0901C11.5807 28.2514 10.9195 28.6085 10.3901 29.1221C9.86066 29.6356 9.48353 30.2856 9.30039 31.0001H4.00039C4.20837 25.1202 6.27778 19.4582 9.91039 14.8301ZM47.0704 47.0001C45.065 46.5658 43.0391 46.2321 41.0004 46.0001C40.886 45.3004 40.5878 44.6438 40.1362 44.0973C39.6846 43.5508 39.0959 43.1342 38.4304 42.8901C38.6904 39.7801 38.8304 36.4601 38.8504 33.0001H49.8504C49.7756 37.7962 48.8338 42.5392 47.0704 47.0001ZM32.0004 60.0001C31.2104 59.9401 29.3204 56.8401 28.1104 47.5801C29.7204 47.5001 31.4504 47.4701 33.1104 47.4901C33.2462 48.1211 33.5326 48.7099 33.9453 49.2061C34.358 49.7024 34.8847 50.0915 35.4804 50.3401C34.2204 58.0501 32.5704 59.9301 32.0004 60.0001ZM16.9304 47.0001C15.4996 43.4184 14.6099 39.6437 14.2904 35.8001C14.9433 35.6031 15.5351 35.2424 16.0094 34.7524C16.4837 34.2623 16.8249 33.6591 17.0004 33.0001H25.2004C25.2004 37.4401 25.4604 41.7901 25.8704 45.7101H25.1604C22.3925 45.965 19.6436 46.3959 16.9304 47.0001ZM16.9304 17.0001C19.6376 17.5933 22.3798 18.0142 25.1404 18.2601L25.8604 18.3101C25.4404 22.2301 25.2104 26.5801 25.1804 31.0201H17.0004C16.8267 30.3633 16.4886 29.7617 16.0179 29.2718C15.5473 28.7819 14.9596 28.4199 14.3104 28.2201C14.6215 24.3707 15.5045 20.5891 16.9304 17.0001ZM31.9304 4.00006H32.0904C32.9004 4.18006 34.7404 7.35006 35.9204 16.4101C33.4104 16.5401 30.6104 16.5401 28.1004 16.4101C29.2704 7.37006 31.1104 4.20006 31.9204 4.00006H31.9304ZM36.4104 42.7001C35.6707 42.8197 34.9795 43.1446 34.4155 43.6379C33.8515 44.1311 33.4374 44.7729 33.2204 45.4901C31.4104 45.4901 29.5704 45.4901 27.8504 45.5801C27.4404 41.7001 27.2104 37.4001 27.1804 33.0001H36.8204C36.8004 36.4001 36.6604 39.6501 36.4104 42.7001ZM27.1804 31.0001C27.1804 26.6001 27.4404 22.2901 27.8504 18.4201C29.1804 18.4901 30.5604 18.5301 32.0004 18.5301C33.4404 18.5301 34.8204 18.5301 36.1504 18.4201C36.5604 22.2901 36.7904 26.6001 36.8204 31.0001H27.1804ZM13.1204 30.0001H13.2204C13.7333 30.0257 14.2167 30.2477 14.5704 30.6201C14.9241 30.9924 15.121 31.4865 15.1204 32.0001C15.1206 32.5219 14.9167 33.0232 14.5524 33.3969C14.1881 33.7706 13.6921 33.987 13.1704 34.0001H13.1204C12.59 34.0001 12.0813 33.7893 11.7062 33.4143C11.3311 33.0392 11.1204 32.5305 11.1204 32.0001C11.1204 31.4696 11.3311 30.9609 11.7062 30.5858C12.0813 30.2108 12.59 30.0001 13.1204 30.0001ZM37.0004 48.6301C36.6048 48.6301 36.2182 48.5128 35.8893 48.293C35.5604 48.0732 35.304 47.7609 35.1526 47.3954C35.0013 47.03 34.9617 46.6278 35.0388 46.2399C35.116 45.8519 35.3065 45.4955 35.5862 45.2158C35.8659 44.9361 36.2222 44.7457 36.6102 44.6685C36.9982 44.5913 37.4003 44.6309 37.7658 44.7823C38.1312 44.9337 38.4436 45.19 38.6633 45.5189C38.8831 45.8478 39.0004 46.2345 39.0004 46.6301C39.0004 46.6301 39.0004 46.7301 39.0004 46.7701C38.9649 47.2759 38.7386 47.7493 38.3673 48.0946C37.996 48.4399 37.5074 48.6313 37.0004 48.6301ZM38.8204 31.0001C38.8204 26.5601 38.5604 22.2101 38.1504 18.2901L38.8604 18.2401C40.6604 18.0701 42.4004 17.8401 44.0804 17.5601C44.406 18.2389 44.9166 18.812 45.5534 19.2136C46.1903 19.6151 46.9275 19.8288 47.6804 19.8301C47.8102 19.8399 47.9406 19.8399 48.0704 19.8301C49.1793 23.453 49.7817 27.212 49.8604 31.0001H38.8204ZM49.6804 15.8301C49.6796 16.2278 49.5602 16.6162 49.3376 16.9457C49.1149 17.2753 48.7991 17.5309 48.4304 17.6801C48.1948 17.7732 47.9437 17.8207 47.6904 17.8201C47.2948 17.8201 46.9082 17.7028 46.5793 17.483C46.2504 17.2632 45.994 16.9509 45.8426 16.5854C45.6913 16.22 45.6516 15.8178 45.7288 15.4299C45.806 15.0419 45.9965 14.6856 46.2762 14.4058C46.5559 14.1261 46.9123 13.9357 47.3002 13.8585C47.6882 13.7813 48.0903 13.8209 48.4558 13.9723C48.8212 14.1237 49.1336 14.38 49.3533 14.7089C49.5731 15.0378 49.6904 15.4245 49.6904 15.8201L49.6804 15.8301ZM43.6804 15.5901C42.0704 15.8601 40.3904 16.0901 38.6804 16.2401C38.4304 16.2401 38.1704 16.2401 37.9104 16.3001C37.3504 11.9001 36.4204 7.16006 34.9104 4.39006C38.7504 5.39006 42.3204 8.39006 45.0204 12.8701C44.2415 13.5691 43.7676 14.5456 43.7004 15.5901H43.6804ZM29.0904 4.38006C27.5904 7.14006 26.6504 11.8901 26.0904 16.3001C25.8304 16.3001 25.5704 16.3001 25.3204 16.2401C22.7803 16.0183 20.2557 15.6443 17.7604 15.1201C20.5404 9.39006 24.6304 5.55006 29.0904 4.38006ZM25.3204 47.7601C25.5704 47.7601 25.8304 47.7601 26.0904 47.7001C26.6504 52.1101 27.5804 56.8501 29.0904 59.6201C24.6204 58.4501 20.5304 54.6201 17.7604 48.8801C20.2557 48.3558 22.7803 47.9818 25.3204 47.7601ZM34.9304 59.6101C36.2383 56.7591 37.0984 53.7234 37.4804 50.6101C38.2175 50.5254 38.9164 50.2373 39.4992 49.7782C40.082 49.319 40.5256 48.7068 40.7804 48.0101C42.7004 48.2401 44.5304 48.5301 46.2504 48.9001C43.4704 54.6001 39.3904 58.4401 34.9304 59.6101ZM51.8604 31.0001C51.8033 26.9722 51.1771 22.9726 50.0004 19.1201C50.5335 18.7526 50.9694 18.2613 51.2708 17.6882C51.5721 17.1152 51.7298 16.4775 51.7304 15.8301C51.7304 15.8301 51.7304 15.7701 51.7304 15.7401C52.6104 15.4501 53.4104 15.1501 54.1604 14.8401C57.7641 19.4752 59.8084 25.132 60.0004 31.0001H51.8604ZM52.7504 13.2201C52.2404 13.4301 51.6904 13.6201 51.1104 13.8201C50.7622 13.217 50.2626 12.7152 49.6611 12.3644C49.0595 12.0137 48.3767 11.826 47.6804 11.8201C47.3807 11.8258 47.0825 11.8627 46.7904 11.9301C45.4255 9.55725 43.6593 7.43919 41.5704 5.67006C45.8528 7.24549 49.6892 9.83624 52.7504 13.2201ZM22.4604 5.68006C19.5897 8.14602 17.3044 11.2205 15.7704 14.6801C14.2348 14.3001 12.7251 13.8224 11.2504 13.2501C14.3122 9.8485 18.1612 7.24933 22.4604 5.68006ZM11.2504 50.7801C12.7251 50.2077 14.2348 49.7301 15.7704 49.3501C17.3084 52.8073 19.5931 55.8809 22.4604 58.3501C18.1655 56.7725 14.3184 54.1746 11.2504 50.7801ZM41.5404 58.3201C44.4111 55.8541 46.6964 52.7797 48.2304 49.3201C49.766 49.7001 51.2757 50.1777 52.7504 50.7501C49.6885 54.1516 45.8396 56.7508 41.5404 58.3201Z" fill="#0A1827"/>
</svg>
