<svg width="22" height="22" viewBox="0 0 22 22" fill="none" xmlns="http://www.w3.org/2000/svg">
<path d="M15.7012 13.2386C16.8969 13.4393 18.2147 13.2298 19.1398 12.6102C20.3703 11.7898 20.3703 10.4458 19.1398 9.62547C18.2059 9.00584 16.8707 8.79638 15.675 9.00584M7.00013 13.2386C5.80449 13.4393 4.48667 13.2298 3.56158 12.6102C2.33104 11.7898 2.33104 10.4458 3.56158 9.62547C4.4954 9.00584 5.83067 8.79638 7.02631 9.00584M16.6001 6.88511C16.5452 6.87638 16.4892 6.87638 16.4343 6.88511C15.8519 6.86405 15.3005 6.61736 14.8966 6.19719C14.4927 5.77702 14.268 5.21628 14.2699 4.63347C14.2699 3.38547 15.2736 2.38184 16.5216 2.38184C17.1188 2.38184 17.6915 2.61906 18.1137 3.04133C18.536 3.46359 18.7732 4.0363 18.7732 4.63347C18.7716 5.21669 18.5446 5.77671 18.1395 6.19636C17.7345 6.61602 17.1829 6.86281 16.6001 6.88511ZM6.10122 6.88511C6.15358 6.87638 6.21467 6.87638 6.26704 6.88511C6.84947 6.86405 7.40089 6.61736 7.80478 6.19719C8.20866 5.77702 8.43337 5.21628 8.4314 4.63347C8.4314 3.38547 7.42776 2.38184 6.17976 2.38184C5.58259 2.38184 5.00988 2.61906 4.58762 3.04133C4.16535 3.46359 3.92813 4.0363 3.92813 4.63347C3.93685 5.85529 4.89685 6.84147 6.10122 6.88511ZM11.3638 13.4044C11.3088 13.3956 11.2529 13.3956 11.1979 13.4044C10.6155 13.3833 10.0641 13.1366 9.6602 12.7165C9.25632 12.2963 9.03161 11.7356 9.03358 11.1527C9.03358 9.90475 10.0372 8.90111 11.2852 8.90111C11.8824 8.90111 12.4551 9.13833 12.8774 9.5606C13.2996 9.98286 13.5369 10.5556 13.5369 11.1527C13.5281 12.3746 12.5681 13.3695 11.3638 13.4044ZM8.82413 16.1535C7.59358 16.9738 7.59358 18.3178 8.82413 19.1382C10.2205 20.072 12.507 20.072 13.9034 19.1382C15.1339 18.3178 15.1339 16.9738 13.9034 16.1535C12.5158 15.2284 10.2205 15.2284 8.82413 16.1535Z" stroke="white" stroke-width="1.30909" stroke-linecap="round" stroke-linejoin="round"/>
</svg>
