<svg width="64" height="64" viewBox="0 0 64 64" fill="none" xmlns="http://www.w3.org/2000/svg">
<path d="M45 36C54.3888 36 62 28.3888 62 19C62 9.61116 54.3888 2 45 2C35.6112 2 28 9.61116 28 19C28 28.3888 35.6112 36 45 36Z" fill="#8EDFF8"/>
<path d="M45 2C41.071 2 37.463 3.346 34.584 5.584C32.346 8.463 31 12.071 31 16C31 25.389 38.611 33 48 33C51.929 33 55.537 31.654 58.416 29.416C60.654 26.537 62 22.929 62 19C62 9.611 54.389 2 45 2Z" fill="#B8EFF9"/>
<path d="M37.0082 29.6023C36.2352 29.6023 35.5842 29.3833 35.1012 28.8993C32.7802 26.5783 36.5452 20.3833 41.4652 15.4643C46.3852 10.5453 52.5792 6.78132 54.9002 9.10032C57.2212 11.4213 53.4562 17.6163 48.5362 22.5353C44.6412 26.4313 39.9462 29.6023 37.0082 29.6023ZM52.9492 10.3553C51.4302 10.3553 47.4012 12.3563 42.8792 16.8783C37.6162 22.1423 35.7682 26.7373 36.5152 27.4853C37.2652 28.2353 41.8572 26.3863 47.1222 21.1213C52.3852 15.8573 54.2332 11.2623 53.4862 10.5143C53.3802 10.4093 53.1982 10.3553 52.9492 10.3553Z" fill="#2769B3"/>
<path d="M52.9911 29.6021C50.0531 29.6021 45.3591 26.4311 41.4631 22.5361C36.5441 17.6171 32.7781 11.4221 35.0991 9.1011C37.4191 6.7801 43.6151 10.5461 48.5341 15.4651C53.4531 20.3841 57.2191 26.5791 54.8981 28.9001C54.4161 29.3831 53.7641 29.6021 52.9911 29.6021ZM37.0501 10.3551C36.8001 10.3551 36.6191 10.4091 36.5131 10.5141C35.7651 11.2621 37.6141 15.8571 42.8771 21.1211C48.1421 26.3851 52.7351 28.2311 53.4841 27.4851C54.2321 26.7371 52.3831 22.1421 47.1201 16.8781C42.5991 12.3571 38.5701 10.3551 37.0501 10.3551Z" fill="#E7B532"/>
<path d="M45 21C43.897 21 43 20.103 43 19C43 17.897 43.897 17 45 17C46.103 17 47 17.897 47 19C47 20.103 46.103 21 45 21Z" fill="#C53330"/>
<path d="M16 44L8.731 46.077C4.747 47.215 2 50.857 2 55V62H38V55C38 50.857 35.253 47.215 31.269 46.077L24 44H16Z" fill="#B4B4B4"/>
<path d="M31.269 46.077L24 44H20L12.731 46.077C8.747 47.215 6 50.857 6 55V62H38V55C38 50.857 35.253 47.215 31.269 46.077Z" fill="#C8C8C8"/>
<path d="M16 41.0645V44.0005L20 46.0005L24 44.0005V41.0645H16Z" fill="#EEB8AB"/>
<path d="M8 28.765V21C8 16.029 12.029 12 17 12H24C26.209 12 28 13.791 28 16C30.209 16 32 17.791 32 20V28.771" fill="#3F4042"/>
<path d="M32 19.998C32 17.789 30.21 15.999 28.001 15.998C28.001 13.789 26.209 11.998 24 11.998H17C14.529 11.998 12.293 12.995 10.666 14.606C10.24 15.655 10 16.798 10 17.999V21.764C10 23.973 11.791 25.764 14 25.765L32 25.769V19.998Z" fill="#5A5B5D"/>
<path d="M29 27V33C29 37.971 24.971 42 20 42C15.029 42 11 37.971 11 33V27H16.615C19.867 27 22.792 25.02 24 22L29 27Z" fill="#EEB8AB"/>
<path d="M11 28H10C8.343 28 7 29.343 7 31C7 32.657 8.343 34 10 34H11.056M29 28H30C31.657 28 33 29.343 33 31C33 32.657 31.657 34 30 34H28.944" fill="#EEB8AB"/>
<path d="M23.334 49.333L22.001 52H18.001L16.668 49.333L20.001 46L23.334 49.333Z" fill="#E66967"/>
<path d="M22.998 62L21.999 52H17.999L16.998 62H22.998Z" fill="#E66967"/>
<path d="M33 56H31V62H33V56Z" fill="#777777"/>
<path d="M9 56H7V62H9V56Z" fill="#777777"/>
<path d="M16.615 27H13V33C13 37.632 16.501 41.443 21 41.941C25.499 41.443 29 37.632 29 33V27L24 22C22.792 25.02 19.867 27 16.615 27ZM24 42.053C22.794 42.654 21.439 43 20 43C19.312 43 18.644 42.916 18 42.769V44L21 45.5L24 44V42.053Z" fill="#FFE1D3"/>
<path d="M19.999 46L15.999 44L11.332 45.333L15.999 50L19.999 46Z" fill="#B4B4B4"/>
<path d="M24 50L28.667 45.333L24 44L20 46L24 50Z" fill="#B4B4B4"/>
<path d="M19.001 52L18 62H22.999L22 52H19.001Z" fill="#EE8382"/>
<path d="M45.0007 14.9074C45.5387 14.4424 46.0637 14.0144 46.5727 13.6244C46.0537 13.1684 45.5277 12.7334 45.0017 12.3184C44.4747 12.7334 43.9497 13.1674 43.4297 13.6244C43.9377 14.0144 44.4627 14.4424 45.0007 14.9074Z" fill="#E7B532"/>
<path d="M45.0006 23.0937C44.4636 23.5577 43.9396 23.9867 43.4316 24.3767C43.9506 24.8327 44.4746 25.2697 45.0006 25.6837C45.5266 25.2687 46.0506 24.8317 46.5696 24.3757C46.0626 23.9867 45.5376 23.5577 45.0006 23.0937ZM49.0946 18.9997C49.5586 19.5367 49.9886 20.0617 50.3786 20.5697C50.8346 20.0507 51.2686 19.5257 51.6836 18.9997C51.2686 18.4737 50.8346 17.9487 50.3786 17.4297C49.9886 17.9377 49.5586 18.4627 49.0946 18.9997Z" fill="#2769B3"/>
<path d="M40.9054 18.9997C40.4414 18.4627 40.0114 17.9377 39.6214 17.4297C39.1654 17.9487 38.7314 18.4737 38.3164 18.9997C38.7314 19.5257 39.1654 20.0507 39.6214 20.5697C40.0114 20.0617 40.4414 19.5367 40.9054 18.9997Z" fill="#E7B532"/>
<path d="M45 1C37.234 1 30.496 5.928 28.015 13.052C27.104 11.815 25.651 11 24 11H17C11.486 11 7 15.486 7 21V28.382C6.385 29.086 6 29.995 6 31C6 33.206 7.794 35 10 35H10.202C10.78 37.839 12.57 40.236 15 41.647V43.246L8.456 45.116C4.066 46.37 1 50.435 1 55V62C1 62.552 1.448 63 2 63H38C38.552 63 39 62.552 39 62V55C39 50.435 35.934 46.37 31.544 45.116L25 43.246V41.647C27.43 40.236 29.22 37.839 29.798 35H30C31.531 35 32.848 34.125 33.52 32.859C36.743 35.537 40.759 37 45 37C54.925 37 63 28.925 63 19C63 9.075 54.925 1 45 1ZM17 13H24C25.654 13 27 14.346 27 16C27 16.552 27.448 17 28 17C29.653 17 30.999 18.346 30.999 20V27.143C30.678 27.058 30.347 27 30 27C30 26.735 29.895 26.48 29.707 26.293L24.707 21.293C24.47 21.056 24.129 20.954 23.799 21.021C23.47 21.088 23.196 21.317 23.071 21.629C22.009 24.284 19.475 26 16.615 26H11C10.448 26 10 26.448 10 27C9.653 27 9.322 27.058 9 27.142V21C9 16.589 12.589 13 17 13ZM8 31C8 29.897 8.897 29 10 29V33C8.897 33 8 32.103 8 31ZM24.099 45.068L26.757 45.828L24 48.586L21.688 46.274L24.099 45.068ZM18.905 53H21.095L21.894 61H18.104L18.905 53ZM21.382 51H18.618L17.883 49.531L20 47.414L22.117 49.531L21.382 51ZM16 48.586L13.242 45.828L15.9 45.068L18.311 46.274L16 48.586ZM3 55C3 51.323 5.469 48.049 9.005 47.039L11.042 46.457L15.292 50.707C15.488 50.902 15.744 51 16 51C16.118 51 16.236 50.974 16.348 50.932L16.976 52.188L16.094 61H9V56H7V61H3V55ZM37 55V61H33V56H31V61H23.904L23.024 52.189L23.652 50.933C23.764 50.974 23.882 51 24 51C24.256 51 24.512 50.902 24.707 50.707L28.957 46.457L30.994 47.039C34.531 48.049 37 51.323 37 55ZM23 43.382L20 44.882L17 43.382V42.539C17.948 42.838 18.955 43 20 43C21.045 43 22.052 42.838 23 42.539V43.382ZM28 33C28 37.411 24.411 41 20 41C15.589 41 12 37.411 12 33V28H16.615C19.8 28 22.672 26.347 24.274 23.688L28 27.414V33ZM30 33V29C31.103 29 32 29.897 32 31C32 32.103 31.103 33 30 33ZM45 35C40.849 35 36.945 33.419 33.955 30.558C33.862 29.728 33.522 28.98 33 28.382V19.999C33 17.753 31.503 15.863 29.459 15.235C31.176 8.093 37.556 3 45 3C53.822 3 61 10.178 61 19C61 27.822 53.822 35 45 35Z" fill="black"/>
<path d="M54.8982 9.10007C53.1112 7.31407 49.0282 9.14007 44.9992 12.3181C40.9692 9.14007 36.8862 7.31307 35.1002 9.10007C33.3132 10.8871 35.1402 14.9701 38.3172 18.9991C35.1392 23.0291 33.3132 27.1121 35.1002 28.8981C35.5832 29.3811 36.2342 29.6011 37.0072 29.6011C39.0912 29.6011 42.0592 28.0011 44.9992 25.6831C47.9392 28.0011 50.9072 29.6011 52.9912 29.6011C53.7632 29.6011 54.4152 29.3821 54.8982 28.8981C56.6852 27.1111 54.8582 23.0281 51.6812 18.9991C54.8592 14.9691 56.6852 10.8861 54.8982 9.10007ZM36.5142 10.5141C36.6192 10.4091 36.8012 10.3551 37.0512 10.3551C38.1382 10.3551 40.5122 11.3861 43.4282 13.6231C42.7602 14.2101 42.1012 14.8261 41.4642 15.4631C40.8272 16.1001 40.2102 16.7601 39.6222 17.4281C36.8692 13.8421 35.9492 11.0791 36.5142 10.5141ZM44.9992 14.9061C45.6892 15.5021 46.3972 16.1541 47.1212 16.8771C47.8442 17.6001 48.4972 18.3091 49.0932 18.9991C48.4972 19.6891 47.8442 20.3971 47.1212 21.1211C46.3982 21.8441 45.6892 22.4971 45.0002 23.0931C44.3102 22.4971 43.6022 21.8441 42.8782 21.1211C42.1552 20.3981 41.5022 19.6891 40.9062 18.9991C41.5022 18.3091 42.1552 17.6011 42.8782 16.8771C43.6012 16.1541 44.3092 15.5021 44.9992 14.9061ZM36.5142 27.4841C35.9492 26.9191 36.8692 24.1561 39.6222 20.5691C40.2102 21.2381 40.8262 21.8971 41.4642 22.5341C42.1022 23.1721 42.7622 23.7871 43.4312 24.3751C39.8432 27.1301 37.0802 28.0511 36.5142 27.4841ZM53.4842 27.4841C52.9182 28.0481 50.1552 27.1281 46.5682 24.3751C47.2372 23.7871 47.8972 23.1721 48.5352 22.5341C49.1722 21.8971 49.7892 21.2371 50.3772 20.5691C53.1292 24.1561 54.0492 26.9191 53.4842 27.4841ZM50.3762 17.4291C49.7882 16.7601 49.1722 16.1011 48.5342 15.4641C47.8972 14.8271 47.2382 14.2111 46.5702 13.6241C49.4872 11.3861 51.8612 10.3561 52.9472 10.3561C53.1972 10.3561 53.3782 10.4101 53.4842 10.5151C54.0492 11.0791 53.1292 13.8421 50.3762 17.4291Z" fill="black"/>
<path d="M45 21C46.1046 21 47 20.1046 47 19C47 17.8954 46.1046 17 45 17C43.8954 17 43 17.8954 43 19C43 20.1046 43.8954 21 45 21Z" fill="black"/>
</svg>
