<svg width="62" height="62" viewBox="0 0 62 62" fill="none" xmlns="http://www.w3.org/2000/svg">
<path d="M25.5004 48.0449C27.2798 48.6168 29.1376 48.907 31.0066 48.9049H31.0079C32.8659 48.9064 34.7128 48.6197 36.4829 48.0549V48.0537C40.0975 46.8971 43.2514 44.6224 45.4896 41.5576C47.7279 38.4928 48.9349 34.7963 48.9366 31.0012C48.9366 21.1124 40.9091 13.0974 31.0066 13.0974C21.1041 13.0974 13.0766 21.1124 13.0766 31.0012C13.0784 34.791 14.282 38.4827 16.5144 41.5452C18.7468 44.6078 21.8929 46.8834 25.5004 48.0449ZM60.6941 26.6512V35.3512L54.3066 35.9762C53.6746 38.7975 52.5398 41.4819 50.9566 43.9012L55.0816 48.8762L48.9316 55.0137L43.9566 50.8887C41.5419 52.4861 38.8498 53.618 36.0191 54.2262L35.3941 60.6762H26.6816L26.0566 54.2262C23.1816 53.6137 20.5316 52.4387 18.1191 50.8887L13.1441 55.0137L6.99414 48.8762L11.1191 43.9012C9.51853 41.4913 8.38237 38.8035 7.76914 35.9762L1.30664 35.3512V26.6512L7.76914 26.0262C8.40122 23.2049 9.53598 20.5204 11.1191 18.1012L6.99414 13.1262L13.1441 6.98867L18.1191 11.1137C20.5339 9.51624 23.2259 8.38429 26.0566 7.77617L26.6816 1.32617H35.3941L36.0191 7.77617C38.8941 8.38867 41.5441 9.56367 43.9566 11.1137L48.9316 6.98867L55.0066 13.1262L50.8816 18.1012C52.4822 20.5111 53.6184 23.1989 54.2316 26.0262L60.6941 26.6512Z" fill="#00EFD1"/>
<path d="M31.0062 13.0977C40.9087 13.0977 48.9362 21.1127 48.9362 31.0014C48.9345 34.7965 47.7275 38.493 45.4892 41.5579C43.2509 44.6227 40.097 46.8974 36.4824 48.0539L36.4012 45.3902C36.2787 43.2664 37.0537 41.1839 38.5649 39.7552C40.2173 38.198 41.3498 36.1696 41.8084 33.9459C42.267 31.7223 42.0295 29.4113 41.1281 27.3274C40.2267 25.2436 38.7053 23.488 36.7707 22.2995C34.8362 21.111 32.5824 20.5473 30.3162 20.6852C24.7224 21.0527 20.1899 25.6664 19.9849 31.2614C19.9222 32.8431 20.1997 34.4198 20.7985 35.8851C21.3973 37.3504 22.3036 38.6701 23.4562 39.7552C24.288 40.5577 24.9178 41.5459 25.2939 42.6388C25.67 43.7317 25.7817 44.8982 25.6199 46.0427L25.4999 48.0452C21.8925 46.8837 18.7463 44.608 16.5139 41.5455C14.2815 38.4829 13.0779 34.7912 13.0762 31.0014C13.0762 21.1127 21.1037 13.0977 31.0062 13.0977Z" fill="#00ACEA"/>
<path d="M31.0077 48.9044H31.0065C29.1375 48.9065 27.2796 48.6163 25.5002 48.0444L25.6202 46.0419C25.782 44.8975 25.6703 43.731 25.2942 42.6381C24.9181 41.5452 24.2883 40.557 23.4565 39.7544C22.3039 38.6694 21.3977 37.3497 20.7988 35.8844C20.2 34.4191 19.9225 32.8424 19.9852 31.2607C20.1902 25.6657 24.7227 21.0519 30.3165 20.6844C32.5828 20.5466 34.8365 21.1103 36.771 22.2988C38.7056 23.4873 40.227 25.2429 41.1284 27.3267C42.0298 29.4106 42.2673 31.7216 41.8087 33.9452C41.3501 36.1689 40.2176 38.1973 38.5652 39.7544C37.054 41.1832 36.279 43.2657 36.4015 45.3894L36.4827 48.0532V48.0544C34.7127 48.6192 32.8657 48.9059 31.0077 48.9044Z" fill="#FEDB41"/>
<path d="M60.8181 25.6549L55.0556 25.099C54.4465 22.6521 53.4576 20.3159 52.125 18.1752L55.7793 13.7636C55.9375 13.5723 56.0189 13.329 56.0076 13.081C55.9963 12.833 55.8933 12.5981 55.7184 12.4219L49.6426 6.28437C49.4667 6.1066 49.2306 6.00119 48.9808 5.98892C48.731 5.97666 48.4857 6.05843 48.2933 6.21812L43.8737 9.88237C41.7251 8.56416 39.3888 7.57974 36.9448 6.96275L36.3891 1.25412C36.3641 1.0093 36.2478 0.782888 36.0633 0.620004C35.8789 0.457121 35.6398 0.36973 35.3937 0.375246H26.6812C26.4353 0.36978 26.1963 0.45714 26.0118 0.619934C25.8274 0.782728 25.711 1.00902 25.6859 1.25375L25.1303 6.97525C22.6805 7.57553 20.3403 8.55682 18.195 9.88325L13.7825 6.22075C13.591 6.06167 13.3471 5.97972 13.0985 5.99091C12.8498 6.0021 12.6143 6.10562 12.4379 6.28125L6.2875 12.4181C6.11111 12.5942 6.00684 12.8298 5.99512 13.0788C5.9834 13.3277 6.06507 13.5721 6.22412 13.764L9.88663 18.1802C8.56896 20.326 7.58284 22.6585 6.96163 25.0987L1.18225 25.655C0.931838 25.6777 0.698496 25.7916 0.526606 25.9751C0.354717 26.1586 0.256273 26.3989 0.25 26.6502V35.3502C0.256233 35.6016 0.354611 35.8418 0.526426 36.0254C0.698241 36.2089 0.93151 36.3229 1.18187 36.3456L6.94438 36.9015C7.55351 39.3484 8.54238 41.6846 9.875 43.8252L6.2205 48.237C6.0616 48.4291 5.98019 48.6737 5.99224 48.9227C6.00428 49.1717 6.10892 49.4072 6.28562 49.5831L12.4365 55.7206C12.6127 55.8967 12.8482 56.0007 13.097 56.0122C13.3458 56.0238 13.5899 55.9421 13.7816 55.7831L18.2014 52.1187C20.3499 53.4371 22.6862 54.4217 25.1303 55.0387L25.6859 60.7474C25.7111 60.992 25.8276 61.2182 26.012 61.3808C26.1965 61.5435 26.4354 61.6308 26.6812 61.6252H35.3937C35.6397 61.6307 35.8787 61.5434 36.0632 61.3806C36.2476 61.2178 36.364 60.9915 36.3891 60.7467L36.9448 55.0254C39.3945 54.425 41.7347 53.4437 43.88 52.1172L48.2925 55.7797C48.4839 55.939 48.7278 56.021 48.9765 56.0098C49.2252 55.9987 49.4608 55.895 49.6371 55.7192L55.7871 49.5827C55.9635 49.4067 56.0678 49.171 56.0795 48.9221C56.0912 48.6731 56.0096 48.4288 55.8505 48.2369L52.188 43.8206C53.5058 41.6746 54.4919 39.3418 55.113 36.9012L60.8182 36.3457C61.0686 36.323 61.3019 36.2089 61.4737 36.0254C61.6455 35.8419 61.7438 35.6016 61.75 35.3502V26.6502C61.7438 26.3989 61.6454 26.1587 61.4736 25.9751C61.3018 25.7916 61.0685 25.6776 60.8181 25.6549ZM59.75 34.4432L54.2375 34.98C54.026 35.0001 53.8261 35.086 53.666 35.2256C53.5059 35.3652 53.3935 35.5515 53.3446 35.7582C52.7367 38.4633 51.6461 41.0365 50.125 43.3545C50.008 43.5329 49.9512 43.7441 49.9628 43.9572C49.9745 44.1702 50.0539 44.374 50.1896 44.5386L53.7308 48.8115L48.8699 53.6627L44.5949 50.1185C44.4296 49.9815 44.2247 49.9013 44.0103 49.8897C43.796 49.8782 43.5836 49.9359 43.4046 50.0544C41.0947 51.5848 38.5181 52.6682 35.8086 53.2482C35.603 53.2873 35.4154 53.3918 35.2739 53.546C35.1324 53.7003 35.0445 53.8961 35.0233 54.1044L34.486 59.6252H27.589L27.0515 54.1037C27.0306 53.8936 26.9428 53.6958 26.8011 53.5393C26.6593 53.3829 26.471 53.2761 26.264 53.2346C23.5564 52.6389 20.9795 51.5565 18.6586 50.0401C18.4796 49.9258 18.2689 49.8715 18.057 49.885C17.8451 49.8985 17.6429 49.9791 17.4799 50.1151L13.2049 53.6607L8.3445 48.8107L11.8874 44.5382C12.0245 44.3727 12.1047 44.1673 12.1159 43.9527C12.1272 43.738 12.069 43.5254 11.9499 43.3464C10.4174 41.0409 9.33059 38.4686 8.74588 35.7627C8.69467 35.5539 8.57956 35.3663 8.41661 35.226C8.25366 35.0857 8.05099 34.9998 7.83687 34.9802L2.25 34.4422V27.5582L7.83687 27.0207C8.04858 27.0008 8.24871 26.915 8.40908 26.7754C8.56945 26.6357 8.682 26.4493 8.73088 26.2424C9.33851 23.5374 10.4289 20.9641 11.9497 18.6461C12.0667 18.4677 12.1235 18.2565 12.1118 18.0434C12.1002 17.8304 12.0207 17.6266 11.885 17.462L8.34387 13.189L13.2051 8.339L17.4801 11.8831C17.6454 12.0201 17.8503 12.1003 18.0646 12.1119C18.2789 12.1234 18.4913 12.0657 18.6702 11.9472C20.9801 10.4167 23.5567 9.33314 26.2663 8.75287C26.4719 8.7138 26.6595 8.60936 26.801 8.4551C26.9425 8.30084 27.0304 8.105 27.0516 7.89675L27.589 2.37525H34.486L35.0235 7.89675C35.0444 8.10685 35.1322 8.3047 35.2739 8.46117C35.4157 8.61763 35.604 8.72444 35.811 8.76587C38.5186 9.36161 41.0955 10.444 43.4164 11.9604C43.5954 12.0746 43.8061 12.129 44.018 12.1155C44.2299 12.102 44.4321 12.0214 44.5951 11.8854L48.8652 8.34325L53.6586 13.185L50.1115 17.4627C49.9743 17.6283 49.8942 17.8336 49.8829 18.0483C49.8717 18.263 49.9299 18.4756 50.049 18.6546C51.5819 20.9598 52.669 23.532 53.2541 26.2377C53.3053 26.4466 53.4204 26.6342 53.5834 26.7745C53.7463 26.9148 53.949 27.0007 54.1631 27.0202L59.75 27.5577V34.4432Z" fill="#083863"/>
<path d="M31.0062 12.0957C20.568 12.0957 12.0762 20.5758 12.0762 30.9995C12.0778 35.0009 13.3485 38.8988 15.7055 42.1324C18.0625 45.366 21.3844 47.7688 25.1933 48.9951C28.9629 50.2022 33.0147 50.206 36.7865 49.0058C36.8027 49.0007 36.8185 48.9951 36.8342 48.9892C40.6394 47.7607 43.9573 45.3577 46.3114 42.1255C48.6654 38.8933 49.9345 34.9981 49.9362 30.9995C49.9362 20.5758 41.4442 12.0957 31.0062 12.0957ZM35.402 45.432L35.4557 47.3117C34.3253 47.6131 33.1676 47.8005 31.9999 47.8711V37.2495H33.2299C33.4951 37.2495 33.7495 37.1441 33.937 36.9566C34.1246 36.769 34.2299 36.5147 34.2299 36.2495C34.2299 35.9842 34.1246 35.7299 33.937 35.5423C33.7495 35.3548 33.4951 35.2495 33.2299 35.2495H28.7837C28.5185 35.2495 28.2641 35.3548 28.0766 35.5423C27.889 35.7299 27.7837 35.9842 27.7837 36.2495C27.7837 36.5147 27.889 36.769 28.0766 36.9566C28.2641 37.1441 28.5185 37.2495 28.7837 37.2495H29.9999V47.8712C28.8314 47.8001 27.6729 47.6117 26.542 47.3087L26.6139 46.139C26.7929 44.842 26.6621 43.5211 26.2322 42.2845C25.8023 41.0478 25.0855 39.9307 24.1405 39.0245C23.0918 38.0372 22.2672 36.8363 21.7226 35.5029C21.178 34.1695 20.9261 32.7347 20.9838 31.2956C21.169 26.2381 25.2972 22.0146 30.373 21.6811C32.4346 21.5549 34.485 22.067 36.2452 23.1478C38.0053 24.2285 39.3897 25.8253 40.2099 27.721C41.0301 29.6166 41.2463 31.7189 40.829 33.7417C40.4117 35.7646 39.3813 37.6098 37.8779 39.0261C36.1664 40.6446 35.2644 42.9787 35.402 45.432ZM44.6153 41.0562C42.7806 43.54 40.2985 45.4717 37.4403 46.6403L37.4012 45.3577C37.4012 45.3487 37.4012 45.3397 37.4 45.3306C37.2923 43.4627 37.9674 41.6947 39.2507 40.4815C40.4455 39.3537 41.3975 37.9939 42.0485 36.4853C42.6994 34.9768 43.0355 33.3512 43.0362 31.7082C43.0359 30.0641 42.6991 28.4375 42.0465 26.9284C41.3939 25.4194 40.4394 24.0599 39.2416 22.9336C38.0439 21.8074 36.6283 20.9382 35.0821 20.3795C33.5358 19.8209 31.8916 19.5846 30.2505 19.6853C24.1562 20.0853 19.208 25.1536 18.9857 31.2201C18.9169 32.9439 19.2189 34.6623 19.8712 36.2594C20.5235 37.8565 21.511 39.295 22.7669 40.4777C23.4855 41.1691 24.0293 42.0215 24.3531 42.9647C24.677 43.9078 24.7717 44.9145 24.6294 45.9015C24.6257 45.9279 24.623 45.9544 24.6214 45.981L24.5817 46.6447C21.4762 45.3731 18.8191 43.2065 16.9483 40.4206C15.0776 37.6346 14.0778 34.3552 14.0762 30.9995C14.0762 21.6787 21.6709 14.0957 31.0062 14.0957C40.3414 14.0957 47.9362 21.6787 47.9362 30.9995C47.9463 34.6227 46.781 38.1515 44.6153 41.0562Z" fill="#083863"/>
</svg>
