<svg width="9" height="9" viewBox="0 0 9 9" fill="none" xmlns="http://www.w3.org/2000/svg">
<g clip-path="url(#clip0_825_7372)">
<path d="M5.78307 2.09635C6.43021 2.09635 6.95059 2.61968 6.95059 3.26302C6.95059 3.89302 6.45022 4.40635 5.82643 4.42968C5.79762 4.42635 5.76852 4.42635 5.7397 4.42968M6.42687 7.42969C6.66705 7.37969 6.89388 7.28302 7.08068 7.13968C7.60106 6.74968 7.60106 6.10635 7.08068 5.71635C6.89722 5.57635 6.67372 5.48302 6.43688 5.42968M3.36464 4.38635C3.33128 4.38302 3.29125 4.38302 3.25456 4.38635C2.87168 4.37336 2.50889 4.21196 2.24303 3.93634C1.97716 3.66071 1.82909 3.2925 1.83018 2.90968C1.83018 2.09302 2.49066 1.42968 3.31126 1.42968C3.70363 1.42261 4.08273 1.57158 4.36518 1.84382C4.64763 2.11606 4.81029 2.48927 4.81736 2.88135C4.82444 3.27343 4.67536 3.65226 4.40292 3.9345C4.13048 4.21674 3.757 4.37928 3.36464 4.38635ZM1.69675 5.61635C0.889494 6.15635 0.889494 7.03635 1.69675 7.57302C2.61409 8.18635 4.11852 8.18635 5.03586 7.57302C5.84311 7.03302 5.84311 6.15302 5.03586 5.61635C4.12186 5.00635 2.61742 5.00635 1.69675 5.61635Z" stroke="white" stroke-width="0.497725" stroke-linecap="round" stroke-linejoin="round"/>
</g>
<defs>
<clipPath id="clip0_825_7372">
<rect width="8.00585" height="8" fill="white" transform="translate(0.309082 0.763672)"/>
</clipPath>
</defs>
</svg>
