<svg width="592" height="626" viewBox="0 0 592 626" fill="none" xmlns="http://www.w3.org/2000/svg">
<path fill-rule="evenodd" clip-rule="evenodd" d="M450.748 205.316L460.313 219.568L463.991 165.531L417.926 198.729L431.523 198.754L410.739 230.957L278.702 194.325C277.446 193.977 276.133 193.882 274.84 194.044C273.547 194.207 272.299 194.624 271.168 195.271C270.037 195.918 269.046 196.783 268.251 197.816C267.456 198.848 266.873 200.028 266.536 201.287L250.206 262.596L223.236 266.691C221.416 266.968 219.711 267.748 218.311 268.943C216.911 270.138 215.873 271.701 215.314 273.454L195.375 336.215C193.73 341.398 196.6 346.946 201.786 348.592C206.972 350.238 212.525 347.364 214.171 342.18L232.253 285.26L259.538 281.121C261.436 280.832 263.208 279.995 264.639 278.715C266.069 277.434 267.095 275.764 267.592 273.909L283.028 215.982L412.454 251.89C414.48 252.452 416.632 252.352 418.597 251.604C420.562 250.857 422.236 249.501 423.376 247.735L450.748 205.316Z" fill="#EEEEEE"/>
<path fill-rule="evenodd" clip-rule="evenodd" d="M160.996 464.486C158.206 443.191 142.704 439.41 128.373 432.007C115.558 425.376 102.173 415.994 92.2649 404.061C80.1458 389.471 74.5806 368.327 84.7079 350.17C88.5011 343.366 93.5171 337.454 99.097 332.815C103.549 329.116 108.492 326.46 113.698 324.754C156.06 310.853 165.807 384.158 205.862 378.258C230.356 374.651 246.225 347.623 260.277 326.038C273.699 305.418 289.626 286.639 310.057 276.72C333.599 265.295 355.553 282.294 377.638 291.204C390.555 296.415 404.014 298.837 417.627 297.897C450.089 295.654 449.796 242.767 479.519 225.307C540.231 189.639 571.667 272.462 521.924 332.126C507.667 349.228 487.698 362.073 476.794 383.062C463.65 408.378 466.792 434.555 469.376 462.755L160.996 464.486Z" fill="#EEEEEE"/>
<path fill-rule="evenodd" clip-rule="evenodd" d="M167.139 462.705C166.728 457.396 164.956 452.11 163.277 447.094C158.795 433.743 152.34 421.754 140.901 413.144C135.343 408.963 127.805 405.048 120.599 406.035C117.186 406.502 113.378 408.472 113.548 412.417C113.842 419.471 122.302 424.982 127.472 428.41C140.103 436.792 163.555 445.871 167.139 462.705Z" fill="#6993A4"/>
<mask id="mask0_1974_45717" style="mask-type:luminance" maskUnits="userSpaceOnUse" x="113" y="405" width="55" height="58">
<path d="M167.139 462.705C166.728 457.396 164.956 452.11 163.277 447.094C158.795 433.743 152.34 421.754 140.901 413.144C135.343 408.963 127.805 405.048 120.599 406.035C117.186 406.502 113.378 408.472 113.548 412.417C113.842 419.471 122.302 424.982 127.472 428.41C140.103 436.792 163.555 445.871 167.139 462.705Z" fill="white"/>
</mask>
<g mask="url(#mask0_1974_45717)">
<path fill-rule="evenodd" clip-rule="evenodd" d="M116.649 402.406C115.682 404.817 116.091 407.671 116.593 410.136C117.039 412.358 117.663 414.618 118.806 416.589C122.954 423.712 131.676 426.707 139.395 427.878C142.882 428.408 148.471 428.762 151.204 425.898C153.083 423.926 151.725 422.029 151.614 419.816C151.586 419.23 152.051 419.091 152.543 419.239C155.212 420.021 157.5 423.824 158.932 425.935C163.228 432.305 165.971 440.014 167.106 447.592C167.506 450.261 168.101 453.99 166.381 456.352C164.223 459.319 159.313 457.05 156.812 455.878C156.086 455.534 155.361 455.171 154.645 454.799C153.817 454.371 152.99 453.925 152.181 453.479C150.907 452.781 149.661 452.037 148.424 451.293C140.864 446.774 104.737 427.999 99.9756 419.119C95.0099 409.847 108.066 405.551 116.649 402.406Z" fill="#477282"/>
</g>
<path fill-rule="evenodd" clip-rule="evenodd" d="M171.023 462.705C171.434 457.396 173.206 452.11 174.886 447.094C179.367 433.743 185.822 421.754 197.261 413.144C202.819 408.963 210.357 405.048 217.563 406.035C220.976 406.502 224.784 408.472 224.614 412.417C224.32 419.471 215.86 424.982 210.69 428.41C198.059 436.792 174.607 445.871 171.023 462.705Z" fill="#6993A4"/>
<mask id="mask1_1974_45717" style="mask-type:luminance" maskUnits="userSpaceOnUse" x="171" y="405" width="54" height="58">
<path d="M171.023 462.705C171.434 457.396 173.206 452.11 174.886 447.094C179.367 433.743 185.822 421.754 197.261 413.144C202.819 408.963 210.357 405.048 217.563 406.035C220.976 406.502 224.784 408.472 224.614 412.417C224.32 419.471 215.86 424.982 210.69 428.41C198.059 436.792 174.607 445.871 171.023 462.705Z" fill="white"/>
</mask>
<g mask="url(#mask1_1974_45717)">
<path fill-rule="evenodd" clip-rule="evenodd" d="M221.513 402.406C222.48 404.817 222.071 407.671 221.569 410.136C221.123 412.358 220.5 414.618 219.356 416.589C215.208 423.712 206.486 426.707 198.768 427.878C195.28 428.408 189.692 428.762 186.958 425.898C185.079 423.926 186.437 422.029 186.549 419.816C186.576 419.23 186.111 419.091 185.619 419.239C182.95 420.021 180.662 423.824 179.23 425.935C174.934 432.305 172.191 440.014 171.056 447.592C170.656 450.261 170.061 453.99 171.782 456.352C173.939 459.319 178.849 457.05 181.35 455.878C182.076 455.534 182.801 455.171 183.517 454.799C184.345 454.371 185.172 453.925 185.981 453.479C187.255 452.781 188.501 452.037 189.738 451.293C197.298 446.774 233.425 427.999 238.186 419.119C243.152 409.847 230.096 405.551 221.513 402.406Z" fill="#477282"/>
</g>
<path fill-rule="evenodd" clip-rule="evenodd" d="M165.448 460.078C165.715 450.078 166.341 439.319 165.192 429C164.093 419.231 161.403 409.851 154.965 402.059C147.994 393.609 138.055 388.308 129.153 382.145C119.245 375.279 110.569 367.42 107.232 354.463C106.215 350.557 105.835 346.496 106.226 342.48C106.647 338.199 108.063 334.07 109.963 330.21C110.877 328.35 113.136 327.586 114.994 328.503C116.852 329.42 117.623 331.675 116.698 333.534C115.199 336.585 114.039 339.835 113.7 343.22C113.392 346.359 113.711 349.532 114.501 352.586C117.356 363.624 124.984 370.12 133.434 375.969C142.891 382.52 153.353 388.295 160.766 397.274C175.171 414.735 173.529 439.08 172.964 460.277C172.902 462.355 171.177 463.994 169.103 463.934C167.029 463.884 165.397 462.155 165.448 460.078Z" fill="#6993A4"/>
<mask id="mask2_1974_45717" style="mask-type:luminance" maskUnits="userSpaceOnUse" x="106" y="328" width="68" height="136">
<path d="M165.448 460.078C165.715 450.078 166.341 439.319 165.192 429C164.093 419.231 161.403 409.851 154.965 402.059C147.994 393.609 138.055 388.308 129.153 382.145C119.245 375.279 110.569 367.42 107.232 354.463C106.215 350.557 105.835 346.496 106.226 342.48C106.647 338.199 108.063 334.07 109.963 330.21C110.877 328.35 113.136 327.586 114.994 328.503C116.852 329.42 117.623 331.675 116.698 333.534C115.199 336.585 114.039 339.835 113.7 343.22C113.392 346.359 113.711 349.532 114.501 352.586C117.356 363.624 124.984 370.12 133.434 375.969C142.891 382.52 153.353 388.295 160.766 397.274C175.171 414.735 173.529 439.08 172.964 460.277C172.902 462.355 171.177 463.994 169.103 463.934C167.029 463.884 165.397 462.155 165.448 460.078Z" fill="white"/>
</mask>
<g mask="url(#mask2_1974_45717)">
<path fill-rule="evenodd" clip-rule="evenodd" d="M126.532 323.186C120.831 327.855 118.643 356.562 114.525 362.564C113.549 364.001 112.045 369.623 110.081 369.944C108.562 370.19 107.261 367.984 106.617 366.959C104.321 363.335 103.055 358.937 101.957 354.836C99.0995 344.261 97.525 331.523 100.738 320.868C101.274 319.068 102.001 317.254 103.012 315.665C107.45 308.733 115.542 312.221 120.407 316.564C122.653 318.575 124.642 320.836 126.532 323.186Z" fill="#477282"/>
</g>
<path d="M120.578 351.958C101.104 351.958 85.3174 336.172 85.3174 316.698C85.3174 297.224 101.104 281.438 120.578 281.438C140.051 281.438 155.838 297.224 155.838 316.698C155.838 336.172 140.051 351.958 120.578 351.958Z" fill="#F29F05"/>
<mask id="mask3_1974_45717" style="mask-type:luminance" maskUnits="userSpaceOnUse" x="85" y="281" width="71" height="71">
<path d="M120.578 351.958C101.104 351.958 85.3174 336.172 85.3174 316.698C85.3174 297.224 101.104 281.438 120.578 281.438C140.051 281.438 155.838 297.224 155.838 316.698C155.838 336.172 140.051 351.958 120.578 351.958Z" fill="white"/>
</mask>
<g mask="url(#mask3_1974_45717)">
<path fill-rule="evenodd" clip-rule="evenodd" d="M91.833 289.07C88.318 306.423 89.4432 327.392 105.289 338.449C108.317 340.548 111.622 342.216 115.109 343.405C123.869 346.4 134.377 346.353 142.783 342.28C145.257 341.09 147.609 339.574 149.609 337.686C150.864 336.505 152.11 334.534 153.673 333.762C155.225 332.99 155.653 334.962 155.56 336.078C155.225 340.281 152.38 344.447 149.823 347.608C139.984 359.781 123.738 363.352 109.064 358.609C83.7614 350.435 70.5194 312.169 91.833 289.07Z" fill="#D98A00"/>
</g>
<path d="M127.649 321.54C126.999 320.413 126.169 319.696 125.158 319.392C124.149 319.085 122.733 319.083 120.907 319.385C119.085 319.686 117.469 319.872 116.063 319.942C114.653 320.014 113.353 319.912 112.159 319.639C110.974 319.368 109.857 318.858 108.877 318.139C107.879 317.414 106.993 316.377 106.215 315.03C104.874 312.707 104.518 310.375 105.146 308.033C105.773 305.691 107.243 303.689 109.562 302.019L107.015 297.608L110.312 295.704L112.895 300.178C115.528 299.115 118.018 299.03 120.363 299.921C122.709 300.812 124.657 302.596 126.205 305.276L120.246 308.717C119.293 307.067 118.239 306.031 117.09 305.604C115.937 305.18 114.789 305.297 113.65 305.954C112.523 306.605 111.834 307.429 111.584 308.426C111.333 309.423 111.535 310.483 112.186 311.61C112.789 312.655 113.573 313.32 114.546 313.601C115.515 313.885 117.012 313.882 119.035 313.594C121.059 313.305 122.768 313.148 124.163 313.121C125.558 313.094 126.832 313.239 127.987 313.552C129.12 313.858 130.181 314.385 131.109 315.103C132.037 315.823 132.863 316.808 133.585 318.058C134.934 320.395 135.298 322.714 134.685 325.01C134.068 327.309 132.556 329.328 130.152 331.064L132.521 335.166L129.243 337.059L126.886 332.976C123.892 334.302 121.134 334.561 118.607 333.757C116.081 332.952 114.004 331.141 112.377 328.324L118.336 324.883C119.28 326.519 120.393 327.548 121.674 327.973C122.955 328.397 124.323 328.189 125.781 327.347C126.988 326.65 127.758 325.78 128.093 324.734C128.424 323.691 128.276 322.626 127.649 321.54Z" fill="white"/>
<path fill-rule="evenodd" clip-rule="evenodd" d="M450.163 321.724C416.108 304.222 344.587 323.984 344.587 323.984L285.599 252.133C285.599 252.133 288.583 235.305 286.721 233.906C280.609 229.313 276.072 241.918 276.072 241.918C276.072 241.918 251.362 227.773 244.352 228.152C230.487 228.905 256.642 250.977 256.642 250.977C256.642 250.977 280.227 339.957 306.246 362.268C332.264 384.578 391.589 383.627 412.729 384.845C451.605 387.085 469.948 331.893 450.163 321.724Z" fill="#FAD8BA"/>
<mask id="mask4_1974_45717" style="mask-type:luminance" maskUnits="userSpaceOnUse" x="240" y="228" width="219" height="157">
<path d="M450.163 321.724C416.108 304.222 344.587 323.984 344.587 323.984L285.599 252.133C285.599 252.133 288.583 235.305 286.721 233.906C280.609 229.313 276.072 241.918 276.072 241.918C276.072 241.918 251.362 227.773 244.352 228.152C230.487 228.905 256.642 250.977 256.642 250.977C256.642 250.977 280.227 339.957 306.246 362.268C332.264 384.578 391.589 383.627 412.729 384.845C451.605 387.085 469.948 331.893 450.163 321.724Z" fill="white"/>
</mask>
<g mask="url(#mask4_1974_45717)">
<path fill-rule="evenodd" clip-rule="evenodd" d="M257.346 252.889C263.27 258.745 280.995 342.597 335.82 365.652C347.938 370.747 370.025 362.434 383.158 362.402C389.542 362.386 396.95 360.252 403.215 361.434C408.306 362.392 411.32 367.323 412.097 372.126C415.983 396.137 385.529 403.819 367.701 404.132C363.53 404.205 359.358 404.11 355.202 403.718C350.666 403.29 346.122 402.678 341.649 401.796C295.421 392.681 268.829 298.286 257.346 252.889Z" fill="#D7B699"/>
<path fill-rule="evenodd" clip-rule="evenodd" d="M383.548 309.315C376.703 319.842 376.154 333.956 375.923 346.104C375.749 355.031 375.779 363.732 378.792 372.217C381.433 379.646 385.528 388.012 391.464 393.412C403.664 404.494 422.001 398.053 434.192 390.463C456.148 376.797 475.33 344.894 456.402 321.196C453.469 317.522 449.84 314.303 445.869 311.783C438.442 307.071 392.142 310.587 383.548 309.315Z" fill="#F25C05"/>
</g>
<path fill-rule="evenodd" clip-rule="evenodd" d="M497.337 339.054C479.667 321.38 404.437 288.973 398.044 338.06C389.686 402.234 358.494 464.325 358.494 464.325L494.553 463.39C494.553 463.39 514.998 356.727 497.337 339.054Z" fill="#F25C05"/>
<mask id="mask5_1974_45717" style="mask-type:luminance" maskUnits="userSpaceOnUse" x="358" y="312" width="147" height="153">
<path d="M497.337 339.054C479.667 321.38 404.437 288.973 398.044 338.06C389.686 402.234 358.494 464.325 358.494 464.325L494.553 463.39C494.553 463.39 514.998 356.727 497.337 339.054Z" fill="white"/>
</mask>
<g mask="url(#mask5_1974_45717)">
<path fill-rule="evenodd" clip-rule="evenodd" d="M506.449 337.568C499.898 368.763 489.794 404.602 464.836 426.084C455.24 434.347 439.989 436.243 427.364 447.869C405.951 467.577 394.174 458.829 376.496 452.358C367.891 449.217 356.852 444.967 347.716 446.109C335.217 447.679 338.825 457.632 345.376 466.007C350.912 473.065 359.461 477.149 367.685 480.187C384.411 486.373 402.715 488.966 420.456 489.727C445.192 490.782 472.577 488.736 494.751 476.721C540.09 452.144 524.681 382.215 506.449 337.568Z" fill="#D23F00"/>
</g>
<path fill-rule="evenodd" clip-rule="evenodd" d="M440.799 303.646L460.581 303.934C457.838 311.37 459.061 315.16 461.883 322.136C436.724 370.729 430.242 354.254 438.766 322.583C442.101 317.838 443.206 311.777 440.799 303.646Z" fill="#FAD8BA"/>
<mask id="mask6_1974_45717" style="mask-type:luminance" maskUnits="userSpaceOnUse" x="435" y="303" width="27" height="50">
<path d="M440.799 303.646L460.581 303.934C457.838 311.37 459.061 315.16 461.883 322.136C436.724 370.729 430.242 354.254 438.766 322.583C442.101 317.838 443.206 311.777 440.799 303.646Z" fill="white"/>
</mask>
<g mask="url(#mask6_1974_45717)">
<path fill-rule="evenodd" clip-rule="evenodd" d="M438.662 315.325C442.274 320.565 448.476 322.696 454.611 321.413C458.145 320.679 461.513 318.45 462.269 314.686C463.036 310.851 460.668 307.808 457.456 305.978C452.444 303.129 443.196 311.662 438.662 315.325Z" fill="#D7B699"/>
<path fill-rule="evenodd" clip-rule="evenodd" d="M439.495 291.324C438.289 300.56 436.96 309.93 437.581 319.255C437.903 324.101 431.519 346.619 441.617 349.164C450.41 351.376 451.958 354.199 446.112 359.412C440.37 364.525 432.632 364.325 427.941 357.956C425.177 354.21 423.749 349.464 422.91 344.941C421.066 334.982 437.398 301.149 439.495 291.324Z" fill="#D7B699"/>
</g>
<path fill-rule="evenodd" clip-rule="evenodd" d="M450.102 279.906C442.452 279.906 436.243 288.115 436.243 298.226C436.243 308.336 437.57 317.107 445.211 317.107C452.861 317.107 463.953 308.336 463.953 298.226C463.953 288.115 457.743 279.906 450.102 279.906Z" fill="#FAD8BA"/>
<path fill-rule="evenodd" clip-rule="evenodd" d="M450.19 293.812C448.136 296.513 444.115 297.366 440.951 297.26C438.119 297.166 435.153 296.459 432.607 295.234C425.517 291.828 426.398 283.378 429.514 277.398C432.282 272.093 437.041 268.919 442.727 272.174C443.821 272.803 444.662 273.691 445.463 274.658C447.755 273.713 450.555 273.846 452.958 274.106C455.107 274.338 457.391 274.704 459.405 275.509C468.454 279.128 470.485 289.222 468.058 297.674C467.019 301.279 465.052 304.966 462.157 307.422C460.857 308.522 459.088 309.602 457.296 309.254C452.672 308.358 457.232 303.938 457.732 301.711C457.978 300.624 457.954 298.811 456.661 298.392C455.9 298.143 455.154 298.478 454.568 298.962C452.981 300.271 452.196 302.341 450.475 303.539C448.937 304.61 448.469 303.322 448.889 301.968C449.032 301.506 449.198 301.055 449.373 300.603C449.714 299.699 450.079 294.774 450.19 293.812Z" fill="#03222F"/>
<path d="M273.43 367.874L262.898 354.748C262.898 354.748 291.75 347.117 297.072 343.803C304.669 339.077 314.472 336.099 326.487 334.872C338.51 333.645 347.202 331.864 352.571 329.532C357.948 327.2 362.27 323.77 365.537 319.241C375.403 305.576 374.023 294.19 361.413 285.085C355.426 280.766 349.311 279.147 343.054 280.229C336.797 281.311 331.261 285.028 326.423 291.381L291.251 265.991L280.703 252.387C280.703 252.387 319.262 241.876 332.411 240.537C348.534 238.895 365.093 244.203 382.073 256.46C399.219 268.834 409.529 282.579 413.003 297.696C416.484 312.813 412.765 327.932 401.852 343.053C396.887 349.926 390.67 355.307 383.191 359.194C375.713 363.081 365.442 365.972 352.396 367.867L335.829 370.114C325.424 371.581 316.914 375.956 310.3 383.239L304.479 390.287L273.43 367.874ZM243.032 402.573C246.942 397.155 252.01 394.015 258.227 393.154C264.445 392.291 270.425 393.932 276.166 398.076C281.908 402.221 285.342 407.379 286.484 413.554C287.626 419.724 286.238 425.521 282.329 430.938C278.474 436.275 273.502 439.384 267.387 440.264C261.281 441.145 255.277 439.455 249.377 435.189C243.468 430.93 239.979 425.767 238.884 419.692C237.798 413.617 239.178 407.909 243.032 402.573Z" fill="#023341"/>
<path d="M262.779 354.112C270.949 342.792 278.882 334.798 286.481 330.084C294.085 325.362 303.874 322.369 315.843 321.115C327.901 319.913 336.57 318.12 341.945 315.782C347.314 313.452 351.677 310.053 354.947 305.521C364.814 291.852 363.39 280.435 350.766 271.323C344.83 267.038 338.654 265.378 332.404 266.462C326.153 267.545 320.651 271.292 315.813 277.642L280.616 252.237C291.929 236.916 305.671 228.447 321.758 226.771C337.924 225.163 354.457 230.447 371.428 242.697C388.567 255.068 398.867 268.81 402.418 283.975C405.879 299.087 402.112 314.17 391.201 329.286C386.235 336.166 380.048 341.569 372.549 345.439C365.134 349.37 354.811 352.219 341.749 354.108L325.226 356.385C314.779 357.822 306.279 362.202 299.722 369.524L293.879 376.561L262.779 354.112ZM232.389 388.815C236.299 383.398 241.367 380.252 247.58 379.396C253.799 378.532 259.832 380.215 265.517 384.319C271.285 388.483 274.7 393.618 275.838 399.793C276.982 405.96 275.593 411.761 271.683 417.178C267.833 422.512 262.897 425.65 256.792 426.534C250.686 427.417 244.665 425.715 238.729 421.43C232.877 417.206 229.367 412.028 228.282 405.955C227.198 399.883 228.539 394.149 232.389 388.815Z" fill="#A6D2E4"/>
<path fill-rule="evenodd" clip-rule="evenodd" d="M492.999 338.922C454.916 342.884 405.833 398.532 405.833 398.532L317.16 370.618C317.16 370.618 310.458 354.897 308.135 354.743C300.505 354.239 303.598 367.274 303.598 367.274C303.598 367.274 280.1 365.046 276 366.471C262.882 371.038 292.281 385.481 292.281 385.481C292.281 385.481 360.676 447.093 394.659 451.55C428.642 456.007 477.796 422.777 496.163 412.24C529.94 392.862 515.126 336.62 492.999 338.922Z" fill="#FAD8BA"/>
<mask id="mask7_1974_45717" style="mask-type:luminance" maskUnits="userSpaceOnUse" x="272" y="338" width="245" height="114">
<path d="M492.999 338.922C454.916 342.884 405.833 398.532 405.833 398.532L317.16 370.618C317.16 370.618 310.458 354.897 308.135 354.743C300.505 354.239 303.598 367.274 303.598 367.274C303.598 367.274 280.1 365.046 276 366.471C262.882 371.038 292.281 385.481 292.281 385.481C292.281 385.481 360.676 447.093 394.659 451.55C428.642 456.007 477.796 422.777 496.163 412.24C529.94 392.862 515.126 336.62 492.999 338.922Z" fill="white"/>
</mask>
<g mask="url(#mask7_1974_45717)">
<path fill-rule="evenodd" clip-rule="evenodd" d="M448.246 369.723C446.565 377.933 447.778 388.003 451.038 395.609C453.346 400.974 456.129 406.125 458.39 411.502C459.318 413.705 460.809 416.591 460.071 419.05C459.214 421.905 455.907 424.173 453.536 425.632C451.395 426.949 449.095 428.012 446.74 428.868C442.758 430.319 438.587 431.239 434.431 432.032C427.896 433.278 421.203 433.944 414.565 434.356C404.485 434.975 394.183 434.888 384.166 433.428C361.556 430.129 340.468 421.041 321.561 408.456C314.329 403.64 307.207 398.597 300.307 393.31C298.658 392.044 292.44 385.976 293.495 391.705C294.407 396.681 297.286 401.554 299.855 405.809C305.224 414.696 311.577 422.912 319.024 430.153C326.019 436.957 333.91 442.874 342.261 447.894C381.208 471.289 428.761 467.895 468.43 448.005C486.369 439.012 506.117 426.195 514.579 407.162C517.227 401.189 447.723 376.189 448.246 369.723Z" fill="#D7B699"/>
<path fill-rule="evenodd" clip-rule="evenodd" d="M441.371 357.115C441.395 369.672 448.651 381.79 455.099 392.089C459.834 399.659 464.616 406.928 471.777 412.385C478.051 417.162 486.053 421.928 493.975 423.205C510.249 425.814 522.082 410.396 528.141 397.375C539.053 373.93 537.673 336.73 508.869 327.234C504.404 325.761 499.606 325.05 494.903 325.111C486.108 325.226 449.262 353.482 441.371 357.115Z" fill="#F25C05"/>
</g>
<path fill-rule="evenodd" clip-rule="evenodd" d="M152.299 462.854H506.476V465.179H152.299V462.854Z" fill="#03222F"/>
<path fill-rule="evenodd" clip-rule="evenodd" d="M102.527 463.146H140.475V465.618H102.527V463.146Z" fill="#03222F"/>
<path fill-rule="evenodd" clip-rule="evenodd" d="M98.3065 187.183C98.3065 173.93 116.555 160.383 129.807 160.383H218.995C232.247 160.383 243.006 171.142 243.006 184.394V232.416C243.006 245.668 232.247 256.427 218.995 256.427V286.453C218.995 288.225 207.804 297.981 206.614 296.665C195.774 284.648 181.856 256.427 181.856 256.427H129.807C116.555 256.427 105.796 245.668 105.796 232.416L98.3065 187.183Z" fill="#023341"/>
<path fill-rule="evenodd" clip-rule="evenodd" d="M97.3487 190.845C97.3487 177.593 108.108 166.834 121.359 166.834H210.548C223.799 166.834 234.559 177.593 234.559 190.845V238.867C234.559 252.119 223.799 262.878 210.548 262.878V292.904C210.548 293.769 210.285 294.615 209.795 295.328C209.305 296.041 208.61 296.589 207.803 296.9C206.994 297.21 206.11 297.269 205.268 297.067C204.426 296.866 203.664 296.415 203.083 295.772C192.244 283.754 173.409 262.878 173.409 262.878H121.359C108.108 262.878 97.3487 252.119 97.3487 238.867V190.845Z" fill="#6993A4"/>
<path fill-rule="evenodd" clip-rule="evenodd" d="M119.555 190.441C107.691 203.264 108.468 223.271 121.288 235.133C126.785 240.219 133.911 243.19 141.393 243.515L142.425 219.819C140.553 219.738 138.771 218.995 137.396 217.723C134.193 214.759 133.998 209.756 136.965 206.549L119.555 190.441ZM147.33 243.216C154.487 242.171 161.069 238.706 165.982 233.397C177.471 220.979 177.152 201.719 165.258 189.687L154.013 200.805C159.958 206.82 160.118 216.45 154.375 222.657C151.917 225.313 148.627 227.044 145.05 227.568L147.33 243.216ZM159.747 185.239C148.634 178.166 134.3 178.722 123.769 186.637L130.518 195.618C137.308 190.517 146.551 190.158 153.716 194.717L159.747 185.239Z" fill="white"/>
<path fill-rule="evenodd" clip-rule="evenodd" d="M209.12 192.446C209.119 191.527 208.753 190.646 208.103 189.997C207.452 189.347 206.571 188.983 205.652 188.982H186.585C185.669 188.982 184.785 189.347 184.139 189.997C183.817 190.318 183.561 190.7 183.387 191.12C183.212 191.54 183.123 191.991 183.123 192.446V192.524C183.123 193.442 183.487 194.324 184.139 194.973C184.46 195.295 184.841 195.55 185.261 195.724C185.681 195.898 186.131 195.988 186.585 195.988H205.652C206.571 195.987 207.452 195.623 208.103 194.973C208.753 194.324 209.119 193.443 209.12 192.524V192.446Z" fill="white"/>
<path fill-rule="evenodd" clip-rule="evenodd" d="M225.329 209.07C225.329 208.307 225.023 207.575 224.484 207.035C223.944 206.495 223.211 206.191 222.447 206.191H185.999C185.235 206.191 184.502 206.495 183.963 207.035C183.423 207.575 183.117 208.307 183.117 209.07V209.073C183.117 209.836 183.423 210.568 183.963 211.108C184.502 211.648 185.235 211.952 185.999 211.952H222.447C223.211 211.952 223.944 211.648 224.484 211.108C225.023 210.568 225.329 209.836 225.329 209.073V209.07Z" fill="white"/>
<path fill-rule="evenodd" clip-rule="evenodd" d="M225.329 218.754C225.329 217.991 225.023 217.258 224.484 216.718C223.944 216.178 223.211 215.875 222.447 215.875H185.999C185.235 215.875 184.502 216.178 183.963 216.718C183.423 217.258 183.117 217.991 183.117 218.754V218.756C183.117 219.52 183.423 220.252 183.963 220.792C184.502 221.332 185.235 221.635 185.999 221.635H222.447C223.211 221.635 223.944 221.332 224.484 220.792C225.023 220.252 225.329 219.52 225.329 218.756V218.754Z" fill="white"/>
<path fill-rule="evenodd" clip-rule="evenodd" d="M225.329 228.437C225.329 227.674 225.023 226.942 224.484 226.402C223.944 225.862 223.211 225.559 222.447 225.559H185.999C185.235 225.559 184.502 225.862 183.963 226.402C183.423 226.942 183.117 227.674 183.117 228.437V228.44C183.117 229.203 183.423 229.936 183.963 230.476C184.502 231.016 185.235 231.319 185.999 231.319H222.447C223.211 231.319 223.944 231.016 224.484 230.476C225.023 229.936 225.329 229.203 225.329 228.44V228.437Z" fill="white"/>
</svg>
