<svg width="60" height="60" viewBox="0 0 60 60" fill="none" xmlns="http://www.w3.org/2000/svg">
<path d="M30 60.0001C46.5685 60.0001 60 46.5686 60 30.0001C60 13.4315 46.5685 0 30 0C13.4315 0 0 13.4315 0 30.0001C0 46.5686 13.4315 60.0001 30 60.0001Z" fill="#25B39E"/>
<path d="M49.375 16.25H10.625V43.75H49.375V16.25Z" fill="#E9EDED"/>
<path d="M10.625 16.25H49.355V19.375H10.625V16.25Z" fill="#34485C"/>
<path d="M47.5 16.8848V18.7511M45 16.886V18.7511M42.5 16.886V18.7511" stroke="#435E78" stroke-width="0.164062" stroke-linecap="square" stroke-linejoin="round"/>
<path d="M13.125 22.5H46.875V41.25H13.125V22.5Z" fill="#FCD062"/>
<path d="M13.75 36.25H16.855L23.1149 30L28.1212 32.5L35.5663 27.5L41.875 30H46.25M16.875 36.875V40.625M23.125 30.625V40.625M28.125 33.125V40.625" stroke="#4BBFEB" stroke-width="0.164062" stroke-linecap="square"/>
<path d="M35.625 28.125V38.4712" stroke="#4BBFEB" stroke-width="0.328125"/>
<path d="M41.875 30.625V40.625" stroke="#4BBFEB" stroke-width="0.164062" stroke-linecap="square"/>
<path d="M28.0684 33.5879C28.7587 33.5879 29.3184 33.0282 29.3184 32.3379C29.3184 31.6475 28.7587 31.0879 28.0684 31.0879C27.378 31.0879 26.8184 31.6475 26.8184 32.3379C26.8184 33.0282 27.378 33.5879 28.0684 33.5879Z" fill="#F05542"/>
<path d="M16.8359 37.4141C17.5263 37.4141 18.0859 36.8544 18.0859 36.1641C18.0859 35.4737 17.5263 34.9141 16.8359 34.9141C16.1456 34.9141 15.5859 35.4737 15.5859 36.1641C15.5859 36.8544 16.1456 37.4141 16.8359 37.4141Z" fill="#F05542"/>
<path d="M30.3125 31.6658L35.5663 28.2422L42.5937 30.7422" stroke="#4BBFEB" stroke-width="0.328125"/>
<path d="M35.5997 32.2463C37.1283 32.2463 38.3674 31.0072 38.3674 29.4786C38.3674 27.9501 37.1283 26.7109 35.5997 26.7109C34.0712 26.7109 32.832 27.9501 32.832 29.4786C32.832 31.0072 34.0712 32.2463 35.5997 32.2463Z" fill="#60C5B8"/>
<path d="M23.1152 31.3574C23.8056 31.3574 24.3652 30.7978 24.3652 30.1074C24.3652 29.4171 23.8056 28.8574 23.1152 28.8574C22.4249 28.8574 21.8652 29.4171 21.8652 30.1074C21.8652 30.7978 22.4249 31.3574 23.1152 31.3574Z" fill="#60C5B8"/>
<path d="M30.8618 37.7969L25.9593 46.2869C25.8769 46.4289 25.8235 46.5859 25.8019 46.7487C25.7803 46.9116 25.791 47.077 25.8335 47.2357C25.876 47.3943 25.9494 47.5431 26.0495 47.6733C26.1496 47.8035 26.2746 47.9126 26.417 47.9945C26.559 48.0769 26.7159 48.1303 26.8787 48.1519C27.0415 48.1735 27.2069 48.1627 27.3656 48.1202C27.5242 48.0777 27.673 48.0044 27.8032 47.9043C27.9334 47.8042 28.0426 47.6793 28.1244 47.5369L33.0269 39.0481" fill="#F05542"/>
<path d="M30.8558 37.8125L30.1133 39.1011C30.6008 39.5149 31.5208 40.145 32.3008 40.3137L33.0433 39.0637L30.8558 37.8125Z" fill="#E54141"/>
<path d="M36.694 22.4993C38.0256 22.5355 39.3314 22.8753 40.5119 23.4927C41.6923 24.11 42.7163 24.9887 43.5057 26.0618C44.295 27.1349 44.8291 28.374 45.0669 29.6847C45.3048 30.9954 45.2403 32.3431 44.8783 33.6251C44.5164 34.9071 43.8665 36.0897 42.9783 37.0825C42.0901 38.0753 40.9869 38.8522 39.7529 39.354C38.5189 39.8559 37.1867 40.0692 35.8577 39.9781C34.5286 39.887 33.238 39.4936 32.084 38.8281C30.3973 37.8552 29.0832 36.3477 28.3497 34.544C27.6162 32.7403 27.5053 30.7436 28.0343 28.8697C28.5634 26.9958 29.7022 25.3519 31.2707 24.1981C32.8392 23.0443 34.7476 22.4464 36.694 22.4993ZM37.1627 25.6631C36.0622 25.5271 34.9461 25.7176 33.9529 26.2107C32.9597 26.7039 32.1333 27.4779 31.5765 28.4368C30.8328 29.7324 30.6333 31.27 31.0215 32.7125C31.4098 34.155 32.3542 35.3846 33.6477 36.1318C34.9431 36.8756 36.4806 37.0754 37.9231 36.6874C39.3656 36.2994 40.5953 35.3551 41.3427 34.0618C41.7109 33.4235 41.9496 32.7188 42.0448 31.9882C42.14 31.2575 42.09 30.5152 41.8977 29.8039C41.7054 29.0925 41.3745 28.4263 40.924 27.8431C40.4736 27.2599 39.9124 26.7714 39.2727 26.4056C38.6002 26.0181 37.8877 25.7531 37.1627 25.6631Z" fill="#34485C"/>
<path opacity="0.341" d="M36.4609 36.873C39.5675 36.873 42.0859 34.3546 42.0859 31.248C42.0859 28.1414 39.5675 25.623 36.4609 25.623C33.3543 25.623 30.8359 28.1414 30.8359 31.248C30.8359 34.3546 33.3543 36.873 36.4609 36.873Z" fill="white"/>
<path d="M39.3086 27.9277C39.9997 28.5204 40.4887 29.314 40.7074 30.1978" stroke="white" stroke-width="0.164083" stroke-linecap="round" stroke-linejoin="round"/>
</svg>
