<svg width="501" height="472" viewBox="0 0 501 472" fill="none" xmlns="http://www.w3.org/2000/svg">
<path d="M302.943 381.79C383.054 381.79 447.997 316.841 447.997 236.721C447.997 156.602 383.054 91.6523 302.943 91.6523C222.832 91.6523 157.889 156.602 157.889 236.721C157.889 316.841 222.832 381.79 302.943 381.79Z" fill="#DBE8EC"/>
<path d="M492.459 208.453V193.866C492.459 191.084 491.354 188.417 489.387 186.45C487.42 184.483 484.753 183.378 481.972 183.378H444.956C442.175 183.378 439.508 182.273 437.541 180.306C435.574 178.339 434.47 175.671 434.47 172.89V158.303C434.47 155.521 435.574 152.854 437.541 150.887C439.508 148.92 442.175 147.815 444.956 147.815H446.125C447.502 147.815 448.866 147.544 450.138 147.017C451.411 146.489 452.567 145.717 453.541 144.743C454.514 143.769 455.287 142.613 455.814 141.34C456.341 140.068 456.612 138.704 456.612 137.327V122.74C456.612 121.363 456.341 119.999 455.814 118.726C455.287 117.454 454.514 116.298 453.541 115.324C452.567 114.35 451.411 113.577 450.138 113.05C448.866 112.523 447.502 112.252 446.125 112.252H177.189C174.408 112.252 171.74 113.357 169.774 115.324C167.807 117.291 166.702 119.958 166.702 122.74V137.327C166.702 138.704 166.973 140.068 167.5 141.34C168.027 142.613 168.8 143.769 169.774 144.743C170.747 145.717 171.903 146.489 173.176 147.017C174.448 147.544 175.812 147.815 177.189 147.815C178.566 147.815 179.93 148.086 181.202 148.613C182.475 149.14 183.631 149.913 184.604 150.887C185.578 151.861 186.351 153.017 186.878 154.289C187.405 155.562 187.676 156.926 187.676 158.303V172.89C187.676 174.267 187.405 175.631 186.878 176.903C186.351 178.176 185.578 179.332 184.604 180.306C183.631 181.28 182.475 182.052 181.202 182.579C179.93 183.106 178.566 183.378 177.189 183.378H136.635C133.854 183.378 131.186 184.483 129.22 186.45C127.253 188.417 126.148 191.084 126.148 193.866V208.453C126.148 211.234 127.253 213.902 129.22 215.869C131.186 217.836 133.854 218.941 136.635 218.941H152.548C153.925 218.941 155.289 219.212 156.561 219.739C157.833 220.266 158.989 221.039 159.963 222.013C160.937 222.986 161.71 224.143 162.237 225.415C162.764 226.688 163.035 228.051 163.035 229.429V244.016C163.035 245.393 162.764 246.757 162.237 248.029C161.71 249.302 160.937 250.458 159.963 251.432C158.989 252.406 157.833 253.178 156.561 253.705C155.289 254.232 153.925 254.504 152.548 254.504H152.509C151.132 254.504 149.769 254.775 148.496 255.302C147.224 255.829 146.068 256.602 145.094 257.576C144.12 258.549 143.348 259.706 142.821 260.978C142.294 262.251 142.023 263.614 142.023 264.992V279.579C142.023 282.36 143.127 285.028 145.094 286.995C147.061 288.962 149.728 290.067 152.509 290.067H154.812C157.593 290.067 160.26 291.172 162.227 293.138C164.194 295.105 165.299 297.773 165.299 300.555V315.142C165.299 316.519 165.027 317.883 164.5 319.155C163.973 320.428 163.201 321.584 162.227 322.558C161.253 323.532 160.097 324.304 158.825 324.831C157.552 325.358 156.189 325.63 154.812 325.63H117.028C114.247 325.63 111.579 326.734 109.613 328.701C107.646 330.668 106.541 333.336 106.541 336.118V350.704C106.541 352.082 106.812 353.446 107.339 354.718C107.866 355.99 108.639 357.147 109.613 358.121C110.586 359.094 111.742 359.867 113.015 360.394C114.287 360.921 115.651 361.192 117.028 361.192H451.755C453.132 361.192 454.496 360.921 455.768 360.394C457.041 359.867 458.197 359.094 459.171 358.121C460.144 357.147 460.917 355.99 461.444 354.718C461.971 353.446 462.242 352.082 462.242 350.704V336.118C462.242 333.336 461.137 330.668 459.171 328.701C457.204 326.734 454.537 325.63 451.755 325.63H442.663C441.285 325.63 439.922 325.358 438.649 324.831C437.377 324.304 436.221 323.532 435.247 322.558C434.273 321.584 433.501 320.428 432.974 319.155C432.447 317.883 432.176 316.519 432.176 315.142V300.555C432.176 299.177 432.447 297.813 432.974 296.541C433.501 295.268 434.273 294.112 435.247 293.138C436.221 292.164 437.377 291.392 438.649 290.865C439.922 290.338 441.285 290.067 442.663 290.067H464.102C465.479 290.067 466.843 289.795 468.115 289.268C469.388 288.741 470.544 287.969 471.518 286.995C472.491 286.021 473.264 284.865 473.791 283.592C474.318 282.32 474.589 280.956 474.589 279.579V264.992C474.589 263.614 474.318 262.251 473.791 260.978C473.264 259.706 472.491 258.549 471.518 257.576C470.544 256.602 469.388 255.829 468.115 255.302C466.843 254.775 465.479 254.504 464.102 254.504H457.598C454.817 254.504 452.15 253.399 450.183 251.432C448.216 249.465 447.112 246.797 447.112 244.016V229.429C447.112 226.647 448.216 223.979 450.183 222.013C452.15 220.046 454.817 218.941 457.598 218.941H481.972C484.753 218.941 487.42 217.836 489.387 215.869C491.354 213.902 492.459 211.234 492.459 208.453Z" fill="#DBE8EC"/>
<path d="M362.305 108.303H390.246" stroke="#B9D4DB" stroke-width="2.7649" stroke-miterlimit="10" stroke-linecap="round"/>
<path d="M362.305 116.355H390.246" stroke="#B9D4DB" stroke-width="2.7649" stroke-miterlimit="10" stroke-linecap="round"/>
<path d="M362.305 124.41H390.246" stroke="#B9D4DB" stroke-width="2.7649" stroke-miterlimit="10" stroke-linecap="round"/>
<path d="M381.662 332.475H409.604" stroke="#B9D4DB" stroke-width="2.7649" stroke-miterlimit="10" stroke-linecap="round"/>
<path d="M381.662 340.529H409.604" stroke="#B9D4DB" stroke-width="2.7649" stroke-miterlimit="10" stroke-linecap="round"/>
<path d="M381.662 348.584H409.604" stroke="#B9D4DB" stroke-width="2.7649" stroke-miterlimit="10" stroke-linecap="round"/>
<path d="M149.775 199.256H177.717" stroke="#B9D4DB" stroke-width="2.7649" stroke-miterlimit="10" stroke-linecap="round"/>
<path d="M149.775 207.311H177.717" stroke="#B9D4DB" stroke-width="2.7649" stroke-miterlimit="10" stroke-linecap="round"/>
<path d="M149.775 215.365H177.717" stroke="#B9D4DB" stroke-width="2.7649" stroke-miterlimit="10" stroke-linecap="round"/>
<path d="M456.434 305.854L348.172 316.747L239.909 305.854C239.454 305.808 239.033 305.595 238.727 305.256C238.42 304.917 238.25 304.477 238.25 304.02L235.699 296.558L238.25 174.299L348.172 185.358L458.093 174.299L460.518 297.553L458.093 304.02C458.093 304.477 457.923 304.917 457.617 305.256C457.31 305.595 456.889 305.808 456.434 305.854Z" fill="#E06714"/>
<path d="M460.518 297.553L348.172 308.396L235.699 296.557L238.25 167.986C238.25 167.728 238.304 167.473 238.409 167.238C238.513 167.003 238.666 166.792 238.857 166.619C239.048 166.446 239.273 166.315 239.518 166.235C239.763 166.154 240.022 166.126 240.278 166.152L348.172 177.007L456.065 166.152C456.321 166.126 456.58 166.154 456.825 166.235C457.07 166.315 457.295 166.446 457.486 166.619C457.677 166.792 457.83 167.003 457.934 167.238C458.039 167.474 458.093 167.728 458.093 167.986L460.518 297.553Z" fill="#EE781D"/>
<path d="M347.287 299.769L455.321 289.258L450.815 166.68L355.351 176.285L347.287 299.769Z" fill="#E06714"/>
<path d="M347.287 162.629L441.726 152.012L446.101 290.154L347.287 299.768V162.629Z" fill="#E06714"/>
<path d="M352.594 161.744L253.289 159.975L258.597 294.459L347.286 299.768L352.594 161.744Z" fill="#E06714"/>
<path d="M348.172 155.33L442.611 144.713L449.246 283.179L348.172 292.469V155.33Z" fill="#F9AE2B"/>
<path d="M348.172 287.885V292.469L449.246 283.179L449.028 278.615L348.172 287.885Z" fill="#E59413"/>
<path d="M348.17 155.33L248.865 153.561L254.173 288.045L348.17 292.469V155.33Z" fill="#F9AE2B"/>
<path d="M254.174 288.046L348.171 292.469V287.747L254.174 283.322V288.046Z" fill="#E59413"/>
<path d="M260.428 243.176C260.712 253.986 264.506 264.41 271.235 272.875C277.965 281.339 287.266 287.383 297.733 290.095L339.104 292.042V161.081C339.104 161.081 307.845 163.301 275.433 154.034L258.09 153.725L260.428 243.176Z" fill="#E59413"/>
<path d="M400.921 287.62C411.133 280.334 419.349 270.597 424.815 259.305C430.281 248.012 432.821 235.527 432.202 222.997L428.412 146.309L405.509 148.883C384.572 159.485 358.969 166.129 358.969 166.129V291.476L400.921 287.62Z" fill="#E59413"/>
<path d="M348.172 155.331C348.172 155.331 401.031 141.617 416.956 122.152L421.405 212.199C422.268 229.654 416.996 246.861 406.503 260.837C396.011 274.813 380.959 284.677 363.958 288.718L348.172 292.47V155.331Z" fill="#F9AE2B"/>
<path d="M362.224 155.331L348.172 292.47C348.172 292.47 366.065 291.118 367.468 290.696C383.181 276.281 392.127 252.061 389.995 230.546L381.43 144.115C375.744 146.449 370.17 148.469 365.257 150.126C363.455 153.26 362.224 155.331 362.224 155.331Z" fill="#E59413"/>
<path d="M348.172 155.331C348.172 155.331 363.433 129.673 365.202 122.152L375.943 230.546C377.116 242.394 375.171 254.342 370.299 265.205C365.428 276.068 357.799 285.468 348.172 292.47L348.172 155.331Z" fill="#F9AE2B"/>
<path d="M348.171 155.33C348.171 155.33 304.601 158.427 267.002 142.059L269.495 237.425C269.791 248.768 273.95 259.67 281.283 268.328C288.616 276.986 298.685 282.881 309.823 285.039L348.171 292.469V155.33Z" fill="#F9AE2B"/>
<path d="M348.172 155.33C348.935 166.758 349.334 178.187 349.605 189.615C349.775 195.329 349.813 201.043 349.913 206.757L350.014 223.9L349.918 241.042C349.815 246.756 349.782 252.47 349.611 258.184C349.341 269.613 348.94 281.041 348.172 292.469C347.405 281.041 347.004 269.613 346.734 258.184C346.562 252.47 346.53 246.756 346.427 241.042L346.33 223.9L346.432 206.757C346.532 201.043 346.57 195.329 346.739 189.615C347.01 178.187 347.409 166.758 348.172 155.33Z" fill="#E59413"/>
<path d="M283.803 174.643C288.45 175.036 293.008 175.595 297.564 176.131L311.178 177.761C315.71 178.295 320.239 178.74 324.784 179.185C329.335 179.618 333.884 179.886 338.542 180.283C334.004 181.38 329.361 181.983 324.694 182.082C320.038 182.184 315.381 181.963 310.756 181.422C306.141 180.881 301.564 180.063 297.047 178.973C292.517 177.909 288.086 176.46 283.803 174.643Z" fill="#E59413"/>
<path d="M283.803 194.324C288.45 194.717 293.008 195.277 297.564 195.812L311.178 197.443C315.71 197.976 320.239 198.422 324.784 198.866C329.335 199.3 333.884 199.568 338.542 199.965C334.004 201.061 329.361 201.664 324.694 201.764C320.038 201.865 315.381 201.645 310.756 201.104C306.141 200.562 301.564 199.744 297.047 198.654C292.517 197.591 288.086 196.142 283.803 194.324Z" fill="#E59413"/>
<path d="M283.803 214.008C288.45 214.401 293.008 214.96 297.564 215.496L311.178 217.126C315.71 217.66 320.239 218.105 324.784 218.55C329.335 218.983 333.884 219.251 338.542 219.648C334.004 220.745 329.361 221.348 324.694 221.447C320.038 221.549 315.381 221.328 310.756 220.787C306.141 220.246 301.564 219.428 297.047 218.338C292.517 217.274 288.086 215.826 283.803 214.008Z" fill="#E59413"/>
<path d="M283.803 233.689C288.45 234.083 293.008 234.642 297.564 235.177L311.178 236.808C315.71 237.341 320.239 237.787 324.784 238.232C329.335 238.665 333.884 238.933 338.542 239.33C334.004 240.426 329.361 241.03 324.694 241.129C320.038 241.23 315.381 241.01 310.756 240.469C306.141 239.928 301.564 239.11 297.047 238.02C292.517 236.956 288.086 235.507 283.803 233.689Z" fill="#E59413"/>
<path d="M283.803 253.371C288.45 253.764 293.008 254.324 297.564 254.859L311.178 256.49C315.71 257.023 320.239 257.468 324.784 257.913C329.335 258.346 333.884 258.615 338.542 259.011C334.004 260.108 329.361 260.711 324.694 260.81C320.038 260.912 315.381 260.692 310.756 260.151C306.141 259.609 301.564 258.791 297.047 257.701C292.517 256.637 288.086 255.189 283.803 253.371Z" fill="#E59413"/>
<path d="M413.936 177.276L392.467 180.897C392.229 180.943 391.985 180.942 391.748 180.894C391.511 180.846 391.285 180.751 391.085 180.616C390.884 180.48 390.712 180.307 390.578 180.105C390.445 179.903 390.352 179.677 390.306 179.439L389.594 163.929C389.548 163.692 389.549 163.447 389.598 163.21C389.646 162.973 389.741 162.748 389.876 162.547C390.011 162.346 390.185 162.174 390.387 162.041C390.589 161.907 390.815 161.815 391.052 161.769L412.797 157.299C413.034 157.253 413.279 157.254 413.516 157.303C413.753 157.351 413.978 157.446 414.179 157.581C414.38 157.716 414.552 157.89 414.685 158.092C414.819 158.294 414.911 158.52 414.957 158.758L415.394 175.116C415.487 175.595 415.386 176.093 415.112 176.498C414.839 176.903 414.416 177.183 413.936 177.276Z" fill="#EE781D"/>
<path d="M401.748 215.489L380.279 219.11C380.042 219.156 379.797 219.155 379.56 219.107C379.323 219.058 379.098 218.964 378.897 218.828C378.696 218.693 378.524 218.519 378.391 218.318C378.257 218.116 378.165 217.889 378.119 217.652L377.407 202.142C377.314 201.662 377.415 201.165 377.688 200.76C377.962 200.355 378.385 200.075 378.865 199.982L400.609 195.512C400.847 195.466 401.091 195.467 401.328 195.516C401.566 195.564 401.791 195.659 401.992 195.794C402.192 195.929 402.364 196.103 402.498 196.305C402.631 196.507 402.724 196.733 402.77 196.971L403.206 213.328C403.252 213.566 403.251 213.81 403.203 214.048C403.155 214.285 403.06 214.51 402.925 214.711C402.789 214.911 402.616 215.083 402.414 215.217C402.212 215.351 401.986 215.443 401.748 215.489Z" fill="#EE781D"/>
<path d="M378.865 199.981C378.385 200.075 377.962 200.355 377.688 200.76C377.415 201.165 377.314 201.662 377.407 202.142L378.119 217.652C378.212 218.132 378.492 218.555 378.897 218.828C379.302 219.102 379.799 219.203 380.279 219.11L388.721 217.686L386.805 198.35L378.865 199.981Z" fill="#CE800D"/>
<path d="M410.15 253.7L388.682 257.321C388.202 257.414 387.705 257.313 387.299 257.039C386.894 256.766 386.614 256.343 386.521 255.863L385.809 240.353C385.763 240.116 385.764 239.871 385.812 239.634C385.861 239.397 385.955 239.172 386.091 238.971C386.226 238.77 386.4 238.598 386.602 238.465C386.804 238.331 387.03 238.239 387.267 238.193L409.012 233.723C409.249 233.677 409.494 233.678 409.731 233.727C409.968 233.775 410.193 233.869 410.394 234.005C410.594 234.14 410.766 234.314 410.9 234.516C411.034 234.718 411.126 234.944 411.172 235.182L411.609 251.539C411.655 251.777 411.654 252.021 411.605 252.259C411.557 252.496 411.462 252.721 411.327 252.922C411.192 253.122 411.018 253.294 410.816 253.428C410.614 253.561 410.388 253.654 410.15 253.7Z" fill="#EE781D"/>
<path d="M387.267 238.193C386.788 238.286 386.364 238.566 386.091 238.971C385.817 239.376 385.716 239.874 385.809 240.353L386.521 255.863C386.573 256.126 386.682 256.375 386.841 256.591C386.999 256.808 387.203 256.986 387.439 257.115C389.251 250.755 390.211 244.183 390.296 237.57L387.267 238.193Z" fill="#CE800D"/>
<path d="M287.556 367.219C294.152 367.219 299.5 361.871 299.5 355.274C299.5 348.678 294.152 343.33 287.556 343.33C280.96 343.33 275.613 348.678 275.613 355.274C275.613 361.871 280.96 367.219 287.556 367.219Z" fill="#B9D4DB"/>
<path d="M271.632 332.934C275.052 332.934 277.825 330.161 277.825 326.74C277.825 323.32 275.052 320.547 271.632 320.547C268.212 320.547 265.439 323.32 265.439 326.74C265.439 330.161 268.212 332.934 271.632 332.934Z" fill="#B9D4DB"/>
<path d="M312.142 341.781C317.028 341.781 320.988 337.82 320.988 332.934C320.988 328.047 317.028 324.086 312.142 324.086C307.256 324.086 303.295 328.047 303.295 332.934C303.295 337.82 307.256 341.781 312.142 341.781Z" fill="#B9D4DB"/>
<path d="M160.466 300.726C168.314 300.726 174.676 294.363 174.676 286.514C174.676 278.665 168.314 272.303 160.466 272.303C152.618 272.303 146.256 278.665 146.256 286.514C146.256 294.363 152.618 300.726 160.466 300.726Z" fill="#B9D4DB"/>
<path d="M133.312 283.793C137.4 283.793 140.714 280.479 140.714 276.391C140.714 272.303 137.4 268.988 133.312 268.988C129.224 268.988 125.91 272.303 125.91 276.391C125.91 280.479 129.224 283.793 133.312 283.793Z" fill="#B9D4DB"/>
<path d="M140.112 255.499C142.47 255.499 144.382 253.587 144.382 251.229C144.382 248.871 142.47 246.959 140.112 246.959C137.754 246.959 135.842 248.871 135.842 251.229C135.842 253.587 137.754 255.499 140.112 255.499Z" fill="#B9D4DB"/>
<path d="M163.747 264.486C169.399 264.486 173.982 259.903 173.982 254.25C173.982 248.597 169.399 244.014 163.747 244.014C158.094 244.014 153.512 248.597 153.512 254.25C153.512 259.903 158.094 264.486 163.747 264.486Z" fill="#B9D4DB"/>
<path d="M249.907 140.677C257.755 140.677 264.117 134.314 264.117 126.465C264.117 118.617 257.755 112.254 249.907 112.254C242.059 112.254 235.697 118.617 235.697 126.465C235.697 134.314 242.059 140.677 249.907 140.677Z" fill="#B9D4DB"/>
<path d="M250.484 104.893C254.572 104.893 257.886 101.579 257.886 97.4904C257.886 93.4021 254.572 90.0879 250.484 90.0879C246.396 90.0879 243.082 93.4021 243.082 97.4904C243.082 101.579 246.396 104.893 250.484 104.893Z" fill="#B9D4DB"/>
<path d="M299.785 108.222C303.323 108.222 306.191 105.354 306.191 101.815C306.191 98.2767 303.323 95.4082 299.785 95.4082C296.247 95.4082 293.379 98.2767 293.379 101.815C293.379 105.354 296.247 108.222 299.785 108.222Z" fill="#B9D4DB"/>
<path d="M276.479 99.8602C278.837 99.8602 280.749 97.9485 280.749 95.5903C280.749 93.232 278.837 91.3203 276.479 91.3203C274.121 91.3203 272.209 93.232 272.209 95.5903C272.209 97.9485 274.121 99.8602 276.479 99.8602Z" fill="#B9D4DB"/>
<path d="M281.44 129.132C287.093 129.132 291.675 124.55 291.675 118.896C291.675 113.243 287.093 108.66 281.44 108.66C275.787 108.66 271.205 113.243 271.205 118.896C271.205 124.55 275.787 129.132 281.44 129.132Z" fill="#B9D4DB"/>
<path d="M233.82 281.247L219.268 272.945L210.967 287.5L225.52 295.801L233.82 281.247Z" fill="#DBE8EC"/>
<path d="M289.372 277.498C298.513 270.604 305.405 261.154 309.177 250.342C312.948 239.531 313.429 227.844 310.559 216.76C307.689 205.675 301.597 195.691 293.054 188.068C284.51 180.446 273.898 175.529 262.56 173.938C251.222 172.348 239.667 174.155 229.356 179.132C219.045 184.109 210.441 192.032 204.633 201.899C198.824 211.766 196.071 223.134 196.723 234.566C197.374 245.998 201.4 256.979 208.292 266.123C212.868 272.195 218.596 277.306 225.148 281.164C231.699 285.022 238.947 287.551 246.476 288.607C254.005 289.664 261.669 289.226 269.029 287.32C276.389 285.414 283.302 282.076 289.372 277.498ZM217.304 259.336C211.752 251.975 208.508 243.132 207.982 233.927C207.456 224.722 209.671 215.567 214.347 207.621C219.023 199.675 225.95 193.294 234.253 189.285C242.555 185.276 251.86 183.82 260.99 185.1C270.12 186.381 278.665 190.34 285.545 196.478C292.426 202.615 297.331 210.655 299.642 219.581C301.953 228.507 301.565 237.918 298.528 246.624C295.49 255.329 289.94 262.939 282.578 268.489C272.708 275.93 260.287 279.145 248.046 277.429C235.806 275.712 224.748 269.204 217.304 259.336Z" fill="#3086A3"/>
<path opacity="0.76" d="M254.52 277.887C280.262 277.887 301.131 257.016 301.131 231.271C301.131 205.525 280.262 184.654 254.52 184.654C228.777 184.654 207.908 205.525 207.908 231.271C207.908 257.016 228.777 277.887 254.52 277.887Z" fill="white"/>
<path d="M287.798 233.316C287.354 240.538 284.574 247.419 279.877 252.921C275.18 258.424 268.82 262.249 261.759 263.82C254.697 265.391 247.316 264.622 240.73 261.629C234.143 258.637 228.709 253.583 225.246 247.231" stroke="#DBE8EC" stroke-width="9.21634" stroke-miterlimit="10"/>
<path d="M229.919 298.265L206.609 284.968C205.725 284.464 204.599 284.772 204.095 285.656L170 345.438C169.496 346.323 169.804 347.448 170.688 347.953L193.998 361.25C194.882 361.754 196.008 361.446 196.512 360.562L230.607 300.779C231.111 299.895 230.803 298.769 229.919 298.265Z" fill="#3086A3"/>
<path d="M196.513 360.561L230.607 300.778C230.727 300.568 230.805 300.336 230.835 300.096C230.865 299.856 230.848 299.612 230.784 299.379C230.72 299.145 230.611 298.926 230.463 298.735C230.314 298.544 230.13 298.384 229.919 298.264L224.122 294.957C224.547 295.199 224.858 295.6 224.986 296.072C225.115 296.543 225.052 297.047 224.81 297.471L190.715 357.254C190.595 357.464 190.435 357.649 190.244 357.797C190.053 357.945 189.834 358.055 189.601 358.118C189.367 358.182 189.123 358.2 188.883 358.169C188.643 358.139 188.411 358.062 188.201 357.942L193.999 361.249C194.209 361.369 194.441 361.446 194.681 361.476C194.921 361.507 195.165 361.489 195.398 361.426C195.632 361.362 195.85 361.252 196.042 361.104C196.233 360.956 196.393 360.771 196.513 360.561Z" fill="#25788E"/>
<path d="M175.606 348.635L209.7 288.853C209.82 288.642 209.98 288.458 210.172 288.309C210.363 288.161 210.582 288.052 210.815 287.988C211.048 287.924 211.292 287.907 211.532 287.937C211.772 287.967 212.004 288.045 212.215 288.165L218.654 291.838L206.608 284.967C206.184 284.725 205.68 284.661 205.209 284.79C204.737 284.919 204.336 285.23 204.094 285.655L170 345.437C169.758 345.862 169.694 346.365 169.823 346.837C169.952 347.308 170.263 347.709 170.688 347.952L176.294 351.15C176.084 351.03 175.899 350.869 175.751 350.678C175.602 350.487 175.493 350.268 175.429 350.035C175.365 349.801 175.348 349.558 175.378 349.317C175.409 349.077 175.486 348.845 175.606 348.635Z" fill="#409CB5"/>
<path d="M182.734 354.822L193.998 361.248H193.999L182.734 354.822Z" fill="#409CB5"/>
<path d="M170.57 342.22L198.99 358.431C199.415 358.674 199.726 359.075 199.855 359.546C199.984 360.018 199.92 360.521 199.678 360.946L196.965 365.703C195.37 368.5 192.728 370.549 189.623 371.399C186.517 372.249 183.2 371.83 180.403 370.234L169.874 364.228C168.489 363.438 167.273 362.383 166.296 361.123C165.319 359.863 164.599 358.423 164.178 356.885C163.758 355.347 163.644 353.741 163.844 352.159C164.043 350.577 164.553 349.05 165.343 347.665L168.056 342.908C168.298 342.483 168.699 342.172 169.17 342.043C169.642 341.914 170.145 341.978 170.57 342.22Z" fill="#DBE8EC"/>
<path d="M170.854 350.851L173.567 346.094C173.809 345.669 174.21 345.358 174.682 345.229C175.153 345.1 175.657 345.164 176.081 345.406L199.282 358.64C199.192 358.562 199.094 358.492 198.99 358.432L170.57 342.221C170.145 341.978 169.642 341.915 169.17 342.044C168.699 342.173 168.298 342.484 168.056 342.909L165.343 347.665C163.748 350.463 163.329 353.779 164.178 356.886C165.028 359.992 167.077 362.633 169.874 364.229L174.785 367.03C172.19 365.343 170.337 362.729 169.607 359.721C168.876 356.713 169.322 353.54 170.854 350.851Z" fill="#E8EEEF"/>
<path d="M196.966 365.704L199.679 360.947C199.921 360.522 199.985 360.019 199.856 359.547C199.727 359.076 199.416 358.675 198.991 358.433L193.169 355.111C193.592 355.354 193.901 355.755 194.029 356.226C194.157 356.696 194.093 357.199 193.852 357.622L191.139 362.379C189.544 365.177 186.903 367.225 183.797 368.075C180.691 368.925 177.375 368.506 174.577 366.911L169.865 364.223L169.875 364.229L180.405 370.235C181.79 371.025 183.317 371.535 184.898 371.735C186.48 371.934 188.086 371.821 189.624 371.4C191.162 370.979 192.602 370.26 193.861 369.282C195.121 368.305 196.176 367.089 196.966 365.704Z" fill="#BAD5DB"/>
</svg>
