<svg width="60" height="60" viewBox="0 0 60 60" fill="none" xmlns="http://www.w3.org/2000/svg">
<path d="M57.8914 13.0383V16.793L55.1352 17.0625C54.8627 18.28 54.3728 19.4384 53.6891 20.482L55.4691 22.6289L52.8148 25.2773L50.668 23.4973C49.6263 24.1873 48.4644 24.6759 47.2426 24.9375L46.973 27.7219H43.2137L42.9441 24.9375C41.7243 24.6695 40.5636 24.1814 39.5188 23.4973L37.3719 25.2773L34.7176 22.6289L36.4977 20.482C35.8069 19.4422 35.3164 18.2825 35.0516 17.0625L32.2637 16.793V13.0383L35.0516 12.7688C35.3247 11.5511 35.8145 10.3924 36.4977 9.34805L34.7176 7.20117L37.3719 4.55273L39.5188 6.33281C40.5611 5.6439 41.7227 5.15547 42.9441 4.89258L43.2137 2.10938H46.973L47.2426 4.89258C48.4622 5.1611 49.6229 5.64912 50.668 6.33281L52.8148 4.55273L55.4375 7.20117L53.6574 9.34805C54.3479 10.3884 54.8379 11.5485 55.1023 12.7688L57.8914 13.0383ZM51.3465 14.9156C51.3485 13.6758 50.9826 12.4632 50.2952 11.4313C49.6078 10.3995 48.6297 9.5947 47.4848 9.11889C46.3399 8.64307 45.0795 8.51758 43.8632 8.7583C42.647 8.99902 41.5294 9.59513 40.6521 10.4712C39.7747 11.3473 39.1769 12.4639 38.9344 13.6798C38.6918 14.8957 38.8154 16.1562 39.2895 17.3019C39.7636 18.4475 40.5669 19.4268 41.5977 20.1157C42.6286 20.8047 43.8406 21.1724 45.0805 21.1723C46.741 21.1733 48.334 20.5147 49.509 19.3414C50.6841 18.1681 51.345 16.5762 51.3465 14.9156Z" fill="#00EFD1"/>
<path d="M45.0789 8.65821C46.3162 8.66006 47.5251 9.02865 48.553 9.71739C49.5809 10.4061 50.3815 11.3841 50.8537 12.5277C51.3259 13.6714 51.4485 14.9293 51.206 16.1426C50.9634 17.3559 50.3667 18.47 49.4912 19.3443C48.6156 20.2185 47.5006 20.8136 46.2869 21.0543C45.0733 21.295 43.8155 21.1705 42.6726 20.6966C41.5297 20.2227 40.5529 19.4206 39.8657 18.3917C39.1785 17.3628 38.8117 16.1533 38.8117 14.916C38.8123 14.0936 38.9748 13.2794 39.2901 12.5198C39.6054 11.7602 40.0672 11.0701 40.6492 10.489C41.2311 9.90793 41.9219 9.44716 42.6819 9.13302C43.442 8.81889 44.2565 8.65754 45.0789 8.65821ZM23.841 45.4293H28.6152C29.4839 45.4292 30.3441 45.6002 31.1466 45.9325C31.9492 46.2649 32.6785 46.752 33.2927 47.3662C33.907 47.9804 34.3943 48.7095 34.7268 49.5121C35.0593 50.3146 35.2304 51.1747 35.2305 52.0434V57.891H18.5312V48.734L23.841 45.4293Z" fill="#00ACEA"/>
<path d="M8.63438 24.9609H28.7063H29.4141V28.3594H28.3547H8.98594H7.61719V24.9609H8.63438Z" fill="#00ACEA"/>
<path d="M28.7066 24.9605H8.63477C8.67197 23.0291 9.26007 21.1485 10.3299 19.54C11.3996 17.9315 12.9066 16.662 14.6734 15.8809L14.6852 15.9078L14.8973 19.5887C14.929 20.1322 15.1673 20.643 15.5634 21.0166C15.9594 21.3903 16.4833 21.5984 17.0277 21.5984H20.4086C20.9529 21.5981 21.4765 21.3899 21.8723 21.0163C22.2681 20.6427 22.5062 20.132 22.5379 19.5887L22.7395 15.9113C24.4899 16.6985 25.9803 17.9673 27.0369 19.5696C28.0935 21.1718 28.6726 23.0416 28.7066 24.9605Z" fill="#00EFD1"/>
<path d="M28.3551 28.4461V33.7734C28.3497 36.3685 27.3323 38.8591 25.5191 40.7156C25.0094 41.2401 24.4426 41.7059 23.8293 42.1043C22.2905 43.1144 20.4891 43.6506 18.6484 43.6465C16.8078 43.6423 15.0088 43.0979 13.4746 42.0809C12.0992 41.1739 10.9696 39.9407 10.1865 38.4912C9.40334 37.0417 8.99104 35.421 8.98633 33.7734V28.3594H28.3551V28.4461Z" fill="#F7CAA5"/>
<path d="M23.8426 45.3426V45.4281L18.5328 48.7328L13.4727 45.4281V42.0836L13.475 42.0801C15.0092 43.0971 16.8081 43.6415 18.6488 43.6457C20.4895 43.6499 22.2909 43.1136 23.8297 42.1035L23.8426 42.1234V45.3426Z" fill="#EDB288"/>
<path d="M22.7391 15.9117L22.5375 19.5891C22.5058 20.1324 22.2677 20.6431 21.8719 21.0167C21.4761 21.3903 20.9525 21.5985 20.4082 21.5988H17.0273C16.4829 21.5988 15.959 21.3906 15.563 21.017C15.1669 20.6434 14.9287 20.1326 14.8969 19.5891L14.6848 15.9082L14.673 15.8813C15.1711 15.6628 15.6866 15.4864 16.2141 15.3539L16.5609 13.2422H20.7797L21.1266 15.3539C21.6794 15.4921 22.219 15.6788 22.7391 15.9117ZM13.4719 45.4289L18.532 48.7336V57.8906H2.10938V52.043C2.10941 50.2888 2.80625 48.6065 4.04662 47.3662C5.28699 46.1258 6.96929 45.4289 8.72344 45.4289H13.4719Z" fill="#00ACEA"/>
<path d="M36.2109 57.8903V52.0426C36.2109 47.8786 32.7806 44.5309 28.616 44.5309H24.7266V42.588C25.2569 42.2453 25.7409 41.8357 26.1666 41.3693C28.1635 39.3442 29.2873 36.6172 29.2969 33.7731V29.2965H29.4141C29.6627 29.2965 29.9012 29.1978 30.077 29.0219C30.2528 28.8461 30.3516 28.6077 30.3516 28.359V24.9606C30.3515 24.7425 30.2754 24.5313 30.1363 24.3633C29.9973 24.1953 29.8041 24.081 29.5898 24.0401C29.3951 22.1068 28.6949 20.2588 27.5597 18.6817C26.4246 17.1047 24.8944 15.8542 23.1229 15.0558C22.7427 14.8857 22.353 14.7379 21.9557 14.6133L21.7054 13.0898C21.6692 12.8706 21.5564 12.6712 21.387 12.5274C21.2175 12.3836 21.0025 12.3047 20.7803 12.3047H16.5615C16.3393 12.3047 16.1243 12.3836 15.9548 12.5274C15.7854 12.6712 15.6726 12.8706 15.6364 13.0898L15.3861 14.6133C15.016 14.7298 14.6523 14.8662 14.2969 15.0219C12.5091 15.8116 10.9621 17.0602 9.81301 18.6411C8.66391 20.222 7.95363 22.0789 7.7543 24.0231H7.61719C7.36855 24.0231 7.13009 24.1219 6.95428 24.2977C6.77846 24.4735 6.67969 24.7119 6.67969 24.9606V28.359C6.67969 28.6077 6.77846 28.8461 6.95428 29.0219C7.13009 29.1978 7.36855 29.2965 7.61719 29.2965H8.08594V33.7731C8.07963 35.4868 8.47998 37.1776 9.2541 38.7066C10.0282 40.2356 11.154 41.5591 12.5391 42.5684V44.5309H8.72344C7.73417 44.5276 6.75394 44.7193 5.83883 45.0951C4.92372 45.4709 4.09168 46.0235 3.39031 46.7212C2.68894 47.4188 2.13199 48.2479 1.75133 49.161C1.37067 50.0741 1.17376 51.0533 1.17188 52.0426V57.8903C1.17188 58.1389 1.27065 58.3774 1.44646 58.5532C1.62228 58.729 1.86073 58.8278 2.10938 58.8278H35.2313C35.4843 58.8293 35.7281 58.7324 35.9109 58.5574C36.0938 58.3824 36.2014 58.1432 36.2109 57.8903ZM18.5202 47.6215L14.4141 44.9211V43.6614C15.7377 44.2671 17.1759 44.5817 18.6315 44.5837C20.0872 44.5857 21.5263 44.2752 22.8516 43.6731V44.9079L18.5202 47.6215ZM8.55469 27.4215V25.8981H28.4766V27.4215H8.55469ZM16.4425 16.2627C16.6198 16.2182 16.7802 16.1227 16.904 15.9882C17.0278 15.8536 17.1095 15.6858 17.1391 15.5054L17.357 14.1793H19.9836L20.2015 15.5054C20.2311 15.686 20.313 15.8539 20.437 15.9885C20.5609 16.1231 20.7216 16.2185 20.8991 16.2629C21.1926 16.3371 21.482 16.4264 21.7663 16.5304L21.6015 19.5162C21.5829 19.8188 21.4486 20.1026 21.2264 20.309C21.0043 20.5153 20.7114 20.6283 20.4082 20.6246H17.0273C16.7241 20.6285 16.431 20.5156 16.2086 20.3094C15.9863 20.1032 15.8517 19.8193 15.8329 19.5166L15.658 16.4916C15.9163 16.4004 16.1782 16.3291 16.4425 16.2627ZM13.8311 17.3887L13.961 19.625C14.008 20.4053 14.352 21.1379 14.9222 21.6725C15.4924 22.2071 16.2457 22.503 17.0273 22.4996H20.4082C21.1902 22.5028 21.9437 22.2062 22.5138 21.671C23.0839 21.1358 23.4274 20.4025 23.4736 19.6219L23.5941 17.4327C24.7166 18.1666 25.6657 19.1365 26.3751 20.2747C27.0845 21.4129 27.5373 22.692 27.7018 24.0231H9.64031C9.80742 22.677 10.2697 21.3843 10.9941 20.2375C11.7185 19.0907 12.6872 18.1179 13.8311 17.3887ZM9.96094 33.7731V29.2965H27.4219V33.7731C27.4211 36.1253 26.4973 38.3833 24.8491 40.0615C24.3873 40.5363 23.8738 40.958 23.3182 41.3186C21.9356 42.229 20.3156 42.7124 18.6601 42.7086C17.0047 42.7048 15.3869 42.214 14.0085 41.2972C12.7688 40.4709 11.7512 39.3525 11.0454 38.0404C10.3396 36.7284 9.96718 35.2629 9.96094 33.7731ZM3.04688 52.0426C3.04848 51.2995 3.1967 50.564 3.48304 49.8782C3.76937 49.1925 4.1882 48.57 4.71552 48.0463C5.24283 47.5227 5.86828 47.1083 6.55603 46.8268C7.24378 46.5453 7.98032 46.4023 8.72344 46.4059H13.1929L17.5781 49.2408V56.9528H3.04688V52.0426ZM34.3359 56.9528H19.4531V49.2536L24.1097 46.4059H28.616C31.7461 46.4059 34.3359 48.9125 34.3359 52.0426V56.9528Z" fill="#083863"/>
<path d="M16.9211 31.8867C16.9211 31.6381 16.8223 31.3996 16.6465 31.2238C16.4707 31.048 16.2322 30.9492 15.9836 30.9492C15.735 30.9492 15.4965 31.048 15.3207 31.2238C15.1449 31.3996 15.0461 31.6381 15.0461 31.8867C15.0461 32.0765 14.9707 32.2584 14.8365 32.3926C14.7024 32.5268 14.5204 32.6021 14.3307 32.6021C14.1409 32.6021 13.9589 32.5268 13.8248 32.3926C13.6906 32.2584 13.6152 32.0765 13.6152 31.8867C13.6152 31.6381 13.5165 31.3996 13.3406 31.2238C13.1648 31.048 12.9264 30.9492 12.6777 30.9492C12.4291 30.9492 12.1906 31.048 12.0148 31.2238C11.839 31.3996 11.7402 31.6381 11.7402 31.8867C11.7402 32.5737 12.0132 33.2326 12.499 33.7184C12.9848 34.2042 13.6436 34.4771 14.3307 34.4771C15.0177 34.4771 15.6766 34.2042 16.1624 33.7184C16.6482 33.2326 16.9211 32.5737 16.9211 31.8867ZM22.5941 34.4777C23.2811 34.4769 23.9396 34.2037 24.4254 33.718C24.9111 33.2322 25.1843 32.5737 25.1852 31.8867C25.1852 31.6381 25.0864 31.3996 24.9106 31.2238C24.7348 31.048 24.4963 30.9492 24.2477 30.9492C23.999 30.9492 23.7606 31.048 23.5847 31.2238C23.4089 31.3996 23.3102 31.6381 23.3102 31.8867C23.3099 32.0766 23.2344 32.2585 23.1002 32.3928C22.966 32.527 22.784 32.6025 22.5941 32.6027C22.5002 32.6027 22.4071 32.5842 22.3203 32.5482C22.2335 32.5122 22.1546 32.4595 22.0883 32.3929C22.0219 32.3264 21.9692 32.2475 21.9334 32.1606C21.8975 32.0738 21.8791 31.9807 21.8793 31.8867C21.8793 31.6381 21.7805 31.3996 21.6047 31.2238C21.4289 31.048 21.1904 30.9492 20.9418 30.9492C20.6932 30.9492 20.4547 31.048 20.2789 31.2238C20.1031 31.3996 20.0043 31.6381 20.0043 31.8867C20.0041 32.2269 20.071 32.5638 20.2011 32.8782C20.3312 33.1925 20.5219 33.4782 20.7624 33.7188C21.0029 33.9594 21.2885 34.1503 21.6028 34.2805C21.9171 34.4107 22.2539 34.4777 22.5941 34.4777Z" fill="#083863"/>
<path d="M57.9809 12.1055L55.8502 11.8996C55.6061 11.036 55.2562 10.2058 54.8086 9.42797L56.1588 7.79965C56.3074 7.62048 56.3841 7.39244 56.3738 7.15989C56.3636 6.92735 56.2672 6.70693 56.1034 6.54152L53.4807 3.89309C53.3159 3.72655 53.0946 3.62781 52.8605 3.61632C52.6265 3.60482 52.3966 3.6814 52.2162 3.83098L50.5815 5.1859C49.8026 4.74094 48.9732 4.39079 48.1111 4.14293L47.9054 2.01867C47.8829 1.78682 47.7748 1.57166 47.6023 1.41511C47.4298 1.25857 47.2052 1.17186 46.9723 1.17188H43.2129C42.9799 1.17187 42.7552 1.25863 42.5827 1.41524C42.4102 1.57186 42.3022 1.7871 42.2797 2.01902L42.0741 4.14281C41.2095 4.38619 40.3782 4.73531 39.5991 5.18227L37.9695 3.83098C37.7897 3.68209 37.561 3.60558 37.3278 3.61642C37.0947 3.62725 36.874 3.72465 36.7089 3.88957L34.0546 6.53801C33.8891 6.70311 33.7913 6.92407 33.7803 7.15755C33.7693 7.39103 33.8459 7.6202 33.9952 7.80012L35.3483 9.43195C34.9041 10.2102 34.554 11.0385 34.3054 11.8993L32.154 12.1056C31.9203 12.1273 31.7029 12.2345 31.5433 12.4066C31.3837 12.5787 31.2932 12.8036 31.2891 13.0383V16.793C31.2931 17.0278 31.3836 17.2529 31.5433 17.4251C31.703 17.5973 31.9206 17.7045 32.1545 17.7261L34.2936 17.932C34.5397 18.7954 34.8913 19.6252 35.3406 20.4025L33.9929 22.0304C33.8439 22.2105 33.7674 22.4397 33.7786 22.6732C33.7899 22.9067 33.8879 23.1276 34.0535 23.2925L36.7084 25.941C36.8735 26.106 37.0943 26.2035 37.3275 26.2143C37.5607 26.2251 37.7896 26.1486 37.9693 25.9996L39.6034 24.6445C40.3823 25.0897 41.2118 25.4399 42.0741 25.6875L42.2797 27.8382C42.3013 28.0728 42.4082 28.2913 42.5803 28.4521C42.7523 28.613 42.9774 28.7051 43.2129 28.7109H46.9723C47.2078 28.7051 47.433 28.613 47.605 28.452C47.777 28.291 47.884 28.0725 47.9054 27.8379L48.111 25.7006C48.9763 25.4557 49.8079 25.1044 50.5867 24.6547L52.2156 26.0024C52.3954 26.1511 52.6243 26.2275 52.8574 26.2164C53.0905 26.2054 53.3112 26.1078 53.4762 25.9427L56.1305 23.2935C56.296 23.1284 56.3938 22.9074 56.4048 22.6739C56.4159 22.4404 56.3392 22.2112 56.19 22.0312L54.8371 20.3993C55.2817 19.6213 55.6318 18.793 55.88 17.9319L57.9818 17.7264C58.2136 17.7037 58.4287 17.5956 58.5851 17.423C58.7416 17.2505 58.8282 17.0259 58.8281 16.793V13.0383C58.828 12.8053 58.7412 12.5807 58.5846 12.4083C58.428 12.2358 58.2127 12.1279 57.9809 12.1055ZM56.9531 15.9427L55.043 16.1295C54.8462 16.1487 54.6605 16.2296 54.5125 16.3607C54.3645 16.4918 54.2618 16.6663 54.2189 16.8593C53.9713 17.967 53.5254 19.0209 52.9028 19.9699C52.7934 20.1376 52.7406 20.3358 52.7521 20.5357C52.7635 20.7355 52.8386 20.9264 52.9664 21.0805L54.2007 22.5688L52.7558 24.0117L51.2655 22.7761C51.1106 22.6476 50.9184 22.5724 50.7173 22.5616C50.5163 22.5508 50.3172 22.605 50.1493 22.7162C49.2058 23.3422 48.1528 23.785 47.0454 24.0213C46.849 24.0687 46.6723 24.1763 46.5402 24.3291C46.4081 24.482 46.3271 24.6723 46.3086 24.8735L46.1211 26.8364H44.064L43.8765 24.8735C43.8577 24.6736 43.7762 24.4847 43.6436 24.3339C43.511 24.1831 43.3341 24.0781 43.1382 24.0339C42.0293 23.7865 40.9744 23.3399 40.025 22.7156C39.8579 22.6075 39.6607 22.5554 39.4619 22.5668C39.2632 22.5783 39.0732 22.6527 38.9196 22.7793L37.4297 24.0128L35.9842 22.5703L37.2188 21.0809C37.3474 20.9256 37.4226 20.733 37.4332 20.5316C37.4438 20.3303 37.3891 20.1309 37.2773 19.963C36.6507 19.0207 36.2062 17.9693 35.9668 16.8633C35.9205 16.6682 35.8143 16.4925 35.6629 16.3609C35.5115 16.2294 35.3228 16.1486 35.1231 16.1299L33.1641 15.9417V13.8894L35.1229 13.7019C35.3207 13.6831 35.5077 13.6026 35.6574 13.4718C35.807 13.341 35.9117 13.1664 35.9568 12.9728C36.2066 11.8643 36.6539 10.8098 37.2773 9.85969C37.3869 9.69229 37.44 9.49426 37.4289 9.29453C37.4178 9.09479 37.3432 8.90384 37.2158 8.74957L35.9825 7.26129L37.4284 5.81918L38.9193 7.05469C39.0741 7.18311 39.2661 7.25833 39.4669 7.26924C39.6678 7.28015 39.8668 7.22617 40.0346 7.11527C40.9792 6.48997 42.0325 6.04703 43.1401 5.80934C43.3346 5.7675 43.5107 5.66491 43.643 5.51639C43.7753 5.36787 43.8569 5.18113 43.8761 4.98316L44.064 3.04688H46.1211L46.3086 4.98293C46.3278 5.18117 46.4096 5.36814 46.5422 5.51675C46.6748 5.66536 46.8513 5.76788 47.0461 5.80945C48.155 6.05497 49.2101 6.49967 50.1601 7.12195C50.3276 7.22963 50.525 7.2812 50.7238 7.26916C50.9225 7.25713 51.1123 7.18214 51.2655 7.05504L52.7518 5.82281L54.1726 7.25766L52.935 8.74957C52.8064 8.90466 52.7312 9.09704 52.7205 9.29822C52.7099 9.49939 52.7643 9.69865 52.8757 9.86648C53.5022 10.8093 53.9464 11.8612 54.1854 12.9677C54.2275 13.1618 54.3303 13.3375 54.4787 13.4695C54.6272 13.6014 54.8137 13.6828 55.0114 13.7019L56.9531 13.8894V15.9427Z" fill="#083863"/>
<path d="M45.0797 7.7207C43.6569 7.72233 42.2666 8.1457 41.0844 8.93732C39.9022 9.72893 38.9813 10.8533 38.4379 12.1682C37.8946 13.4831 37.7533 14.9296 38.0318 16.3248C38.3104 17.72 38.9963 19.0013 40.0029 20.0068C41.0095 21.0122 42.2916 21.6967 43.6872 21.9737C45.0827 22.2506 46.529 22.1077 47.8433 21.5628C49.1576 21.018 50.2809 20.0957 51.0711 18.9127C51.8614 17.7296 52.2832 16.3388 52.2832 14.916C52.2798 13.0073 51.5195 11.1779 50.1691 9.82903C48.8187 8.48015 46.9884 7.72194 45.0797 7.7207ZM45.0797 20.2352C44.0277 20.2335 42.9999 19.9201 42.126 19.3345C41.2521 18.7488 40.5715 17.9173 40.1701 16.9449C39.7687 15.9725 39.6646 14.903 39.8709 13.8715C40.0772 12.8399 40.5847 11.8927 41.3292 11.1495C42.0737 10.4063 43.0218 9.90051 44.0537 9.69602C45.0856 9.49154 46.1549 9.59754 47.1266 10.0006C48.0983 10.4037 48.9286 11.0858 49.5127 11.9607C50.0968 12.8356 50.4084 13.8641 50.4082 14.916C50.4052 16.3274 49.8426 17.6801 48.8437 18.6772C47.8447 19.6744 46.4911 20.2347 45.0797 20.2352Z" fill="#083863"/>
</svg>
