<svg width="22" height="22" viewBox="0 0 22 22" fill="none" xmlns="http://www.w3.org/2000/svg">
<path d="M14.5607 11.1092C14.5607 12.8372 13.1644 14.2336 11.4364 14.2336C9.70838 14.2336 8.31201 12.8372 8.31201 11.1092C8.31201 9.38123 9.70838 7.98486 11.4364 7.98486C13.1644 7.98486 14.5607 9.38123 14.5607 11.1092Z" stroke="white" stroke-width="1.30909" stroke-linecap="round" stroke-linejoin="round"/>
<path d="M11.4366 18.3267C14.5173 18.3267 17.3886 16.5114 19.3872 13.3696C20.1726 12.1391 20.1726 10.0707 19.3872 8.84015C17.3886 5.69833 14.5173 3.88306 11.4366 3.88306C8.35588 3.88306 5.48461 5.69833 3.48606 8.84015C2.70061 10.0707 2.70061 12.1391 3.48606 13.3696C5.48461 16.5114 8.35588 18.3267 11.4366 18.3267Z" stroke="white" stroke-width="1.30909" stroke-linecap="round" stroke-linejoin="round"/>
</svg>
