<svg width="19" height="19" viewBox="0 0 19 19" fill="none" xmlns="http://www.w3.org/2000/svg">
<rect width="19" height="19" rx="4" fill="#749FFF"/>
<path d="M14.1317 4.21346C13.9378 4.10535 13.7246 4.03659 13.5041 4.01113C13.2837 3.98567 13.0605 4.004 12.8471 4.06507C12.6337 4.12615 12.4345 4.22877 12.2608 4.36707C12.087 4.50536 11.9422 4.67663 11.8345 4.87106L8.69872 10.5262L6.90405 8.72778C6.74824 8.56611 6.56185 8.43716 6.35578 8.34845C6.1497 8.25974 5.92806 8.21305 5.70378 8.2111C5.4795 8.20914 5.25708 8.25197 5.0495 8.33708C4.84191 8.42219 4.65332 8.54787 4.49473 8.7068C4.33613 8.86573 4.21071 9.05472 4.12578 9.26274C4.04085 9.47076 3.99811 9.69365 4.00006 9.9184C4.00201 10.1431 4.04861 10.3653 4.13713 10.5718C4.22566 10.7783 4.35434 10.9651 4.51566 11.1212L7.89387 14.5065C8.21311 14.8273 8.64383 15.0033 9.08806 15.0033L9.322 14.9864C9.5809 14.9501 9.82786 14.8541 10.0434 14.7059C10.259 14.5577 10.4373 14.3614 10.5643 14.1324L14.7871 6.51548C14.8949 6.3212 14.9635 6.10755 14.9889 5.88672C15.0143 5.66589 14.996 5.44221 14.9352 5.22845C14.8743 5.01468 14.7721 4.81502 14.6342 4.64087C14.4963 4.46672 14.3256 4.32149 14.1317 4.21346Z" fill="white"/>
</svg>
