<svg width="64" height="64" viewBox="0 0 64 64" fill="none" xmlns="http://www.w3.org/2000/svg">
<path d="M49.866 21.334H48.7993C47.6211 21.334 46.666 22.2891 46.666 23.4673V49.8673C46.666 51.0455 47.6211 52.0006 48.7993 52.0006H49.866C51.0442 52.0006 51.9993 51.0455 51.9993 49.8673V23.4673C51.9993 22.2891 51.0442 21.334 49.866 21.334Z" fill="#E8F7FF" stroke="#46AAF7" stroke-width="3.20312"/>
<path d="M39.2 30.666H38.1333C36.9551 30.666 36 31.6211 36 32.7993V49.866C36 51.0442 36.9551 51.9993 38.1333 51.9993H39.2C40.3782 51.9993 41.3333 51.0442 41.3333 49.866V32.7993C41.3333 31.6211 40.3782 30.666 39.2 30.666Z" fill="#E8F7FF" stroke="#46AAF7" stroke-width="3.20312"/>
<path d="M28.534 36H27.4673C26.2891 36 25.334 36.9551 25.334 38.1333V49.8667C25.334 51.0449 26.2891 52 27.4673 52H28.534C29.7122 52 30.6673 51.0449 30.6673 49.8667V38.1333C30.6673 36.9551 29.7122 36 28.534 36Z" fill="#E8F7FF" stroke="#46AAF7" stroke-width="3.20312"/>
<path d="M17.866 44H16.7993C15.6211 44 14.666 44.9551 14.666 46.1333V49.8667C14.666 51.0449 15.6211 52 16.7993 52H17.866C19.0442 52 19.9993 51.0449 19.9993 49.8667V46.1333C19.9993 44.9551 19.0442 44 17.866 44Z" fill="#E8F7FF" stroke="#46AAF7" stroke-width="3.20312"/>
<path fill-rule="evenodd" clip-rule="evenodd" d="M8 50.6658H56V53.3325H8V50.6658ZM9.09147 37.6373L41.0373 13.5645L42.6421 15.6941L10.696 39.7671L9.09147 37.6373Z" fill="#46AAF7"/>
<path fill-rule="evenodd" clip-rule="evenodd" d="M40.7617 12.2676H43.4284V19.2009H40.7617V12.2676Z" fill="#46AAF7"/>
<path fill-rule="evenodd" clip-rule="evenodd" d="M43.4665 12.2852V14.9518H36.5332V12.2852H43.4665Z" fill="#46AAF7"/>
</svg>
