<svg width="64" height="64" viewBox="0 0 64 64" fill="none" xmlns="http://www.w3.org/2000/svg">
<g clip-path="url(#clip0_1974_45954)">
<path d="M48.8214 4.7083V60.2377C48.8214 61.2773 47.9786 62.1201 46.939 62.1201H10.5469V1.88477H45.9979C47.5572 1.88476 48.8214 3.1489 48.8214 4.7083Z" fill="#F37D7F"/>
<path d="M48.8226 4.70634V60.2358C48.8226 61.2753 47.9798 62.1181 46.9403 62.1181H10.5449V55.8593C46.5732 55.1064 42.4414 1.88281 42.4414 1.88281H45.9991C47.5585 1.88281 48.8226 3.14694 48.8226 4.70634Z" fill="#EF3F3E"/>
<path d="M10.5473 1.88477V62.1201H3.33157C2.29198 62.1201 1.44922 61.2773 1.44922 60.2377V4.7083C1.44922 3.14891 2.71336 1.88477 4.27275 1.88477H10.5473Z" fill="#EF3F3E"/>
<path d="M41.4493 18.8257V29.1787C41.4493 30.2182 40.6066 31.061 39.567 31.061H19.8023C18.7627 31.061 17.9199 30.2182 17.9199 29.1787V18.8257C17.9199 17.7861 18.7627 16.9434 19.8023 16.9434H39.567C40.6066 16.9434 41.4493 17.7861 41.4493 18.8257Z" fill="white"/>
<path d="M41.4538 18.8238V29.1767C41.4538 30.2215 40.6067 31.0591 39.5715 31.0591H20.0703C31.3267 28.2826 36.4185 21.2238 38.5362 16.9414H39.5715C40.6067 16.9414 41.4538 17.7885 41.4538 18.8238Z" fill="#C6CAD0"/>
<path d="M17.9199 1.87891V12.3166L21.214 9.49302L24.5082 12.3166V1.87891H17.9199Z" fill="#96C93D"/>
<path d="M24.5121 2.18359V12.3201L21.2179 9.49655L17.9238 12.3201V10.5695C21.6132 9.16717 23.5427 5.19538 24.5121 2.18359Z" fill="#72B844"/>
<path d="M62.5521 7.4515V49.5965H53.623V7.4515C53.623 6.95836 54.0228 6.55859 54.516 6.55859H61.6592C62.1523 6.55859 62.5521 6.95836 62.5521 7.4515Z" fill="#06A488"/>
<path d="M62.5521 49.5918C62.5521 56.5721 58.8733 60.5336 58.0876 62.1193C57.0518 60.3144 55.3733 58.3369 54.3463 54.7617C53.8731 53.092 53.623 51.3508 53.623 49.5918H62.5521Z" fill="#C6CAD0"/>
<path d="M60.318 2.33121V6.56357H55.8535V2.33121C55.8535 2.08464 56.0534 1.88477 56.3 1.88477H59.8716C60.1182 1.88476 60.318 2.08464 60.318 2.33121Z" fill="#A3A6A8"/>
<path d="M1.44922 56.4727V60.2374C1.44922 61.277 2.29198 62.1197 3.33157 62.1197H46.9379C47.9774 62.1197 48.8202 61.277 48.8202 60.2374V56.4727H1.44922Z" fill="white"/>
<path d="M48.8228 56.4707V60.2354C48.8228 61.275 47.9801 62.1178 46.9405 62.1178H7.2793C27.3922 61.6378 48.8228 56.4707 48.8228 56.4707Z" fill="#C6CAD0"/>
<path d="M46.0004 0.941406C30.6176 0.941406 28.4675 0.941406 4.26861 0.941406C2.19801 0.941406 0.503906 2.63557 0.503906 4.70611V56.4708V60.2355C0.503906 61.7979 1.77453 63.0591 3.32744 63.0591C12.9727 63.0591 37.9954 63.0591 46.9416 63.0591C48.4945 63.0591 49.7651 61.7979 49.7651 60.2355V56.4708V4.70611C49.7651 2.63557 48.0709 0.941406 46.0004 0.941406ZM47.8828 4.70611V55.5296H11.4874V2.82376H16.9745V12.3203C16.9745 12.6873 17.1909 13.0167 17.5298 13.1767C17.8592 13.3273 18.2545 13.2709 18.5275 13.0356L21.2098 10.7297L23.8922 13.0356C24.2035 13.2813 24.5804 13.3238 24.8992 13.1767C25.2381 13.0167 25.4451 12.6873 25.4451 12.3203V2.82376H46.0004C47.0357 2.82376 47.8828 3.67084 47.8828 4.70611ZM23.5627 2.82376V10.2685L21.8216 8.78142C21.6522 8.63086 21.4357 8.55554 21.2098 8.55554C20.9933 8.55554 20.7768 8.63086 20.5981 8.78142L18.8568 10.2685V2.82376H23.5627ZM4.26861 2.82376H9.60506V55.5296H2.38626V4.70611C2.38626 3.67084 3.23335 2.82376 4.26861 2.82376ZM47.8828 60.2355C47.8828 60.7532 47.4592 61.1767 46.9416 61.1767C24.2374 61.1767 24.9863 61.1767 3.32744 61.1767C2.8098 61.1767 2.38626 60.7532 2.38626 60.2355V57.412C9.13684 57.412 41.2063 57.412 47.8828 57.412V60.2355Z" fill="#010101"/>
<path d="M19.7981 16.0002C18.2452 16.0002 16.9746 17.2709 16.9746 18.8238V29.1767C16.9746 30.7391 18.2452 32.0002 19.7981 32.0002H39.5628C41.1252 32.0002 42.3864 30.7391 42.3864 29.1767V18.8238C42.3864 17.2709 41.1252 16.0002 39.5628 16.0002H19.7981ZM40.504 18.8238V29.1767C40.504 29.6944 40.0899 30.1179 39.5628 30.1179H19.7981C19.2805 30.1179 18.857 29.6944 18.857 29.1767V18.8238C18.857 18.3061 19.2805 17.8826 19.7981 17.8826H39.5628C40.0899 17.8826 40.504 18.3061 40.504 18.8238ZM17.9196 41.4134H41.449C41.9688 41.4134 42.3902 40.992 42.3902 40.4722C42.3902 39.9525 41.9688 39.5311 41.449 39.5311H17.9196C17.3999 39.5311 16.9785 39.9525 16.9785 40.4722C16.9785 40.992 17.3999 41.4134 17.9196 41.4134ZM41.449 46.1193H17.9196C17.3999 46.1193 16.9785 46.5407 16.9785 47.0605C16.9785 47.5802 17.3999 48.0017 17.9196 48.0017H41.449C41.9688 48.0017 42.3902 47.5802 42.3902 47.0605C42.3902 46.5407 41.9688 46.1193 41.449 46.1193ZM61.6616 5.61908H61.257V2.33439C61.257 1.56261 60.6358 0.941406 59.8735 0.941406H56.297C55.5346 0.941406 54.9134 1.56261 54.9134 2.33439V5.61908H54.5182C53.5017 5.61908 52.6829 6.4379 52.6829 7.45438C52.6829 32.2897 52.6829 21.8521 52.6829 49.5908V49.6002C52.6829 56.5978 56.2464 60.7527 57.2664 62.5885C57.4358 62.8802 57.7464 63.0591 58.0852 63.0591H58.1135C58.4617 63.0497 58.7723 62.852 58.9323 62.5414C59.0546 62.2873 59.3087 61.9014 59.5911 61.4685C60.9558 59.3885 63.497 55.5203 63.497 49.6002V49.5908V7.45438C63.497 6.4379 62.6687 5.61908 61.6616 5.61908ZM61.6146 12.7181V15.6078H54.5276V12.7181H61.6146ZM54.5652 48.6496L54.5276 17.4902H57.1457V33.435C57.1457 33.9548 57.5672 34.3762 58.0869 34.3762C58.6067 34.3762 59.0281 33.9548 59.0281 33.435V17.4902H61.6146V48.6496H54.5652ZM56.7958 2.82376H59.3746V5.61908H56.7958V2.82376ZM54.5182 7.50143C54.8199 7.49941 61.7499 7.45328 61.6146 7.45438V10.8358H54.5182V10.8332V7.50143ZM58.0852 60.3297C58.0664 60.3108 58.057 60.2826 58.0381 60.2638C56.1668 57.3467 54.7902 54.5353 54.5935 50.5414H61.5864C61.3511 55.285 59.3558 58.4003 58.0852 60.3297Z" fill="#010101"/>
<path d="M38.6336 8.45221C38.2439 8.45221 37.9277 8.13603 37.9277 7.74632V5.39338C37.9277 5.00368 38.2439 4.6875 38.6336 4.6875C39.0233 4.6875 39.3395 5.00368 39.3395 5.39338V7.74632C39.3395 8.13603 39.0233 8.45221 38.6336 8.45221Z" fill="white"/>
<path d="M38.6336 13.7217C38.2439 13.7217 37.9277 13.4056 37.9277 13.0159V10.6629C37.9277 10.2732 38.2439 9.95703 38.6336 9.95703C39.0233 9.95703 39.3395 10.2732 39.3395 10.6629V13.0159C39.3395 13.4056 39.0233 13.7217 38.6336 13.7217Z" fill="white"/>
</g>
<defs>
<clipPath id="clip0_1974_45954">
<rect width="64" height="64" fill="white"/>
</clipPath>
</defs>
</svg>
