<svg width="64" height="64" viewBox="0 0 64 64" fill="none" xmlns="http://www.w3.org/2000/svg">
<path d="M34.6183 44.4093C34.6183 44.4093 44.1514 34.1682 44.5153 34.5123C47.322 37.319 55.2125 45.1925 58.0095 48.0065C59.9478 49.9815 60.5499 53.1314 59.466 55.6698C58.291 58.4197 55.2093 60.213 52.2322 59.8741C50.6908 59.6985 49.2217 58.993 48.1101 57.9011L48.08 57.871L34.6183 44.4093Z" fill="#00838F"/>
<path d="M39.3809 39.3804C41.8269 36.8464 44.3329 34.3364 44.5169 34.5084C47.3229 37.3144 55.2129 45.1884 58.0109 48.0044C59.9469 49.9784 60.5509 53.1284 59.4649 55.6664C59.1049 56.5124 58.5629 57.2684 57.8989 57.8984L39.3809 39.3804Z" fill="#0097A7"/>
<path d="M38.1252 48.0004L32.9492 42.8244C32.9492 42.8244 42.4832 32.5843 42.8472 32.9263C43.9772 34.0583 45.9312 36.0104 48.0472 38.1224C47.5432 39.1504 46.9552 40.1424 46.2832 41.0864C44.1932 44.0244 41.3532 46.3864 38.1252 48.0004Z" fill="#006064"/>
<path fill-rule="evenodd" clip-rule="evenodd" d="M37.7539 37.7544C40.1859 35.2364 42.6659 32.7564 42.8479 32.9284C43.9779 34.0584 45.9319 36.0104 48.0479 38.1224C47.5419 39.1504 46.9539 40.1424 46.2839 41.0864C45.5679 42.0924 44.7659 43.0284 43.8919 43.8924L37.7539 37.7544Z" fill="#00838F"/>
<path fill-rule="evenodd" clip-rule="evenodd" d="M25.8386 8C21.264 8.0202 16.7415 9.82403 13.4195 12.9526C7.88968 18.165 6.06852 26.9417 9.46262 34.0416C12.3921 40.1574 18.9234 44.3856 25.8386 44.4058C33.5099 44.4318 40.9504 39.1819 43.2968 31.5596C44.6764 27.0803 44.2406 22.0815 42.1078 17.9197C39.086 12.0233 32.647 8.05195 26.0146 8C25.954 8 25.8963 8 25.8386 8Z" fill="#B3E5FC"/>
<path fill-rule="evenodd" clip-rule="evenodd" d="M13.1824 13.1816L38.8724 38.8716C35.4363 42.3336 30.6843 44.4216 25.8383 44.4056C18.9223 44.3836 12.3903 40.1576 9.46435 34.0396C6.11635 27.0436 7.83835 18.4176 13.1824 13.1816Z" fill="#81D4FA"/>
<path d="M26.2088 9.99617C29.8939 10.0322 33.537 11.3598 36.3523 13.7132C41.9089 18.3561 43.7764 26.9239 40.1933 33.5703C39.6335 34.608 38.3438 35.2499 37.2861 34.65C36.2763 34.0762 36.1024 32.7465 36.7182 31.5888C38.6677 27.8837 38.4938 23.1809 36.2903 19.6518C33.2951 14.857 26.6687 12.6075 21.2381 15.0249C16.2953 17.2244 13.1801 23.0349 14.3818 28.5555C15.3196 32.8585 18.8227 36.5076 23.1076 37.6113C26.2608 38.4231 29.732 37.8872 32.5113 36.1336C32.5113 36.1336 32.7892 35.9677 33.0571 35.8957C34.5707 35.4878 36.3483 37.4353 35.1886 39.0109C34.8607 39.4548 34.2908 39.7487 33.7609 40.0387C28.2543 43.0459 20.9821 42.452 16.0054 38.3931C11.8924 35.0399 9.63098 29.5473 10.2028 24.2586C10.8327 18.4261 14.9397 13.0834 20.5143 11.0019C22.3298 10.3241 24.2613 9.99017 26.2088 9.99617Z" fill="#00838F"/>
<path d="M50.8881 40.877C51.8441 41.831 52.8061 42.7929 53.7181 43.7029L43.9201 53.503C43.8841 53.537 43.8481 53.5689 43.8101 53.5989L40.9941 50.783C41.0261 50.745 41.0581 50.709 41.0921 50.675L50.8881 40.877Z" fill="#004D40"/>
<path d="M45.8828 45.8829L50.8888 40.877C51.8448 41.831 52.8068 42.7929 53.7188 43.7029L48.7108 48.7109L45.8828 45.8829Z" fill="#00695C"/>
<path d="M14.7729 14.7715L17.6049 17.6035C14.9009 20.4235 13.5129 24.5655 14.3829 28.5575C15.3209 32.8615 18.8229 36.5095 23.1069 37.6135C26.2609 38.4255 29.7329 37.8875 32.5109 36.1375C32.5109 36.1375 32.7909 35.9695 33.0569 35.8975C34.5709 35.4895 36.3469 37.4375 35.1889 39.0135C34.8609 39.4575 34.2909 39.7495 33.7609 40.0395C28.2549 43.0475 20.9829 42.4535 16.0049 38.3955C11.8929 35.0415 9.63086 29.5495 10.2029 24.2615C10.5869 20.7075 12.2609 17.3355 14.7729 14.7715Z" fill="#006064"/>
<path d="M25.8706 4C33.9461 4.04041 41.8196 8.78241 45.5688 16.096C49.2573 23.2912 48.6397 32.478 43.8226 39.1623C38.9479 45.9304 30.0584 49.6045 21.6683 48.0229C12.7154 46.3345 5.16514 38.7525 3.82018 29.3724C2.65416 21.2247 6.39177 12.5229 13.385 7.79533C16.9667 5.37671 21.2498 4.04906 25.5849 4.00288C25.6801 4 25.7753 4 25.8706 4ZM25.7407 8.00025C21.1661 8.02045 16.6435 9.8243 13.3215 12.9529C7.77424 18.1798 5.97904 27.0173 9.3905 34.0913C12.3402 40.2071 18.8889 44.4065 25.7984 44.4065C33.467 44.4065 40.8932 39.1392 43.2165 31.5082C44.5817 27.0231 44.1286 22.0242 41.9841 17.871C38.9479 11.9861 32.4944 8.032 25.8562 8.00025C25.8186 8.00025 25.7782 8.00025 25.7407 8.00025Z" fill="#263238"/>
<path d="M26.1136 10.0001C29.8267 10.0361 33.5019 11.3858 36.3312 13.7792C41.832 18.4301 43.6835 26.9282 40.0984 33.5746C39.5425 34.6064 38.2528 35.2583 37.191 34.6544C36.1853 34.0825 36.0053 32.7528 36.6232 31.5931C38.5667 27.902 38.4067 23.199 36.1953 19.6559C33.1999 14.861 26.5735 12.6115 21.1427 15.0289C16.2158 17.2224 13.1066 22.9771 14.2723 28.4878C15.1841 32.8008 18.6533 36.464 22.9403 37.5977C26.1156 38.4355 29.6088 37.9077 32.4161 36.1381C32.4161 36.1381 32.6961 35.9721 32.962 35.9001C34.2857 35.5442 35.8033 36.8859 35.4154 38.3455C35.2055 39.1274 34.4577 39.6093 33.6658 40.0432C28.1851 43.0365 20.9548 42.4626 15.9839 38.4595C11.8249 35.1083 9.53139 29.5836 10.1073 24.2628C10.7371 18.4281 14.8322 13.0934 20.4189 11.0058C22.2345 10.328 24.168 9.99408 26.1136 10.0001Z" fill="#263238"/>
<path d="M26.0078 35.9961C27.1124 35.9961 28.0078 35.1007 28.0078 33.9961C28.0078 32.8915 27.1124 31.9961 26.0078 31.9961C24.9032 31.9961 24.0078 32.8915 24.0078 33.9961C24.0078 35.1007 24.9032 35.9961 26.0078 35.9961Z" fill="#263238"/>
<path d="M47.9612 43.7083L46.6672 42.4143C46.3472 42.0743 46.2832 41.9223 46.1892 41.6443C45.8012 40.5103 46.6512 39.0983 47.9392 39.0063C48.0152 39.0003 48.0912 39.0023 48.1672 39.0023C48.6652 39.0383 49.1312 39.2423 49.4952 39.5863C52.3012 42.3923 55.1152 45.1883 57.9132 48.0043C59.8492 49.9783 60.4532 53.1282 59.3672 55.6662C58.1932 58.4162 55.1132 60.2103 52.1352 59.8703C50.5932 59.6963 49.1292 58.9923 48.0132 57.8983L47.9832 57.8683L39.5972 49.4843C39.5972 49.4843 38.7092 48.3403 39.1812 47.2643C39.6692 46.1563 41.2712 45.7223 42.2552 46.5043C42.3352 46.5663 42.3512 46.5863 42.4252 46.6563C42.8572 47.0863 43.2872 47.5183 43.7172 47.9523L47.9612 43.7083ZM50.7892 46.5343L46.5312 50.7923C47.9592 52.2323 49.3932 53.6682 50.8512 55.0802C52.2392 56.4062 54.9152 55.9402 55.6972 54.0802C56.1552 52.9902 55.9012 51.6523 55.0512 50.7983L50.7892 46.5343Z" fill="#263238"/>
<path d="M26.0467 16C28.7061 16.026 31.2235 17.9955 31.8454 20.6089C32.5132 23.4223 30.8656 26.5995 28.0702 27.6333L28.0082 27.6553V27.9972C27.9802 29.2989 26.5466 30.3587 25.2749 29.8568C24.537 29.5649 24.0272 28.8171 24.0092 27.9972V25.9977C24.0152 25.6758 24.0432 25.5798 24.1011 25.3978C24.3711 24.54 25.2569 24.0701 26.1907 23.9902C27.6643 23.8542 28.5961 21.7587 27.4224 20.5849C26.3406 19.5032 24.0252 20.249 24.0092 21.9846C24.0092 21.9846 23.8232 23.3823 22.8194 23.8262C21.5797 24.3761 19.9841 23.3463 20.0121 21.8826C20.0701 18.8413 22.7095 16.072 25.8927 16.002C25.9447 16 25.9967 16 26.0467 16Z" fill="#263238"/>
</svg>
