<svg width="611" height="482" viewBox="0 0 611 482" fill="none" xmlns="http://www.w3.org/2000/svg">
<path d="M564.76 370.589C562.596 368.819 559.753 368.158 557.007 367.625C537.844 363.902 518.181 363.891 498.66 363.893C351.027 363.907 203.393 363.923 55.7601 363.938L61.9788 366.37C54.0503 367.363 45.8262 368.457 39.09 372.755C32.3538 377.053 27.5781 385.541 30.1475 393.107C31.3463 396.64 33.9623 399.532 36.8933 401.841C56.292 417.126 84.6363 408.025 108.921 412.518C124.014 415.312 137.504 423.466 151.94 428.678C172.925 436.254 196.156 437.484 217.823 432.17C230.454 429.07 242.488 423.829 255.152 420.871C271.189 417.126 287.833 417.13 304.302 417.154L387.168 417.269C402.3 417.29 417.464 417.313 432.513 418.908C457.876 421.594 483.01 428.739 508.451 426.908C533.891 425.078 561.013 411.129 567.686 386.515C569.181 380.999 569.186 374.207 564.76 370.589Z" fill="#D1DEF2"/>
<path d="M567.423 388.004L76.2994 387.601C76.2994 387.601 -9.74908 301.566 52.1732 226.788C114.096 152.011 138.707 272.962 154.235 159.501C172.788 23.9336 391.157 11.0899 397.071 117.426C412.947 402.816 662.317 117.838 567.423 388.004Z" fill="#E6EBF4"/>
<path d="M56.5938 354.041H57.9998L57.778 363.52H56.5938V354.041Z" fill="#5CA88D"/>
<path d="M69.7924 349.164C70.3227 348.703 84.7865 335.535 83.0831 319.011C81.3798 302.486 67.5781 298.397 71.4973 279.146C75.4166 259.895 71.4973 246.606 59.5708 246.437C47.6427 246.267 42.1921 257.851 46.6207 278.465C51.051 299.078 32.0718 307.14 32.9893 322.248C34.0483 339.661 47.8131 368.245 69.7924 349.164Z" fill="#7AC094"/>
<path opacity="0.2" d="M51.311 249.013C51.5167 249.93 52.0566 250.836 52.9404 251.231C53.7551 251.596 54.6919 251.522 55.5484 251.371C57.1344 251.093 58.7365 250.499 60.3675 250.712C61.1871 250.82 61.968 251.18 62.7024 251.543C63.5107 251.943 64.2772 252.425 64.9922 252.975C66.3613 254.027 67.5488 255.341 68.3667 256.868C69.2987 258.608 69.6217 260.526 69.678 262.481C69.7406 264.739 69.5317 266.999 69.9399 269.234C70.2115 270.722 70.671 272.353 71.7123 273.495C71.9132 273.715 72.1365 273.892 72.3695 274.046C74.6337 257.586 70.4123 246.59 59.5705 246.435C56.2972 246.389 53.5221 247.24 51.2949 248.91C51.303 248.945 51.303 248.977 51.311 249.013Z" fill="#F2FAFF"/>
<path opacity="0.15" d="M60.0768 315.407C58.42 312.356 58.3975 308.567 59.3086 305.29C59.7971 303.534 60.5444 301.855 61.4025 300.25C61.7495 299.602 62.177 298.988 62.4919 298.325C62.7201 297.846 62.6751 297.427 62.4903 296.938C62.1706 296.093 61.7174 295.288 61.3591 294.458C60.9991 293.62 60.652 292.775 60.358 291.913C59.7425 290.116 59.4951 288.299 59.3504 286.415C59.209 284.554 59.2765 282.629 59.8711 280.846C60.4013 279.254 61.5487 277.968 62.1272 276.41C61.1791 275.83 60.3547 275.083 59.6734 274.204C58.8876 273.188 58.277 272.059 57.7965 270.865C57.7917 273.502 57.7917 276.138 57.7853 278.775C57.758 289.282 57.7146 299.79 57.6889 310.298C57.6664 319.661 57.668 329.025 57.668 338.389C57.8624 337.715 58.0697 337.045 58.3059 336.385C60.4142 330.45 63.9301 325.18 67.3384 319.926C64.2804 320.042 61.5294 318.082 60.0768 315.407Z" fill="#202234"/>
<path opacity="0.15" d="M61.8334 354.236C60.1606 354.253 58.4701 353.972 56.9692 353.209C55.3848 352.402 54.1395 351.074 53.2637 349.541C52.7238 348.596 52.4024 347.659 52.2192 346.589C52.0216 345.439 51.8159 344.355 51.059 343.426C49.7414 341.81 47.4917 341.585 45.6887 340.768C43.9983 340.004 42.7015 338.55 41.6988 337.02C40.6928 335.486 39.981 333.76 39.4925 331.996C38.4592 328.259 38.3468 324.266 38.8256 320.433C39.2675 316.887 40.2027 313.373 41.9623 310.243C44.0593 306.514 46.8152 303.185 48.7772 299.379C49.7397 297.512 50.4564 295.523 50.7698 293.441C51.1426 290.96 50.9096 288.46 50.3439 286.028C49.7189 283.343 48.7258 280.766 47.7054 278.211C46.7525 275.83 45.9378 273.427 45.3931 270.922C45.6421 273.282 46.0471 275.795 46.6207 278.464C51.051 299.077 32.0718 307.139 32.9893 322.247C33.9133 337.456 44.5318 361.181 61.8478 354.236H61.8334Z" fill="#202234"/>
<path d="M72.9064 315.351C72.8898 315.334 72.87 315.321 72.8482 315.312C72.8264 315.303 72.8031 315.298 72.7794 315.298C72.7558 315.298 72.7324 315.303 72.7106 315.312C72.6888 315.321 72.6691 315.334 72.6525 315.351L57.5411 330.459V304.77L65.9613 295.877C66.0288 295.806 66.0272 295.692 65.9549 295.623C65.9203 295.59 65.8742 295.573 65.8266 295.574C65.779 295.575 65.7339 295.595 65.701 295.629L57.5411 304.246V281.132L63.6586 274.924C63.7277 274.854 63.7277 274.741 63.657 274.67C63.6231 274.637 63.5773 274.619 63.5297 274.619C63.4821 274.619 63.4366 274.638 63.4031 274.672L57.5411 280.622V260.745C57.5421 260.721 57.5383 260.697 57.5297 260.675C57.5212 260.652 57.5081 260.631 57.4914 260.614C57.4747 260.596 57.4546 260.582 57.4323 260.573C57.4101 260.563 57.3861 260.559 57.3619 260.559C57.3377 260.559 57.3138 260.563 57.2916 260.573C57.2693 260.582 57.2492 260.596 57.2325 260.614C57.2157 260.631 57.2027 260.652 57.1942 260.675C57.1856 260.697 57.1817 260.721 57.1828 260.745V288.467L52.5292 284.502C52.4928 284.471 52.4459 284.456 52.3987 284.46C52.3515 284.464 52.3077 284.487 52.2769 284.523C52.2126 284.598 52.2222 284.711 52.2978 284.775L57.1844 288.938V315.044L47.9639 305.825C47.8948 305.756 47.7807 305.756 47.71 305.825C47.6409 305.896 47.6409 306.008 47.71 306.079L57.1844 315.55V354.956C57.1844 355.055 57.2647 355.134 57.3643 355.134C57.4624 355.134 57.5427 355.054 57.5427 354.956V330.963L72.9064 315.602C72.9771 315.534 72.9771 315.422 72.9064 315.351Z" fill="#B8DEBF"/>
<path d="M411.199 363.926H412.607L412.385 373.405H411.199V363.926Z" fill="#5CA88D"/>
<path d="M424.4 359.049C424.93 358.588 439.394 345.42 437.691 328.895C435.987 312.371 422.185 308.282 426.105 289.031C430.024 269.78 426.105 256.491 414.178 256.322C402.25 256.152 396.799 267.736 401.228 288.349C405.658 308.963 386.679 317.025 387.597 332.133C388.654 349.546 402.42 378.128 424.4 359.049Z" fill="#7AC094"/>
<path opacity="0.2" d="M405.916 258.897C406.122 259.815 406.662 260.721 407.546 261.116C408.361 261.481 409.297 261.407 410.154 261.256C411.74 260.978 413.342 260.383 414.973 260.597C415.793 260.705 416.573 261.065 417.308 261.428C418.116 261.828 418.883 262.31 419.598 262.859C420.967 263.912 422.154 265.226 422.972 266.752C423.904 268.492 424.227 270.411 424.283 272.366C424.346 274.623 424.137 276.884 424.545 279.119C424.817 280.607 425.277 282.237 426.318 283.38C426.519 283.6 426.742 283.776 426.975 283.931C429.239 267.47 425.018 256.474 414.176 256.32C410.903 256.274 408.128 257.125 405.9 258.794C405.907 258.83 405.908 258.862 405.916 258.897Z" fill="#F2FAFF"/>
<path opacity="0.15" d="M414.682 325.292C413.026 322.241 413.003 318.452 413.914 315.174C414.403 313.418 415.15 311.739 416.008 310.134C416.355 309.487 416.782 308.873 417.097 308.21C417.326 307.731 417.281 307.311 417.096 306.823C416.776 305.978 416.323 305.173 415.965 304.342C415.605 303.505 415.258 302.66 414.963 301.797C414.348 300.001 414.101 298.184 413.956 296.299C413.815 294.439 413.882 292.514 414.477 290.731C415.007 289.138 416.154 287.853 416.733 286.295C415.785 285.715 414.96 284.967 414.279 284.089C413.493 283.073 412.882 281.944 412.402 280.75C412.397 283.387 412.397 286.023 412.391 288.66C412.363 299.167 412.32 309.675 412.294 320.182C412.272 329.546 412.273 338.91 412.273 348.273C412.468 347.6 412.675 346.93 412.911 346.27C415.02 340.335 418.536 335.065 421.944 329.811C418.888 329.927 416.137 327.967 414.682 325.292Z" fill="#202234"/>
<path opacity="0.15" d="M416.44 364.122C414.768 364.14 413.077 363.859 411.576 363.096C409.992 362.289 408.747 360.96 407.871 359.428C407.331 358.483 407.009 357.546 406.826 356.476C406.629 355.326 406.423 354.241 405.666 353.313C404.348 351.696 402.099 351.471 400.296 350.655C398.605 349.89 397.309 348.436 396.306 346.907C395.3 345.372 394.588 343.647 394.1 341.883C393.066 338.146 392.954 334.153 393.433 330.32C393.875 326.774 394.81 323.26 396.569 320.13C398.666 316.401 401.422 313.072 403.384 309.266C404.347 307.399 405.063 305.41 405.377 303.328C405.75 300.847 405.517 298.347 404.951 295.914C404.326 293.23 403.333 290.653 402.311 288.098C401.358 285.717 400.543 283.313 399.999 280.809C400.248 283.169 400.653 285.682 401.226 288.35C405.656 308.964 386.677 317.026 387.595 332.134C388.519 347.342 399.137 371.068 416.453 364.122C416.45 364.121 416.445 364.122 416.44 364.122Z" fill="#202234"/>
<path d="M427.514 325.237C427.498 325.22 427.478 325.206 427.456 325.197C427.434 325.188 427.411 325.183 427.387 325.183C427.364 325.183 427.34 325.188 427.318 325.197C427.297 325.206 427.277 325.22 427.26 325.237L412.149 340.344V314.655L420.569 305.762C420.637 305.691 420.635 305.577 420.563 305.508C420.528 305.476 420.482 305.458 420.434 305.459C420.387 305.46 420.342 305.48 420.309 305.515L412.149 314.131V291.018L418.266 284.81C418.335 284.739 418.335 284.626 418.265 284.556C418.231 284.522 418.185 284.504 418.138 284.504C418.09 284.504 418.044 284.524 418.011 284.557L412.149 290.507V270.628C412.149 270.58 412.13 270.535 412.097 270.501C412.063 270.468 412.018 270.449 411.971 270.449C411.923 270.449 411.878 270.468 411.844 270.501C411.811 270.535 411.792 270.58 411.792 270.628V298.349L407.139 294.384C407.102 294.353 407.055 294.338 407.008 294.342C406.961 294.346 406.917 294.369 406.886 294.405C406.822 294.48 406.832 294.593 406.907 294.657L411.794 298.82V324.926L402.573 315.707C402.504 315.638 402.39 315.638 402.319 315.707C402.25 315.778 402.25 315.891 402.319 315.961L411.794 325.433V364.838C411.794 364.937 411.874 365.016 411.972 365.016C412.07 365.016 412.151 364.936 412.151 364.838V340.845L427.514 325.484C427.583 325.42 427.583 325.306 427.514 325.237Z" fill="#B8DEBF"/>
<path d="M383.647 358.949H381.648L381.965 372.41H383.647V358.949Z" fill="#5CA88D"/>
<path d="M364.905 352.022C364.152 351.368 343.612 332.668 346.032 309.201C348.452 285.734 368.05 279.929 362.485 252.592C356.921 225.255 362.485 206.384 379.422 206.143C396.359 205.901 404.103 222.351 397.812 251.625C391.52 280.897 418.472 292.346 417.168 313.798C415.666 338.528 396.118 379.119 364.905 352.022Z" fill="#7AC094"/>
<path opacity="0.2" d="M391.152 209.802C390.859 211.103 390.093 212.39 388.838 212.953C387.681 213.47 386.349 213.366 385.134 213.152C382.883 212.757 380.606 211.912 378.29 212.215C377.125 212.368 376.018 212.88 374.975 213.396C373.826 213.963 372.74 214.649 371.723 215.429C369.778 216.923 368.093 218.788 366.931 220.957C365.607 223.427 365.149 226.151 365.07 228.929C364.98 232.135 365.277 235.345 364.697 238.52C364.313 240.632 363.659 242.948 362.179 244.572C361.895 244.884 361.578 245.134 361.246 245.354C358.029 221.981 364.026 206.364 379.421 206.145C384.07 206.078 388.012 207.289 391.173 209.659C391.163 209.707 391.162 209.752 391.152 209.802Z" fill="#F2FAFF"/>
<path opacity="0.15" d="M378.7 304.085C381.052 299.752 381.083 294.371 379.789 289.718C379.095 287.225 378.035 284.841 376.815 282.561C376.323 281.642 375.716 280.771 375.268 279.828C374.945 279.148 375.009 278.552 375.271 277.86C375.724 276.661 376.368 275.517 376.876 274.336C377.387 273.147 377.879 271.947 378.298 270.723C379.171 268.173 379.524 265.593 379.728 262.914C379.929 260.273 379.833 257.54 378.989 255.006C378.237 252.746 376.608 250.919 375.785 248.708C377.13 247.886 378.301 246.824 379.269 245.575C380.386 244.134 381.252 242.531 381.935 240.834C381.941 244.579 381.941 248.323 381.951 252.066C381.989 266.987 382.05 281.91 382.087 296.831C382.119 310.128 382.116 323.425 382.116 336.721C381.84 335.765 381.544 334.814 381.211 333.876C378.218 325.447 373.224 317.965 368.387 310.504C372.73 310.668 376.637 307.885 378.7 304.085Z" fill="#202234"/>
<path opacity="0.15" d="M376.206 359.227C378.583 359.253 380.982 358.855 383.114 357.77C385.365 356.625 387.131 354.738 388.377 352.561C389.145 351.22 389.6 349.889 389.858 348.37C390.14 346.736 390.43 345.195 391.505 343.877C393.376 341.581 396.572 341.263 399.132 340.103C401.533 339.017 403.374 336.953 404.798 334.78C406.228 332.6 407.237 330.152 407.93 327.645C409.398 322.338 409.556 316.667 408.878 311.225C408.249 306.19 406.922 301.199 404.423 296.755C401.446 291.46 397.531 286.733 394.745 281.327C393.378 278.676 392.36 275.851 391.917 272.893C391.388 269.37 391.718 265.819 392.521 262.365C393.408 258.552 394.817 254.892 396.268 251.266C397.621 247.885 398.778 244.471 399.551 240.914C399.196 244.266 398.622 247.834 397.808 251.622C391.517 280.894 418.468 292.343 417.165 313.796C415.852 335.392 400.774 369.086 376.184 359.223C376.193 359.227 376.2 359.227 376.206 359.227Z" fill="#202234"/>
<path d="M360.487 304.009C360.586 303.909 360.747 303.909 360.847 304.009L382.305 325.463V288.983L370.348 276.355C370.252 276.254 370.255 276.092 370.358 275.995C370.461 275.899 370.621 275.904 370.718 276.005L382.305 288.241V255.419L373.618 246.601C373.52 246.502 373.52 246.341 373.622 246.241C373.723 246.143 373.883 246.143 373.981 246.244L382.307 254.694V226.465C382.307 226.397 382.334 226.333 382.381 226.285C382.429 226.238 382.493 226.211 382.561 226.211C382.628 226.211 382.693 226.238 382.74 226.285C382.788 226.333 382.815 226.397 382.815 226.465V265.831L389.422 260.202C389.53 260.112 389.691 260.123 389.781 260.23C389.872 260.338 389.859 260.499 389.752 260.589L382.813 266.5V303.574L395.906 290.482C396.006 290.383 396.166 290.383 396.266 290.482C396.366 290.582 396.366 290.743 396.266 290.842L382.813 304.293V360.254C382.813 360.395 382.699 360.507 382.559 360.507C382.419 360.507 382.305 360.393 382.305 360.254V326.183L360.488 304.369C360.387 304.269 360.387 304.107 360.487 304.009Z" fill="#B8DEBF"/>
<path d="M91.3281 349.609H93.4075L93.0797 363.613H91.3281V349.609Z" fill="#5CA88D"/>
<path d="M110.829 342.404C111.613 341.724 132.981 322.269 130.463 297.856C127.946 273.442 107.556 267.403 113.346 238.962C119.135 210.522 113.346 190.89 95.726 190.639C78.1062 190.387 70.0508 207.501 76.5957 237.956C83.1406 268.409 55.1017 280.32 56.4579 302.639C58.0214 328.363 78.3569 370.591 110.829 342.404Z" fill="#7AC094"/>
<path opacity="0.2" d="M83.5222 194.444C83.8275 195.799 84.6245 197.139 85.9293 197.722C87.1329 198.26 88.5164 198.151 89.7827 197.929C92.1255 197.518 94.4941 196.639 96.9029 196.956C98.1145 197.115 99.2667 197.646 100.353 198.185C101.548 198.776 102.678 199.488 103.735 200.301C105.759 201.856 107.512 203.797 108.72 206.053C110.097 208.622 110.574 211.456 110.656 214.345C110.751 217.678 110.441 221.019 111.044 224.322C111.444 226.52 112.124 228.928 113.663 230.618C113.959 230.943 114.29 231.203 114.634 231.433C117.979 207.116 111.741 190.87 95.7234 190.641C90.8882 190.572 86.7874 191.832 83.498 194.297C83.5093 194.346 83.5109 194.393 83.5222 194.444Z" fill="#F2FAFF"/>
<path opacity="0.15" d="M96.4754 292.533C94.0265 288.026 93.9959 282.428 95.3409 277.586C96.0624 274.991 97.1664 272.51 98.4342 270.141C98.9452 269.183 99.5784 268.277 100.044 267.297C100.38 266.59 100.314 265.97 100.041 265.25C99.5687 264.002 98.8986 262.813 98.37 261.585C97.8381 260.348 97.3271 259.1 96.89 257.826C95.9821 255.173 95.6157 252.488 95.4036 249.702C95.1947 246.953 95.2943 244.109 96.1717 241.474C96.9543 239.122 98.6496 237.223 99.5044 234.923C98.1048 234.066 96.8868 232.962 95.8808 231.663C94.7191 230.164 93.8176 228.494 93.1057 226.729C93.0993 230.623 93.0993 234.519 93.088 238.414C93.0479 253.937 92.9852 269.461 92.9466 284.985C92.9129 298.818 92.9161 312.65 92.9161 326.483C93.2037 325.489 93.5107 324.499 93.8578 323.524C96.9736 314.755 102.167 306.97 107.202 299.21C102.686 299.382 98.6222 296.487 96.4754 292.533Z" fill="#202234"/>
<path opacity="0.15" d="M99.07 349.898C96.5985 349.925 94.1014 349.511 91.8838 348.381C89.5426 347.191 87.7043 345.226 86.4091 342.962C85.6105 341.566 85.138 340.182 84.8665 338.602C84.5756 336.902 84.2703 335.3 83.1535 333.929C81.2075 331.54 77.8828 331.209 75.2202 330.003C72.723 328.872 70.8076 326.725 69.326 324.464C67.8397 322.197 66.7887 319.648 66.0672 317.042C64.5391 311.521 64.3752 305.621 65.0806 299.96C65.7346 294.72 67.1149 289.531 69.7133 284.907C72.8098 279.397 76.8817 274.479 79.7822 268.856C81.2043 266.099 82.2633 263.159 82.7245 260.084C83.2756 256.419 82.9318 252.725 82.0962 249.131C81.1738 245.164 79.7067 241.356 78.1962 237.582C76.7901 234.065 75.585 230.515 74.7815 226.814C75.1511 230.301 75.7489 234.014 76.5957 237.955C83.1406 268.408 55.1017 280.32 56.4579 302.638C57.8238 325.106 73.5088 360.158 99.0924 349.896C99.0844 349.898 99.078 349.898 99.07 349.898Z" fill="#202234"/>
<path d="M115.425 292.451C115.32 292.347 115.153 292.347 115.05 292.451L92.727 314.771V276.82L105.166 263.684C105.192 263.659 105.212 263.629 105.226 263.597C105.239 263.564 105.246 263.528 105.246 263.493C105.246 263.457 105.238 263.422 105.224 263.389C105.21 263.357 105.189 263.327 105.163 263.303C105.137 263.278 105.107 263.259 105.073 263.247C105.04 263.234 105.004 263.229 104.969 263.231C104.933 263.232 104.898 263.241 104.866 263.257C104.834 263.272 104.805 263.294 104.782 263.321L92.727 276.051V241.903L101.764 232.73C101.867 232.626 101.865 232.459 101.761 232.356C101.657 232.253 101.489 232.253 101.387 232.359L92.7254 241.149V211.781C92.7254 211.635 92.6081 211.516 92.4602 211.516C92.314 211.516 92.1951 211.635 92.1951 211.781V252.735L85.3207 246.878C85.2099 246.784 85.0428 246.796 84.9479 246.909C84.8531 247.02 84.866 247.187 84.9785 247.282L92.1967 253.432V292L78.5765 278.382C78.4737 278.279 78.305 278.279 78.2021 278.382C78.0993 278.485 78.0993 278.652 78.2021 278.756L92.1983 292.749V350.965C92.1983 351.111 92.3172 351.23 92.4635 351.23C92.6097 351.23 92.7286 351.111 92.7286 350.965V315.52L115.426 292.826C115.527 292.723 115.527 292.554 115.425 292.451Z" fill="#B8DEBF"/>
<path d="M50.7603 371.241C50.7603 371.241 54.9832 340.591 46.5743 343.616C38.1669 346.642 42.0267 358.925 50.7603 371.241Z" fill="#394CA4"/>
<path d="M51.3133 370.945C51.3133 370.945 34.1194 340.712 22.2572 351.107C10.395 361.504 51.3133 370.945 51.3133 370.945Z" fill="#100959"/>
<path opacity="0.5" d="M22.9182 351.446C23.2621 352.391 23.8261 353.191 24.8449 353.438C26.1176 353.747 27.5043 353.372 28.7835 353.3C30.2425 353.218 31.6421 353.435 32.9646 354.07C34.2421 354.683 35.3364 355.612 36.4179 356.515C37.5009 357.42 38.6049 358.404 39.8711 359.045C41.0731 359.653 42.4984 359.913 43.8193 360.119H43.8225C37.8866 352.826 29.4921 345.434 22.7109 350.737C22.7656 350.977 22.8331 351.213 22.9182 351.446Z" fill="#F2FAFF"/>
<path d="M27.1217 387.6H175.562L173.433 380.18L168.425 362.606C164.877 350.201 152.552 342.438 139.821 344.607L133.395 345.722C132.908 345.804 132.442 345.844 131.976 345.844C129.138 345.844 126.442 344.425 124.84 342.012C113.811 325.473 88.8769 327.52 80.6865 345.642L79.5922 348.074C77.6606 352.366 72.6198 354.284 68.3245 352.361L61.9161 349.493C58.1656 347.811 53.9893 349.067 51.6785 352.027C50.8269 353.1 50.2178 354.398 49.9752 355.857L49.0223 361.411C48.778 362.79 48.251 364.006 47.5022 365.02C47.3608 365.203 47.2177 365.384 47.0763 365.547C45.789 367.036 44.0285 368.038 42.0901 368.384C41.6048 368.485 41.0761 368.525 40.57 368.525C38.9614 368.525 37.332 368.085 35.8521 367.097C32.5145 364.87 28.0409 365.425 25.2031 368.262L20.8965 372.568C15.3479 378.114 19.2768 387.6 27.1217 387.6Z" fill="#4094F2"/>
<path opacity="0.2" d="M21.3087 375.755C22.1781 374.461 22.7019 372.956 23.6371 371.708C25.5686 369.127 29.1087 368.608 32.12 369.113C34.1447 369.453 36.0553 370.178 38.1395 369.992C39.7657 369.846 41.3839 369.59 42.9634 369.176C46.0648 368.359 49.2079 366.841 50.9482 364.025C52.6804 361.224 51.8545 357.514 53.9017 354.857C56.1031 351.999 59.8955 352.267 62.9502 353.385C64.6632 354.012 66.1817 355.063 67.8995 355.652C69.9161 356.345 72.0807 356.431 74.1552 355.957C75.2286 355.712 76.2683 355.331 77.2549 354.846C77.8671 354.544 78.4247 354.217 78.857 353.679C79.5673 352.794 79.834 351.623 79.7922 350.506C79.7681 349.826 79.6171 349.147 79.3584 348.523C77.2854 352.494 72.4599 354.214 68.3205 352.362L61.9121 349.494C58.1616 347.812 53.9852 349.068 51.6745 352.028C50.8228 353.101 50.2138 354.399 49.9712 355.858L49.0183 361.412C48.774 362.791 48.247 364.007 47.4981 365.021C47.3567 365.204 47.2137 365.385 47.0723 365.548C45.7846 367.037 44.0242 368.039 42.0861 368.385C41.6008 368.486 41.0721 368.526 40.5659 368.526C38.9574 368.526 37.328 368.086 35.848 367.098C32.5105 364.871 28.0369 365.426 25.1991 368.263L20.8925 372.569C19.3274 374.134 18.5175 376.012 18.3359 377.903C19.5733 377.63 20.5776 376.846 21.3087 375.755Z" fill="#F2FAFF"/>
<path opacity="0.25" d="M40.2188 387.601H175.558L173.428 380.182C166.739 374.182 157.494 371.244 148.087 372.865L143.08 373.716L140.384 374.163C139.796 374.264 139.209 374.305 138.64 374.305C137.384 374.305 136.146 374.081 134.991 373.636C133.045 372.886 131.342 371.568 130.125 369.745C128.422 367.171 126.415 364.981 124.226 363.177C123.375 362.447 122.504 361.798 121.591 361.21C116.664 357.947 111.01 356.326 105.332 356.265C102.008 356.204 98.7039 356.691 95.5415 357.724C87.8588 360.156 81.0471 365.69 77.2564 374.1L75.9388 376.98C73.6071 382.148 67.5459 384.439 62.3973 382.127L58.5054 380.384L54.7549 378.702C53.0515 377.932 51.2679 377.69 49.5645 377.85C45.1439 378.276 41.252 381.56 40.4421 386.322L40.2188 387.601Z" fill="#F2FAFF"/>
<path d="M58.5723 360.244C58.5723 361.701 59.7533 362.882 61.2108 362.882C62.6683 362.882 63.8494 361.701 63.8494 360.244C63.8494 358.786 62.6683 357.605 61.2108 357.605C59.7533 357.605 58.5723 358.788 58.5723 360.244Z" fill="#100959"/>
<path opacity="0.15" d="M59.1836 360.869C59.1836 362.326 60.3647 363.507 61.8221 363.507C63.2796 363.507 64.4607 362.326 64.4607 360.869C64.4607 359.411 63.2796 358.23 61.8221 358.23C60.3647 358.23 59.1836 359.411 59.1836 360.869Z" fill="#202234"/>
<path d="M96.8359 380.394C96.8359 381.851 98.017 383.032 99.4745 383.032C100.932 383.032 102.113 381.851 102.113 380.394C102.113 378.937 100.932 377.756 99.4745 377.756C98.017 377.756 96.8359 378.937 96.8359 380.394Z" fill="#394CA4"/>
<path opacity="0.15" d="M86.7129 346.86C86.7129 349.669 88.9899 351.944 91.7972 351.944C94.606 351.944 96.883 349.667 96.883 346.86C96.883 344.054 94.606 341.775 91.7972 341.775C88.9899 341.775 86.7129 344.052 86.7129 346.86Z" fill="#202234"/>
<path d="M87.3477 345.052C87.3477 347.86 89.6246 350.135 92.4319 350.135C95.2408 350.135 97.5178 347.859 97.5178 345.052C97.5178 342.243 95.2408 339.967 92.4319 339.967C89.6246 339.968 87.3477 342.243 87.3477 345.052Z" fill="#394CA4"/>
<path d="M58.6713 386.211C58.6713 386.211 70.5705 371.21 65.1391 370.175C59.7061 369.14 57.8951 376.899 58.6713 386.211Z" fill="#100959"/>
<path opacity="0.5" d="M59.0537 376.989C59.6081 376.858 59.9552 376.471 60.193 375.969C60.6703 374.963 60.6365 373.784 61.1845 372.807C61.4609 372.316 61.8915 371.94 62.4009 371.705C62.9039 371.474 63.4663 371.358 63.9452 371.074C64.408 370.799 64.4931 370.466 64.1348 370.084C61.2922 370.123 59.6146 372.886 58.9043 377.015C58.9525 377.006 59.0039 377.001 59.0537 376.989Z" fill="#F2FAFF"/>
<path d="M58.6693 386.213C58.6693 386.213 51.1683 366.039 42.8895 371.211C34.6123 376.383 58.6693 386.213 58.6693 386.213Z" fill="#394CA4"/>
<path opacity="0.2" d="M43.2266 371.032C43.3133 371.225 43.5062 371.403 43.6556 371.462C43.9866 371.597 44.4125 371.544 44.7612 371.538C45.5293 371.523 46.3215 371.469 47.0799 371.621C47.8962 371.785 48.6772 372.258 49.3489 372.733C50.5846 373.606 51.3816 374.965 52.6511 375.778C52.8568 375.91 53.1476 376.054 53.477 376.179C50.6939 372.168 47.0542 368.949 43.2266 371.032Z" fill="#F2FAFF"/>
<path d="M58.668 386.211C58.668 386.211 86.347 382.849 79.3618 378.453C72.3781 374.055 58.668 386.211 58.668 386.211Z" fill="#394CA4"/>
<path opacity="0.2" d="M67.9145 380.071C68.7292 379.922 69.3286 379.441 70.0228 379.028C70.6784 378.638 71.3902 378.321 72.1407 378.164C73.2028 377.941 74.2698 378.212 75.3368 378.066C75.7096 378.015 76.1467 377.888 76.2865 377.518C73.521 377.348 70.3249 378.551 67.418 380.118C67.5835 380.111 67.749 380.102 67.9145 380.071Z" fill="#F2FAFF"/>
<path d="M291.961 371.241C291.961 371.241 296.184 340.591 287.775 343.616C279.368 346.642 283.228 358.925 291.961 371.241Z" fill="#394CA4"/>
<path d="M292.52 370.945C292.52 370.945 275.326 340.712 263.464 351.107C251.602 361.504 292.52 370.945 292.52 370.945Z" fill="#100959"/>
<path opacity="0.5" d="M264.123 351.446C264.467 352.391 265.031 353.191 266.05 353.438C267.322 353.747 268.709 353.372 269.988 353.3C271.447 353.218 272.847 353.435 274.169 354.07C275.447 354.683 276.541 355.612 277.621 356.515C278.704 357.42 279.808 358.404 281.074 359.045C282.276 359.653 283.702 359.913 285.022 360.119H285.026C279.088 352.826 270.695 345.434 263.914 350.737C263.97 350.977 264.039 351.213 264.123 351.446Z" fill="#F2FAFF"/>
<path d="M268.323 387.6H416.763L414.634 380.18L409.627 362.606C406.079 350.201 393.754 342.438 381.024 344.607L374.598 345.722C374.111 345.804 373.645 345.844 373.179 345.844C370.341 345.844 367.645 344.425 366.043 342.012C355.015 325.473 330.08 327.52 321.89 345.642L320.795 348.074C318.864 352.366 313.823 354.284 309.526 352.361L303.118 349.493C299.367 347.811 295.191 349.067 292.88 352.027C292.029 353.1 291.42 354.398 291.177 355.857L290.224 361.411C289.98 362.79 289.454 364.006 288.704 365.02C288.562 365.203 288.419 365.384 288.278 365.547C286.99 367.037 285.229 368.039 283.29 368.384C282.805 368.485 282.276 368.525 281.77 368.525C280.161 368.525 278.532 368.085 277.052 367.097C273.715 364.87 269.241 365.425 266.403 368.262L262.097 372.568C256.55 378.114 260.478 387.6 268.323 387.6Z" fill="#4094F2"/>
<path opacity="0.2" d="M262.513 375.755C263.382 374.461 263.906 372.956 264.842 371.708C266.773 369.127 270.313 368.608 273.323 369.113C275.348 369.453 277.258 370.178 279.342 369.992C280.968 369.846 282.587 369.59 284.166 369.176C287.268 368.359 290.411 366.841 292.151 364.025C293.883 361.224 293.057 357.514 295.104 354.857C297.306 351.999 301.098 352.267 304.153 353.385C305.866 354.012 307.384 355.063 309.102 355.652C311.119 356.345 313.283 356.431 315.358 355.957C316.431 355.712 317.471 355.331 318.458 354.846C319.07 354.544 319.628 354.217 320.06 353.679C320.77 352.794 321.037 351.623 320.995 350.506C320.971 349.826 320.82 349.147 320.561 348.523C318.488 352.494 313.663 354.214 309.523 352.362L303.115 349.494C299.364 347.812 295.188 349.068 292.877 352.028C292.026 353.101 291.417 354.399 291.174 355.858L290.221 361.412C289.977 362.791 289.451 364.007 288.701 365.021C288.56 365.204 288.416 365.385 288.275 365.548C286.987 367.037 285.226 368.039 283.287 368.385C282.802 368.486 282.273 368.526 281.767 368.526C280.159 368.526 278.529 368.086 277.049 367.098C273.712 364.871 269.238 365.426 266.4 368.263L262.094 372.569C260.529 374.134 259.719 376.012 259.537 377.903C260.776 377.63 261.78 376.846 262.513 375.755Z" fill="#F2FAFF"/>
<path opacity="0.25" d="M281.426 387.601H416.765L414.635 380.182C407.946 374.182 398.701 371.244 389.294 372.865L384.287 373.716L381.591 374.163C381.003 374.264 380.415 374.305 379.847 374.305C378.591 374.305 377.354 374.081 376.198 373.636C374.252 372.886 372.549 371.568 371.332 369.745C369.629 367.171 367.622 364.981 365.433 363.177C364.582 362.447 363.711 361.798 362.798 361.21C357.871 357.947 352.217 356.326 346.539 356.265C343.215 356.204 339.911 356.691 336.749 357.724C329.066 360.156 322.254 365.69 318.463 374.1L317.146 376.98C314.814 382.148 308.753 384.439 303.604 382.127L299.712 380.384L295.962 378.702C294.259 377.932 292.475 377.69 290.772 377.85C286.351 378.276 282.461 381.56 281.649 386.322L281.426 387.601Z" fill="#F2FAFF"/>
<path d="M299.775 360.244C299.775 361.701 300.956 362.882 302.414 362.882C303.871 362.882 305.052 361.701 305.052 360.244C305.052 358.786 303.871 357.605 302.414 357.605C300.956 357.605 299.775 358.788 299.775 360.244Z" fill="#100959"/>
<path opacity="0.15" d="M300.389 360.869C300.389 362.326 301.57 363.507 303.027 363.507C304.485 363.507 305.666 362.326 305.666 360.869C305.666 359.411 304.485 358.23 303.027 358.23C301.57 358.23 300.389 359.411 300.389 360.869Z" fill="#202234"/>
<path d="M338.043 380.394C338.043 381.851 339.224 383.032 340.682 383.032C342.139 383.032 343.32 381.851 343.32 380.394C343.32 378.937 342.139 377.756 340.682 377.756C339.224 377.756 338.043 378.937 338.043 380.394Z" fill="#394CA4"/>
<path opacity="0.15" d="M327.914 346.86C327.914 349.669 330.191 351.944 332.998 351.944C335.807 351.944 338.084 349.667 338.084 346.86C338.084 344.054 335.807 341.775 332.998 341.775C330.191 341.775 327.914 344.052 327.914 346.86Z" fill="#202234"/>
<path d="M328.555 345.052C328.555 347.86 330.832 350.135 333.641 350.135C336.449 350.135 338.726 347.859 338.726 345.052C338.726 342.243 336.449 339.967 333.641 339.967C330.832 339.968 328.555 342.243 328.555 345.052Z" fill="#394CA4"/>
<path d="M299.872 386.211C299.872 386.211 311.772 371.21 306.34 370.175C300.907 369.14 299.096 376.899 299.872 386.211Z" fill="#100959"/>
<path opacity="0.5" d="M300.255 376.989C300.809 376.858 301.156 376.471 301.394 375.969C301.871 374.963 301.836 373.784 302.386 372.807C302.662 372.316 303.093 371.94 303.602 371.705C304.105 371.474 304.667 371.358 305.146 371.074C305.609 370.799 305.694 370.466 305.336 370.084C302.493 370.123 300.816 372.886 300.105 377.015C300.155 377.006 300.207 377.001 300.255 376.989Z" fill="#F2FAFF"/>
<path d="M299.872 386.213C299.872 386.213 292.371 366.039 284.093 371.211C275.815 376.383 299.872 386.213 299.872 386.213Z" fill="#394CA4"/>
<path opacity="0.2" d="M284.434 371.032C284.52 371.225 284.713 371.403 284.863 371.462C285.194 371.597 285.619 371.544 285.968 371.538C286.738 371.523 287.528 371.469 288.287 371.621C289.103 371.785 289.884 372.258 290.556 372.733C291.792 373.606 292.589 374.965 293.856 375.778C294.062 375.91 294.353 376.054 294.682 376.179C291.901 372.168 288.261 368.949 284.434 371.032Z" fill="#F2FAFF"/>
<path d="M299.875 386.211C299.875 386.211 327.554 382.849 320.569 378.453C313.585 374.055 299.875 386.211 299.875 386.211Z" fill="#394CA4"/>
<path opacity="0.2" d="M309.116 380.071C309.93 379.922 310.53 379.441 311.224 379.028C311.88 378.638 312.591 378.321 313.342 378.164C314.404 377.941 315.471 378.212 316.538 378.066C316.911 378.015 317.348 377.888 317.488 377.518C314.724 377.348 311.526 378.551 308.619 380.118C308.785 380.111 308.95 380.102 309.116 380.071Z" fill="#F2FAFF"/>
<path d="M542.756 362.619C542.756 362.619 536.308 315.815 549.147 320.434C561.986 325.055 556.093 343.811 542.756 362.619Z" fill="#394CA4"/>
<path d="M541.908 362.167C541.908 362.167 568.165 315.999 586.28 331.873C604.393 347.748 541.908 362.167 541.908 362.167Z" fill="#100959"/>
<path opacity="0.5" d="M585.271 332.391C584.745 333.832 583.885 335.054 582.33 335.432C580.386 335.903 578.269 335.331 576.315 335.222C574.086 335.096 571.951 335.427 569.929 336.398C567.977 337.336 566.307 338.753 564.657 340.132C563.004 341.515 561.318 343.017 559.383 343.996C557.548 344.923 555.371 345.319 553.354 345.636H553.348C562.414 334.5 575.232 323.21 585.587 331.311C585.504 331.672 585.399 332.034 585.271 332.391Z" fill="#F2FAFF"/>
<path d="M578.857 387.601H352.178L355.429 376.272L363.076 349.436C368.493 330.494 387.314 318.638 406.756 321.949L416.57 323.651C417.312 323.774 418.026 323.837 418.738 323.837C423.071 323.837 427.188 321.67 429.636 317.986C446.476 292.729 484.553 295.855 497.06 323.527L498.733 327.242C501.681 333.795 509.38 336.724 515.941 333.789L525.727 329.409C531.454 326.84 537.832 328.76 541.361 333.278C542.661 334.918 543.591 336.899 543.961 339.128L545.415 347.609C545.788 349.714 546.591 351.571 547.737 353.119C547.954 353.398 548.171 353.676 548.388 353.924C550.354 356.198 553.043 357.728 556.003 358.257C556.745 358.411 557.551 358.474 558.325 358.474C560.78 358.474 563.27 357.8 565.529 356.292C570.626 352.891 577.459 353.739 581.791 358.07L588.366 364.645C596.836 373.117 590.836 387.601 578.857 387.601Z" fill="#4094F2"/>
<path opacity="0.2" d="M587.727 369.511C586.4 367.537 585.6 365.238 584.173 363.332C581.222 359.393 575.818 358.599 571.221 359.37C568.128 359.889 565.211 360.998 562.028 360.712C559.545 360.49 557.074 360.098 554.662 359.465C549.925 358.22 545.126 355.9 542.469 351.599C539.824 347.322 541.083 341.658 537.958 337.6C534.596 333.235 528.807 333.646 524.14 335.352C521.526 336.308 519.205 337.913 516.581 338.815C513.502 339.872 510.197 340.005 507.028 339.28C505.389 338.906 503.801 338.324 502.294 337.582C501.361 337.123 500.507 336.621 499.847 335.8C498.762 334.448 498.356 332.659 498.418 330.955C498.457 329.917 498.687 328.88 499.082 327.928C502.248 333.99 509.615 336.618 515.938 333.789L525.725 329.409C531.452 326.84 537.829 328.76 541.358 333.278C542.658 334.918 543.589 336.899 543.958 339.128L545.412 347.609C545.785 349.714 546.589 351.571 547.734 353.119C547.951 353.398 548.168 353.676 548.385 353.924C550.352 356.198 553.04 357.728 556 358.257C556.743 358.411 557.548 358.474 558.322 358.474C560.778 358.474 563.267 357.8 565.526 356.292C570.623 352.891 577.456 353.739 581.788 358.07L588.364 364.645C590.753 367.036 591.99 369.904 592.267 372.791C590.379 372.373 588.846 371.176 587.727 369.511Z" fill="#F2FAFF"/>
<path opacity="0.25" d="M558.851 387.599H352.178L355.429 376.271C365.645 367.108 379.76 362.62 394.125 365.098L401.772 366.398L405.889 367.079C406.785 367.233 407.684 367.296 408.551 367.296C410.47 367.296 412.36 366.955 414.124 366.274C417.095 365.13 419.697 363.115 421.553 360.331C424.153 356.401 427.219 353.058 430.561 350.302C431.861 349.189 433.192 348.197 434.585 347.299C442.108 342.317 450.744 339.841 459.413 339.748C464.49 339.655 469.537 340.399 474.366 341.976C486.098 345.691 496.499 354.141 502.289 366.986L504.302 371.382C507.862 379.275 517.117 382.773 524.982 379.243L530.926 376.581L536.653 374.012C539.253 372.836 541.978 372.465 544.578 372.712C551.327 373.361 557.271 378.375 558.51 385.649L558.851 387.599Z" fill="#F2FAFF"/>
<path d="M530.825 345.824C530.825 348.05 529.022 349.852 526.796 349.852C524.571 349.852 522.768 348.048 522.768 345.824C522.768 343.599 524.572 341.795 526.796 341.795C529.02 341.797 530.825 343.599 530.825 345.824Z" fill="#100959"/>
<path opacity="0.15" d="M529.891 346.779C529.891 349.005 528.086 350.807 525.863 350.807C523.637 350.807 521.834 349.003 521.834 346.779C521.834 344.554 523.639 342.75 525.863 342.75C528.086 342.75 529.891 344.554 529.891 346.779Z" fill="#202234"/>
<path d="M472.393 376.598C472.393 378.823 470.59 380.626 468.364 380.626C466.139 380.626 464.334 378.822 464.334 376.598C464.334 374.373 466.139 372.568 468.364 372.568C470.59 372.568 472.393 374.373 472.393 376.598Z" fill="#394CA4"/>
<path opacity="0.15" d="M487.851 325.386C487.851 329.674 484.374 333.15 480.086 333.15C475.798 333.15 472.32 329.673 472.32 325.386C472.32 321.1 475.798 317.621 480.086 317.621C484.374 317.621 487.851 321.098 487.851 325.386Z" fill="#202234"/>
<path d="M486.88 322.626C486.88 326.915 483.405 330.39 479.116 330.39C474.827 330.39 471.35 326.915 471.35 322.626C471.35 318.338 474.827 314.861 479.116 314.861C483.403 314.863 486.88 318.338 486.88 322.626Z" fill="#394CA4"/>
<path d="M530.676 385.48C530.676 385.48 512.505 362.573 520.8 360.993C529.096 359.414 531.86 371.263 530.676 385.48Z" fill="#100959"/>
<path opacity="0.5" d="M530.091 371.398C529.245 371.197 528.716 370.604 528.351 369.84C527.622 368.304 527.675 366.503 526.837 365.012C526.415 364.261 525.759 363.686 524.98 363.328C524.21 362.974 523.354 362.796 522.622 362.364C521.915 361.946 521.785 361.437 522.333 360.854C526.673 360.913 529.237 365.132 530.321 371.438C530.244 371.424 530.167 371.416 530.091 371.398Z" fill="#F2FAFF"/>
<path d="M530.678 385.479C530.678 385.479 542.133 354.671 554.773 362.571C567.415 370.471 530.678 385.479 530.678 385.479Z" fill="#394CA4"/>
<path opacity="0.2" d="M554.256 362.298C554.124 362.593 553.829 362.863 553.602 362.956C553.097 363.162 552.447 363.082 551.913 363.072C550.739 363.05 549.53 362.968 548.372 363.199C547.125 363.45 545.934 364.171 544.905 364.896C543.019 366.227 541.801 368.302 539.863 369.545C539.55 369.746 539.105 369.968 538.602 370.159C542.853 364.033 548.41 359.118 554.256 362.298Z" fill="#F2FAFF"/>
<path d="M530.677 385.479C530.677 385.479 488.409 380.344 499.075 373.63C509.74 366.915 530.677 385.479 530.677 385.479Z" fill="#394CA4"/>
<path opacity="0.2" d="M516.562 376.102C515.317 375.874 514.402 375.141 513.342 374.509C512.339 373.913 511.253 373.43 510.109 373.189C508.487 372.848 506.856 373.261 505.228 373.039C504.66 372.962 503.993 372.766 503.777 372.202C507.999 371.942 512.88 373.78 517.32 376.172C517.068 376.163 516.816 376.148 516.562 376.102Z" fill="#F2FAFF"/>
<path d="M184.925 132.758C184.925 132.758 202.425 147.102 209.608 147.589C217.391 148.118 238.28 135.285 238.28 135.285L242.704 141.787C242.704 141.787 217.49 163.807 206.546 163.842C196.875 163.873 173.506 143.73 173.506 143.73L184.925 132.758Z" fill="#FB8A77"/>
<path d="M238.279 135.288L241.501 132.629C241.501 132.629 241.651 119.723 243.436 121.358C245.223 122.995 246.224 125.378 246.224 125.378C246.224 125.378 248.795 120.015 251.326 121.744C253.857 123.474 259.229 129.862 256.613 131.888C253.997 133.916 254.316 137.683 250.585 137.148C247.652 136.726 242.703 141.788 242.703 141.788L238.279 135.288Z" fill="#FB8A77"/>
<path d="M158.558 387.531C160.984 386.444 163.737 386.524 165.767 386.831C167.224 387.051 168.513 387.824 169.655 388.82C172.716 391.49 181.548 391.99 183.526 394.117C185.787 396.55 181.641 398.171 181.641 398.171H159.225C155.653 398.778 156.013 396.752 156.013 396.752C156.013 396.752 154.034 389.559 158.558 387.531Z" fill="#231F20"/>
<path d="M166.993 376.566V390.54C166.993 390.54 162.71 393.695 158.428 390.54V376.566H166.993Z" fill="#FF8D7D"/>
<path d="M144.152 194.918L151.366 293.371L157.324 386.632L168.19 385.028L178.415 287.117L166.993 194.918H144.152Z" fill="#202234"/>
<path d="M115.224 388.303C117.798 387.665 120.531 388.158 122.511 388.753C123.933 389.18 125.109 390.091 126.107 391.19C128.781 394.133 137.518 395.943 139.191 398.218C141.101 400.817 136.737 401.688 136.737 401.688L114.382 398.271C110.734 398.29 111.38 396.466 111.38 396.466C111.38 396.466 110.426 389.492 115.224 388.303Z" fill="#231F20"/>
<path d="M125.969 376.566L123.061 390.54C123.061 390.54 118.778 393.695 114.494 390.54L117.403 376.566H125.969Z" fill="#FF8D7D"/>
<path d="M127.322 200.215C127.322 200.215 120.109 208.629 120.71 229.062C121.311 249.498 120.675 281.35 120.675 281.35L115.502 381.852C115.502 381.852 123.451 386.325 125.968 384.654C151.286 367.854 151.367 265.122 151.367 265.122C151.367 265.122 161.585 197.811 154.972 195.406C148.362 193.004 127.322 200.215 127.322 200.215Z" fill="#232B57"/>
<path d="M171.5 152.818C171.5 152.818 183.227 156.343 185.255 154.763C187.284 153.186 194.3 137.334 192.243 135.907C190.187 134.481 169.144 121.547 157.203 121.213C157.202 121.213 174.881 143.954 171.5 152.818Z" fill="#4094F2"/>
<path opacity="0.25" d="M192.24 135.908C191.437 135.35 187.73 133.033 182.801 130.398C182.273 131.068 181.81 131.791 181.347 132.505C180.661 133.564 179.984 134.632 179.203 135.625C178.482 136.542 177.653 137.42 176.629 138.001C175.634 138.568 174.503 138.771 173.373 138.578C173.067 138.525 172.737 138.464 172.458 138.321C172.157 138.168 171.89 137.95 171.638 137.728C171.015 137.179 170.465 136.552 169.843 136.002C169.173 135.408 168.382 135.002 167.564 134.643C166.989 134.391 166.396 134.182 165.797 134.001C169.719 140.723 173.163 148.453 171.498 152.818C171.498 152.818 183.225 156.343 185.253 154.764C187.281 153.187 194.295 137.336 192.24 135.908Z" fill="#231F20"/>
<path d="M147.16 118.48C174.209 117.749 174.209 153.338 174.209 153.338C174.209 153.338 179.74 195.708 169.7 203.823C160.876 210.955 131.531 212.579 124.317 203.823C116.673 194.546 124.317 155.743 124.317 155.743C124.317 155.743 115.523 119.333 147.16 118.48Z" fill="#4094F2"/>
<path opacity="0.25" d="M157.127 203.34C155.781 202.411 154.198 202.201 152.597 202.229C150.884 202.262 149.181 202.456 147.468 202.303C145.93 202.167 144.458 201.765 143.07 201.094C141.725 200.441 140.435 199.673 139.175 198.87C136.29 197.032 133.449 194.974 131.049 192.525C129.998 191.454 129.106 190.316 128.515 188.926C127.661 186.921 127.362 184.736 127.354 182.57C127.337 177.826 128.539 173.174 128.59 168.432C128.667 161.362 127.52 154.407 126.263 147.473C125.894 147.715 125.54 147.982 125.198 148.262C124.582 148.766 124.001 149.312 123.421 149.859C123.748 153.385 124.317 155.741 124.317 155.741C124.317 155.741 116.673 194.543 124.317 203.82C129.805 210.481 148.103 211.134 160.428 207.925C159.745 206.119 158.734 204.448 157.127 203.34Z" fill="#231F20"/>
<path d="M123.193 153.266L111.093 178.579L129.427 203.821L125.266 210.123C125.266 210.123 97.0137 189.847 94.5632 179.18C92.3987 169.755 110.017 144.582 110.017 144.582L123.193 153.266Z" fill="#FB8A77"/>
<path d="M129.428 203.822L137.289 207.172C137.289 207.172 145.357 205.664 144.155 207.768C142.953 209.871 140.848 209.381 140.848 209.381C140.848 209.381 146.647 210.705 145.519 213.554C144.391 216.402 139.345 223.054 136.79 220.949C134.235 218.846 130.779 219.56 130.478 215.803C130.242 212.85 125.266 210.122 125.266 210.122L129.428 203.822Z" fill="#FB8A77"/>
<path d="M124.318 155.742L118.908 161.15C118.908 161.15 101.627 153.412 101.627 150.032C101.627 146.652 118.011 124.674 132.713 122.63C139.457 121.694 124.318 155.742 124.318 155.742Z" fill="#4094F2"/>
<path d="M123.319 372.746L137.201 287.159L137.205 223.848C144.933 221.305 148.425 209.799 148.571 209.308L148.067 209.158C148.031 209.277 144.453 221.07 136.865 223.405L136.68 223.462V287.117L122.803 372.662L123.319 372.746Z" fill="#726658"/>
<path opacity="0.5" d="M162.975 374.974C163.505 366.538 168.136 292.512 167.224 290.841C166.525 289.559 158.844 257.35 154.879 240.498L154.365 240.619C154.836 242.611 165.855 289.427 166.763 291.092C167.439 292.901 163.878 352.232 162.448 374.941L162.975 374.974Z" fill="#726658"/>
<path d="M168.014 137.099C163.362 139.563 157.953 141.374 152.872 140.9C150.333 140.664 148.189 139.34 145.874 138.135C143.602 136.954 140.896 136.154 138.76 138.172C138.336 138.573 137.926 137.667 138.346 137.27C142.54 133.308 147.309 138.686 151.496 139.637C154.264 140.265 157.188 139.788 159.923 139.123C162.626 138.467 165.256 137.436 167.795 136.091C168.282 135.834 168.496 136.843 168.014 137.099ZM169.086 146.719C166.365 147.243 163.645 147.768 160.923 148.292C158.387 148.781 155.758 149.598 153.19 149.68C150.825 149.757 149.147 147.653 146.957 146.907C144.476 146.064 141.853 146.4 139.334 146.719C138.808 146.785 138.812 145.742 139.334 145.675C141.6 145.387 143.897 145.124 146.157 145.617C147.224 145.85 148.246 146.281 149.211 146.904C150.394 147.669 151.447 148.572 152.822 148.636C154.183 148.7 155.581 148.27 156.923 148.013C158.184 147.77 159.444 147.527 160.706 147.283C163.426 146.759 166.147 146.234 168.867 145.71C169.385 145.614 169.606 146.62 169.086 146.719ZM167.363 154.934C162.88 156.571 158.197 157.786 153.529 156.848C151.231 156.387 149.02 155.435 146.861 154.367C144.531 153.217 142.188 151.941 139.633 152.325C139.109 152.404 139.114 151.359 139.633 151.282C141.858 150.946 143.958 151.819 146.01 152.828C148.183 153.898 150.352 154.966 152.641 155.58C157.516 156.888 162.44 155.646 167.146 153.927C167.654 153.742 167.871 154.748 167.363 154.934Z" fill="white"/>
<path d="M143.181 103.992L141.844 120.027C141.844 120.027 146.949 127.339 151.832 121.738L151.511 110.98L143.181 103.992Z" fill="#FB8A77"/>
<path opacity="0.15" d="M147.57 122.018C148.608 120.179 148.971 117.403 147.285 115.813C146.602 115.168 145.723 114.775 145.064 114.103C144.247 113.268 144.079 111.984 144.177 110.866C144.337 109.042 145.081 107.254 144.921 105.451L151.51 110.978L151.831 121.736C149.924 123.923 147.984 124.138 146.328 123.59C146.806 123.139 147.231 122.618 147.57 122.018Z" fill="#33133F"/>
<path d="M164.104 87.1675C164.104 87.1675 165.447 112.889 155.237 113.872C145.027 114.857 140.355 104.174 140.355 104.174C140.355 104.174 138.491 105.373 138.011 103.498C137.53 101.623 135.231 98.3434 137.45 97.0485C139.671 95.7535 140.423 97.8036 140.423 97.8036L139.067 91.9971C139.068 91.9971 163.689 78.7437 164.104 87.1675Z" fill="#FB8A77"/>
<path opacity="0.05" d="M139.535 98.3461C139.535 98.3461 138.176 97.6424 137.657 98.7028C137.136 99.7616 138.391 103.751 139.971 103.24C139.971 103.24 137.909 102.387 138.11 99.9335C138.307 97.4785 139.198 99.1317 139.535 98.3461Z" fill="#33133F"/>
<path d="M139.776 97.2198C140.512 98.2754 146.575 87.5734 150.862 89.8083C155.151 92.0432 160.309 91.2141 161.842 89.0644C163.375 86.9131 167.873 87.1685 164.195 80.8961C157.489 69.4599 124.616 75.4559 139.776 97.2198Z" fill="#202234"/>
<path opacity="0.05" d="M145.952 101.935C145.831 102.65 146.611 103.376 147.69 103.558C148.772 103.741 149.744 103.309 149.865 102.594C149.985 101.88 149.207 101.153 148.126 100.971C147.046 100.79 146.072 101.222 145.952 101.935ZM158.195 102.003C158.074 102.718 158.852 103.444 159.933 103.625C161.015 103.807 161.989 103.376 162.109 102.661C162.23 101.946 161.45 101.22 160.371 101.039C159.289 100.857 158.315 101.289 158.195 102.003Z" fill="#33133F"/>
<path d="M157.678 95.2873C157.783 95.2873 157.884 95.2327 157.94 95.1363C157.988 95.0511 159.157 93.1215 162.023 94.3908C162.06 94.4068 162.099 94.4156 162.138 94.4165C162.178 94.4174 162.218 94.4105 162.255 94.3962C162.292 94.3819 162.325 94.3604 162.354 94.333C162.383 94.3056 162.406 94.2728 162.422 94.2366C162.438 94.2003 162.447 94.1612 162.448 94.1215C162.448 94.0818 162.442 94.0424 162.427 94.0054C162.413 93.9684 162.391 93.9346 162.364 93.9059C162.337 93.8772 162.304 93.8541 162.268 93.8381C158.888 92.3407 157.429 94.8101 157.415 94.8342C157.333 94.9788 157.384 95.1636 157.527 95.2471C157.575 95.2761 157.627 95.2873 157.678 95.2873ZM151.816 95.3403C151.855 95.3403 151.892 95.3323 151.929 95.3178C152.083 95.2552 152.159 95.0817 152.097 94.9274C152.086 94.9001 150.989 92.262 147.015 93.1151C146.936 93.1319 146.868 93.1791 146.824 93.2462C146.781 93.3133 146.765 93.395 146.782 93.4734C146.79 93.5122 146.806 93.549 146.828 93.5817C146.851 93.6144 146.879 93.6424 146.913 93.6639C146.946 93.6854 146.983 93.7001 147.022 93.7071C147.061 93.7141 147.101 93.7133 147.14 93.7047C150.595 92.9641 151.498 95.0608 151.535 95.1507C151.585 95.2696 151.697 95.3403 151.816 95.3403ZM155.258 102.972C155.363 102.972 155.466 102.958 155.567 102.929C156.208 102.742 156.479 102.021 156.491 101.99C156.523 101.9 156.512 101.801 156.46 101.72C155.38 100.062 155.665 97.8098 155.666 97.7873C155.689 97.6218 155.573 97.4708 155.408 97.4483C155.249 97.4226 155.09 97.5415 155.069 97.707C155.054 97.805 154.763 100.08 155.864 101.907C155.777 102.066 155.615 102.286 155.396 102.347C155.191 102.405 154.943 102.325 154.659 102.106C154.527 102.005 154.337 102.03 154.236 102.162C154.135 102.296 154.161 102.484 154.292 102.585C154.624 102.843 154.948 102.972 155.258 102.972Z" fill="#202234"/>
<path d="M139.946 91.041C139.946 91.041 139.604 101.365 146.165 107.241C146.165 107.241 146.849 103.477 154.437 104.56C162.025 105.642 160.882 107.982 160.882 107.982C160.882 107.982 162.726 107.684 163.799 97.1255C163.634 103.788 163.375 105.658 163.375 105.658C163.375 105.658 162.195 113.059 155.92 114.37C149.645 115.682 140.433 112.061 140.417 104.004C140.417 104.004 140.859 98.6839 139.433 95.6039C138.006 92.524 137.322 91.2708 139.946 91.041Z" fill="#202234"/>
<path d="M157.201 106.01C157.201 106.01 153.754 107.572 149.892 105.775C149.017 107.379 153.593 111.555 157.201 106.01Z" fill="#FCFAF7"/>
<path d="M158.594 97.791C158.594 98.7325 159.117 99.4956 159.761 99.4956C160.405 99.4956 160.926 98.7325 160.926 97.791C160.926 96.8494 160.404 96.0879 159.761 96.0879C159.117 96.0879 158.594 96.8511 158.594 97.791ZM148.1 97.791C148.1 98.7325 148.622 99.4956 149.266 99.4956C149.911 99.4956 150.433 98.7325 150.433 97.791C150.433 96.8494 149.911 96.0879 149.266 96.0879C148.622 96.0879 148.1 96.8511 148.1 97.791Z" fill="#202234"/>
<path d="M424.143 130.398H192.42C184.689 130.398 178.422 136.664 178.422 144.394V232.775C178.422 240.505 184.689 246.771 192.42 246.771H424.163C431.883 246.771 438.14 240.515 438.14 232.796V144.394C438.139 136.664 431.872 130.398 424.143 130.398Z" fill="#6EA4FE"/>
<path d="M394.02 188.819C394.02 188.819 393.411 200.175 402.343 199.273C411.274 198.372 438.149 215.475 438.149 215.475V187.254L394.02 188.819Z" fill="#5994EA"/>
<path d="M448.521 159.379L442.829 180.627L410.734 185.616L410.479 192.383C410.479 192.383 438.951 196.928 446.955 191.949C454.027 187.55 461.874 162.166 461.874 162.166L448.521 159.379Z" fill="#FB8A77"/>
<path d="M475.233 387.552C473.298 386.848 471.15 387.005 469.572 387.301C468.439 387.513 467.457 388.122 466.598 388.888C464.293 390.94 457.403 391.621 455.926 393.239C454.239 395.089 457.535 396.118 457.535 396.118L475.066 395.312C477.88 395.625 477.531 394.165 477.531 394.165C477.531 394.165 478.837 388.863 475.233 387.552Z" fill="#231F20"/>
<path d="M468.621 380.337L469.042 389.473C469.042 389.473 471.936 391.407 474.642 389.216L474.221 380.08L468.621 380.337Z" fill="#FB8A77"/>
<path d="M496.762 219.323C496.762 219.323 507.961 229.348 503.921 247.462C499.881 265.575 480.72 308.981 480.72 308.981L476.706 384.257L467.073 384.39L456.814 300.063C456.814 300.063 466.629 211.307 472.937 210.298C479.242 209.287 496.762 219.323 496.762 219.323Z" fill="#202234"/>
<path d="M570.797 367.845C568.819 368.274 567.114 369.532 565.957 370.607C565.127 371.378 564.628 372.398 564.314 373.488C563.476 376.404 558.102 380.583 557.723 382.703C557.291 385.126 560.572 384.254 560.572 384.254L574.729 374.387C577.234 373.173 576.177 372.14 576.177 372.14C576.177 372.14 574.483 367.045 570.797 367.845Z" fill="#231F20"/>
<path d="M561.512 365.312L566.655 372.69C566.655 372.69 570.078 372.78 571.177 369.538L566.034 362.16L561.512 365.312Z" fill="#FB8A77"/>
<path d="M510.662 211.701C510.662 211.701 512.726 209.858 520.699 226.617C525.2 236.077 525.499 256.658 525.499 256.658L536.349 291.801L569.832 366.151L564.034 370.254L512.064 300.517C512.064 300.517 467.507 217.34 472.511 213.372C477.517 209.403 510.662 211.701 510.662 211.701Z" fill="#232B57"/>
<path d="M474.562 137.693C462.52 139.433 447.121 151.109 444.955 166.112L459.731 170.038C459.732 170.038 483.063 136.466 474.562 137.693Z" fill="#4094F2"/>
<path opacity="0.25" d="M456.13 169.08L453.209 168.304L463.238 147.031C463.238 147.033 460.103 166.499 456.13 169.08Z" fill="#231F20"/>
<path d="M468.218 220.686C468.218 220.686 472.452 189.819 467.468 184.324C462.483 178.829 452.813 177.778 456.777 166.908C460.711 156.037 466.717 142.435 473.746 137.811C476.209 136.219 485.217 135.409 485.217 135.409C485.217 135.409 507.051 128.984 508.852 137.001C509.602 140.305 509.633 151.654 509.933 164.686C510.142 173.934 510.443 184.053 511.164 192.761C511.945 201.769 513.146 209.216 515.188 212.608C520.353 221.197 468.218 220.686 468.218 220.686Z" fill="#4094F2"/>
<path d="M514.324 163.343L530.416 182.213L519.515 219.175L525.009 219.602C525.009 219.602 545.31 186.616 543.792 177.313C542.45 169.095 522.033 152.09 522.033 152.09L514.324 163.343Z" fill="#FB8A77"/>
<path d="M516.685 223.289C516.685 223.289 516.25 220.479 516.775 219.852C517.995 218.398 519.868 217.965 520.437 218.156C518.803 219.751 516.685 223.289 516.685 223.289Z" fill="#FB8A77"/>
<path opacity="0.2" d="M517.975 219.589C517.604 219.632 517.236 219.74 516.861 219.756C518.081 218.382 519.879 217.969 520.437 218.155C520.009 218.573 519.548 219.124 519.101 219.709C518.733 219.606 518.361 219.544 517.975 219.589Z" fill="white"/>
<path d="M525.018 223.009C524.802 223.536 524.558 224.052 524.286 224.515L524.288 224.516C524.286 224.518 524.286 224.518 524.286 224.521C524.274 224.545 524.216 224.672 524.129 224.855L524.127 224.857C524.058 225.003 523.967 225.178 523.864 225.363C523.864 225.363 522.843 227.517 522.127 227.484C521.41 227.448 521.283 226.923 521.283 226.923C521.283 226.923 520.782 227.405 520.17 227.106C519.557 226.807 519.583 226.309 519.583 226.309C519.583 226.309 519.133 226.767 518.436 226.43C517.738 226.092 517.705 225.387 517.705 225.387C517.705 225.387 516.981 226.035 516.387 224.993C515.794 223.957 516.822 222.534 516.858 222.468C517.002 222.187 517.157 221.92 517.316 221.669C517.359 221.602 517.391 221.525 517.447 221.467C521.463 217.306 524.103 208.091 525.117 207.926C525.117 207.926 529.774 208.883 529.761 210.061C529.363 211.081 525.008 219.603 525.008 219.603C525.008 219.603 525.824 221.033 525.018 223.009Z" fill="#FB8A77"/>
<path opacity="0.2" d="M524.285 224.515V224.521C524.273 224.545 524.215 224.672 524.128 224.855L524.126 224.857C524.057 225.003 523.966 225.178 523.863 225.363C523.863 225.363 522.842 227.517 522.126 227.484C521.409 227.448 521.282 226.923 521.282 226.923C521.282 226.923 520.781 227.405 520.169 227.106C519.556 226.807 519.582 226.309 519.582 226.309C519.582 226.309 519.132 226.767 518.435 226.43C517.737 226.092 517.704 225.387 517.704 225.387C517.704 225.387 516.98 226.035 516.386 224.993C516.172 224.621 516.171 224.198 516.256 223.808C516.453 224.213 516.784 224.6 517.193 224.781C517.297 224.828 517.409 224.86 517.525 224.865C517.657 224.871 517.787 224.841 517.917 224.836C518.202 224.825 518.38 225.046 518.57 225.23C518.814 225.467 519.074 225.675 519.412 225.75C519.666 225.806 519.926 225.786 520.183 225.784C520.453 225.781 520.72 225.819 520.95 225.973C521.168 226.121 521.369 226.266 521.631 226.325C522.084 226.43 522.507 226.224 522.833 225.919C523.058 225.707 523.231 225.451 523.411 225.202C523.644 224.878 523.871 224.547 524.097 224.217C524.486 223.653 524.875 223.098 525.193 222.49C525.144 222.667 525.085 222.841 525.017 223.011C524.801 223.536 524.557 224.05 524.285 224.515Z" fill="white"/>
<path opacity="0.25" d="M511.165 192.762C510.055 190.18 508.673 187.478 507.051 185.135C502.427 178.439 492.006 180.45 492.006 180.45C506.031 176.997 506.691 169.52 506.691 169.52C507.562 167.719 508.793 166.037 509.936 164.686C510.145 173.935 510.445 184.054 511.165 192.762Z" fill="#231F20"/>
<path d="M505.414 133.664C505.414 133.664 522.56 142.192 529.097 156.39C529.097 156.39 521.393 164.835 515.547 166.814L508.673 161.757L505.414 133.664Z" fill="#4094F2"/>
<path d="M489.907 134.252L491.941 133.664C491.941 133.664 496.223 143.529 484.728 144.882C473.232 146.235 470.977 142.515 470.977 142.515C470.977 142.515 470.227 139.414 473.142 138C476.057 136.587 489.907 134.252 489.907 134.252Z" fill="#F56F58"/>
<path d="M480.025 94.778C477.811 95.3805 469.508 95.3789 466.296 100.164C462.809 105.189 467.027 114.023 461.782 115.004C456.095 115.112 458.55 122.194 463.358 125.297C465.692 126.85 471.075 127.891 473.498 129.235C477.399 131.8 484.61 133.121 490.038 132.192C495.508 131.436 499.199 128.43 497.034 126.322C492.58 121.119 499.274 119.238 494.822 113.7C491.233 108.812 492.977 107.414 491.944 105.159C488.744 97.7166 485.664 94.1482 480.025 94.778Z" fill="#231F20"/>
<path d="M485.264 121.486L486.808 136.793C486.808 136.793 482.049 143.867 477.289 138.594L477.418 128.303L485.264 121.486Z" fill="#F18A66"/>
<path opacity="0.15" d="M481.365 138.79C480.342 137.05 479.949 134.403 481.534 132.854C482.175 132.227 483.011 131.835 483.628 131.183C484.396 130.372 484.534 129.141 484.423 128.074C484.24 126.332 483.501 124.636 483.621 122.91L477.414 128.302L477.285 138.593C479.144 140.653 481.002 140.824 482.577 140.275C482.114 139.851 481.699 139.359 481.365 138.79Z" fill="#33133F"/>
<path d="M464.982 105.75C464.982 105.75 464.124 130.361 473.902 131.132C483.678 131.905 487.967 121.614 487.967 121.614C487.967 121.614 489.769 122.729 490.198 120.928C490.627 119.127 492.77 115.956 490.627 114.754C488.483 113.554 487.797 115.527 487.797 115.527L488.997 109.953C488.996 109.952 465.239 97.6896 464.982 105.75Z" fill="#F18A66"/>
<path opacity="0.05" d="M488.742 115.866C488.742 115.866 490.029 115.17 490.543 116.174C491.059 117.178 489.926 121.013 488.408 120.549C488.408 120.549 490.363 119.699 490.132 117.358C489.901 115.017 489.078 116.613 488.742 115.866ZM482.814 121.804C482.928 122.487 482.184 123.181 481.151 123.356C480.118 123.529 479.186 123.118 479.072 122.435C478.956 121.752 479.7 121.057 480.735 120.883C481.768 120.708 482.699 121.121 482.814 121.804ZM471.108 121.868C471.224 122.551 470.48 123.247 469.445 123.42C468.411 123.594 467.479 123.182 467.365 122.498C467.25 121.815 467.994 121.119 469.029 120.946C470.062 120.772 470.992 121.185 471.108 121.868Z" fill="#33133F"/>
<path d="M471.602 115.445C471.502 115.445 471.404 115.394 471.351 115.301C471.303 115.219 470.186 113.373 467.446 114.589C467.3 114.655 467.13 114.587 467.066 114.441C467.001 114.295 467.067 114.125 467.213 114.06C470.445 112.629 471.84 114.989 471.854 115.013C471.879 115.057 471.892 115.107 471.892 115.158C471.892 115.209 471.878 115.258 471.853 115.302C471.827 115.346 471.791 115.382 471.747 115.407C471.703 115.432 471.653 115.446 471.602 115.445ZM477.207 115.497C477.171 115.497 477.135 115.49 477.099 115.476C477.064 115.462 477.032 115.441 477.005 115.415C476.978 115.388 476.956 115.357 476.941 115.322C476.926 115.287 476.918 115.25 476.918 115.212C476.917 115.174 476.924 115.137 476.938 115.102C476.948 115.076 477.999 112.557 481.798 113.368C481.954 113.402 482.053 113.554 482.02 113.712C481.986 113.868 481.833 113.967 481.676 113.934C478.373 113.225 477.509 115.23 477.474 115.317C477.429 115.429 477.321 115.497 477.207 115.497ZM473.916 122.793C473.816 122.793 473.718 122.778 473.622 122.751C473.01 122.573 472.751 121.883 472.74 121.854C472.707 121.769 472.719 121.673 472.769 121.597C473.805 120.007 473.53 117.859 473.527 117.838C473.517 117.762 473.537 117.685 473.584 117.624C473.63 117.564 473.699 117.524 473.774 117.513C473.937 117.492 474.078 117.603 474.099 117.761C474.112 117.855 474.39 120.029 473.337 121.776C473.421 121.927 473.575 122.137 473.784 122.198C473.979 122.254 474.216 122.177 474.49 121.968C474.616 121.872 474.798 121.896 474.894 122.021C474.991 122.148 474.967 122.33 474.841 122.426C474.522 122.671 474.212 122.793 473.916 122.793Z" fill="#231F20"/>
<path d="M472.061 125.698C472.061 125.698 475.356 127.191 479.047 125.475C479.885 127.007 475.511 131 472.061 125.698Z" fill="#FCFAF7"/>
<path d="M470.726 117.842C470.726 118.742 470.228 119.471 469.611 119.471C468.994 119.471 468.496 118.742 468.496 117.842C468.496 116.942 468.996 116.213 469.611 116.213C470.227 116.213 470.726 116.942 470.726 117.842ZM480.76 117.842C480.76 118.742 480.26 119.471 479.645 119.471C479.029 119.471 478.53 118.742 478.53 117.842C478.53 116.942 479.029 116.213 479.645 116.213C480.26 116.213 480.76 116.942 480.76 117.842Z" fill="#231F20"/>
<path opacity="0.05" d="M476.332 129.788C476.027 129.788 475.828 129.743 475.808 129.739C475.771 129.729 475.739 129.706 475.719 129.674C475.699 129.641 475.692 129.602 475.701 129.565C475.72 129.488 475.797 129.44 475.874 129.457C475.887 129.461 477.155 129.742 478.304 128.746C478.333 128.721 478.371 128.709 478.409 128.711C478.447 128.714 478.483 128.732 478.508 128.76C478.559 128.821 478.553 128.913 478.494 128.964C477.693 129.657 476.855 129.788 476.332 129.788Z" fill="#33133F"/>
<path d="M469.43 101.712C469.489 100.679 469.438 100.006 469.438 100.006C459.274 100.906 464.164 111.453 464.164 111.453C467.693 109.689 468.888 105.96 469.279 103.235C472.009 106.972 480.558 111.447 490.113 111.64L491.31 109.524L469.43 101.712Z" fill="#231F20"/>
<path d="M468.483 101.51C468.924 104.357 470.964 106.844 473.139 108.608C476 110.931 479.555 112.343 483.235 112.589C485.695 112.755 488.154 112.371 490.482 111.575C490.919 111.426 490.731 110.729 490.291 110.88C486.478 112.183 482.383 112.257 478.58 110.877C475.56 109.782 472.73 107.806 470.862 105.171C470.042 104.018 469.399 102.726 469.181 101.317C469.11 100.861 468.414 101.055 468.483 101.51Z" fill="#33133F"/>
<path d="M256.14 171.478V202.448H253.883V187.716H233.174V202.448H230.92V171.478H233.174V185.723H253.883V171.478H256.14ZM289.416 200.412V202.448H268.043V171.478H288.751V173.514H270.3V185.724H286.805V187.716H270.3V200.414H289.416V200.412ZM298.751 171.478H301.009V200.412H318.84V202.448H298.751V171.478ZM325.744 171.478H327.998V200.412H345.832V202.448H325.742V171.478H325.744ZM357.025 200.612C354.576 199.24 352.653 197.36 351.252 194.971C349.851 192.581 349.152 189.913 349.152 186.963C349.152 184.015 349.851 181.344 351.252 178.957C352.653 176.566 354.576 174.688 357.025 173.316C359.474 171.944 362.217 171.258 365.258 171.258C368.295 171.258 371.038 171.937 373.487 173.293C375.936 174.651 377.859 176.523 379.26 178.914C380.661 181.303 381.36 183.986 381.36 186.965C381.36 189.943 380.661 192.628 379.26 195.017C377.859 197.406 375.936 199.28 373.487 200.637C371.038 201.995 368.295 202.673 365.258 202.673C362.217 202.668 359.474 201.982 357.025 200.612ZM372.293 198.82C374.385 197.641 376.038 196.01 377.248 193.931C378.455 191.85 379.061 189.529 379.061 186.961C379.061 184.396 378.455 182.072 377.248 179.993C376.038 177.914 374.385 176.285 372.293 175.104C370.197 173.925 367.851 173.335 365.256 173.335C362.659 173.335 360.307 173.926 358.197 175.104C356.087 176.283 354.429 177.914 353.219 179.993C352.009 182.072 351.403 184.396 351.403 186.961C351.403 189.529 352.009 191.85 353.219 193.931C354.429 196.01 356.087 197.639 358.197 198.82C360.307 200.001 362.658 200.589 365.256 200.589C367.851 200.589 370.197 200.001 372.293 198.82Z" fill="white"/>
<g opacity="0.25">
<path d="M339.993 99.7198C339.993 100.448 340.582 101.037 341.31 101.037C342.038 101.037 342.626 100.448 342.626 99.7198C342.626 98.992 342.037 98.4023 341.31 98.4023C340.582 98.404 339.993 98.9936 339.993 99.7198ZM332.352 99.7198C332.352 100.448 332.942 101.037 333.669 101.037C334.396 101.037 334.987 100.448 334.987 99.7198C334.987 98.992 334.397 98.4023 333.669 98.4023C332.942 98.404 332.352 98.9936 332.352 99.7198ZM324.711 99.7198C324.711 100.448 325.301 101.037 326.029 101.037C326.755 101.037 327.346 100.448 327.346 99.7198C327.346 98.992 326.757 98.4023 326.029 98.4023C325.299 98.404 324.711 98.9936 324.711 99.7198Z" fill="#4094F2"/>
<path d="M318.382 101.037C319.11 101.037 319.7 100.447 319.7 99.7198C319.7 98.9922 319.11 98.4023 318.382 98.4023C317.654 98.4023 317.064 98.9922 317.064 99.7198C317.064 100.447 317.654 101.037 318.382 101.037Z" fill="#4094F2"/>
<path d="M310.745 101.037C311.473 101.037 312.063 100.447 312.063 99.7198C312.063 98.9922 311.473 98.4023 310.745 98.4023C310.018 98.4023 309.428 98.9922 309.428 99.7198C309.428 100.447 310.018 101.037 310.745 101.037Z" fill="#4094F2"/>
<path d="M337.587 106.224C337.587 106.952 338.177 107.542 338.903 107.542C339.631 107.542 340.22 106.952 340.22 106.224C340.22 105.496 339.631 104.908 338.903 104.908C338.177 104.907 337.587 105.496 337.587 106.224ZM329.946 106.224C329.946 106.952 330.536 107.542 331.264 107.542C331.992 107.542 332.581 106.952 332.581 106.224C332.581 105.496 331.992 104.908 331.264 104.908C330.536 104.907 329.946 105.496 329.946 106.224ZM322.305 106.224C322.305 106.952 322.895 107.542 323.623 107.542C324.351 107.542 324.94 106.952 324.94 106.224C324.94 105.496 324.351 104.908 323.623 104.908C322.895 104.907 322.305 105.496 322.305 106.224ZM314.664 106.224C314.664 106.952 315.254 107.542 315.982 107.542C316.71 107.542 317.298 106.952 317.298 106.224C317.298 105.496 316.708 104.908 315.982 104.908C315.254 104.907 314.664 105.496 314.664 106.224ZM307.023 106.224C307.023 106.952 307.613 107.542 308.341 107.542C309.069 107.542 309.659 106.952 309.659 106.224C309.659 105.496 309.069 104.908 308.341 104.908C307.613 104.907 307.023 105.496 307.023 106.224ZM299.381 106.224C299.381 106.952 299.971 107.542 300.699 107.542C301.426 107.542 302.016 106.952 302.016 106.224C302.016 105.496 301.426 104.908 300.699 104.908C299.972 104.907 299.381 105.496 299.381 106.224Z" fill="#4094F2"/>
</g>
<g opacity="0.25">
<path d="M240.283 303.643C241.01 303.643 241.6 303.053 241.6 302.326C241.6 301.598 241.01 301.01 240.283 301.01C239.555 301.01 238.965 301.599 238.965 302.326C238.965 303.053 239.555 303.643 240.283 303.643ZM240.283 311.283C241.01 311.283 241.6 310.693 241.6 309.965C241.6 309.239 241.01 308.648 240.283 308.648C239.555 308.648 238.965 309.238 238.965 309.965C238.965 310.693 239.555 311.283 240.283 311.283ZM240.283 318.922C241.01 318.922 241.6 318.333 241.6 317.605C241.6 316.879 241.01 316.288 240.283 316.288C239.555 316.288 238.965 316.877 238.965 317.605C238.965 318.334 239.555 318.922 240.283 318.922Z" fill="#4094F2"/>
<path d="M240.283 326.565C241.01 326.565 241.6 325.975 241.6 325.247C241.6 324.52 241.01 323.93 240.283 323.93C239.555 323.93 238.965 324.52 238.965 325.247C238.965 325.975 239.555 326.565 240.283 326.565Z" fill="#4094F2"/>
<path d="M240.283 334.203C241.01 334.203 241.6 333.613 241.6 332.886C241.6 332.158 241.01 331.568 240.283 331.568C239.555 331.568 238.965 332.158 238.965 332.886C238.965 333.613 239.555 334.203 240.283 334.203Z" fill="#4094F2"/>
<path d="M246.787 306.045C247.515 306.045 248.104 305.456 248.104 304.73C248.104 304.002 247.515 303.412 246.787 303.412C246.059 303.412 245.471 304.002 245.471 304.73C245.471 305.457 246.059 306.045 246.787 306.045ZM246.787 313.687C247.515 313.687 248.104 313.097 248.104 312.369C248.104 311.641 247.515 311.052 246.787 311.052C246.059 311.052 245.471 311.641 245.471 312.369C245.471 313.097 246.059 313.687 246.787 313.687ZM246.787 321.326C247.515 321.326 248.104 320.737 248.104 320.009C248.104 319.281 247.515 318.692 246.787 318.692C246.059 318.692 245.471 319.281 245.471 320.009C245.471 320.737 246.059 321.326 246.787 321.326ZM246.787 328.966C247.515 328.966 248.104 328.377 248.104 327.649C248.104 326.921 247.515 326.333 246.787 326.333C246.059 326.333 245.471 326.922 245.471 327.649C245.471 328.377 246.059 328.966 246.787 328.966ZM246.787 336.606C247.515 336.606 248.104 336.016 248.104 335.288C248.104 334.561 247.515 333.971 246.787 333.971C246.059 333.971 245.471 334.561 245.471 335.288C245.471 336.016 246.059 336.606 246.787 336.606ZM246.787 344.246C247.515 344.246 248.104 343.656 248.104 342.928C248.104 342.2 247.515 341.611 246.787 341.611C246.059 341.611 245.471 342.2 245.471 342.928C245.471 343.656 246.059 344.246 246.787 344.246Z" fill="#4094F2"/>
</g>
<path d="M399.927 194.948C401.797 194.933 403.465 194.837 404.314 194.657C404.968 194.519 405.581 194.312 406.134 194.077C406.608 193.875 407.037 193.653 407.41 193.436C408.382 192.878 408.972 192.358 408.972 192.358L422.824 192.92C423.441 190.308 422.944 186.645 422.824 186.023C422.824 186.023 410.05 186.654 408.217 185.125C408.199 185.115 408.18 185.097 408.165 185.083C408.146 185.053 408.128 185.022 408.111 184.991C407.807 184.535 407.092 184.079 406.226 183.72C405.59 183.459 404.876 183.246 404.19 183.116C402.512 182.803 400.632 178.523 399.702 179.016C398.771 179.514 399.191 182.292 400.311 183.163C401.426 184.034 400.634 185.025 399.284 185.025H398.86C396.163 185.025 387.824 185.067 387.611 186.416C387.473 187.297 390.935 187.628 393.62 187.753C390.329 187.721 385.611 187.845 385.947 188.822C386.205 189.572 390.98 190.033 393.647 190.264C391.804 190.274 388.159 190.425 388.145 191.056C388.118 192.421 391.895 192.608 394.444 192.581C392.929 192.702 391.204 193.001 391.098 193.728C390.973 194.615 395.922 194.985 399.927 194.948Z" fill="#FB8A77"/>
<path opacity="0.25" d="M398.182 187.927C398.178 187.927 398.174 187.932 398.171 187.93L394.017 187.648L398.181 187.699H398.187C398.195 187.699 398.348 186.831 398.484 186.412C398.378 187.037 398.338 187.667 398.321 188.295C398.316 188.528 398.314 188.763 398.316 188.996C398.316 188.997 398.168 188.048 398.182 187.927ZM398.178 190.554C398.174 190.554 398.173 190.557 398.17 190.557L394.016 190.275L398.15 190.326C398.134 189.701 398.319 189.29 398.319 189.29C398.325 189.587 398.337 189.884 398.362 190.18C398.386 190.538 398.449 190.895 398.528 191.25C398.475 191.259 398.214 190.8 398.178 190.554ZM398.703 192.615L394.539 192.588L398.668 192.386C398.629 192.28 398.528 191.545 398.592 191.534H398.594C398.634 191.693 398.674 191.854 398.717 192.011C398.885 192.615 399.082 193.212 399.293 193.806C399.082 193.419 398.721 192.615 398.703 192.615Z" fill="#231F20"/>
<path d="M249.287 126.833C249.287 126.833 249.144 126.975 248.914 127.213C248.906 126.292 248.696 125.253 247.794 125.171C246.154 125.021 241.542 131.326 242.982 131.922C243.624 132.187 244.849 131.564 246.009 130.792C245.21 132.084 245.423 133.842 246.681 134.057C248.546 134.375 249.533 132.375 250.425 131.234C249.335 132.966 248.726 135.866 250.009 135.815C251.871 135.741 254.053 131.898 254.053 131.898C254.053 131.898 252.117 135.024 254.053 135.77C255.681 136.395 257.31 130.4 257.31 130.4C257.31 130.4 254.649 123.781 249.287 126.833Z" fill="#FB8A77"/>
</svg>
