<svg width="549" height="512" viewBox="0 0 549 512" fill="none" xmlns="http://www.w3.org/2000/svg">
<g clip-path="url(#clip0_1974_45188)">
<path d="M167.048 135.863L166.035 404.549L84.0665 404.287L83.9474 440.398C83.9221 451.262 88.2108 461.691 95.8713 469.394C103.532 477.097 113.937 481.444 124.8 481.479L165.785 481.61L402.632 482.372C408.014 482.39 413.347 481.347 418.326 479.303C423.305 477.259 427.833 474.255 431.651 470.461C435.469 466.667 438.502 462.159 440.578 457.193C442.653 452.227 443.73 446.901 443.748 441.518L445.011 95.7356L208.163 94.9729C202.778 94.9556 197.442 95.9999 192.461 98.0459C187.48 100.092 182.95 103.1 179.132 106.897C175.313 110.694 172.281 115.207 170.207 120.177C168.134 125.147 167.06 130.478 167.048 135.863Z" fill="#FFCD52"/>
<path d="M84.1055 404.238L166.073 404.496L165.96 440.606C165.926 451.476 161.575 461.888 153.865 469.55C146.155 477.212 135.717 481.497 124.847 481.463C113.978 481.429 103.567 477.078 95.9049 469.368C88.2431 461.657 83.9579 451.219 83.992 440.349L84.1055 404.238Z" fill="#FDA01F"/>
<path d="M81.1586 481.586C94.1117 481.586 104.612 463.391 104.612 440.946C104.612 418.502 94.1117 400.307 81.1586 400.307C68.2056 400.307 57.7051 418.502 57.7051 440.946C57.7051 463.391 68.2056 481.586 81.1586 481.586Z" stroke="#FF5061" stroke-linecap="round" stroke-linejoin="round"/>
<path d="M61.0413 458.836C57.7044 451.137 60.2309 446.417 60.2309 440.959C60.2309 429.482 64.0683 416.48 70.9566 408.328C72.8033 414.161 73.7909 420.231 73.8883 426.348C73.8883 437.825 67.9296 450.66 61.0413 458.836Z" fill="#FF5061"/>
<path d="M45.0708 467.07C58.0238 467.07 68.5243 448.875 68.5243 426.431C68.5243 403.986 58.0238 385.791 45.0708 385.791C32.1177 385.791 21.6172 403.986 21.6172 426.431C21.6172 448.875 32.1177 467.07 45.0708 467.07Z" fill="white"/>
<path d="M102.656 442.221C102.656 446.75 104.503 450.373 101.989 456.522C91.2629 447.929 83.1113 433.509 83.1113 418.647C83.2537 413.411 84.0178 408.21 85.3876 403.154C96.161 411.652 102.656 427.359 102.656 442.221Z" fill="#FF5061"/>
<path d="M110.76 456.939C123.713 456.939 134.214 438.744 134.214 416.3C134.214 393.855 123.713 375.66 110.76 375.66C97.8072 375.66 87.3066 393.855 87.3066 416.3C87.3066 438.744 97.8072 456.939 110.76 456.939Z" fill="white"/>
<path d="M81.1575 481.586V420.639M81.1575 444.51L90.6558 433.653M81.1575 457.477L94.8507 441.828M81.1575 470.836L95.2917 454.676M81.1575 444.534L69.6453 431.365M81.1575 457.5L67.0234 441.34M81.1575 470.86L67.0234 454.7" stroke="#FF5061" stroke-linecap="round" stroke-linejoin="round"/>
<path d="M110.76 456.939C123.713 456.939 134.214 438.744 134.214 416.3C134.214 393.855 123.713 375.66 110.76 375.66C97.8072 375.66 87.3066 393.855 87.3066 416.3C87.3066 438.744 97.8072 456.939 110.76 456.939Z" stroke="#008EF8" stroke-miterlimit="10"/>
<path d="M110.761 395.992V481.741M110.761 419.864L122.261 406.718M110.761 432.83L124.895 416.67M110.761 446.19L124.895 430.029M110.761 419.887L99.2369 406.718M110.761 432.854L96.627 416.693M110.761 446.214L96.627 430.053" stroke="#008EF8" stroke-linecap="round" stroke-linejoin="round"/>
<path d="M45.0708 467.07C58.0238 467.07 68.5243 448.875 68.5243 426.431C68.5243 403.986 58.0238 385.791 45.0708 385.791C32.1177 385.791 21.6172 403.986 21.6172 426.431C21.6172 448.875 32.1177 467.07 45.0708 467.07Z" stroke="#FFCD52" stroke-linecap="round" stroke-linejoin="round"/>
<path d="M45.0716 406.123V481.741M45.0716 429.994L56.572 416.849M45.0716 442.961L59.2057 426.8M45.0716 456.321L59.2057 440.16M45.0716 430.018L33.5593 416.849M45.0716 442.985L30.9375 426.824M45.0716 456.357L30.9375 440.184" stroke="#FFCD52" stroke-linecap="round" stroke-linejoin="round"/>
<path d="M429.631 415.406L446.445 402.027L523.313 498.631L506.499 512.011L429.631 415.406Z" fill="#008EF8"/>
<path d="M463.815 458.347L464.03 458.621L475.387 472.922C481.453 462.018 477.008 442.985 476.043 439.243L462.934 422.832C462.934 422.832 472.491 446.823 463.815 458.347Z" fill="#0234C1"/>
<path d="M237.503 263.621H117.769C115.794 263.621 114.193 265.222 114.193 267.196V354.911C114.193 356.886 115.794 358.487 117.769 358.487H237.503C239.478 358.487 241.079 356.886 241.079 354.911V267.196C241.079 265.222 239.478 263.621 237.503 263.621Z" stroke="#0234C1" stroke-miterlimit="10"/>
<path d="M231.806 269.688H123.44C121.466 269.688 119.865 271.288 119.865 273.263V348.834C119.865 350.808 121.466 352.409 123.44 352.409H231.806C233.781 352.409 235.381 350.808 235.381 348.834V273.263C235.381 271.288 233.781 269.688 231.806 269.688Z" fill="#008EF8"/>
<path d="M224.251 275.562H196.626C194.651 275.562 193.051 277.163 193.051 279.138V342.445C193.051 344.42 194.651 346.02 196.626 346.02H224.251C226.225 346.02 227.826 344.42 227.826 342.445V279.138C227.826 277.163 226.225 275.562 224.251 275.562Z" fill="#C1E3F7"/>
<path d="M182.528 321.912H133.249C131.275 321.912 129.674 323.513 129.674 325.487V342.458C129.674 344.433 131.275 346.034 133.249 346.034H182.528C184.502 346.034 186.103 344.433 186.103 342.458V325.487C186.103 323.513 184.502 321.912 182.528 321.912Z" fill="#C1E3F7"/>
<path d="M184.911 275.562H130.866C130.207 275.562 129.674 276.096 129.674 276.754V283.059C129.674 283.717 130.207 284.251 130.866 284.251H184.911C185.569 284.251 186.103 283.717 186.103 283.059V276.754C186.103 276.096 185.569 275.562 184.911 275.562Z" fill="#C1E3F7"/>
<path d="M148.742 291.998H135.073C132.664 291.998 130.711 293.951 130.711 296.36V310.03C130.711 312.439 132.664 314.392 135.073 314.392H148.742C151.151 314.392 153.104 312.439 153.104 310.03V296.36C153.104 293.951 151.151 291.998 148.742 291.998Z" fill="#C1E3F7"/>
<path d="M179.918 291.998H166.249C163.84 291.998 161.887 293.951 161.887 296.36V310.03C161.887 312.439 163.84 314.392 166.249 314.392H179.918C182.327 314.392 184.28 312.439 184.28 310.03V296.36C184.28 293.951 182.327 291.998 179.918 291.998Z" fill="#C1E3F7"/>
<path d="M506.753 55.3691H387.019C385.044 55.3691 383.443 56.9699 383.443 58.9445V146.659C383.443 148.634 385.044 150.235 387.019 150.235H506.753C508.728 150.235 510.329 148.634 510.329 146.659V58.9445C510.329 56.9699 508.728 55.3691 506.753 55.3691Z" stroke="#0234C1" stroke-miterlimit="10"/>
<path d="M501.07 61.4473H392.704C390.73 61.4473 389.129 63.048 389.129 65.0226V140.593C389.129 142.568 390.73 144.169 392.704 144.169H501.07C503.044 144.169 504.645 142.568 504.645 140.593V65.0226C504.645 63.048 503.044 61.4473 501.07 61.4473Z" fill="#008EF8"/>
<path d="M493.514 67.3242H465.89C463.915 67.3242 462.314 68.925 462.314 70.8996V134.207C462.314 136.181 463.915 137.782 465.89 137.782H493.514C495.489 137.782 497.09 136.181 497.09 134.207V70.8996C497.09 68.925 495.489 67.3242 493.514 67.3242Z" fill="#C1E3F7"/>
<path d="M451.791 113.66H402.513C400.538 113.66 398.938 115.261 398.938 117.235V134.206C398.938 136.181 400.538 137.782 402.513 137.782H451.791C453.766 137.782 455.367 136.181 455.367 134.206V117.235C455.367 115.261 453.766 113.66 451.791 113.66Z" fill="#C1E3F7"/>
<path d="M454.175 67.3242H400.129C399.471 67.3242 398.938 67.8578 398.938 68.516V74.8205C398.938 75.4787 399.471 76.0123 400.129 76.0123H454.175C454.833 76.0123 455.367 75.4787 455.367 74.8205V68.516C455.367 67.8578 454.833 67.3242 454.175 67.3242Z" fill="#C1E3F7"/>
<path d="M418.006 83.7461H404.336C401.927 83.7461 399.975 85.699 399.975 88.108V101.778C399.975 104.187 401.927 106.14 404.336 106.14H418.006C420.415 106.14 422.368 104.187 422.368 101.778V88.108C422.368 85.699 420.415 83.7461 418.006 83.7461Z" fill="#C1E3F7"/>
<path d="M449.17 83.7461H435.5C433.092 83.7461 431.139 85.699 431.139 88.108V101.778C431.139 104.187 433.092 106.14 435.5 106.14H449.17C451.579 106.14 453.532 104.187 453.532 101.778V88.108C453.532 85.699 451.579 83.7461 449.17 83.7461Z" fill="#C1E3F7"/>
<path d="M369.763 373.647L445.88 172.808L527.86 173.082L527.968 136.96C527.985 131.577 526.942 126.244 524.898 121.265C522.854 116.286 519.85 111.758 516.056 107.94C512.263 104.122 507.755 101.089 502.789 99.0132C497.823 96.9376 492.497 95.8605 487.115 95.8433L446.13 95.7122L209.283 94.9494C203.896 94.9322 198.558 95.9772 193.575 98.0247C188.592 100.072 184.062 103.082 180.243 106.882C176.424 110.682 173.392 115.198 171.32 120.17C169.248 125.143 168.177 130.476 168.168 135.863L166.904 481.646L369.763 373.647Z" fill="#FFCD52"/>
<path d="M527.841 173.135L445.909 172.877L446.022 136.767C446.057 125.897 450.407 115.485 458.117 107.823C465.828 100.161 476.266 95.8761 487.135 95.9102C498.005 95.9444 508.416 100.295 516.078 108.006C523.739 115.716 528.025 126.154 527.99 137.024L527.877 173.135L527.841 173.135Z" fill="#FDA01F"/>
<path d="M427.3 395.206C425.368 396.739 423.346 398.155 421.246 399.448L432.27 413.309L443.818 404.108L432.794 390.26C431.059 392.012 429.225 393.664 427.3 395.206Z" fill="#FF5061"/>
<path d="M376.698 404.299C417.427 404.299 450.444 371.281 450.444 330.552C450.444 289.822 417.427 256.805 376.698 256.805C335.97 256.805 302.953 289.822 302.953 330.552C302.953 371.281 335.97 404.299 376.698 404.299Z" fill="#489EE0"/>
<path d="M296.255 389.034L221.391 386.668C216.786 386.522 212.935 390.137 212.789 394.743L211.031 450.383C210.885 454.988 214.501 458.839 219.106 458.985L293.969 461.35C298.574 461.496 302.425 457.881 302.571 453.276L304.329 397.635C304.475 393.03 300.86 389.179 296.255 389.034Z" fill="#008EF8"/>
<path d="M281.96 160.803L207.096 158.437C202.491 158.292 198.64 161.907 198.494 166.512L196.736 222.152C196.591 226.757 200.206 230.609 204.811 230.754L279.675 233.12C284.28 233.265 288.131 229.65 288.276 225.045L290.034 169.405C290.18 164.8 286.565 160.949 281.96 160.803Z" fill="#008EF8"/>
<path d="M291.8 315.035L191.038 311.054M291.49 343.327L191.014 340.908M299.558 368.498L209.235 368.367M305.707 166.896L415.86 171.246M305.278 195.499L414.788 199.837M323.941 222.588L416.063 225.961" stroke="#0850EC" stroke-width="2" stroke-linecap="round" stroke-linejoin="round"/>
<path d="M528.205 207.5C528.845 210.608 529.326 213.746 529.647 216.903C530.005 220.038 530.22 223.184 530.422 226.33C530.625 229.476 530.684 232.635 530.66 235.793C530.689 238.976 530.549 242.158 530.243 245.327C529.603 242.22 529.126 239.081 528.813 235.924C528.444 232.778 528.229 229.631 528.039 226.485C527.848 223.339 527.776 220.181 527.788 217.022C527.8 213.864 527.943 210.67 528.205 207.5Z" fill="#0850EC"/>
<path d="M548.131 225.377C545.023 226.016 541.884 226.497 538.728 226.819C535.582 227.177 532.435 227.391 529.289 227.582C526.143 227.773 522.985 227.856 519.827 227.832C516.644 227.855 513.462 227.716 510.293 227.415C513.401 226.776 516.539 226.295 519.696 225.973C522.83 225.616 525.976 225.401 529.122 225.211C532.269 225.02 535.427 224.948 538.656 224.96C541.886 224.972 544.949 225.056 548.131 225.377ZM505.538 247.127C506.114 249.199 506.536 251.31 506.801 253.444C507.087 255.553 507.302 257.663 507.409 259.784C507.516 261.905 507.552 264.039 507.492 266.172C507.456 268.321 507.261 270.464 506.908 272.584C506.328 270.513 505.902 268.401 505.633 266.267C505.347 264.158 505.133 262.036 505.025 259.915C504.918 257.794 504.894 255.672 504.954 253.539C504.989 251.39 505.184 249.247 505.538 247.127Z" fill="#0850EC"/>
<path d="M518.946 259.164C516.874 259.74 514.763 260.166 512.63 260.439C510.52 260.725 508.411 260.928 506.29 261.047C504.168 261.166 502.035 261.178 499.902 261.119C497.753 261.082 495.61 260.887 493.49 260.535C495.562 259.958 497.673 259.536 499.807 259.271C501.916 258.985 504.037 258.771 506.159 258.664C508.28 258.556 510.401 258.521 512.534 258.58C514.682 258.627 516.825 258.823 518.946 259.164ZM28.9118 256.232C29.5672 259.367 29.9963 262.501 30.3419 265.636C30.6875 268.77 30.9258 271.928 31.1165 275.074C31.3072 278.221 31.3787 281.379 31.3668 284.537C31.3854 287.72 31.2422 290.903 30.9377 294.071C30.2823 290.949 29.8532 287.815 29.5076 284.68C29.162 281.546 28.9237 278.388 28.733 275.241C28.5423 272.095 28.4708 268.937 28.4947 265.779C28.4661 262.591 28.6053 259.405 28.9118 256.232Z" fill="#0850EC"/>
<path d="M48.8614 274.109C45.7533 274.744 42.615 275.221 39.4585 275.539C36.3242 275.896 33.178 276.123 30.0199 276.313C26.8617 276.504 23.7155 276.587 20.5574 276.564C17.3744 276.586 14.1923 276.447 11.0234 276.147C14.1313 275.507 17.2697 275.026 20.4263 274.704C23.5606 274.347 26.7068 274.132 29.8649 273.942C33.0231 273.751 36.1693 273.668 39.3274 273.691C42.5104 273.669 45.6925 273.808 48.8614 274.109ZM51.3879 294.869C51.9642 296.941 52.3865 299.052 52.6511 301.186C52.9491 303.295 53.1517 305.417 53.2589 307.538C53.3662 309.659 53.4019 311.781 53.3424 313.914C53.307 316.063 53.1118 318.206 52.7584 320.326C52.1839 318.253 51.7578 316.142 51.4832 314.009C51.1972 311.9 50.9946 309.779 50.8874 307.657C50.7801 305.536 50.7444 303.414 50.8039 301.281C50.8398 299.132 51.035 296.989 51.3879 294.869Z" fill="#0850EC"/>
<path d="M64.7953 306.919C62.7269 307.491 60.62 307.913 58.491 308.182C56.3697 308.468 54.2603 308.683 52.139 308.79C50.0177 308.897 47.8964 308.933 45.7632 308.873C43.6144 308.838 41.4713 308.643 39.3516 308.289C41.417 307.702 43.5247 307.276 45.6559 307.014C47.7772 306.728 49.8866 306.514 52.0079 306.406C54.1292 306.299 56.2505 306.287 58.3957 306.287C60.5416 306.339 62.6807 306.55 64.7953 306.919ZM294.504 0C295.16 3.12246 295.589 6.25684 295.935 9.40313C296.28 12.5494 296.518 15.6838 296.709 18.842C296.9 22.0002 296.971 25.1465 296.959 28.3047C296.948 31.463 296.864 34.6212 296.542 37.839C295.903 34.731 295.422 31.5926 295.1 28.4358C294.743 25.3015 294.516 22.1552 294.326 18.997C294.135 15.8387 294.064 12.6924 294.087 9.53423C294.065 6.35115 294.204 3.16898 294.504 0Z" fill="#0850EC"/>
<path d="M314.418 17.8766C311.296 18.5321 308.161 18.9611 305.015 19.3068C301.869 19.6524 298.735 19.8907 295.588 20.0814C292.442 20.2721 289.284 20.3436 286.114 20.3317C282.931 20.3499 279.749 20.2068 276.58 19.9026C279.702 19.2472 282.837 18.8181 285.983 18.4725C289.129 18.1269 292.275 17.8885 295.422 17.6979C298.568 17.5072 301.726 17.4357 304.884 17.4595C308.067 17.4309 311.25 17.5701 314.418 17.8766ZM317.004 38.6136C317.58 40.6858 318.006 42.7967 318.279 44.93C318.565 47.0394 318.768 49.1489 318.887 51.2703C319.006 53.3916 319.018 55.5249 318.959 57.6463C318.923 59.799 318.727 61.9461 318.375 64.07C317.798 61.9985 317.376 59.8873 317.111 57.7535C316.813 55.6441 316.611 53.5227 316.504 51.4014C316.396 49.28 316.361 47.1586 316.42 45.0253C316.456 42.8766 316.651 40.7334 317.004 38.6136Z" fill="#0850EC"/>
<path d="M330.399 50.6498C328.327 51.2243 326.216 51.6504 324.083 51.925C321.973 52.211 319.852 52.4136 317.731 52.5328C315.609 52.652 313.488 52.6639 311.355 52.6043C309.206 52.569 307.063 52.3738 304.943 52.0203C307.014 51.4428 309.126 51.0205 311.26 50.757C313.369 50.4591 315.478 50.2565 317.6 50.1492C319.721 50.042 321.854 50.0062 323.976 50.0658C326.128 50.1017 328.275 50.2969 330.399 50.6498Z" fill="#0850EC"/>
<path d="M0.595703 481.74H465.162" stroke="#545454" stroke-linecap="round" stroke-linejoin="round"/>
<path d="M376.271 415.823C423.66 415.823 462.076 377.406 462.076 330.015C462.076 282.625 423.66 244.207 376.271 244.207C328.881 244.207 290.465 282.625 290.465 330.015C290.465 377.406 328.881 415.823 376.271 415.823Z" fill="#C1E3F7"/>
<path d="M376.698 404.299C417.427 404.299 450.444 371.281 450.444 330.552C450.444 289.822 417.427 256.805 376.698 256.805C335.97 256.805 302.953 289.822 302.953 330.552C302.953 371.281 335.97 404.299 376.698 404.299Z" fill="#008EF8"/>
<path d="M303.503 321.482L371.98 322.436L372.171 308.134L306.744 307.229C305.201 311.863 304.115 316.637 303.503 321.482ZM305.529 349.978L374.853 350.931L375.055 336.63L303.109 335.629C303.443 340.479 304.253 345.286 305.529 349.978ZM314.479 370.142C315.976 372.505 317.612 374.778 319.377 376.948L373.697 377.71L374.173 363.409L310.26 362.539C311.512 365.156 312.921 367.695 314.479 370.142Z" fill="#0234C1"/>
</g>
<defs>
<clipPath id="clip0_1974_45188">
<rect width="548.132" height="512" fill="white"/>
</clipPath>
</defs>
</svg>
