<svg width="22" height="21" viewBox="0 0 22 21" fill="none" xmlns="http://www.w3.org/2000/svg">
<path d="M10.9092 13.0909C11.6036 13.0909 12.2695 12.815 12.7605 12.324C13.2515 11.833 13.5274 11.1671 13.5274 10.4727C13.5274 9.77829 13.2515 9.11234 12.7605 8.62134C12.2695 8.13034 11.6036 7.85449 10.9092 7.85449C10.2148 7.85449 9.54887 8.13034 9.05786 8.62134C8.56686 9.11234 8.29102 9.77829 8.29102 10.4727C8.29102 11.1671 8.56686 11.833 9.05786 12.324C9.54887 12.815 10.2148 13.0909 10.9092 13.0909Z" stroke="white" stroke-width="1.30909" stroke-miterlimit="10" stroke-linecap="round" stroke-linejoin="round"/>
<path d="M2.18213 11.2409V9.70494C2.18213 8.7973 2.92395 8.04676 3.84031 8.04676C5.41995 8.04676 6.06577 6.92967 5.27158 5.55948C4.81777 4.77403 5.08831 3.75294 5.88249 3.29912L7.39231 2.43512C8.08176 2.02494 8.97195 2.2693 9.38213 2.95876L9.47813 3.12457C10.2636 4.49476 11.5552 4.49476 12.3494 3.12457L12.4454 2.95876C12.8556 2.2693 13.7458 2.02494 14.4352 2.43512L15.945 3.29912C16.7392 3.75294 17.0098 4.77403 16.5559 5.55948C15.7618 6.92967 16.4076 8.04676 17.9872 8.04676C18.8949 8.04676 19.6454 8.78857 19.6454 9.70494V11.2409C19.6454 12.1486 18.9036 12.8991 17.9872 12.8991C16.4076 12.8991 15.7618 14.0162 16.5559 15.3864C17.0098 16.1806 16.7392 17.1929 15.945 17.6468L14.4352 18.5108C13.7458 18.9209 12.8556 18.6766 12.4454 17.9871L12.3494 17.8213C11.5639 16.4511 10.2723 16.4511 9.47813 17.8213L9.38213 17.9871C8.97195 18.6766 8.08176 18.9209 7.39231 18.5108L5.88249 17.6468C5.50207 17.4277 5.22409 17.0667 5.10956 16.6429C4.99502 16.2191 5.0533 15.7672 5.27158 15.3864C6.06577 14.0162 5.41995 12.8991 3.84031 12.8991C2.92395 12.8991 2.18213 12.1486 2.18213 11.2409Z" stroke="white" stroke-width="1.30909" stroke-miterlimit="10" stroke-linecap="round" stroke-linejoin="round"/>
</svg>
