<svg width="60" height="60" viewBox="0 0 60 60" fill="none" xmlns="http://www.w3.org/2000/svg">
<g clip-path="url(#clip0_2043_34588)">
<path d="M47.2037 0H12.7963C5.72908 0 0 5.72908 0 12.7963V47.2037C0 54.2709 5.72908 60 12.7963 60H47.2037C54.2709 60 60 54.2709 60 47.2037V12.7963C60 5.72908 54.2709 0 47.2037 0Z" fill="#0A93E2"/>
<path fill-rule="evenodd" clip-rule="evenodd" d="M48.2502 20.8999C46.9347 21.4823 45.5395 21.8644 44.1108 22.0336C45.6049 21.1372 46.7474 19.7222 47.2747 18.0436C45.8614 18.8813 44.316 19.4727 42.7046 19.7925C41.7172 18.7325 40.4332 17.9947 39.0202 17.6754C37.6072 17.356 36.1307 17.4699 34.7834 18.0022C33.4361 18.5344 32.2805 19.4604 31.4673 20.6593C30.6541 21.8582 30.2211 23.2743 30.2247 24.723C30.223 25.2761 30.2849 25.8275 30.4093 26.3664C27.5426 26.2227 24.7381 25.4779 22.1779 24.1803C19.6176 22.8828 17.3587 21.0615 15.5477 18.8346C14.6213 20.422 14.3365 22.3034 14.7515 24.094C15.1664 25.8845 16.2498 27.4488 17.78 28.4669C16.6335 28.431 15.5124 28.1206 14.5107 27.5617V27.6496C14.5107 31.1475 16.9979 34.0653 20.2936 34.7244C19.2334 35.0138 18.1209 35.0559 17.0418 34.8475C17.5027 36.2795 18.3991 37.5318 19.6059 38.4299C20.8128 39.3279 22.2699 39.8268 23.7739 39.857C22.278 41.0328 20.5648 41.902 18.7325 42.4148C16.9001 42.9275 14.9846 43.0738 13.0957 42.8451C16.286 44.8929 20.0739 46.0793 24.1518 46.0793C37.4226 46.0793 44.6733 35.0936 44.6733 25.5579C44.6733 25.2503 44.6733 24.9427 44.6557 24.6263C46.0619 23.6156 47.2923 22.3412 48.259 20.8999H48.2502Z" fill="white"/>
</g>
<defs>
<clipPath id="clip0_2043_34588">
<rect width="60" height="60" fill="white"/>
</clipPath>
</defs>
</svg>
