<svg width="601" height="543" viewBox="0 0 601 543" fill="none" xmlns="http://www.w3.org/2000/svg">
<path opacity="0.1" d="M126.944 400.162C126.944 400.162 105.759 355.181 141.017 327.363C176.276 299.544 111.607 271.303 134.946 236.751C158.285 202.199 237.617 230.207 235.619 166.2C233.622 102.199 300.288 84.865 322.291 104.197C344.295 123.529 347.316 217.769 410.477 207.653C473.638 197.536 532.964 331.08 482.291 399.984L126.944 400.162Z" fill="#FFBE55"/>
<path opacity="0.33" d="M162.23 138.438H459.881V319.544H162.23V138.438Z" fill="#2A94F4"/>
<path d="M177.328 152H444.779V305.978H177.328V152Z" fill="#F7F7F7"/>
<path opacity="0.61" d="M177.328 152H444.779V154.51H177.328V152Z" fill="#2A94F4"/>
<path d="M150.005 366.545C150.005 366.545 143.166 374.419 141.908 375.671C140.873 376.706 139.398 377.085 137.99 377.48C137.54 377.608 136.95 378.07 136.455 378.459C136.054 378.771 135.87 379.261 135.881 379.767C136.043 388.626 143.756 394.842 144.167 394.319C144.907 393.384 144.345 390.785 142.871 389.077C141.385 387.352 141.029 384.926 141.691 382.75C142.22 381.019 143.182 379.455 144.49 378.203L150.439 372.638L150.005 366.545ZM219.916 377.741L225.358 386.834C227.022 389.615 227.634 392.901 227.083 396.094C227.009 396.514 227.026 396.945 227.134 397.357C227.242 397.769 227.438 398.153 227.708 398.483C227.978 398.813 228.316 399.08 228.699 399.267C229.082 399.454 229.501 399.556 229.927 399.567C235.786 399.711 247.116 399.923 247.445 399.388C249.109 396.673 241.941 395.454 236.31 393.545C232.514 392.26 227.84 381.982 224.879 373.89L220.439 376.701C220.094 376.934 219.899 377.33 219.916 377.741Z" fill="#FA968C"/>
<path d="M236.199 396.679C238.603 396.679 241.057 396.128 243.327 395.677C243.589 395.627 243.856 395.644 244.106 395.733C246.733 396.662 248.324 397.947 247.44 399.389C247.083 399.967 233.75 399.667 228.547 399.528C227.456 399.5 226.661 398.509 226.85 397.435L227.189 395.482C230.133 396.233 233.149 396.679 236.199 396.679ZM200.45 275.071C194.435 273.869 187.251 278.794 185.704 286.534C184.813 290.981 183.5 307.558 183.689 321.081C183.761 326.273 181.268 331.264 176.833 333.963C176.11 334.403 175.448 334.887 174.874 335.41C171.908 338.12 158.102 355.421 149.449 367.163C149.176 368.999 149.449 371.537 150.478 372.744C161.552 364.069 180.328 347.73 183.489 344.848C185.242 343.245 187.2 341.37 188.798 339.528C195.598 334.97 206.644 300.162 208.08 292.978C209.621 285.238 206.466 276.278 200.45 275.071Z" fill="#0B4870"/>
<path d="M196.694 236.947C201.861 236.947 206.049 231.543 206.049 224.877C206.049 218.211 201.861 212.807 196.694 212.807C191.528 212.807 187.34 218.211 187.34 224.877C187.34 231.543 191.528 236.947 196.694 236.947Z" fill="#0B4870"/>
<path d="M194.452 226.123C194.301 219.44 188.892 213.825 182.22 213.446C176.299 213.107 171.191 216.735 169.276 221.91C168.609 223.725 166.828 224.904 164.891 224.876C164.09 224.865 163.261 224.938 162.42 225.11C157.529 226.112 153.734 230.241 153.222 235.205C152.76 239.684 154.852 243.702 158.219 245.995C159.655 246.974 160.473 248.594 160.712 250.313C161.814 258.276 169.087 264.125 177.379 263.218C184.474 262.439 190.15 256.601 190.751 249.495C191.124 245.132 189.621 241.131 186.989 238.165C191.485 236.04 194.568 231.443 194.452 226.123ZM196.694 208.85C196.694 208.85 201.958 212.161 201.319 216.624C201.319 216.624 204.129 214.632 204.769 207.776C205.208 203.023 196.694 208.85 196.694 208.85Z" fill="#0B4870"/>
<path d="M207.444 236.046C207.372 238.266 207.528 240.525 207.884 242.723C208.229 244.916 208.808 247.081 209.648 248.956C210.065 249.891 210.55 250.748 211.073 251.404C211.596 252.072 212.13 252.462 212.481 252.595C212.664 252.668 212.82 252.701 213.043 252.69C213.26 252.673 213.543 252.612 213.866 252.456C214.517 252.133 215.285 251.544 215.986 250.776C217.411 249.245 218.669 247.253 219.765 245.166C220.872 243.074 221.852 240.859 222.764 238.605C223.677 236.346 224.495 234.037 225.28 231.705C226.064 229.373 226.799 227.014 227.489 224.638V224.632C227.53 224.491 227.599 224.36 227.691 224.246C227.783 224.132 227.896 224.037 228.025 223.967C228.154 223.896 228.295 223.852 228.441 223.836C228.586 223.821 228.734 223.834 228.874 223.875C229.42 224.037 229.754 224.576 229.665 225.127C228.863 230.063 227.906 234.994 226.532 239.885C225.853 242.334 225.068 244.766 224.078 247.175C223.087 249.585 221.935 251.983 220.204 254.298C219.325 255.444 218.268 256.591 216.777 257.531C216.025 257.993 215.135 258.388 214.133 258.605C213.137 258.822 212.03 258.822 211.006 258.594C209.982 258.372 209.064 257.943 208.279 257.442C207.5 256.941 206.832 256.368 206.265 255.778C205.124 254.587 204.278 253.324 203.577 252.044C202.191 249.479 201.306 246.847 200.672 244.181C200.06 241.51 199.726 238.8 199.648 236.057V236.04C199.619 235.007 200.001 234.004 200.71 233.253C201.42 232.502 202.399 232.063 203.432 232.033C204.465 232.004 205.468 232.386 206.219 233.096C206.97 233.805 207.409 234.784 207.439 235.817C207.45 235.884 207.45 235.973 207.444 236.046Z" fill="#FAB9AF"/>
<path d="M202.587 259.172C204.696 252.822 208.931 239.383 208.569 234.987C208.457 233.63 207.838 232.366 206.836 231.445C205.833 230.524 204.521 230.015 203.16 230.018H184.835C181.797 230.018 179.309 232.427 179.226 235.466C179.07 240.774 181.518 252.85 182.893 259.172H202.587ZM198.975 287.83C201.084 295.438 218.213 349.528 212.303 351.164C206.393 352.8 174.217 299.99 173.806 292.104C173.416 284.625 177.751 276.523 183.661 274.887C189.576 273.256 196.872 280.223 198.975 287.83Z" fill="#FAB9AF"/>
<path d="M225.47 376.051C225.687 375.795 225.737 375.433 225.625 375.116C221.046 362.433 214.896 346.373 213.583 343.341C213.433 342.996 213.277 342.656 213.11 342.328C210.873 326.29 200.584 293.624 198.981 287.837C196.872 280.23 189.582 273.263 183.667 274.899C177.757 276.535 173.422 284.637 173.811 292.116C174.067 297.052 186.766 319.584 197.684 335.355C199.983 338.672 201.424 342.484 202.125 346.462C202.609 349.211 203.388 351.955 204.257 353.958C205.548 356.947 213.116 368.343 219.883 378.009C220.077 378.288 220.406 378.455 220.745 378.421C222.537 378.226 224.234 377.503 225.47 376.051Z" fill="#0B4870"/>
<path d="M180.794 267.218C181.74 264.558 182.03 261.709 181.629 258.91C180.705 252.416 179.092 240.184 179.236 234.993C179.314 232.216 181.59 230.018 184.367 230.018H187.083C188.118 232.416 190.31 234.269 193.721 234.269C197.127 234.269 199.32 232.416 200.355 230.018H202.903C200.132 235.955 201.128 243.785 205.897 248.354C205.012 251.487 204.267 254.642 203.71 257.196C202.956 260.658 203.285 264.267 204.651 267.536C206.993 273.156 208.847 282.171 208.296 285.738C189.019 291.203 175.691 281.531 175.691 281.531L180.794 267.218Z" fill="#FFBE55"/>
<path d="M196.693 231.281L188.385 230.407L191.011 221.314L196.387 221.977L196.693 231.281Z" fill="#FAB9AF"/>
<path d="M196.389 221.976L191.013 221.309L190.189 224.147C191.391 225.504 192.938 228.437 194.897 228.437C195.521 228.437 196.083 228.265 196.595 227.942L196.389 221.976Z" fill="#FA968C"/>
<path d="M196.577 226.373C194.752 226.373 192.776 225.461 190.055 223.084C188.491 221.721 187.334 219.339 187.334 217.737V208.85H201.018C201.018 208.85 202.047 213.569 201.046 218.254C200.306 221.766 198.013 226.379 196.577 226.373Z" fill="#FAB9AF"/>
<path d="M189.661 216.057C189.661 217.793 188.832 219.195 187.808 219.195C186.784 219.195 185.654 216.925 185.654 215.188C185.654 213.452 186.784 212.918 187.808 212.918C188.826 212.912 189.661 214.32 189.661 216.057Z" fill="#FAB9AF"/>
<path d="M185.654 209.924C185.654 207.148 187.902 204.899 190.679 204.899H195.298C196.617 204.899 197.902 204.554 199.027 203.914C200.657 202.991 202.716 203.297 203.829 204.805C205.031 206.435 205.549 208.617 202.505 210.637C200.991 211.644 198.776 210.531 197.301 211.01C197.212 211.004 197.129 210.993 197.034 210.993H192.961C191.547 210.993 190.462 212.15 190.423 213.564C190.411 213.996 190.231 214.406 189.921 214.707C189.612 215.008 189.197 215.177 188.765 215.178H188.581L187.93 213.091L185.66 216.157V209.924H185.654Z" fill="#0B4870"/>
<path d="M230.616 219.74C230.616 219.74 231.574 224.464 230.227 225.232C228.88 226 227.84 226.273 226.643 224.359C225.447 222.444 224.723 219.245 224.673 217.241C224.623 215.238 225.953 211.843 226.337 211.571C227.728 210.591 227.439 214.231 227.389 216C227.333 217.77 227.45 219.773 228.307 219.562C229.164 219.345 229.014 215.95 229.915 215.377C230.822 214.804 230.616 219.74 230.616 219.74Z" fill="#FAB9AF"/>
<path d="M200.005 208.694C199.549 210.725 200.222 211.832 193.567 215.004C186.911 218.176 184.802 216.818 182.727 220.23C182.727 220.23 183.634 214.576 187.312 212.639C190.99 210.697 197.362 209.434 199.41 204.938C199.404 204.938 200.317 207.303 200.005 208.694Z" fill="#0B4870"/>
<path d="M198.725 209.073C198.725 209.073 198.975 215.912 204.952 219.195C204.952 219.195 202.32 214.026 202.498 210.648C202.676 207.264 198.33 206.736 198.725 209.073Z" fill="#0B4870"/>
<path d="M380.633 174.788H379.52V172.006H376.738V170.893H380.633V174.788ZM380.633 251.16H379.52V244.794H380.633V251.16ZM380.633 238.433H379.52V232.067H380.633V238.433ZM380.633 225.706H379.52V219.34H380.633V225.706ZM380.633 212.974H379.52V206.608H380.633V212.974ZM380.633 200.247H379.52V193.881H380.633V200.247ZM380.633 187.515H379.52V181.149H380.633V187.515ZM380.633 261.421H376.738V260.308H379.52V257.526H380.633V261.421ZM370.06 261.421H363.382V260.308H370.06V261.421ZM356.705 261.421H350.027V260.308H356.705V261.421ZM343.349 261.421H336.671V260.308H343.349V261.421ZM329.994 261.421H323.316V260.308H329.994V261.421ZM316.638 261.421H309.96V260.308H316.638V261.421ZM303.282 261.421H296.605V260.308H303.282V261.421ZM289.927 261.421H283.249V260.308H289.927V261.421ZM276.571 261.421H269.894V260.308H276.571V261.421ZM263.216 261.421H256.538V260.308H263.216V261.421ZM249.86 261.421H245.965V257.526H247.078V260.308H249.86V261.421ZM247.078 251.149H245.965V244.771H247.078V251.149ZM247.078 238.394H245.965V232.017H247.078V238.394ZM247.078 225.634H245.965V219.257H247.078V225.634ZM247.078 212.879H245.965V206.502H247.078V212.879ZM247.078 200.125H245.965V193.748H247.078V200.125ZM247.078 187.365H245.965V180.987H247.078V187.365ZM247.078 174.61H245.965V170.715L249.86 170.72V171.833L247.078 171.828V174.61ZM370.06 172L363.382 171.989V170.876L370.06 170.887V172ZM356.705 171.984L350.027 171.972V170.86L356.705 170.871V171.984ZM343.349 171.967L336.671 171.956V170.843L343.349 170.854V171.967ZM329.994 171.945L323.316 171.934V170.821L329.994 170.832V171.945ZM316.638 171.928L309.96 171.917V170.804L316.638 170.815V171.928ZM303.282 171.906L296.605 171.895V170.782L303.282 170.793V171.906ZM289.927 171.889L283.249 171.878V170.765L289.927 170.776V171.889ZM276.571 171.872L269.894 171.861V170.748L276.571 170.759V171.872ZM263.216 171.85L256.538 171.839V170.726L263.216 170.737V171.85Z" fill="#D3D3D3"/>
<path d="M133.027 381.287C132.805 380.731 133.016 380.091 133.534 379.784C133.957 379.534 135.092 378.833 135.943 378.31C136.316 378.082 136.778 378.326 136.828 378.755C137.379 383.652 139.599 388.087 143.762 390.202C144.847 391.649 145.003 394.131 144.419 394.871C144.279 395.043 142.332 394.398 140.696 392.528C133.434 384.203 133.027 381.287 133.027 381.287Z" fill="#0B4870"/>
<path d="M227.045 161.254H367.835V253.63H227.045V161.254Z" fill="#FFBE55"/>
<path opacity="0.78" d="M231.496 166.818H362.826V233.596H231.496V166.818Z" fill="#F7F7F7"/>
<path d="M313.855 218.015C313.855 229.696 303.276 228.032 291.596 228.032C279.915 228.032 271.562 229.696 271.562 218.015C271.562 206.335 281.028 196.869 292.709 196.869C304.389 196.869 313.855 206.335 313.855 218.015Z" fill="#FFBE55"/>
<path d="M231.496 233.69L264.885 205.215L294.379 233.595L231.496 233.69Z" fill="#FFBE55"/>
<path d="M270.861 233.692L319.693 191.305L362.825 233.553L270.861 233.692Z" fill="#FFBE55"/>
<path d="M231.496 233.596H362.709V246.395H231.496V233.596Z" fill="#0E538C"/>
<path d="M251.034 251.316C251.034 251.316 246.276 250.537 245.558 251.911C244.841 253.286 244.607 254.337 246.571 255.456C248.53 256.574 251.752 257.181 253.761 257.153C255.764 257.131 259.109 255.667 259.365 255.272C260.294 253.842 256.666 254.271 254.896 254.393C253.132 254.515 251.123 254.476 251.307 253.608C251.491 252.74 254.891 252.762 255.425 251.839C255.954 250.926 251.034 251.316 251.034 251.316Z" fill="#FAB9AF"/>
<path d="M186.661 234.888L186.65 234.821C186.65 234.816 186.655 234.832 186.655 234.838L186.666 234.877L186.705 235.022L186.805 235.361C186.889 235.606 186.978 235.856 187.089 236.118C187.295 236.635 187.551 237.164 187.852 237.682C188.442 238.717 189.182 239.713 190.016 240.653C191.719 242.517 193.795 244.187 196.143 245.545C198.48 246.925 201.046 248.049 203.717 248.978C206.405 249.891 209.193 250.598 212.036 251.193C217.74 252.323 223.645 252.829 229.593 253.057L231.825 253.135L234.062 253.146L236.305 253.152C237.05 253.157 237.801 253.118 238.547 253.113C240.044 253.074 241.547 253.091 243.049 253.002C244.546 252.924 246.054 252.868 247.557 252.812H247.584C248.202 252.79 248.72 253.269 248.742 253.886C248.764 254.448 248.369 254.927 247.835 255.027C244.846 255.589 241.841 256.112 238.814 256.524C237.306 256.769 235.781 256.903 234.257 257.064L231.97 257.298L229.671 257.465L227.373 257.632L225.064 257.715C224.29 257.737 223.522 257.771 222.749 257.776L220.428 257.76C217.328 257.76 214.218 257.526 211.096 257.197C207.974 256.825 204.852 256.251 201.747 255.433C198.647 254.593 195.576 253.452 192.615 251.922C189.66 250.397 186.844 248.388 184.396 245.862C183.188 244.582 182.092 243.157 181.152 241.588C180.684 240.804 180.256 239.98 179.888 239.101C179.705 238.667 179.538 238.205 179.382 237.737C179.31 237.487 179.232 237.253 179.165 236.992C179.093 236.697 179.043 236.535 178.959 236.023C178.809 235.001 179.072 233.962 179.689 233.133C180.305 232.305 181.226 231.755 182.248 231.605C184.374 231.282 186.349 232.757 186.661 234.888Z" fill="#FAB9AF"/>
<path d="M369.225 294.253H257.373C251.073 294.253 245.965 289.145 245.965 282.845C245.965 276.546 251.073 271.438 257.373 271.438H369.225C375.525 271.438 380.633 276.546 380.633 282.845C380.633 289.145 375.525 294.253 369.225 294.253Z" fill="#FFBE55"/>
<path d="M422.759 175.189C417.494 175.183 412.23 175.322 406.971 175.144C400.894 174.938 396.287 172.028 393.109 166.847C391.106 163.58 390.394 159.952 390.922 156.257C391.913 149.335 396.788 143.653 404.206 142.056C405.257 141.828 406.32 141.711 407.383 141.8C408.34 141.878 408.652 141.549 408.613 140.576C408.44 136.53 409.67 132.907 412.18 129.752C415.079 126.113 418.808 123.959 423.51 123.525C430.316 122.891 435.541 125.5 439.364 131.076C439.765 131.661 439.993 131.705 440.622 131.271C448.735 125.656 460.588 129.385 464.094 138.617C464.233 138.978 464.411 139.323 464.523 139.685C465.179 141.761 465.179 141.761 467.266 141.789C472.992 141.861 479.342 146.324 481.495 151.794C481.696 152.306 481.857 152.835 482.035 153.358C481.495 153.402 481.234 153.747 481.033 154.209C480.288 155.907 479.102 157.331 477.867 158.65C474.077 162.707 469.37 165.395 464.278 167.465C461.952 168.411 459.553 169.09 457.121 169.718C453.955 170.536 450.777 171.26 447.572 171.878C444.233 168.567 440.889 165.261 437.561 161.939C437.121 161.499 436.838 161.215 436.248 161.816C431.929 166.207 427.578 170.559 423.232 174.922C423.076 175.011 422.914 175.1 422.759 175.189ZM431.212 127.003C430.711 126.502 430.305 126.691 429.943 126.63C423.627 125.478 418.552 127.743 414.512 132.473C413.432 133.736 412.575 135.3 411.996 136.864C411.29 138.767 410.961 140.815 411.162 142.89C411.245 143.759 410.883 144.131 409.982 144.115C405.736 144.037 402.119 145.567 399.014 148.427C397.091 150.192 395.632 152.404 394.768 154.866C393.822 157.537 393.61 160.37 394.228 163.169C394.528 164.532 394.701 165.996 395.697 167.125C396.114 166.903 395.992 166.569 395.992 166.291C396.02 164.588 395.992 162.89 396.237 161.188C396.899 156.552 398.741 152.584 402.775 150.008C405.691 148.149 408.991 147.298 412.48 147.465C413.61 147.52 414.033 147.242 414.011 146.001C413.933 141.282 415.068 136.869 418.084 133.152C420.065 130.704 422.625 128.995 425.741 128.155C427.489 127.682 429.258 127.337 431.212 127.003Z" fill="#2A94F4"/>
<path d="M450.928 175.183C450.766 175.099 450.61 175.021 450.449 174.938C449.486 173.919 448.529 172.895 447.566 171.877C450.772 171.259 453.955 170.536 457.116 169.718C459.547 169.089 461.946 168.41 464.272 167.464C469.369 165.394 474.077 162.706 477.861 158.65C479.097 157.325 480.282 155.906 481.028 154.209C481.234 153.747 481.49 153.396 482.029 153.357C483.81 159.134 482.775 164.387 479.019 169.095C476.648 172.072 473.532 173.919 469.831 174.737C468.635 174.999 467.394 175.155 466.175 175.166C461.1 175.21 456.014 175.183 450.928 175.183Z" fill="#2A94F4"/>
<path d="M446.404 179.056C446.404 178.889 446.471 178.828 446.632 178.889C446.555 178.951 446.482 179.006 446.404 179.056ZM454.295 178.767C454.329 178.778 454.362 178.789 454.384 178.811C454.401 178.823 454.395 178.856 454.401 178.878C454.368 178.839 454.34 178.795 454.306 178.756C454.306 178.761 454.295 178.767 454.295 178.767Z" fill="#F7F7F7"/>
<path d="M422.758 175.187C422.914 175.098 423.07 175.009 423.231 174.926C423.565 175.315 424.022 175.171 424.433 175.171C432.703 175.182 440.978 175.182 449.247 175.171C449.659 175.171 450.109 175.31 450.454 174.942C450.616 175.026 450.772 175.104 450.933 175.187L454.3 178.771L454.311 178.76L446.637 178.893C446.476 178.827 446.403 178.893 446.409 179.06C446.375 180.173 446.336 181.286 446.303 182.394C445.496 183.184 445.635 184.314 445.379 185.271C444.205 189.634 442.196 193.457 438.963 196.662C437.989 197.625 436.681 198.125 435.852 199.222C433.287 199.244 430.722 199.244 428.162 199.3C427.149 199.322 427.366 198.649 427.366 198.087C427.36 192.143 427.333 186.195 427.388 180.251C427.399 179.122 427.116 178.782 425.975 178.832C423.849 178.927 421.718 178.86 419.336 178.86C420.582 177.513 421.668 176.35 422.758 175.187Z" fill="#FFBE55"/>
<path d="M435.842 199.223C436.671 198.126 437.979 197.625 438.953 196.663C442.186 193.452 444.2 189.634 445.369 185.272C445.625 184.314 445.486 183.185 446.293 182.395V198.56C446.02 199.273 445.246 198.883 444.807 199.228C441.824 199.228 438.836 199.223 435.842 199.223Z" fill="#FFBE55"/>
<path d="M444.818 199.228C445.258 198.883 446.031 199.273 446.304 198.56C446.337 199.968 445.358 199.106 444.818 199.228ZM447.567 171.877C448.53 172.895 449.487 173.919 450.45 174.938C450.105 175.305 449.648 175.166 449.242 175.166C440.973 175.171 432.698 175.171 424.429 175.166C424.022 175.166 423.566 175.311 423.227 174.921C427.567 170.558 431.924 166.207 436.243 161.816C436.833 161.215 437.116 161.499 437.556 161.938C440.889 165.261 444.228 168.566 447.567 171.877Z" fill="#FFBE55"/>
<path d="M431.213 127.003C429.26 127.337 427.496 127.682 425.743 128.155C422.626 128.995 420.067 130.709 418.085 133.152C415.075 136.87 413.934 141.283 414.012 146.002C414.034 147.242 413.611 147.515 412.482 147.465C408.993 147.298 405.693 148.15 402.777 150.008C398.742 152.585 396.895 156.552 396.238 161.188C395.993 162.891 396.021 164.588 395.993 166.291C395.988 166.564 396.116 166.903 395.698 167.126C394.702 165.996 394.53 164.538 394.229 163.169C393.611 160.37 393.823 157.537 394.769 154.866C395.637 152.412 397.062 150.231 399.015 148.428C402.12 145.567 405.737 144.037 409.983 144.115C410.885 144.132 411.246 143.759 411.163 142.891C410.962 140.815 411.296 138.767 411.998 136.864C412.576 135.3 413.433 133.737 414.513 132.473C418.558 127.738 423.628 125.473 429.944 126.63C430.306 126.692 430.712 126.502 431.213 127.003Z" fill="#2A94F4"/>
<path d="M365.052 286.463H263.216C261.374 286.463 259.877 284.966 259.877 283.124C259.877 281.282 261.374 279.785 263.216 279.785H365.052C366.894 279.785 368.391 281.282 368.391 283.124C368.391 284.966 366.894 286.463 365.052 286.463ZM498.886 415.01H111.575C107.424 415.01 104.062 411.649 104.062 407.498C104.062 403.346 107.424 399.985 111.575 399.985H498.886C503.037 399.985 506.399 403.346 506.399 407.498C506.399 411.649 503.037 415.01 498.886 415.01Z" fill="#F7F7F7"/>
<path d="M434.991 377.335C441.426 377.335 446.643 372.118 446.643 365.682C446.643 359.246 441.426 354.029 434.991 354.029C428.555 354.029 423.338 359.246 423.338 365.682C423.338 372.118 428.555 377.335 434.991 377.335Z" fill="#FFBE55"/>
<path opacity="0.4" d="M461.328 332.043L479.335 344.228L467.15 362.234L449.143 350.049L461.328 332.043Z" fill="#2A94F4"/>
<path d="M474.5 319.756L496.125 321.987L493.893 343.618" fill="#0B4870"/>
</svg>
