<svg width="25" height="25" viewBox="0 0 25 25" fill="none" xmlns="http://www.w3.org/2000/svg">
<g id="basil:cross-solid">
<path id="Vector" d="M18.2637 12.8192C18.364 12.7224 18.444 12.6066 18.4991 12.4785C18.5542 12.3504 18.5832 12.2127 18.5845 12.0733C18.5858 11.9339 18.5593 11.7956 18.5066 11.6665C18.4538 11.5375 18.3759 11.4202 18.2774 11.3216C18.1789 11.223 18.0617 11.1449 17.9327 11.0921C17.8037 11.0392 17.6654 11.0126 17.526 11.0138C17.3866 11.0149 17.2488 11.0438 17.1207 11.0988C16.9926 11.1537 16.8767 11.2337 16.7798 11.3339L12.5717 15.5406L8.36495 11.3339C8.26882 11.2307 8.15291 11.148 8.02412 11.0906C7.89533 11.0332 7.7563 11.0024 7.61533 10.9999C7.47435 10.9974 7.33432 11.0233 7.20359 11.0761C7.07285 11.1289 6.95409 11.2075 6.85439 11.3072C6.75469 11.4069 6.6761 11.5257 6.62329 11.6564C6.57048 11.7872 6.54455 11.9272 6.54704 12.0682C6.54953 12.2092 6.58038 12.3482 6.63777 12.477C6.69515 12.6058 6.77789 12.7217 6.88104 12.8178L11.085 17.0259L6.87824 21.2326C6.69279 21.4317 6.59182 21.6949 6.59662 21.9669C6.60142 22.2389 6.71161 22.4984 6.90397 22.6908C7.09634 22.8832 7.35586 22.9934 7.62786 22.9982C7.89987 23.003 8.16311 22.902 8.36215 22.7165L12.5717 18.5098L16.7784 22.7179C16.9774 22.9034 17.2407 23.0044 17.5127 22.9996C17.7847 22.9948 18.0442 22.8846 18.2366 22.6922C18.4289 22.4998 18.5391 22.2403 18.5439 21.9683C18.5487 21.6963 18.4477 21.4331 18.2623 21.234L14.0584 17.0259L18.2637 12.8192Z" fill="black"/>
</g>
</svg>
