<svg width="50" height="50" viewBox="0 0 50 50" fill="none" xmlns="http://www.w3.org/2000/svg">
<path d="M44.8547 30.1453L40.625 25.9156V20.3125C40.6202 16.4404 39.1797 12.7076 36.5822 9.83591C33.9848 6.96424 30.4147 5.15771 26.5625 4.76562V1.5625H23.4375V4.76562C19.5853 5.15771 16.0153 6.96424 13.4178 9.83591C10.8203 12.7076 9.37985 16.4404 9.375 20.3125V25.9156L5.14531 30.1453C4.85227 30.4383 4.68759 30.8356 4.6875 31.25V35.9375C4.6875 36.3519 4.85212 36.7493 5.14515 37.0424C5.43817 37.3354 5.8356 37.5 6.25 37.5H17.1875V38.7141C17.1535 40.6963 17.8522 42.6214 19.1497 44.1204C20.4471 45.6194 22.2521 46.5869 24.2188 46.8375C25.305 46.9452 26.4017 46.8244 27.4384 46.4828C28.4751 46.1412 29.4289 45.5864 30.2383 44.8541C31.0478 44.1218 31.695 43.2282 32.1383 42.2307C32.5816 41.2332 32.8113 40.154 32.8125 39.0625V37.5H43.75C44.1644 37.5 44.5618 37.3354 44.8549 37.0424C45.1479 36.7493 45.3125 36.3519 45.3125 35.9375V31.25C45.3124 30.8356 45.1477 30.4383 44.8547 30.1453ZM29.6875 39.0625C29.6875 40.3057 29.1936 41.498 28.3146 42.3771C27.4355 43.2561 26.2432 43.75 25 43.75C23.7568 43.75 22.5645 43.2561 21.6854 42.3771C20.8064 41.498 20.3125 40.3057 20.3125 39.0625V37.5H29.6875V39.0625ZM42.1875 34.375H7.8125V31.8969L12.0422 27.6672C12.3352 27.3742 12.4999 26.9769 12.5 26.5625V20.3125C12.5 16.9973 13.817 13.8179 16.1612 11.4737C18.5054 9.12946 21.6848 7.8125 25 7.8125C28.3152 7.8125 31.4946 9.12946 33.8388 11.4737C36.183 13.8179 37.5 16.9973 37.5 20.3125V26.5625C37.5001 26.9769 37.6648 27.3742 37.9578 27.6672L42.1875 31.8969V34.375Z" fill="#AFC8EE"/>
</svg>
