<svg width="65" height="54" viewBox="0 0 65 54" fill="none" xmlns="http://www.w3.org/2000/svg">
<g filter="url(#filter0_di_6204_24233)">
<path d="M5.41699 8.99226C5.41699 8.99226 9.47949 3.57559 18.9587 3.57559C28.4378 3.57559 32.5003 8.99226 32.5003 8.99226V46.9089C32.5003 46.9089 28.4378 44.2006 18.9587 44.2006C9.47949 44.2006 5.41699 46.9089 5.41699 46.9089V8.99226ZM32.5003 8.99226C32.5003 8.99226 36.5628 3.57559 46.042 3.57559C55.5212 3.57559 59.5837 8.99226 59.5837 8.99226V46.9089C59.5837 46.9089 55.5212 44.2006 46.042 44.2006C36.5628 44.2006 32.5003 46.9089 32.5003 46.9089V8.99226Z" stroke="#2A72DE" stroke-width="4" stroke-linecap="round" stroke-linejoin="round" shape-rendering="crispEdges"/>
</g>
<defs>
<filter id="filter0_di_6204_24233" x="0.416992" y="-0.424408" width="64.167" height="54.3333" filterUnits="userSpaceOnUse" color-interpolation-filters="sRGB">
<feFlood flood-opacity="0" result="BackgroundImageFix"/>
<feColorMatrix in="SourceAlpha" type="matrix" values="0 0 0 0 0 0 0 0 0 0 0 0 0 0 0 0 0 0 127 0" result="hardAlpha"/>
<feOffset dy="2"/>
<feGaussianBlur stdDeviation="1.5"/>
<feComposite in2="hardAlpha" operator="out"/>
<feColorMatrix type="matrix" values="0 0 0 0 0 0 0 0 0 0 0 0 0 0 0 0 0 0 0.25 0"/>
<feBlend mode="normal" in2="BackgroundImageFix" result="effect1_dropShadow_6204_24233"/>
<feBlend mode="normal" in="SourceGraphic" in2="effect1_dropShadow_6204_24233" result="shape"/>
<feColorMatrix in="SourceAlpha" type="matrix" values="0 0 0 0 0 0 0 0 0 0 0 0 0 0 0 0 0 0 127 0" result="hardAlpha"/>
<feOffset dx="1" dy="-2"/>
<feGaussianBlur stdDeviation="1"/>
<feComposite in2="hardAlpha" operator="arithmetic" k2="-1" k3="1"/>
<feColorMatrix type="matrix" values="0 0 0 0 0 0 0 0 0 0 0 0 0 0 0 0 0 0 0.25 0"/>
<feBlend mode="normal" in2="shape" result="effect2_innerShadow_6204_24233"/>
</filter>
</defs>
</svg>
