<svg width="88" height="88" viewBox="0 0 88 88" fill="none" xmlns="http://www.w3.org/2000/svg">
<g clip-path="url(#clip0_1974_45990)">
<path d="M62.1935 41.7182L49.7101 41.6082C49.1385 41.6032 48.7356 41.8002 48.547 42.1227L45.1108 47.993C45.2995 47.6707 45.7024 47.4737 46.2739 47.4786L58.7573 47.5886C59.8892 47.5985 61.2556 48.4017 61.8075 49.3838L65.2437 43.5133C64.6919 42.5313 63.3254 41.7281 62.1935 41.7182Z" fill="#E3E7F0"/>
<path d="M58.7589 47.5877C59.8908 47.5977 61.2572 48.4009 61.8091 49.3829L45.2225 49.2369C44.6707 48.2549 45.1405 47.4678 46.2755 47.4778L58.7589 47.5877Z" fill="#B4BED7"/>
<path d="M53.9781 37.294L58.3085 45.0092L51.0338 44.9448L46.7022 37.2303L53.9781 37.294Z" fill="#B4BED7"/>
<path d="M54.6502 36.1531L58.975 43.8685L58.3059 45.0073L53.9801 37.2925L46.7039 37.2333L47.3691 36.085L54.6502 36.1531Z" fill="#9DA9C1"/>
<path d="M33.7848 38.8465L34.8768 40.7897C35.2376 41.4319 36.1329 41.9624 36.8783 41.9688L71.5257 42.2743C72.2651 42.2804 72.5758 41.7602 72.2155 41.119L71.123 39.1748L33.7848 38.8465Z" fill="#D3DBEA"/>
<path d="M52.4181 39.7938C52.9028 39.7981 53.4836 40.1432 53.7174 40.5593C53.9536 40.9797 53.7545 41.3137 53.2698 41.3095C52.7902 41.3053 52.2068 40.9643 51.9705 40.544C51.7367 40.1278 51.9385 39.7896 52.4181 39.7938Z" fill="#9DA9C1"/>
<path d="M71.1229 39.1752L72.2163 41.1213C72.3945 41.4363 72.4055 41.7229 72.2872 41.9312L73.0526 40.62C73.1751 40.4191 73.1599 40.1251 72.9817 39.8101L71.892 37.8705L71.1229 39.1752Z" fill="#B4BED7"/>
<path d="M61.2532 21.6158L71.127 39.176L33.7915 38.8449L23.9067 21.2916C23.5546 20.6429 23.8523 20.1181 24.6002 20.1262L59.2461 20.4328C59.9823 20.4467 60.8902 20.974 61.2532 21.6158Z" fill="#373F51"/>
<path d="M34.9887 38.8552L25.0149 21.1477L59.2381 21.4668C59.605 21.4738 60.173 21.8057 60.3533 22.1243L69.951 39.1874L34.9887 38.8552Z" fill="#7BB1FF"/>
<path d="M62.0151 20.307L62.7349 21.5794L71.8886 37.8667L71.1273 39.175L61.9557 22.8825L61.2534 21.6147C60.8904 20.973 59.9939 20.4393 59.2463 20.4317L24.6004 20.1252C24.2296 20.1266 23.9579 20.2506 23.8414 20.4652L24.6144 19.1512C24.7308 18.9365 24.9913 18.8189 25.3731 18.8106L60.019 19.1171C60.7555 19.1316 61.6633 19.6589 62.0151 20.307Z" fill="#4C5671"/>
<path d="M43.0826 24.7967C44.5805 24.8099 46.2754 25.4876 47.6119 26.5035C47.9224 26.3037 48.3425 26.1913 48.8609 26.1959C50.4949 26.2103 52.4683 27.372 53.2658 28.791C53.3138 28.8764 53.3568 28.9618 53.3934 29.0443C55.0132 28.8103 57.3392 30.0119 58.2384 31.6121C59.035 33.0297 58.3556 34.1681 56.72 34.1537C55.9883 34.1472 55.187 33.9094 54.4534 33.5219C53.9971 34.4007 52.8103 34.5071 51.8295 34.3401C51.0682 36.4818 47.2278 35.4341 45.2832 33.689C45.0284 33.7788 44.7291 33.8272 44.3862 33.8242C42.7505 33.8098 40.7803 32.6481 39.9829 31.229C39.2695 29.9595 39.7383 28.9141 41.0209 28.7214C40.9711 28.6445 40.9247 28.5677 40.8807 28.4894C39.7233 26.4299 40.7087 24.7758 43.0826 24.7967Z" fill="white"/>
<path d="M74.5107 52.1501L75.0769 53.1562L68.1226 65.0373L67.5564 64.0311L74.5107 52.1501Z" fill="#9DA9C1"/>
<path d="M67.557 64.0311L68.1232 65.0373L23.92 64.6475L23.3538 63.6413L67.557 64.0311Z" fill="#9DA9C1"/>
<path d="M74.5105 52.1485L67.5562 64.0295L23.353 63.6398L30.3073 51.7587L74.5105 52.1485Z" fill="#B4BED7"/>
<path d="M32.1739 53.3328L32.3845 53.7077L31.7741 54.7501L31.5635 54.3751L32.1739 53.3328Z" fill="#D3DBEA"/>
<path d="M31.564 54.3742L31.7747 54.7492L29.5887 54.7298L29.3781 54.3548L31.564 54.3742Z" fill="#D3DBEA"/>
<path d="M32.1752 53.3332L31.5648 54.3756L29.3788 54.3562L29.9881 53.3145L32.1752 53.3332Z" fill="white"/>
<path d="M35.1055 53.3582L35.3168 53.7342L34.7064 54.7766L34.4951 54.4005L35.1055 53.3582Z" fill="#D3DBEA"/>
<path d="M34.4957 54.3996L34.7069 54.7757L32.5203 54.7552L32.3097 54.3802L34.4957 54.3996Z" fill="#D3DBEA"/>
<path d="M35.1068 53.3586L34.4964 54.401L32.3104 54.3816L32.9197 53.3399L35.1068 53.3586Z" fill="white"/>
<path d="M38.038 53.3842L38.2487 53.7591L37.6394 54.8009L37.4287 54.4259L38.038 53.3842Z" fill="#D3DBEA"/>
<path d="M37.4294 54.4253L37.64 54.8002L35.4604 54.7817L35.2492 54.4056L37.4294 54.4253Z" fill="#D3DBEA"/>
<path d="M38.0394 53.3849L37.4301 54.4266L35.2499 54.407L35.8592 53.3653L38.0394 53.3849Z" fill="white"/>
<path d="M40.9766 53.4089L41.1873 53.7839L40.5769 54.8263L40.3662 54.4513L40.9766 53.4089Z" fill="#D3DBEA"/>
<path d="M40.3668 54.4504L40.5774 54.8253L38.3914 54.806L38.1808 54.431L40.3668 54.4504Z" fill="#D3DBEA"/>
<path d="M40.9779 53.4094L40.3675 54.4517L38.1815 54.4324L38.7908 53.3907L40.9779 53.4094Z" fill="white"/>
<path d="M43.9102 53.4363L44.1209 53.8113L43.5105 54.8536L43.2998 54.4786L43.9102 53.4363Z" fill="#D3DBEA"/>
<path d="M43.301 54.4788L43.5116 54.8538L41.3257 54.8344L41.1144 54.4584L43.301 54.4788Z" fill="#D3DBEA"/>
<path d="M43.9115 53.4367L43.3011 54.4791L41.1145 54.4586L41.7244 53.418L43.9115 53.4367Z" fill="white"/>
<path d="M46.8427 53.4604L47.054 53.8364L46.4441 54.877L46.2334 54.5021L46.8427 53.4604Z" fill="#D3DBEA"/>
<path d="M46.2335 54.5023L46.4441 54.8772L44.2645 54.8587L44.0538 54.4837L46.2335 54.5023Z" fill="#D3DBEA"/>
<path d="M46.8435 53.4619L46.2342 54.5036L44.0546 54.4851L44.6639 53.4434L46.8435 53.4619Z" fill="white"/>
<path d="M49.7813 53.4871L49.9926 53.8632L49.3822 54.9055L49.1709 54.5294L49.7813 53.4871Z" fill="#D3DBEA"/>
<path d="M49.1715 54.5285L49.3827 54.9046L47.1961 54.8841L46.9855 54.5091L49.1715 54.5285Z" fill="#D3DBEA"/>
<path d="M49.7826 53.4875L49.1722 54.5299L46.9862 54.5105L47.5955 53.4688L49.7826 53.4875Z" fill="white"/>
<path d="M52.713 53.5125L52.9236 53.8874L52.3132 54.9298L52.1026 54.5548L52.713 53.5125Z" fill="#D3DBEA"/>
<path d="M52.1031 54.5539L52.3137 54.9289L50.1278 54.9095L49.9171 54.5345L52.1031 54.5539Z" fill="#D3DBEA"/>
<path d="M52.7142 53.5129L52.1038 54.5552L49.9179 54.5359L50.5271 53.4942L52.7142 53.5129Z" fill="white"/>
<path d="M55.6454 53.5385L55.8561 53.9134L55.2468 54.9552L55.0355 54.5791L55.6454 53.5385Z" fill="#D3DBEA"/>
<path d="M55.0362 54.5784L55.2475 54.9545L53.0672 54.9349L52.8566 54.5599L55.0362 54.5784Z" fill="#D3DBEA"/>
<path d="M55.6468 53.5392L55.0369 54.5798L52.8573 54.5613L53.4666 53.5196L55.6468 53.5392Z" fill="white"/>
<path d="M63.6864 53.6107L63.8971 53.9857L63.2878 55.0274L63.0772 54.6525L63.6864 53.6107Z" fill="#D3DBEA"/>
<path d="M63.0769 54.6509L63.2875 55.0259L61.1004 55.0071L60.8898 54.6322L63.0769 54.6509Z" fill="#D3DBEA"/>
<path d="M63.6869 53.6106L63.0776 54.6523L60.8905 54.6336L61.5009 53.5912L63.6869 53.6106Z" fill="white"/>
<path d="M66.6161 53.6342L66.8274 54.0103L66.2181 55.052L66.0069 54.6759L66.6161 53.6342Z" fill="#D3DBEA"/>
<path d="M66.0074 54.675L66.2187 55.0511L64.0321 55.0306L63.8203 54.6562L66.0074 54.675Z" fill="#D3DBEA"/>
<path d="M66.6166 53.634L66.0073 54.6757L63.8202 54.657L64.4306 53.6146L66.6166 53.634Z" fill="white"/>
<path d="M69.5497 53.6615L69.7604 54.0365L69.1511 55.0782L68.9405 54.7032L69.5497 53.6615Z" fill="#D3DBEA"/>
<path d="M68.9411 54.7026L69.1518 55.0776L66.9721 55.059L66.7609 54.683L68.9411 54.7026Z" fill="#D3DBEA"/>
<path d="M69.5511 53.6623L68.9419 54.704L66.7616 54.6843L67.3709 53.6426L69.5511 53.6623Z" fill="white"/>
<path d="M72.4892 53.6869L72.6998 54.0619L72.0906 55.1036L71.8799 54.7286L72.4892 53.6869Z" fill="#D3DBEA"/>
<path d="M71.8796 54.7271L72.0902 55.102L69.9032 55.0833L69.6925 54.7084L71.8796 54.7271Z" fill="#D3DBEA"/>
<path d="M72.4896 53.6867L71.8803 54.7284L69.6933 54.7097L70.3036 53.6674L72.4896 53.6867Z" fill="white"/>
<path d="M62.8239 55.081L63.0345 55.456L62.0652 57.1117L61.8546 56.7367L62.8239 55.081Z" fill="#D3DBEA"/>
<path d="M61.855 56.7375L62.0657 57.1124L59.8797 57.0931L59.6691 56.7181L61.855 56.7375Z" fill="#D3DBEA"/>
<path d="M62.8252 55.0815L61.8558 56.7372L59.6699 56.7178L60.6381 55.0628L62.8252 55.0815Z" fill="white"/>
<path d="M65.7564 55.1071L65.967 55.482L64.9988 57.1371L64.7875 56.761L65.7564 55.1071Z" fill="#D3DBEA"/>
<path d="M64.7878 56.7622L64.9991 57.1383L62.8114 57.1185L62.6007 56.7435L64.7878 56.7622Z" fill="#D3DBEA"/>
<path d="M65.7574 55.108L64.7886 56.7619L62.6015 56.7432L63.5697 55.0882L65.7574 55.108Z" fill="white"/>
<path d="M68.69 55.1305L68.9006 55.5055L67.9324 57.1605L67.7218 56.7856L68.69 55.1305Z" fill="#D3DBEA"/>
<path d="M67.7224 56.7866L67.933 57.1616L65.7534 57.143L65.5421 56.7669L67.7224 56.7866Z" fill="#D3DBEA"/>
<path d="M68.6907 55.1321L67.7225 56.7871L65.5423 56.7675L66.5111 55.1136L68.6907 55.1321Z" fill="white"/>
<path d="M71.6286 55.1572L71.8399 55.5333L70.8699 57.1879L70.6593 56.8129L71.6286 55.1572Z" fill="#D3DBEA"/>
<path d="M70.6597 56.8136L70.8704 57.1886L68.6844 57.1693L68.4738 56.7943L70.6597 56.8136Z" fill="#D3DBEA"/>
<path d="M71.6298 55.1577L70.6605 56.8133L68.4746 56.794L69.4428 55.1389L71.6298 55.1577Z" fill="white"/>
<path d="M61.6037 57.1645L61.8144 57.5394L60.8419 59.1999L60.6312 58.8249L61.6037 57.1645Z" fill="#D3DBEA"/>
<path d="M60.6324 58.8254L60.843 59.2003L58.6571 59.181L58.4464 58.806L60.6324 58.8254Z" fill="#D3DBEA"/>
<path d="M61.605 57.1649L60.6325 58.8253L58.4465 58.806L59.4179 57.1462L61.605 57.1649Z" fill="white"/>
<path d="M64.5373 57.1899L64.7486 57.5659L63.7761 59.2264L63.5654 58.8514L64.5373 57.1899Z" fill="#D3DBEA"/>
<path d="M63.566 58.8508L63.7766 59.2257L61.5907 59.2064L61.38 58.8314L63.566 58.8508Z" fill="#D3DBEA"/>
<path d="M64.5386 57.1903L63.5667 58.8518L61.3807 58.8325L62.3515 57.1716L64.5386 57.1903Z" fill="white"/>
<path d="M67.469 57.2152L67.6796 57.5902L66.7077 59.2518L66.4965 58.8757L67.469 57.2152Z" fill="#D3DBEA"/>
<path d="M66.4971 58.8753L66.7084 59.2514L64.5282 59.2318L64.3175 58.8568L66.4971 58.8753Z" fill="#D3DBEA"/>
<path d="M67.4704 57.216L66.4979 58.8764L64.3182 58.8579L65.2901 57.1963L67.4704 57.216Z" fill="white"/>
<path d="M70.4084 57.2426L70.6191 57.6176L69.6472 59.2791L69.4359 58.903L70.4084 57.2426Z" fill="#D3DBEA"/>
<path d="M69.4371 58.9035L69.6483 59.2796L67.4624 59.2602L67.2511 58.8841L69.4371 58.9035Z" fill="#D3DBEA"/>
<path d="M70.4097 57.243L69.4372 58.9035L67.2512 58.8841L68.2226 57.2243L70.4097 57.243Z" fill="white"/>
<path d="M60.3814 59.2555L60.5926 59.6316L59.6238 61.2855L59.4132 60.9106L60.3814 59.2555Z" fill="#D3DBEA"/>
<path d="M59.4128 60.9107L59.6234 61.2856L57.4364 61.2669L57.2257 60.8919L59.4128 60.9107Z" fill="#D3DBEA"/>
<path d="M60.3818 59.2553L59.4136 60.9104L57.2265 60.8917L58.1958 59.236L60.3818 59.2553Z" fill="white"/>
<path d="M63.313 59.2809L63.5237 59.6559L62.5554 61.3109L62.3448 60.9359L63.313 59.2809Z" fill="#D3DBEA"/>
<path d="M62.3453 60.9367L62.5559 61.3117L60.37 61.2923L60.1593 60.9173L62.3453 60.9367Z" fill="#D3DBEA"/>
<path d="M63.3143 59.2813L62.3461 60.9364L60.1601 60.917L61.1283 59.262L63.3143 59.2813Z" fill="white"/>
<path d="M66.2477 59.3037L66.459 59.6798L65.4897 61.3355L65.2784 60.9594L66.2477 59.3037Z" fill="#D3DBEA"/>
<path d="M65.2784 60.9613L65.4897 61.3373L63.3094 61.3177L63.0988 60.9427L65.2784 60.9613Z" fill="#D3DBEA"/>
<path d="M66.2485 59.3053L65.2792 60.961L63.0996 60.9424L64.0689 59.2868L66.2485 59.3053Z" fill="white"/>
<path d="M62.094 61.3637L62.3046 61.7387L61.3321 63.3991L61.1215 63.0241L62.094 61.3637Z" fill="#D3DBEA"/>
<path d="M61.1216 63.0256L61.3323 63.4006L56.2143 63.3559L56.0031 62.9798L61.1216 63.0256Z" fill="#D3DBEA"/>
<path d="M62.0943 61.3652L61.1217 63.0256L56.0032 62.9798L56.9757 61.3194L62.0943 61.3652Z" fill="white"/>
<path d="M65.0265 61.3877L65.2377 61.7638L64.2663 63.4236L64.0557 63.0487L65.0265 61.3877Z" fill="#D3DBEA"/>
<path d="M64.0564 63.0503L64.267 63.4252L62.0868 63.4056L61.8761 63.0306L64.0564 63.0503Z" fill="#D3DBEA"/>
<path d="M65.0272 61.3893L64.0565 63.0502L61.8762 63.0306L62.8476 61.3708L65.0272 61.3893Z" fill="white"/>
<path d="M58.586 53.5652L58.7966 53.9402L58.1863 54.9825L57.9756 54.6075L58.586 53.5652Z" fill="#D3DBEA"/>
<path d="M57.9768 54.6077L58.1874 54.9827L56.0014 54.9633L55.7902 54.5873L57.9768 54.6077Z" fill="#D3DBEA"/>
<path d="M58.5873 53.5656L57.9769 54.608L55.7903 54.5875L56.4002 53.5469L58.5873 53.5656Z" fill="white"/>
<path d="M32.402 54.8135L32.6127 55.1884L31.6433 56.8441L31.4321 56.468L32.402 54.8135Z" fill="#D3DBEA"/>
<path d="M31.4323 56.4692L31.6435 56.8452L28.368 56.8157L28.1574 56.4408L31.4323 56.4692Z" fill="#D3DBEA"/>
<path d="M32.403 54.8143L31.433 56.4689L28.1581 56.4405L29.1264 54.7854L32.403 54.8143Z" fill="white"/>
<path d="M35.3345 54.8375L35.5458 55.2136L34.5769 56.8676L34.3663 56.4926L35.3345 54.8375Z" fill="#D3DBEA"/>
<path d="M34.3669 56.4936L34.5775 56.8686L32.3979 56.8501L32.1867 56.474L34.3669 56.4936Z" fill="#D3DBEA"/>
<path d="M35.3353 54.8391L34.3671 56.4942L32.1868 56.4745L33.1557 54.8206L35.3353 54.8391Z" fill="white"/>
<path d="M38.272 54.8649L38.4844 55.2403L37.5144 56.8949L37.3038 56.5199L38.272 54.8649Z" fill="#D3DBEA"/>
<path d="M37.3043 56.5207L37.5149 56.8956L35.3289 56.8763L35.1183 56.5013L37.3043 56.5207Z" fill="#D3DBEA"/>
<path d="M38.2733 54.8653L37.305 56.5204L35.1191 56.501L36.0873 54.846L38.2733 54.8653Z" fill="white"/>
<path d="M41.2067 54.8896L41.4173 55.2646L40.448 56.9203L40.2374 56.5453L41.2067 54.8896Z" fill="#D3DBEA"/>
<path d="M40.2379 56.5461L40.4485 56.921L38.2625 56.9017L38.0519 56.5267L40.2379 56.5461Z" fill="#D3DBEA"/>
<path d="M41.208 54.8901L40.2386 56.5458L38.0527 56.5264L39.0209 54.8714L41.208 54.8901Z" fill="white"/>
<path d="M44.1392 54.9157L44.3498 55.2906L43.3816 56.9457L43.1703 56.5696L44.1392 54.9157Z" fill="#D3DBEA"/>
<path d="M43.171 56.5706L43.3822 56.9467L41.202 56.9271L40.9913 56.5521L43.171 56.5706Z" fill="#D3DBEA"/>
<path d="M44.1406 54.9164L43.1717 56.5703L40.9921 56.5518L41.9603 54.8968L44.1406 54.9164Z" fill="white"/>
<path d="M47.0767 54.943L47.2884 55.3173L46.3191 56.973L46.1078 56.5969L47.0767 54.943Z" fill="#D3DBEA"/>
<path d="M46.109 56.5968L46.3202 56.9729L44.1343 56.9536L43.923 56.5775L46.109 56.5968Z" fill="#D3DBEA"/>
<path d="M47.0779 54.9435L46.1091 56.5974L43.9231 56.578L44.892 54.9241L47.0779 54.9435Z" fill="white"/>
<path d="M50.0103 54.9684L50.2216 55.3445L49.2527 56.9984L49.041 56.6241L50.0103 54.9684Z" fill="#D3DBEA"/>
<path d="M49.0406 56.6242L49.2523 56.9985L47.0653 56.9798L46.8546 56.6048L49.0406 56.6242Z" fill="#D3DBEA"/>
<path d="M50.0107 54.9682L49.0414 56.6239L46.8554 56.6045L47.8236 54.9495L50.0107 54.9682Z" fill="white"/>
<path d="M57.7232 55.0368L57.9338 55.4117L56.9656 57.0668L56.755 56.6918L57.7232 55.0368Z" fill="#D3DBEA"/>
<path d="M56.7557 56.6923L56.9663 57.0672L50.0047 57.0052L49.7941 56.6302L56.7557 56.6923Z" fill="#D3DBEA"/>
<path d="M57.7247 55.0369L56.7565 56.692L49.7949 56.6299L50.7631 54.9749L57.7247 55.0369Z" fill="white"/>
<path d="M33.0245 56.9131L33.2358 57.2892L32.2644 58.949L32.0537 58.5741L33.0245 56.9131Z" fill="#D3DBEA"/>
<path d="M32.0544 58.5738L32.265 58.9488L27.1453 58.9036L26.9347 58.5287L32.0544 58.5738Z" fill="#D3DBEA"/>
<path d="M33.0253 56.9129L32.0545 58.5738L26.9348 58.5286L27.9073 56.8682L33.0253 56.9129Z" fill="white"/>
<path d="M35.9573 56.9379L36.1679 57.3129L35.196 58.9744L34.9847 58.5983L35.9573 56.9379Z" fill="#D3DBEA"/>
<path d="M34.9854 58.598L35.1967 58.9741L33.0164 58.9544L32.8058 58.5794L34.9854 58.598Z" fill="#D3DBEA"/>
<path d="M35.9587 56.9386L34.9861 58.5991L32.8065 58.5805L33.7784 56.919L35.9587 56.9386Z" fill="white"/>
<path d="M38.8956 56.9659L39.1062 57.3408L38.1355 59.0018L37.9231 58.6263L38.8956 56.9659Z" fill="#D3DBEA"/>
<path d="M37.9234 58.6261L38.1358 59.0016L35.9487 58.9829L35.7374 58.6068L37.9234 58.6261Z" fill="#D3DBEA"/>
<path d="M38.896 56.9657L37.9235 58.6261L35.7375 58.6068L36.7101 56.9463L38.896 56.9657Z" fill="white"/>
<path d="M41.8292 56.9913L42.0398 57.3662L41.0684 59.026L40.8578 58.6511L41.8292 56.9913Z" fill="#D3DBEA"/>
<path d="M40.8581 58.6509L41.0688 59.0259L38.8817 59.0071L38.671 58.6322L40.8581 58.6509Z" fill="#D3DBEA"/>
<path d="M41.8296 56.9911L40.8582 58.6509L38.6711 58.6322L39.6436 56.9717L41.8296 56.9911Z" fill="white"/>
<path d="M44.7619 57.0141L44.9732 57.3902L44.0007 59.0506L43.7901 58.6756L44.7619 57.0141Z" fill="#D3DBEA"/>
<path d="M43.7907 58.6772L44.0014 59.0522L41.8211 59.0325L41.6105 58.6576L43.7907 58.6772Z" fill="#D3DBEA"/>
<path d="M44.7627 57.0157L43.7908 58.6772L41.6106 58.6576L42.5831 56.9971L44.7627 57.0157Z" fill="white"/>
<path d="M28.8688 58.9756L29.0801 59.3517L28.1101 61.0062L27.8995 60.6313L28.8688 58.9756Z" fill="#D3DBEA"/>
<path d="M27.9 60.632L28.1106 61.007L25.9246 60.9876L25.714 60.6127L27.9 60.632Z" fill="#D3DBEA"/>
<path d="M28.8701 58.976L27.9008 60.6317L25.7148 60.6124L26.683 58.9573L28.8701 58.976Z" fill="white"/>
<path d="M31.8005 59.0029L32.0111 59.3779L31.0418 61.0336L30.8311 60.6586L31.8005 59.0029Z" fill="#D3DBEA"/>
<path d="M30.8316 60.6593L31.0422 61.0343L28.8563 61.015L28.6456 60.64L30.8316 60.6593Z" fill="#D3DBEA"/>
<path d="M31.8017 59.0034L30.8324 60.6591L28.6464 60.6397L29.6158 58.984L31.8017 59.0034Z" fill="white"/>
<path d="M34.7329 59.027L34.9442 59.4031L33.976 61.0581L33.7647 60.682L34.7329 59.027Z" fill="#D3DBEA"/>
<path d="M33.7647 60.6839L33.976 61.06L31.7957 61.0404L31.5851 60.6654L33.7647 60.6839Z" fill="#D3DBEA"/>
<path d="M34.7337 59.0286L33.7655 60.6836L31.5859 60.6651L32.5541 59.01L34.7337 59.0286Z" fill="white"/>
<path d="M37.6755 59.0537L37.8861 59.4287L36.9168 61.0843L36.7055 60.7083L37.6755 59.0537Z" fill="#D3DBEA"/>
<path d="M36.7047 60.7101L36.9159 61.0862L34.73 61.0669L34.5187 60.6908L36.7047 60.7101Z" fill="#D3DBEA"/>
<path d="M37.6754 59.0553L36.7054 60.7098L34.5195 60.6905L35.4877 59.0354L37.6754 59.0553Z" fill="white"/>
<path d="M40.6051 59.0791L40.8158 59.4541L39.8465 61.1097L39.6358 60.7348L40.6051 59.0791Z" fill="#D3DBEA"/>
<path d="M39.6363 60.7355L39.8469 61.1105L37.661 61.0911L37.4503 60.7162L39.6363 60.7355Z" fill="#D3DBEA"/>
<path d="M40.6064 59.0795L39.6371 60.7352L37.4511 60.7159L38.4204 59.0602L40.6064 59.0795Z" fill="white"/>
<path d="M43.5376 59.1051L43.7483 59.4801L42.7801 61.1351L42.5694 60.7602L43.5376 59.1051Z" fill="#D3DBEA"/>
<path d="M42.57 60.7612L42.7807 61.1362L40.6004 61.1165L40.3898 60.7416L42.57 60.7612Z" fill="#D3DBEA"/>
<path d="M43.539 59.1059L42.5708 60.7609L40.3906 60.7413L41.3588 59.0862L43.539 59.1059Z" fill="white"/>
<path d="M47.7003 57.042L47.9116 57.4181L46.9401 59.0779L46.7284 58.7036L47.7003 57.042Z" fill="#D3DBEA"/>
<path d="M46.7281 58.7023L46.9398 59.0767L44.7528 59.0579L44.5421 58.683L46.7281 58.7023Z" fill="#D3DBEA"/>
<path d="M47.7007 57.0419L46.7288 58.7034L44.5429 58.6841L45.5147 57.0225L47.7007 57.0419Z" fill="white"/>
<path d="M50.6339 57.0694L50.8445 57.4444L49.8737 59.1053L49.6625 58.7292L50.6339 57.0694Z" fill="#D3DBEA"/>
<path d="M49.6628 58.729L49.8741 59.1051L47.6864 59.0853L47.4757 58.7103L49.6628 58.729Z" fill="#D3DBEA"/>
<path d="M50.6343 57.0692L49.6629 58.729L47.4758 58.7103L48.4483 57.0499L50.6343 57.0692Z" fill="white"/>
<path d="M46.4782 59.1318L46.6888 59.5068L45.7195 61.1625L45.5089 60.7875L46.4782 59.1318Z" fill="#D3DBEA"/>
<path d="M45.5093 60.7883L45.72 61.1632L43.534 61.1439L43.3234 60.7689L45.5093 60.7883Z" fill="#D3DBEA"/>
<path d="M46.4795 59.1323L45.5101 60.788L43.3242 60.7686L44.2924 59.1136L46.4795 59.1323Z" fill="white"/>
<path d="M56.505 57.1202L56.7156 57.4951L55.7442 59.1549L55.5325 58.7806L56.505 57.1202Z" fill="#D3DBEA"/>
<path d="M55.5338 58.7815L55.7455 59.1558L50.6264 59.1118L50.4152 58.7357L55.5338 58.7815Z" fill="#D3DBEA"/>
<path d="M56.5064 57.121L55.5338 58.7814L50.4153 58.7357L51.3878 57.0752L56.5064 57.121Z" fill="white"/>
<path d="M52.3423 59.1832L52.553 59.5582L51.5847 61.2133L51.3741 60.8383L52.3423 59.1832Z" fill="#D3DBEA"/>
<path d="M51.3747 60.8393L51.5854 61.2143L49.4057 61.1958L49.1945 60.8197L51.3747 60.8393Z" fill="#D3DBEA"/>
<path d="M52.3437 59.184L51.3755 60.839L49.1953 60.8194L50.1635 59.1643L52.3437 59.184Z" fill="white"/>
<path d="M30.5823 61.0863L30.7929 61.4613L29.8204 63.1217L29.6097 62.7468L30.5823 61.0863Z" fill="#D3DBEA"/>
<path d="M29.611 62.7476L29.8217 63.1226L24.7026 63.0786L24.4913 62.7025L29.611 62.7476Z" fill="#D3DBEA"/>
<path d="M30.5836 61.0872L29.6111 62.7476L24.4914 62.7025L25.464 61.042L30.5836 61.0872Z" fill="white"/>
<path d="M42.4475 61.1918L42.6588 61.5679L41.6862 63.2283L41.4756 62.8534L42.4475 61.1918Z" fill="#D3DBEA"/>
<path d="M41.4769 62.8534L41.6875 63.2284L30.5731 63.1302L30.3624 62.7552L41.4769 62.8534Z" fill="#D3DBEA"/>
<path d="M42.4489 61.1919L41.477 62.8534L30.3625 62.7552L31.3351 61.0948L42.4489 61.1919Z" fill="white"/>
<path d="M45.2569 61.2178L45.4687 61.5922L44.4962 63.2526L44.2855 62.8776L45.2569 61.2178Z" fill="#D3DBEA"/>
<path d="M44.2858 62.8775L44.4965 63.2524L42.3094 63.2337L42.0988 62.8587L44.2858 62.8775Z" fill="#D3DBEA"/>
<path d="M45.2573 61.2176L44.2859 62.8775L42.0989 62.8587L43.0714 61.1983L45.2573 61.2176Z" fill="white"/>
<path d="M48.1897 61.2406L48.401 61.6167L47.4284 63.2772L47.2178 62.9022L48.1897 61.2406Z" fill="#D3DBEA"/>
<path d="M47.2183 62.9015L47.429 63.2765L45.243 63.2572L45.0324 62.8822L47.2183 62.9015Z" fill="#D3DBEA"/>
<path d="M48.1909 61.2411L47.219 62.9026L45.0331 62.8833L46.0039 61.2224L48.1909 61.2411Z" fill="white"/>
<path d="M51.1213 61.268L51.332 61.6429L50.3601 63.3045L50.1488 62.9284L51.1213 61.268Z" fill="#D3DBEA"/>
<path d="M50.1495 62.9281L50.3608 63.3041L48.1805 63.2845L47.9699 62.9095L50.1495 62.9281Z" fill="#D3DBEA"/>
<path d="M51.1227 61.2687L50.1502 62.9292L47.9706 62.9106L48.9425 61.2491L51.1227 61.2687Z" fill="white"/>
<path d="M54.0616 61.294L54.2734 61.6683L53.3015 63.3299L53.0902 62.9538L54.0616 61.294Z" fill="#D3DBEA"/>
<path d="M53.0905 62.9536L53.3018 63.3297L51.1147 63.311L50.9035 62.9349L53.0905 62.9536Z" fill="#D3DBEA"/>
<path d="M54.062 61.2938L53.0906 62.9536L50.9035 62.9349L51.8761 61.2745L54.062 61.2938Z" fill="white"/>
<path d="M69.1865 59.3319L69.3971 59.7069L67.2049 63.4513L66.9943 63.0764L69.1865 59.3319Z" fill="#D3DBEA"/>
<path d="M66.9937 63.0773L67.2044 63.4523L65.0184 63.4329L64.8078 63.058L66.9937 63.0773Z" fill="#D3DBEA"/>
<path d="M69.1864 59.3335L66.9942 63.0779L64.8083 63.0586L66.9998 59.313L69.1864 59.3335Z" fill="white"/>
</g>
<defs>
<clipPath id="clip0_1974_45990">
<rect width="64" height="64" fill="white" transform="translate(0 31.5117) rotate(-29.4956)"/>
</clipPath>
</defs>
</svg>
