<svg width="17" height="17" viewBox="0 0 17 17" fill="none" xmlns="http://www.w3.org/2000/svg">
<g id="devicon:facebook" clip-path="url(#clip0_2755_29890)">
<path id="Vector" d="M15.247 0.93689H2.08578C1.63498 0.93689 1.26953 1.30234 1.26953 1.75314V14.9144C1.26953 15.3652 1.63498 15.7306 2.08578 15.7306H15.247C15.6978 15.7306 16.0633 15.3652 16.0633 14.9144V1.75314C16.0633 1.30234 15.6978 0.93689 15.247 0.93689Z" fill="#3D5A98"/>
<path id="Vector_2" d="M11.4766 15.7296V10.0009H13.3991L13.6866 7.76838H11.4766V6.34338C11.4766 5.69713 11.6566 5.25588 12.5829 5.25588H13.7654V3.25588C13.1928 3.1962 12.6173 3.16782 12.0416 3.17088C10.3391 3.17088 9.16664 4.20838 9.16664 6.12213V7.76838H7.24414V10.0009H9.16664V15.7296H11.4766Z" fill="#D5D5D5"/>
</g>
<defs>
<clipPath id="clip0_2755_29890">
<rect width="16" height="16" fill="white" transform="translate(0.667969 0.333435)"/>
</clipPath>
</defs>
</svg>
