<svg width="90" height="92" viewBox="0 0 90 92" fill="none" xmlns="http://www.w3.org/2000/svg">
<path d="M18.75 79.7084V74.0209H38.25V64.1626H36.8438C31.7812 64.1626 27.5 62.3931 24 58.8543C20.5 55.3154 18.75 50.9865 18.75 45.8678C18.75 42.0129 19.7969 38.5214 21.8906 35.3933C23.9844 32.2652 26.9063 30.0376 30.6563 28.7105C30.9063 26.3091 32.0156 24.2869 33.9844 22.6438C35.9531 21.0008 38.1875 20.274 40.6875 20.4636L38.7188 14.8709L42.5625 13.449L41.25 9.94175L47.4375 7.66675L48.75 11.174L52.5 9.84696L63.0938 37.8105L59.0625 39.2324L60.375 42.7397L54.375 44.9199L53.0625 41.4126L49.0313 42.9293L46.6875 36.4834C45.75 37.5577 44.6406 38.3319 43.3594 38.8058C42.0781 39.2798 40.7188 39.4852 39.2813 39.422C37.7813 39.3588 36.2969 38.8532 34.8281 37.9053C33.3594 36.9574 32.25 35.7567 31.5 34.3032C29.125 35.3775 27.3438 36.9732 26.1562 39.0902C24.9688 41.2072 24.375 43.4664 24.375 45.8678C24.375 49.4067 25.5781 52.3926 27.9844 54.8256C30.3906 57.2586 33.3438 58.4751 36.8438 58.4751H69.375V64.1626H47.625V74.0209H71.25V79.7084H18.75ZM52.125 36.8626L57.0938 35.0615L49.5938 15.5345L44.625 17.3355L52.125 36.8626ZM39.9375 34.6824C41.25 34.6824 42.3594 34.2242 43.2656 33.3079C44.1719 32.3916 44.625 31.2699 44.625 29.9428C44.625 28.6157 44.1719 27.494 43.2656 26.5777C42.3594 25.6614 41.25 25.2032 39.9375 25.2032C38.625 25.2032 37.5156 25.6614 36.6094 26.5777C35.7031 27.494 35.25 28.6157 35.25 29.9428C35.25 31.2699 35.7031 32.3916 36.6094 33.3079C37.5156 34.2242 38.625 34.6824 39.9375 34.6824Z" fill="#202020"/>
</svg>
