<svg width="84" height="85" viewBox="0 0 84 85" fill="none" xmlns="http://www.w3.org/2000/svg">
<path d="M27.475 64.1334H31.85V56.4334H39.55V52.0584H31.85V44.3584H27.475V52.0584H19.775V56.4334H27.475V64.1334ZM46.2875 61.0709H63.875V56.7834H46.2875V61.0709ZM46.2875 51.7084H63.875V47.3334H46.2875V51.7084ZM49.525 37.4459L54.8625 32.1084L60.2 37.4459L63.35 34.2959L58.0125 28.9584L63.35 23.6209L60.2 20.4709L54.8625 25.8084L49.525 20.4709L46.375 23.6209L51.7125 28.9584L46.375 34.2959L49.525 37.4459ZM21.0875 31.1459H38.2375V26.7709H21.0875V31.1459ZM15.75 73.5834C14.35 73.5834 13.125 73.0584 12.075 72.0084C11.025 70.9584 10.5 69.7334 10.5 68.3334V15.8334C10.5 14.4334 11.025 13.2084 12.075 12.1584C13.125 11.1084 14.35 10.5834 15.75 10.5834H68.25C69.65 10.5834 70.875 11.1084 71.925 12.1584C72.975 13.2084 73.5 14.4334 73.5 15.8334V68.3334C73.5 69.7334 72.975 70.9584 71.925 72.0084C70.875 73.0584 69.65 73.5834 68.25 73.5834H15.75ZM15.75 68.3334H68.25V15.8334H15.75V68.3334ZM15.75 15.8334V68.3334V15.8334Z" fill="#202020"/>
</svg>
