<svg width="84" height="83" viewBox="0 0 84 83" fill="none" xmlns="http://www.w3.org/2000/svg">
<path d="M39.4625 72.625V65.3625C36.1375 64.7861 33.4104 63.5325 31.2812 61.6016C29.1521 59.6707 27.6208 57.2354 26.6875 54.2958L31.5875 52.3073C32.5792 55.074 34.0083 57.1345 35.875 58.4891C37.7417 59.8436 39.9875 60.5208 42.6125 60.5208C45.4125 60.5208 47.7167 59.8292 49.525 58.4458C51.3333 57.0625 52.2375 55.1604 52.2375 52.7396C52.2375 50.2035 51.4354 48.2438 49.8313 46.8604C48.2271 45.4771 45.2083 44.0649 40.775 42.624C36.575 41.2983 33.4396 39.5403 31.3687 37.35C29.2979 35.1597 28.2625 32.4219 28.2625 29.1365C28.2625 25.9663 29.2979 23.3149 31.3687 21.1823C33.4396 19.0497 36.1375 17.8392 39.4625 17.551V10.375H44.7125V17.551C47.3375 17.8392 49.5979 18.6894 51.4937 20.1016C53.3896 21.5137 54.8333 23.3149 55.825 25.5052L50.925 27.5802C50.1083 25.7358 49.0146 24.3957 47.6438 23.5599C46.2729 22.7241 44.4792 22.3062 42.2625 22.3062C39.5792 22.3062 37.45 22.9115 35.875 24.1219C34.3 25.3323 33.5125 26.975 33.5125 29.05C33.5125 31.2403 34.3875 33.0127 36.1375 34.3672C37.8875 35.7217 41.125 37.1194 45.85 38.5604C49.8167 39.7708 52.7479 41.5144 54.6438 43.7911C56.5396 46.0679 57.4875 48.9354 57.4875 52.3937C57.4875 56.025 56.4083 58.9502 54.25 61.1693C52.0917 63.3884 48.9125 64.8149 44.7125 65.449V72.625H39.4625Z" fill="#202020"/>
</svg>
