<svg width="65" height="66" viewBox="0 0 65 66" fill="none" xmlns="http://www.w3.org/2000/svg">
<g clip-path="url(#clip0_6204_24117)">
<path d="M30.4688 21.0548H34.5312V37.3048H30.4688V21.0548ZM40.625 29.1798H44.6875V37.3048H40.625V29.1798ZM20.3125 25.1173H24.375V37.3048H20.3125V25.1173Z" fill="#2A72DE" fill-opacity="0.35"/>
<g filter="url(#filter0_d_6204_24117)">
<path d="M50.7812 8.86726H34.5312V4.80476H30.4688V8.86726H14.2188C13.1413 8.86726 12.108 9.29528 11.3461 10.0571C10.5843 10.819 10.1563 11.8523 10.1562 12.9298V41.3673C10.1563 42.4447 10.5843 43.478 11.3461 44.2399C12.108 45.0018 13.1413 45.4298 14.2188 45.4298H30.4688V57.6173H22.3438V61.6798H42.6562V57.6173H34.5312V45.4298H50.7812C51.8587 45.4298 52.892 45.0018 53.6539 44.2399C54.4157 43.478 54.8438 42.4447 54.8438 41.3673V12.9298C54.8438 11.8523 54.4157 10.819 53.6539 10.0571C52.892 9.29528 51.8587 8.86726 50.7812 8.86726ZM50.7812 41.3673H14.2188V12.9298H50.7812V41.3673Z" fill="#2A72DE" fill-opacity="0.35" shape-rendering="crispEdges"/>
</g>
</g>
<defs>
<filter id="filter0_d_6204_24117" x="6.15625" y="2.80476" width="52.6875" height="64.875" filterUnits="userSpaceOnUse" color-interpolation-filters="sRGB">
<feFlood flood-opacity="0" result="BackgroundImageFix"/>
<feColorMatrix in="SourceAlpha" type="matrix" values="0 0 0 0 0 0 0 0 0 0 0 0 0 0 0 0 0 0 127 0" result="hardAlpha"/>
<feOffset dy="2"/>
<feGaussianBlur stdDeviation="2"/>
<feComposite in2="hardAlpha" operator="out"/>
<feColorMatrix type="matrix" values="0 0 0 0 0 0 0 0 0 0 0 0 0 0 0 0 0 0 0.25 0"/>
<feBlend mode="normal" in2="BackgroundImageFix" result="effect1_dropShadow_6204_24117"/>
<feBlend mode="normal" in="SourceGraphic" in2="effect1_dropShadow_6204_24117" result="shape"/>
</filter>
<clipPath id="clip0_6204_24117">
<rect width="65" height="65" fill="white" transform="translate(0 0.742264)"/>
</clipPath>
</defs>
</svg>
