<svg width="50" height="50" viewBox="0 0 50 50" fill="none" xmlns="http://www.w3.org/2000/svg">
<path d="M25 3.125C12.9199 3.125 3.125 12.9199 3.125 25C3.125 37.0801 12.9199 46.875 25 46.875C37.0801 46.875 46.875 37.0801 46.875 25C46.875 12.9199 37.0801 3.125 25 3.125ZM25 37.6953C23.9209 37.6953 23.0469 36.8213 23.0469 35.7422C23.0469 34.6631 23.9209 33.7891 25 33.7891C26.0791 33.7891 26.9531 34.6631 26.9531 35.7422C26.9531 36.8213 26.0791 37.6953 25 37.6953ZM28.0713 26.9775C27.6291 27.1483 27.2486 27.4483 26.9795 27.8386C26.7103 28.2288 26.565 28.691 26.5625 29.165V30.2734C26.5625 30.4883 26.3867 30.6641 26.1719 30.6641H23.8281C23.6133 30.6641 23.4375 30.4883 23.4375 30.2734V29.2236C23.4375 28.0957 23.7646 26.9824 24.4092 26.0547C25.0391 25.1465 25.918 24.4531 26.9531 24.0576C28.6133 23.418 29.6875 22.0264 29.6875 20.5078C29.6875 18.3545 27.583 16.6016 25 16.6016C22.417 16.6016 20.3125 18.3545 20.3125 20.5078V20.8789C20.3125 21.0938 20.1367 21.2695 19.9219 21.2695H17.5781C17.3633 21.2695 17.1875 21.0938 17.1875 20.8789V20.5078C17.1875 18.5889 18.0273 16.7969 19.5508 15.4639C21.0156 14.1797 22.9492 13.4766 25 13.4766C27.0508 13.4766 28.9844 14.1846 30.4492 15.4639C31.9727 16.7969 32.8125 18.5889 32.8125 20.5078C32.8125 23.3301 30.9522 25.8691 28.0713 26.9775Z" fill="#AFC8EE"/>
</svg>
