<svg width="89" height="18" viewBox="0 0 89 18" fill="none" xmlns="http://www.w3.org/2000/svg">
<path d="M13.44 17.24C12.56 17.24 11.76 16.984 11.04 16.472C10.32 15.944 9.568 15.04 8.784 13.76L6.384 9.752H5.424V17H2.28V4.28C2.28 3.464 2.168 2.864 1.944 2.48C1.72 2.08 1.272 1.88 0.6 1.88H0.36V1.16H6.984C8.648 1.16 10.144 1.464 11.472 2.072C12.8 2.68 13.464 3.848 13.464 5.576C13.464 7.576 12.168 8.904 9.576 9.56L12.096 13.76C13.04 15.344 14.032 16.224 15.072 16.4V17C14.944 17.064 14.712 17.12 14.376 17.168C14.04 17.216 13.728 17.24 13.44 17.24ZM6.864 8.792C7.76 8.792 8.52 8.528 9.144 8C9.784 7.456 10.104 6.608 10.104 5.456C10.104 4.32 9.792 3.48 9.168 2.936C8.544 2.392 7.816 2.12 6.984 2.12C6.52 2.12 6.16 2.152 5.904 2.216L5.424 2.288V8.792H6.864ZM17.0691 4.28C17.0691 3.464 16.9571 2.864 16.7331 2.48C16.5091 2.08 16.0611 1.88 15.3891 1.88H15.1491V1.16H25.7331C27.0931 1.16 27.7731 1.8 27.7731 3.08V5.12H27.0531C27.0531 4.128 26.7971 3.4 26.2851 2.936C25.7891 2.472 25.0451 2.24 24.0531 2.24H20.1891V8.24H26.4291V9.32H20.1891V15.92H24.2931C25.2051 15.92 25.9651 15.72 26.5731 15.32C27.1811 14.904 27.6851 14.192 28.0851 13.184L28.7331 13.424L28.0371 15.32C27.8291 15.896 27.5811 16.32 27.2931 16.592C27.0051 16.864 26.5571 17 25.9491 17H17.0691V4.28ZM30.7637 3.968C30.3957 3.088 30.0277 2.464 29.6597 2.096C29.3077 1.728 28.8837 1.512 28.3877 1.448V0.967999L29.3957 0.92C30.4517 0.92 31.3797 1.12 32.1797 1.52C32.9797 1.92 33.6357 2.736 34.1477 3.968L37.9397 12.944L43.0037 1.16H44.2277L37.3157 17.24H36.3557L30.7637 3.968ZM46.6941 4.28C46.6941 3.464 46.5821 2.864 46.3581 2.48C46.1341 2.08 45.6861 1.88 45.0141 1.88H44.7741V1.16H55.3581C56.7181 1.16 57.3981 1.8 57.3981 3.08V5.12H56.6781C56.6781 4.128 56.4221 3.4 55.9101 2.936C55.4141 2.472 54.6701 2.24 53.6781 2.24H49.8141V8.24H56.0541V9.32H49.8141V15.92H53.9181C54.8301 15.92 55.5901 15.72 56.1981 15.32C56.8061 14.904 57.3101 14.192 57.7101 13.184L58.3581 13.424L57.6621 15.32C57.4541 15.896 57.2061 16.32 56.9181 16.592C56.6301 16.864 56.1821 17 55.5741 17H46.6941V4.28ZM72.2447 17.24C71.3647 17.24 70.5647 16.984 69.8447 16.472C69.1247 15.944 68.3727 15.04 67.5887 13.76L65.1887 9.752H64.2287V17H61.0847V4.28C61.0847 3.464 60.9727 2.864 60.7487 2.48C60.5247 2.08 60.0767 1.88 59.4047 1.88H59.1647V1.16H65.7887C67.4527 1.16 68.9487 1.464 70.2767 2.072C71.6047 2.68 72.2687 3.848 72.2687 5.576C72.2687 7.576 70.9727 8.904 68.3807 9.56L70.9007 13.76C71.8447 15.344 72.8367 16.224 73.8767 16.4V17C73.7487 17.064 73.5167 17.12 73.1807 17.168C72.8447 17.216 72.5327 17.24 72.2447 17.24ZM65.6687 8.792C66.5647 8.792 67.3247 8.528 67.9487 8C68.5887 7.456 68.9087 6.608 68.9087 5.456C68.9087 4.32 68.5967 3.48 67.9727 2.936C67.3487 2.392 66.6207 2.12 65.7887 2.12C65.3247 2.12 64.9647 2.152 64.7087 2.216L64.2287 2.288V8.792H65.6687ZM87.0338 17.24C86.1537 17.24 85.3537 16.984 84.6338 16.472C83.9138 15.944 83.1618 15.04 82.3778 13.76L79.9778 9.752H79.0178V17H75.8738V4.28C75.8738 3.464 75.7618 2.864 75.5378 2.48C75.3138 2.08 74.8658 1.88 74.1938 1.88H73.9538V1.16H80.5778C82.2418 1.16 83.7378 1.464 85.0658 2.072C86.3938 2.68 87.0578 3.848 87.0578 5.576C87.0578 7.576 85.7618 8.904 83.1698 9.56L85.6898 13.76C86.6338 15.344 87.6258 16.224 88.6658 16.4V17C88.5378 17.064 88.3058 17.12 87.9698 17.168C87.6338 17.216 87.3218 17.24 87.0338 17.24ZM80.4578 8.792C81.3538 8.792 82.1138 8.528 82.7378 8C83.3778 7.456 83.6978 6.608 83.6978 5.456C83.6978 4.32 83.3858 3.48 82.7618 2.936C82.1378 2.392 81.4098 2.12 80.5778 2.12C80.1138 2.12 79.7538 2.152 79.4978 2.216L79.0178 2.288V8.792H80.4578Z" fill="#2A72DE"/>
</svg>
