<svg width="17" height="17" viewBox="0 0 17 17" fill="none" xmlns="http://www.w3.org/2000/svg">
<g id="skill-icons:instagram" clip-path="url(#clip0_2755_29902)">
<g id="Group">
<path id="Vector" d="M12.916 0.848358H4.41602C2.34495 0.848358 0.666016 2.52729 0.666016 4.59836V13.0984C0.666016 15.1694 2.34495 16.8484 4.41602 16.8484H12.916C14.9871 16.8484 16.666 15.1694 16.666 13.0984V4.59836C16.666 2.52729 14.9871 0.848358 12.916 0.848358Z" fill="url(#paint0_radial_2755_29902)"/>
<path id="Vector_2" d="M12.916 0.848358H4.41602C2.34495 0.848358 0.666016 2.52729 0.666016 4.59836V13.0984C0.666016 15.1694 2.34495 16.8484 4.41602 16.8484H12.916C14.9871 16.8484 16.666 15.1694 16.666 13.0984V4.59836C16.666 2.52729 14.9871 0.848358 12.916 0.848358Z" fill="url(#paint1_radial_2755_29902)"/>
<path id="Vector_3" d="M8.66658 2.59824C6.9692 2.59824 6.75614 2.60567 6.08952 2.63599C5.42414 2.66649 4.96995 2.7718 4.57258 2.92636C4.16145 3.08599 3.81277 3.29955 3.46539 3.64705C3.1177 3.99449 2.90414 4.34317 2.74402 4.75411C2.58902 5.15161 2.48358 5.60599 2.45364 6.27105C2.42383 6.93774 2.41602 7.15086 2.41602 8.8483C2.41602 10.5457 2.42352 10.7581 2.45377 11.4247C2.48439 12.0901 2.5897 12.5443 2.74414 12.9417C2.90389 13.3528 3.11745 13.7015 3.46495 14.0489C3.81227 14.3965 4.16095 14.6106 4.57177 14.7702C4.96945 14.9248 5.4237 15.0301 6.08895 15.0606C6.75564 15.0909 6.96852 15.0984 8.66583 15.0984C10.3634 15.0984 10.5758 15.0909 11.2424 15.0606C11.9078 15.0301 12.3625 14.9248 12.7601 14.7702C13.1711 14.6106 13.5193 14.3965 13.8665 14.0489C14.2142 13.7015 14.4277 13.3528 14.5879 12.9419C14.7415 12.5443 14.847 12.09 14.8783 11.4249C14.9082 10.7582 14.916 10.5457 14.916 8.8483C14.916 7.15086 14.9082 6.93786 14.8783 6.27117C14.847 5.6058 14.7415 5.15167 14.5879 4.7543C14.4277 4.34317 14.2142 3.99449 13.8665 3.64705C13.5189 3.29942 13.1712 3.08586 12.7598 2.92642C12.3613 2.7718 11.9069 2.66642 11.2415 2.63599C10.5748 2.60567 10.3626 2.59824 8.66464 2.59824H8.66658ZM8.10589 3.72455C8.27233 3.7243 8.45802 3.72455 8.66658 3.72455C10.3354 3.72455 10.5331 3.73055 11.1921 3.76049C11.8015 3.78836 12.1323 3.89017 12.3526 3.97574C12.6443 4.08899 12.8522 4.22442 13.0708 4.44324C13.2896 4.66199 13.425 4.8703 13.5385 5.16199C13.6241 5.38199 13.726 5.71274 13.7538 6.32211C13.7837 6.98099 13.7902 7.17886 13.7902 8.84686C13.7902 10.5149 13.7837 10.7128 13.7538 11.3716C13.7259 11.981 13.6241 12.3117 13.5385 12.5318C13.4253 12.8235 13.2896 13.0312 13.0708 13.2498C12.8521 13.4685 12.6444 13.6039 12.3526 13.7172C12.1325 13.8032 11.8015 13.9047 11.1921 13.9326C10.5333 13.9625 10.3354 13.969 8.66658 13.969C6.9977 13.969 6.79989 13.9625 6.14108 13.9326C5.5317 13.9045 5.20095 13.8027 4.98045 13.7171C4.68883 13.6038 4.48045 13.4684 4.2617 13.2497C4.04295 13.0309 3.90758 12.8231 3.79402 12.5313C3.70845 12.3112 3.60652 11.9805 3.57877 11.3711C3.54883 10.7122 3.54283 10.5144 3.54283 8.8453C3.54283 7.1763 3.54883 6.97942 3.57877 6.32055C3.60664 5.71117 3.70845 5.38042 3.79402 5.16011C3.90733 4.86842 4.04295 4.66011 4.26177 4.44136C4.48052 4.22261 4.68883 4.08717 4.98052 3.97367C5.20083 3.88774 5.5317 3.78617 6.14108 3.75817C6.71764 3.73211 6.94108 3.7243 8.10589 3.72299V3.72455ZM12.0028 4.7623C11.5888 4.7623 11.2528 5.09792 11.2528 5.51205C11.2528 5.92611 11.5888 6.26205 12.0028 6.26205C12.4169 6.26205 12.7528 5.92611 12.7528 5.51205C12.7528 5.09799 12.4169 4.76205 12.0028 4.76205V4.7623ZM8.66658 5.63861C6.89408 5.63861 5.45695 7.07574 5.45695 8.8483C5.45695 10.6209 6.89408 12.0573 8.66658 12.0573C10.4391 12.0573 11.8758 10.6209 11.8758 8.8483C11.8758 7.0758 10.439 5.63861 8.66645 5.63861H8.66658ZM8.66658 6.76492C9.81714 6.76492 10.75 7.69761 10.75 8.8483C10.75 9.99886 9.81714 10.9317 8.66658 10.9317C7.51595 10.9317 6.58327 9.99886 6.58327 8.8483C6.58327 7.69761 7.51595 6.76492 8.66658 6.76492Z" fill="#D5D5D5"/>
</g>
</g>
<defs>
<radialGradient id="paint0_radial_2755_29902" cx="0" cy="0" r="1" gradientUnits="userSpaceOnUse" gradientTransform="translate(4.91602 18.0807) rotate(-90) scale(15.8572 14.7484)">
<stop stop-color="#FFDD55"/>
<stop offset="0.1" stop-color="#FFDD55"/>
<stop offset="0.5" stop-color="#FF543E"/>
<stop offset="1" stop-color="#C837AB"/>
</radialGradient>
<radialGradient id="paint1_radial_2755_29902" cx="0" cy="0" r="1" gradientUnits="userSpaceOnUse" gradientTransform="translate(-2.01405 2.00092) rotate(78.681) scale(7.08825 29.218)">
<stop stop-color="#3771C8"/>
<stop offset="0.128" stop-color="#3771C8"/>
<stop offset="1" stop-color="#6600FF" stop-opacity="0"/>
</radialGradient>
<clipPath id="clip0_2755_29902">
<rect width="16" height="16" fill="white" transform="translate(0.667969 0.848358)"/>
</clipPath>
</defs>
</svg>
