<svg width="18" height="18" viewBox="0 0 18 18" fill="none" xmlns="http://www.w3.org/2000/svg">
<path d="M16.4654 7.07687C16.4155 6.91097 16.2845 6.79247 16.1255 6.76539L11.3863 6.03409L9.25359 1.37883C9.18187 1.22309 9.03533 1.12491 8.87632 1.12491C8.7173 1.12491 8.57076 1.22309 8.49905 1.38222L6.39444 6.05102L1.65517 6.81617C1.49615 6.84326 1.3652 6.96175 1.31531 7.12765C1.26542 7.29355 1.30908 7.47637 1.42444 7.59487L4.86353 11.2141L4.06845 16.34C4.04039 16.5126 4.10587 16.6853 4.23682 16.7869C4.30853 16.8444 4.39584 16.8749 4.48314 16.8749C4.55173 16.8749 4.61721 16.858 4.67957 16.8207L8.91061 14.3865L13.1541 16.7937C13.2165 16.8275 13.282 16.8444 13.3474 16.8444C13.5782 16.8444 13.7684 16.6379 13.7684 16.3874C13.7684 16.3501 13.7652 16.3163 13.7559 16.2824L12.9359 11.187L16.3531 7.54747C16.4747 7.42559 16.5153 7.24276 16.4654 7.07687ZM12.1938 10.7029C12.094 10.8078 12.0504 10.9602 12.0753 11.1092L12.7893 15.5545L9.10393 13.4656C8.98233 13.3945 8.83578 13.3979 8.71107 13.4656L5.03813 15.5782L5.7272 11.1261C5.74902 10.9771 5.70537 10.8282 5.6056 10.7232L2.62485 7.58133L6.73741 6.91774C6.8746 6.89404 6.99308 6.80263 7.05232 6.6672L8.87943 2.61459L10.7315 6.65705C10.7938 6.79247 10.9123 6.88388 11.0495 6.90758L15.1652 7.54408L12.1938 10.7029Z" fill="#939292"/>
<path d="M12.1938 10.7029C12.094 10.8078 12.0504 10.9602 12.0753 11.1092L12.7893 15.5545L9.10393 13.4656C8.98233 13.3945 8.83578 13.3979 8.71107 13.4656L5.03813 15.5782L5.7272 11.1261C5.74902 10.9771 5.70537 10.8282 5.6056 10.7232L2.62485 7.58133L6.73741 6.91774C6.8746 6.89404 6.99308 6.80263 7.05232 6.6672L8.87943 2.61459L10.7315 6.65705C10.7938 6.79247 10.9123 6.88388 11.0495 6.90758L15.1652 7.54408L12.1938 10.7029Z" fill="#939292"/>
</svg>
