<svg width="40" height="46" viewBox="0 0 40 46" fill="none" xmlns="http://www.w3.org/2000/svg">
<path d="M12.5 5.05532C11.837 5.05532 11.2011 5.3213 10.7322 5.79475C10.2634 6.26819 10 6.91033 10 7.57988C10 8.24944 10.2634 8.89157 10.7322 9.36502C11.2011 9.83847 11.837 10.1044 12.5 10.1044C13.163 10.1044 13.7989 9.83847 14.2678 9.36502C14.7366 8.89157 15 8.24944 15 7.57988C15 6.91033 14.7366 6.26819 14.2678 5.79475C13.7989 5.3213 13.163 5.05532 12.5 5.05532ZM5.425 5.05532C5.9415 3.5771 6.89935 2.29706 8.1665 1.39164C9.43365 0.486221 10.9477 0 12.5 0C14.0523 0 15.5663 0.486221 16.8335 1.39164C18.1007 2.29706 19.0585 3.5771 19.575 5.05532H37.5C38.163 5.05532 38.7989 5.3213 39.2678 5.79475C39.7366 6.26819 40 6.91033 40 7.57988C40 8.24944 39.7366 8.89157 39.2678 9.36502C38.7989 9.83847 38.163 10.1044 37.5 10.1044H19.575C19.0585 11.5827 18.1007 12.8627 16.8335 13.7681C15.5663 14.6735 14.0523 15.1598 12.5 15.1598C10.9477 15.1598 9.43365 14.6735 8.1665 13.7681C6.89935 12.8627 5.9415 11.5827 5.425 10.1044H2.5C1.83696 10.1044 1.20107 9.83847 0.732234 9.36502C0.263393 8.89157 0 8.24944 0 7.57988C0 6.91033 0.263393 6.26819 0.732234 5.79475C1.20107 5.3213 1.83696 5.05532 2.5 5.05532H5.425ZM27.5 20.2027C26.837 20.2027 26.2011 20.4687 25.7322 20.9421C25.2634 21.4156 25 22.0577 25 22.7273C25 23.3968 25.2634 24.039 25.7322 24.5124C26.2011 24.9859 26.837 25.2518 27.5 25.2518C28.163 25.2518 28.7989 24.9859 29.2678 24.5124C29.7366 24.039 30 23.3968 30 22.7273C30 22.0577 29.7366 21.4156 29.2678 20.9421C28.7989 20.4687 28.163 20.2027 27.5 20.2027ZM20.425 20.2027C20.9415 18.7245 21.8993 17.4445 23.1665 16.539C24.4337 15.6336 25.9477 15.1474 27.5 15.1474C29.0523 15.1474 30.5663 15.6336 31.8335 16.539C33.1007 17.4445 34.0585 18.7245 34.575 20.2027H37.5C38.163 20.2027 38.7989 20.4687 39.2678 20.9421C39.7366 21.4156 40 22.0577 40 22.7273C40 23.3968 39.7366 24.039 39.2678 24.5124C38.7989 24.9859 38.163 25.2518 37.5 25.2518H34.575C34.0585 26.7301 33.1007 28.0101 31.8335 28.9155C30.5663 29.8209 29.0523 30.3072 27.5 30.3072C25.9477 30.3072 24.4337 29.8209 23.1665 28.9155C21.8993 28.0101 20.9415 26.7301 20.425 25.2518H2.5C1.83696 25.2518 1.20107 24.9859 0.732234 24.5124C0.263393 24.039 0 23.3968 0 22.7273C0 22.0577 0.263393 21.4156 0.732234 20.9421C1.20107 20.4687 1.83696 20.2027 2.5 20.2027H20.425ZM12.5 35.3501C11.837 35.3501 11.2011 35.6161 10.7322 36.0895C10.2634 36.563 10 37.2051 10 37.8747C10 38.5442 10.2634 39.1864 10.7322 39.6598C11.2011 40.1333 11.837 40.3992 12.5 40.3992C13.163 40.3992 13.7989 40.1333 14.2678 39.6598C14.7366 39.1864 15 38.5442 15 37.8747C15 37.2051 14.7366 36.563 14.2678 36.0895C13.7989 35.6161 13.163 35.3501 12.5 35.3501ZM5.425 35.3501C5.9415 33.8719 6.89935 32.5918 8.1665 31.6864C9.43365 30.781 10.9477 30.2948 12.5 30.2948C14.0523 30.2948 15.5663 30.781 16.8335 31.6864C18.1007 32.5918 19.0585 33.8719 19.575 35.3501H37.5C38.163 35.3501 38.7989 35.6161 39.2678 36.0895C39.7366 36.563 40 37.2051 40 37.8747C40 38.5442 39.7366 39.1864 39.2678 39.6598C38.7989 40.1333 38.163 40.3992 37.5 40.3992H19.575C19.0585 41.8774 18.1007 43.1575 16.8335 44.0629C15.5663 44.9683 14.0523 45.4545 12.5 45.4545C10.9477 45.4545 9.43365 44.9683 8.1665 44.0629C6.89935 43.1575 5.9415 41.8774 5.425 40.3992H2.5C1.83696 40.3992 1.20107 40.1333 0.732234 39.6598C0.263393 39.1864 0 38.5442 0 37.8747C0 37.2051 0.263393 36.563 0.732234 36.0895C1.20107 35.6161 1.83696 35.3501 2.5 35.3501H5.425Z" fill="#828282"/>
</svg>
