<svg width="80" height="81" viewBox="0 0 80 81" fill="none" xmlns="http://www.w3.org/2000/svg">
<g filter="url(#filter0_d_6204_24122)">
<path d="M56.6667 35.7422V24.0756C56.6667 22.2422 55.1667 20.7422 53.3333 20.7422H13.3333C11.5 20.7422 10 22.2422 10 24.0756V57.4089C10 59.2422 11.5 60.7422 13.3333 60.7422H53.3333C55.1667 60.7422 56.6667 59.2422 56.6667 57.4089V45.7422L64.3 53.3756C66.4 55.4756 70 53.9756 70 51.0089V30.4422C70 27.4756 66.4 25.9756 64.3 28.0756L56.6667 35.7422ZM43.3333 44.0756H36.6667V50.7422C36.6667 52.5756 35.1667 54.0756 33.3333 54.0756C31.5 54.0756 30 52.5756 30 50.7422V44.0756H23.3333C21.5 44.0756 20 42.5756 20 40.7422C20 38.9089 21.5 37.4089 23.3333 37.4089H30V30.7422C30 28.9089 31.5 27.4089 33.3333 27.4089C35.1667 27.4089 36.6667 28.9089 36.6667 30.7422V37.4089H43.3333C45.1667 37.4089 46.6667 38.9089 46.6667 40.7422C46.6667 42.5756 45.1667 44.0756 43.3333 44.0756Z" fill="#2A72DE" fill-opacity="0.35" shape-rendering="crispEdges"/>
</g>
<defs>
<filter id="filter0_d_6204_24122" x="7" y="19.7422" width="66" height="46" filterUnits="userSpaceOnUse" color-interpolation-filters="sRGB">
<feFlood flood-opacity="0" result="BackgroundImageFix"/>
<feColorMatrix in="SourceAlpha" type="matrix" values="0 0 0 0 0 0 0 0 0 0 0 0 0 0 0 0 0 0 127 0" result="hardAlpha"/>
<feOffset dy="2"/>
<feGaussianBlur stdDeviation="1.5"/>
<feComposite in2="hardAlpha" operator="out"/>
<feColorMatrix type="matrix" values="0 0 0 0 0 0 0 0 0 0 0 0 0 0 0 0 0 0 0.25 0"/>
<feBlend mode="normal" in2="BackgroundImageFix" result="effect1_dropShadow_6204_24122"/>
<feBlend mode="normal" in="SourceGraphic" in2="effect1_dropShadow_6204_24122" result="shape"/>
</filter>
</defs>
</svg>
